%TF.GenerationSoftware,KiCad,Pcbnew,5.1.6*%
%TF.CreationDate,2020-06-12T20:58:39-07:00*%
%TF.ProjectId,pcb-lab-1,7063622d-6c61-4622-9d31-2e6b69636164,rev?*%
%TF.SameCoordinates,Original*%
%TF.FileFunction,Copper,L2,Bot*%
%TF.FilePolarity,Positive*%
%FSLAX46Y46*%
G04 Gerber Fmt 4.6, Leading zero omitted, Abs format (unit mm)*
G04 Created by KiCad (PCBNEW 5.1.6) date 2020-06-12 20:58:39*
%MOMM*%
%LPD*%
G01*
G04 APERTURE LIST*
%TA.AperFunction,ComponentPad*%
%ADD10C,2.286000*%
%TD*%
%TA.AperFunction,ComponentPad*%
%ADD11C,1.500000*%
%TD*%
%TA.AperFunction,ComponentPad*%
%ADD12O,1.778000X1.397000*%
%TD*%
%TA.AperFunction,ViaPad*%
%ADD13C,0.762000*%
%TD*%
%TA.AperFunction,ViaPad*%
%ADD14C,0.711200*%
%TD*%
%TA.AperFunction,Conductor*%
%ADD15C,0.406400*%
%TD*%
%TA.AperFunction,Conductor*%
%ADD16C,0.304800*%
%TD*%
%TA.AperFunction,Conductor*%
%ADD17C,0.254000*%
%TD*%
G04 APERTURE END LIST*
D10*
%TO.P,BT1,1*%
%TO.N,VBAT*%
X114024000Y-74500000D03*
X110976000Y-74500000D03*
X114024000Y-95328000D03*
X110976000Y-95328000D03*
%TD*%
%TO.P,J1,1*%
%TO.N,VBAT*%
%TA.AperFunction,ComponentPad*%
G36*
G01*
X115150000Y-98635000D02*
X115150000Y-99485000D01*
G75*
G02*
X114725000Y-99910000I-425000J0D01*
G01*
X113875000Y-99910000D01*
G75*
G02*
X113450000Y-99485000I0J425000D01*
G01*
X113450000Y-98635000D01*
G75*
G02*
X113875000Y-98210000I425000J0D01*
G01*
X114725000Y-98210000D01*
G75*
G02*
X115150000Y-98635000I0J-425000D01*
G01*
G37*
%TD.AperFunction*%
%TO.P,J1,2*%
%TO.N,GND*%
%TA.AperFunction,ComponentPad*%
G36*
G01*
X115150000Y-101175000D02*
X115150000Y-102025000D01*
G75*
G02*
X114725000Y-102450000I-425000J0D01*
G01*
X113875000Y-102450000D01*
G75*
G02*
X113450000Y-102025000I0J425000D01*
G01*
X113450000Y-101175000D01*
G75*
G02*
X113875000Y-100750000I425000J0D01*
G01*
X114725000Y-100750000D01*
G75*
G02*
X115150000Y-101175000I0J-425000D01*
G01*
G37*
%TD.AperFunction*%
%TD*%
D11*
%TO.P,J2,1*%
%TO.N,Net-(J2-Pad1)*%
X162700000Y-90000000D03*
%TD*%
%TO.P,J18,1*%
%TO.N,5V*%
%TA.AperFunction,ComponentPad*%
G36*
G01*
X196430000Y-75775000D02*
X196430000Y-76625000D01*
G75*
G02*
X196005000Y-77050000I-425000J0D01*
G01*
X195155000Y-77050000D01*
G75*
G02*
X194730000Y-76625000I0J425000D01*
G01*
X194730000Y-75775000D01*
G75*
G02*
X195155000Y-75350000I425000J0D01*
G01*
X196005000Y-75350000D01*
G75*
G02*
X196430000Y-75775000I0J-425000D01*
G01*
G37*
%TD.AperFunction*%
%TO.P,J18,2*%
%TO.N,GND*%
%TA.AperFunction,ComponentPad*%
G36*
G01*
X196430000Y-78315000D02*
X196430000Y-79165000D01*
G75*
G02*
X196005000Y-79590000I-425000J0D01*
G01*
X195155000Y-79590000D01*
G75*
G02*
X194730000Y-79165000I0J425000D01*
G01*
X194730000Y-78315000D01*
G75*
G02*
X195155000Y-77890000I425000J0D01*
G01*
X196005000Y-77890000D01*
G75*
G02*
X196430000Y-78315000I0J-425000D01*
G01*
G37*
%TD.AperFunction*%
%TO.P,J18,3*%
%TO.N,RX*%
%TA.AperFunction,ComponentPad*%
G36*
G01*
X196430000Y-80855000D02*
X196430000Y-81705000D01*
G75*
G02*
X196005000Y-82130000I-425000J0D01*
G01*
X195155000Y-82130000D01*
G75*
G02*
X194730000Y-81705000I0J425000D01*
G01*
X194730000Y-80855000D01*
G75*
G02*
X195155000Y-80430000I425000J0D01*
G01*
X196005000Y-80430000D01*
G75*
G02*
X196430000Y-80855000I0J-425000D01*
G01*
G37*
%TD.AperFunction*%
%TO.P,J18,4*%
%TO.N,TX*%
%TA.AperFunction,ComponentPad*%
G36*
G01*
X196430000Y-83395000D02*
X196430000Y-84245000D01*
G75*
G02*
X196005000Y-84670000I-425000J0D01*
G01*
X195155000Y-84670000D01*
G75*
G02*
X194730000Y-84245000I0J425000D01*
G01*
X194730000Y-83395000D01*
G75*
G02*
X195155000Y-82970000I425000J0D01*
G01*
X196005000Y-82970000D01*
G75*
G02*
X196430000Y-83395000I0J-425000D01*
G01*
G37*
%TD.AperFunction*%
%TD*%
%TO.P,J20,1*%
%TO.N,5V*%
%TA.AperFunction,ComponentPad*%
G36*
G01*
X196430000Y-91015000D02*
X196430000Y-91865000D01*
G75*
G02*
X196005000Y-92290000I-425000J0D01*
G01*
X195155000Y-92290000D01*
G75*
G02*
X194730000Y-91865000I0J425000D01*
G01*
X194730000Y-91015000D01*
G75*
G02*
X195155000Y-90590000I425000J0D01*
G01*
X196005000Y-90590000D01*
G75*
G02*
X196430000Y-91015000I0J-425000D01*
G01*
G37*
%TD.AperFunction*%
%TO.P,J20,2*%
%TO.N,GND*%
%TA.AperFunction,ComponentPad*%
G36*
G01*
X196430000Y-93555000D02*
X196430000Y-94405000D01*
G75*
G02*
X196005000Y-94830000I-425000J0D01*
G01*
X195155000Y-94830000D01*
G75*
G02*
X194730000Y-94405000I0J425000D01*
G01*
X194730000Y-93555000D01*
G75*
G02*
X195155000Y-93130000I425000J0D01*
G01*
X196005000Y-93130000D01*
G75*
G02*
X196430000Y-93555000I0J-425000D01*
G01*
G37*
%TD.AperFunction*%
%TO.P,J20,3*%
%TO.N,Net-(J20-Pad3)*%
%TA.AperFunction,ComponentPad*%
G36*
G01*
X196430000Y-96095000D02*
X196430000Y-96945000D01*
G75*
G02*
X196005000Y-97370000I-425000J0D01*
G01*
X195155000Y-97370000D01*
G75*
G02*
X194730000Y-96945000I0J425000D01*
G01*
X194730000Y-96095000D01*
G75*
G02*
X195155000Y-95670000I425000J0D01*
G01*
X196005000Y-95670000D01*
G75*
G02*
X196430000Y-96095000I0J-425000D01*
G01*
G37*
%TD.AperFunction*%
%TD*%
%TO.P,JD1,4*%
%TO.N,GND*%
%TA.AperFunction,ComponentPad*%
G36*
G01*
X125310000Y-80855000D02*
X125310000Y-81705000D01*
G75*
G02*
X124885000Y-82130000I-425000J0D01*
G01*
X124035000Y-82130000D01*
G75*
G02*
X123610000Y-81705000I0J425000D01*
G01*
X123610000Y-80855000D01*
G75*
G02*
X124035000Y-80430000I425000J0D01*
G01*
X124885000Y-80430000D01*
G75*
G02*
X125310000Y-80855000I0J-425000D01*
G01*
G37*
%TD.AperFunction*%
%TO.P,JD1,3*%
%TO.N,VBAT*%
%TA.AperFunction,ComponentPad*%
G36*
G01*
X125310000Y-78315000D02*
X125310000Y-79165000D01*
G75*
G02*
X124885000Y-79590000I-425000J0D01*
G01*
X124035000Y-79590000D01*
G75*
G02*
X123610000Y-79165000I0J425000D01*
G01*
X123610000Y-78315000D01*
G75*
G02*
X124035000Y-77890000I425000J0D01*
G01*
X124885000Y-77890000D01*
G75*
G02*
X125310000Y-78315000I0J-425000D01*
G01*
G37*
%TD.AperFunction*%
%TO.P,JD1,2*%
%TO.N,SCL*%
%TA.AperFunction,ComponentPad*%
G36*
G01*
X125310000Y-75775000D02*
X125310000Y-76625000D01*
G75*
G02*
X124885000Y-77050000I-425000J0D01*
G01*
X124035000Y-77050000D01*
G75*
G02*
X123610000Y-76625000I0J425000D01*
G01*
X123610000Y-75775000D01*
G75*
G02*
X124035000Y-75350000I425000J0D01*
G01*
X124885000Y-75350000D01*
G75*
G02*
X125310000Y-75775000I0J-425000D01*
G01*
G37*
%TD.AperFunction*%
%TO.P,JD1,1*%
%TO.N,SDA*%
%TA.AperFunction,ComponentPad*%
G36*
G01*
X125310000Y-73235000D02*
X125310000Y-74085000D01*
G75*
G02*
X124885000Y-74510000I-425000J0D01*
G01*
X124035000Y-74510000D01*
G75*
G02*
X123610000Y-74085000I0J425000D01*
G01*
X123610000Y-73235000D01*
G75*
G02*
X124035000Y-72810000I425000J0D01*
G01*
X124885000Y-72810000D01*
G75*
G02*
X125310000Y-73235000I0J-425000D01*
G01*
G37*
%TD.AperFunction*%
%TD*%
%TO.P,JP20,1*%
%TO.N,UPDI_2V5_A*%
%TA.AperFunction,ComponentPad*%
G36*
G01*
X165950000Y-91015000D02*
X165950000Y-91865000D01*
G75*
G02*
X165525000Y-92290000I-425000J0D01*
G01*
X164675000Y-92290000D01*
G75*
G02*
X164250000Y-91865000I0J425000D01*
G01*
X164250000Y-91015000D01*
G75*
G02*
X164675000Y-90590000I425000J0D01*
G01*
X165525000Y-90590000D01*
G75*
G02*
X165950000Y-91015000I0J-425000D01*
G01*
G37*
%TD.AperFunction*%
%TO.P,JP20,2*%
%TO.N,UPDI_2V5*%
%TA.AperFunction,ComponentPad*%
G36*
G01*
X165950000Y-93555000D02*
X165950000Y-94405000D01*
G75*
G02*
X165525000Y-94830000I-425000J0D01*
G01*
X164675000Y-94830000D01*
G75*
G02*
X164250000Y-94405000I0J425000D01*
G01*
X164250000Y-93555000D01*
G75*
G02*
X164675000Y-93130000I425000J0D01*
G01*
X165525000Y-93130000D01*
G75*
G02*
X165950000Y-93555000I0J-425000D01*
G01*
G37*
%TD.AperFunction*%
%TO.P,JP20,3*%
%TO.N,UPDI_2V5_B*%
%TA.AperFunction,ComponentPad*%
G36*
G01*
X165950000Y-96095000D02*
X165950000Y-96945000D01*
G75*
G02*
X165525000Y-97370000I-425000J0D01*
G01*
X164675000Y-97370000D01*
G75*
G02*
X164250000Y-96945000I0J425000D01*
G01*
X164250000Y-96095000D01*
G75*
G02*
X164675000Y-95670000I425000J0D01*
G01*
X165525000Y-95670000D01*
G75*
G02*
X165950000Y-96095000I0J-425000D01*
G01*
G37*
%TD.AperFunction*%
%TD*%
%TO.P,JP21,1*%
%TO.N,UPDI_A*%
%TA.AperFunction,ComponentPad*%
G36*
G01*
X188810000Y-91015000D02*
X188810000Y-91865000D01*
G75*
G02*
X188385000Y-92290000I-425000J0D01*
G01*
X187535000Y-92290000D01*
G75*
G02*
X187110000Y-91865000I0J425000D01*
G01*
X187110000Y-91015000D01*
G75*
G02*
X187535000Y-90590000I425000J0D01*
G01*
X188385000Y-90590000D01*
G75*
G02*
X188810000Y-91015000I0J-425000D01*
G01*
G37*
%TD.AperFunction*%
%TO.P,JP21,2*%
%TO.N,UPDI*%
%TA.AperFunction,ComponentPad*%
G36*
G01*
X188810000Y-93555000D02*
X188810000Y-94405000D01*
G75*
G02*
X188385000Y-94830000I-425000J0D01*
G01*
X187535000Y-94830000D01*
G75*
G02*
X187110000Y-94405000I0J425000D01*
G01*
X187110000Y-93555000D01*
G75*
G02*
X187535000Y-93130000I425000J0D01*
G01*
X188385000Y-93130000D01*
G75*
G02*
X188810000Y-93555000I0J-425000D01*
G01*
G37*
%TD.AperFunction*%
%TO.P,JP21,3*%
%TO.N,UPDI_B*%
%TA.AperFunction,ComponentPad*%
G36*
G01*
X188810000Y-96095000D02*
X188810000Y-96945000D01*
G75*
G02*
X188385000Y-97370000I-425000J0D01*
G01*
X187535000Y-97370000D01*
G75*
G02*
X187110000Y-96945000I0J425000D01*
G01*
X187110000Y-96095000D01*
G75*
G02*
X187535000Y-95670000I425000J0D01*
G01*
X188385000Y-95670000D01*
G75*
G02*
X188810000Y-96095000I0J-425000D01*
G01*
G37*
%TD.AperFunction*%
%TD*%
%TO.P,JP30,1*%
%TO.N,SCL_2V5_A*%
%TA.AperFunction,ComponentPad*%
G36*
G01*
X143090000Y-96095000D02*
X143090000Y-96945000D01*
G75*
G02*
X142665000Y-97370000I-425000J0D01*
G01*
X141815000Y-97370000D01*
G75*
G02*
X141390000Y-96945000I0J425000D01*
G01*
X141390000Y-96095000D01*
G75*
G02*
X141815000Y-95670000I425000J0D01*
G01*
X142665000Y-95670000D01*
G75*
G02*
X143090000Y-96095000I0J-425000D01*
G01*
G37*
%TD.AperFunction*%
%TO.P,JP30,2*%
%TO.N,SCL_2V5*%
%TA.AperFunction,ComponentPad*%
G36*
G01*
X143090000Y-98635000D02*
X143090000Y-99485000D01*
G75*
G02*
X142665000Y-99910000I-425000J0D01*
G01*
X141815000Y-99910000D01*
G75*
G02*
X141390000Y-99485000I0J425000D01*
G01*
X141390000Y-98635000D01*
G75*
G02*
X141815000Y-98210000I425000J0D01*
G01*
X142665000Y-98210000D01*
G75*
G02*
X143090000Y-98635000I0J-425000D01*
G01*
G37*
%TD.AperFunction*%
%TO.P,JP30,3*%
%TO.N,SCL_2V5_B*%
%TA.AperFunction,ComponentPad*%
G36*
G01*
X143090000Y-101175000D02*
X143090000Y-102025000D01*
G75*
G02*
X142665000Y-102450000I-425000J0D01*
G01*
X141815000Y-102450000D01*
G75*
G02*
X141390000Y-102025000I0J425000D01*
G01*
X141390000Y-101175000D01*
G75*
G02*
X141815000Y-100750000I425000J0D01*
G01*
X142665000Y-100750000D01*
G75*
G02*
X143090000Y-101175000I0J-425000D01*
G01*
G37*
%TD.AperFunction*%
%TD*%
%TO.P,JP31,3*%
%TO.N,SDA_2V5_B*%
%TA.AperFunction,ComponentPad*%
G36*
G01*
X145630000Y-101175000D02*
X145630000Y-102025000D01*
G75*
G02*
X145205000Y-102450000I-425000J0D01*
G01*
X144355000Y-102450000D01*
G75*
G02*
X143930000Y-102025000I0J425000D01*
G01*
X143930000Y-101175000D01*
G75*
G02*
X144355000Y-100750000I425000J0D01*
G01*
X145205000Y-100750000D01*
G75*
G02*
X145630000Y-101175000I0J-425000D01*
G01*
G37*
%TD.AperFunction*%
%TO.P,JP31,2*%
%TO.N,SDA_2V5*%
%TA.AperFunction,ComponentPad*%
G36*
G01*
X145630000Y-98635000D02*
X145630000Y-99485000D01*
G75*
G02*
X145205000Y-99910000I-425000J0D01*
G01*
X144355000Y-99910000D01*
G75*
G02*
X143930000Y-99485000I0J425000D01*
G01*
X143930000Y-98635000D01*
G75*
G02*
X144355000Y-98210000I425000J0D01*
G01*
X145205000Y-98210000D01*
G75*
G02*
X145630000Y-98635000I0J-425000D01*
G01*
G37*
%TD.AperFunction*%
%TO.P,JP31,1*%
%TO.N,SDA_2V5_A*%
%TA.AperFunction,ComponentPad*%
G36*
G01*
X145630000Y-96095000D02*
X145630000Y-96945000D01*
G75*
G02*
X145205000Y-97370000I-425000J0D01*
G01*
X144355000Y-97370000D01*
G75*
G02*
X143930000Y-96945000I0J425000D01*
G01*
X143930000Y-96095000D01*
G75*
G02*
X144355000Y-95670000I425000J0D01*
G01*
X145205000Y-95670000D01*
G75*
G02*
X145630000Y-96095000I0J-425000D01*
G01*
G37*
%TD.AperFunction*%
%TD*%
%TO.P,JP32,3*%
%TO.N,SCL_B*%
%TA.AperFunction,ComponentPad*%
G36*
G01*
X127850000Y-101175000D02*
X127850000Y-102025000D01*
G75*
G02*
X127425000Y-102450000I-425000J0D01*
G01*
X126575000Y-102450000D01*
G75*
G02*
X126150000Y-102025000I0J425000D01*
G01*
X126150000Y-101175000D01*
G75*
G02*
X126575000Y-100750000I425000J0D01*
G01*
X127425000Y-100750000D01*
G75*
G02*
X127850000Y-101175000I0J-425000D01*
G01*
G37*
%TD.AperFunction*%
%TO.P,JP32,2*%
%TO.N,SCL*%
%TA.AperFunction,ComponentPad*%
G36*
G01*
X127850000Y-98635000D02*
X127850000Y-99485000D01*
G75*
G02*
X127425000Y-99910000I-425000J0D01*
G01*
X126575000Y-99910000D01*
G75*
G02*
X126150000Y-99485000I0J425000D01*
G01*
X126150000Y-98635000D01*
G75*
G02*
X126575000Y-98210000I425000J0D01*
G01*
X127425000Y-98210000D01*
G75*
G02*
X127850000Y-98635000I0J-425000D01*
G01*
G37*
%TD.AperFunction*%
%TO.P,JP32,1*%
%TO.N,SCL_A*%
%TA.AperFunction,ComponentPad*%
G36*
G01*
X127850000Y-96095000D02*
X127850000Y-96945000D01*
G75*
G02*
X127425000Y-97370000I-425000J0D01*
G01*
X126575000Y-97370000D01*
G75*
G02*
X126150000Y-96945000I0J425000D01*
G01*
X126150000Y-96095000D01*
G75*
G02*
X126575000Y-95670000I425000J0D01*
G01*
X127425000Y-95670000D01*
G75*
G02*
X127850000Y-96095000I0J-425000D01*
G01*
G37*
%TD.AperFunction*%
%TD*%
%TO.P,JP33,3*%
%TO.N,SDA_B*%
%TA.AperFunction,ComponentPad*%
G36*
G01*
X125310000Y-101175000D02*
X125310000Y-102025000D01*
G75*
G02*
X124885000Y-102450000I-425000J0D01*
G01*
X124035000Y-102450000D01*
G75*
G02*
X123610000Y-102025000I0J425000D01*
G01*
X123610000Y-101175000D01*
G75*
G02*
X124035000Y-100750000I425000J0D01*
G01*
X124885000Y-100750000D01*
G75*
G02*
X125310000Y-101175000I0J-425000D01*
G01*
G37*
%TD.AperFunction*%
%TO.P,JP33,2*%
%TO.N,SDA*%
%TA.AperFunction,ComponentPad*%
G36*
G01*
X125310000Y-98635000D02*
X125310000Y-99485000D01*
G75*
G02*
X124885000Y-99910000I-425000J0D01*
G01*
X124035000Y-99910000D01*
G75*
G02*
X123610000Y-99485000I0J425000D01*
G01*
X123610000Y-98635000D01*
G75*
G02*
X124035000Y-98210000I425000J0D01*
G01*
X124885000Y-98210000D01*
G75*
G02*
X125310000Y-98635000I0J-425000D01*
G01*
G37*
%TD.AperFunction*%
%TO.P,JP33,1*%
%TO.N,SDA_A*%
%TA.AperFunction,ComponentPad*%
G36*
G01*
X125310000Y-96095000D02*
X125310000Y-96945000D01*
G75*
G02*
X124885000Y-97370000I-425000J0D01*
G01*
X124035000Y-97370000D01*
G75*
G02*
X123610000Y-96945000I0J425000D01*
G01*
X123610000Y-96095000D01*
G75*
G02*
X124035000Y-95670000I425000J0D01*
G01*
X124885000Y-95670000D01*
G75*
G02*
X125310000Y-96095000I0J-425000D01*
G01*
G37*
%TD.AperFunction*%
%TD*%
D12*
%TO.P,JST_PH_BAT1,2*%
%TO.N,GND*%
X110500000Y-101500000D03*
%TO.P,JST_PH_BAT1,1*%
%TO.N,VBAT*%
%TA.AperFunction,ComponentPad*%
G36*
G01*
X109960250Y-98801500D02*
X111039750Y-98801500D01*
G75*
G02*
X111389000Y-99150750I0J-349250D01*
G01*
X111389000Y-99849250D01*
G75*
G02*
X111039750Y-100198500I-349250J0D01*
G01*
X109960250Y-100198500D01*
G75*
G02*
X109611000Y-99849250I0J349250D01*
G01*
X109611000Y-99150750D01*
G75*
G02*
X109960250Y-98801500I349250J0D01*
G01*
G37*
%TD.AperFunction*%
%TD*%
%TO.P,J10,1*%
%TO.N,RX_2V5_A*%
%TA.AperFunction,ComponentPad*%
G36*
G01*
X168490000Y-75775000D02*
X168490000Y-76625000D01*
G75*
G02*
X168065000Y-77050000I-425000J0D01*
G01*
X167215000Y-77050000D01*
G75*
G02*
X166790000Y-76625000I0J425000D01*
G01*
X166790000Y-75775000D01*
G75*
G02*
X167215000Y-75350000I425000J0D01*
G01*
X168065000Y-75350000D01*
G75*
G02*
X168490000Y-75775000I0J-425000D01*
G01*
G37*
%TD.AperFunction*%
%TO.P,J10,2*%
%TO.N,RX_2V5*%
%TA.AperFunction,ComponentPad*%
G36*
G01*
X168490000Y-78315000D02*
X168490000Y-79165000D01*
G75*
G02*
X168065000Y-79590000I-425000J0D01*
G01*
X167215000Y-79590000D01*
G75*
G02*
X166790000Y-79165000I0J425000D01*
G01*
X166790000Y-78315000D01*
G75*
G02*
X167215000Y-77890000I425000J0D01*
G01*
X168065000Y-77890000D01*
G75*
G02*
X168490000Y-78315000I0J-425000D01*
G01*
G37*
%TD.AperFunction*%
%TO.P,J10,3*%
%TO.N,RX_2V5_B*%
%TA.AperFunction,ComponentPad*%
G36*
G01*
X168490000Y-80855000D02*
X168490000Y-81705000D01*
G75*
G02*
X168065000Y-82130000I-425000J0D01*
G01*
X167215000Y-82130000D01*
G75*
G02*
X166790000Y-81705000I0J425000D01*
G01*
X166790000Y-80855000D01*
G75*
G02*
X167215000Y-80430000I425000J0D01*
G01*
X168065000Y-80430000D01*
G75*
G02*
X168490000Y-80855000I0J-425000D01*
G01*
G37*
%TD.AperFunction*%
%TD*%
%TO.P,J11,3*%
%TO.N,TX_2V5_B*%
%TA.AperFunction,ComponentPad*%
G36*
G01*
X165950000Y-80855000D02*
X165950000Y-81705000D01*
G75*
G02*
X165525000Y-82130000I-425000J0D01*
G01*
X164675000Y-82130000D01*
G75*
G02*
X164250000Y-81705000I0J425000D01*
G01*
X164250000Y-80855000D01*
G75*
G02*
X164675000Y-80430000I425000J0D01*
G01*
X165525000Y-80430000D01*
G75*
G02*
X165950000Y-80855000I0J-425000D01*
G01*
G37*
%TD.AperFunction*%
%TO.P,J11,2*%
%TO.N,TX_2V5*%
%TA.AperFunction,ComponentPad*%
G36*
G01*
X165950000Y-78315000D02*
X165950000Y-79165000D01*
G75*
G02*
X165525000Y-79590000I-425000J0D01*
G01*
X164675000Y-79590000D01*
G75*
G02*
X164250000Y-79165000I0J425000D01*
G01*
X164250000Y-78315000D01*
G75*
G02*
X164675000Y-77890000I425000J0D01*
G01*
X165525000Y-77890000D01*
G75*
G02*
X165950000Y-78315000I0J-425000D01*
G01*
G37*
%TD.AperFunction*%
%TO.P,J11,1*%
%TO.N,TX_2V5_A*%
%TA.AperFunction,ComponentPad*%
G36*
G01*
X165950000Y-75775000D02*
X165950000Y-76625000D01*
G75*
G02*
X165525000Y-77050000I-425000J0D01*
G01*
X164675000Y-77050000D01*
G75*
G02*
X164250000Y-76625000I0J425000D01*
G01*
X164250000Y-75775000D01*
G75*
G02*
X164675000Y-75350000I425000J0D01*
G01*
X165525000Y-75350000D01*
G75*
G02*
X165950000Y-75775000I0J-425000D01*
G01*
G37*
%TD.AperFunction*%
%TD*%
%TO.P,J14,1*%
%TO.N,RX_A*%
%TA.AperFunction,ComponentPad*%
G36*
G01*
X188810000Y-75775000D02*
X188810000Y-76625000D01*
G75*
G02*
X188385000Y-77050000I-425000J0D01*
G01*
X187535000Y-77050000D01*
G75*
G02*
X187110000Y-76625000I0J425000D01*
G01*
X187110000Y-75775000D01*
G75*
G02*
X187535000Y-75350000I425000J0D01*
G01*
X188385000Y-75350000D01*
G75*
G02*
X188810000Y-75775000I0J-425000D01*
G01*
G37*
%TD.AperFunction*%
%TO.P,J14,2*%
%TO.N,RX*%
%TA.AperFunction,ComponentPad*%
G36*
G01*
X188810000Y-78315000D02*
X188810000Y-79165000D01*
G75*
G02*
X188385000Y-79590000I-425000J0D01*
G01*
X187535000Y-79590000D01*
G75*
G02*
X187110000Y-79165000I0J425000D01*
G01*
X187110000Y-78315000D01*
G75*
G02*
X187535000Y-77890000I425000J0D01*
G01*
X188385000Y-77890000D01*
G75*
G02*
X188810000Y-78315000I0J-425000D01*
G01*
G37*
%TD.AperFunction*%
%TO.P,J14,3*%
%TO.N,RX_B*%
%TA.AperFunction,ComponentPad*%
G36*
G01*
X188810000Y-80855000D02*
X188810000Y-81705000D01*
G75*
G02*
X188385000Y-82130000I-425000J0D01*
G01*
X187535000Y-82130000D01*
G75*
G02*
X187110000Y-81705000I0J425000D01*
G01*
X187110000Y-80855000D01*
G75*
G02*
X187535000Y-80430000I425000J0D01*
G01*
X188385000Y-80430000D01*
G75*
G02*
X188810000Y-80855000I0J-425000D01*
G01*
G37*
%TD.AperFunction*%
%TD*%
%TO.P,J15,3*%
%TO.N,TX_B*%
%TA.AperFunction,ComponentPad*%
G36*
G01*
X186270000Y-80855000D02*
X186270000Y-81705000D01*
G75*
G02*
X185845000Y-82130000I-425000J0D01*
G01*
X184995000Y-82130000D01*
G75*
G02*
X184570000Y-81705000I0J425000D01*
G01*
X184570000Y-80855000D01*
G75*
G02*
X184995000Y-80430000I425000J0D01*
G01*
X185845000Y-80430000D01*
G75*
G02*
X186270000Y-80855000I0J-425000D01*
G01*
G37*
%TD.AperFunction*%
%TO.P,J15,2*%
%TO.N,TX*%
%TA.AperFunction,ComponentPad*%
G36*
G01*
X186270000Y-78315000D02*
X186270000Y-79165000D01*
G75*
G02*
X185845000Y-79590000I-425000J0D01*
G01*
X184995000Y-79590000D01*
G75*
G02*
X184570000Y-79165000I0J425000D01*
G01*
X184570000Y-78315000D01*
G75*
G02*
X184995000Y-77890000I425000J0D01*
G01*
X185845000Y-77890000D01*
G75*
G02*
X186270000Y-78315000I0J-425000D01*
G01*
G37*
%TD.AperFunction*%
%TO.P,J15,1*%
%TO.N,TX_A*%
%TA.AperFunction,ComponentPad*%
G36*
G01*
X186270000Y-75775000D02*
X186270000Y-76625000D01*
G75*
G02*
X185845000Y-77050000I-425000J0D01*
G01*
X184995000Y-77050000D01*
G75*
G02*
X184570000Y-76625000I0J425000D01*
G01*
X184570000Y-75775000D01*
G75*
G02*
X184995000Y-75350000I425000J0D01*
G01*
X185845000Y-75350000D01*
G75*
G02*
X186270000Y-75775000I0J-425000D01*
G01*
G37*
%TD.AperFunction*%
%TD*%
%TO.P,JP1,1*%
%TO.N,VBAT*%
%TA.AperFunction,ComponentPad*%
G36*
G01*
X143090000Y-85935000D02*
X143090000Y-86785000D01*
G75*
G02*
X142665000Y-87210000I-425000J0D01*
G01*
X141815000Y-87210000D01*
G75*
G02*
X141390000Y-86785000I0J425000D01*
G01*
X141390000Y-85935000D01*
G75*
G02*
X141815000Y-85510000I425000J0D01*
G01*
X142665000Y-85510000D01*
G75*
G02*
X143090000Y-85935000I0J-425000D01*
G01*
G37*
%TD.AperFunction*%
%TO.P,JP1,2*%
%TO.N,Net-(JP1-Pad2)*%
%TA.AperFunction,ComponentPad*%
G36*
G01*
X143090000Y-88475000D02*
X143090000Y-89325000D01*
G75*
G02*
X142665000Y-89750000I-425000J0D01*
G01*
X141815000Y-89750000D01*
G75*
G02*
X141390000Y-89325000I0J425000D01*
G01*
X141390000Y-88475000D01*
G75*
G02*
X141815000Y-88050000I425000J0D01*
G01*
X142665000Y-88050000D01*
G75*
G02*
X143090000Y-88475000I0J-425000D01*
G01*
G37*
%TD.AperFunction*%
%TD*%
%TO.P,JP2,1*%
%TO.N,VBAT_ADC_A*%
%TA.AperFunction,ComponentPad*%
G36*
G01*
X155365000Y-88480000D02*
X154515000Y-88480000D01*
G75*
G02*
X154090000Y-88055000I0J425000D01*
G01*
X154090000Y-87205000D01*
G75*
G02*
X154515000Y-86780000I425000J0D01*
G01*
X155365000Y-86780000D01*
G75*
G02*
X155790000Y-87205000I0J-425000D01*
G01*
X155790000Y-88055000D01*
G75*
G02*
X155365000Y-88480000I-425000J0D01*
G01*
G37*
%TD.AperFunction*%
%TO.P,JP2,2*%
%TO.N,VBAT_ADC*%
%TA.AperFunction,ComponentPad*%
G36*
G01*
X152825000Y-88480000D02*
X151975000Y-88480000D01*
G75*
G02*
X151550000Y-88055000I0J425000D01*
G01*
X151550000Y-87205000D01*
G75*
G02*
X151975000Y-86780000I425000J0D01*
G01*
X152825000Y-86780000D01*
G75*
G02*
X153250000Y-87205000I0J-425000D01*
G01*
X153250000Y-88055000D01*
G75*
G02*
X152825000Y-88480000I-425000J0D01*
G01*
G37*
%TD.AperFunction*%
%TO.P,JP2,3*%
%TO.N,VBAT_ADC_B*%
%TA.AperFunction,ComponentPad*%
G36*
G01*
X150285000Y-88480000D02*
X149435000Y-88480000D01*
G75*
G02*
X149010000Y-88055000I0J425000D01*
G01*
X149010000Y-87205000D01*
G75*
G02*
X149435000Y-86780000I425000J0D01*
G01*
X150285000Y-86780000D01*
G75*
G02*
X150710000Y-87205000I0J-425000D01*
G01*
X150710000Y-88055000D01*
G75*
G02*
X150285000Y-88480000I-425000J0D01*
G01*
G37*
%TD.AperFunction*%
%TD*%
D13*
%TO.N,GND*%
X118000000Y-86000000D03*
X118000000Y-84000000D03*
X116000000Y-89000000D03*
X115000000Y-90000000D03*
X110000000Y-90000000D03*
X109000000Y-89000000D03*
X115000000Y-80000000D03*
X116000000Y-81000000D03*
X110000000Y-80000000D03*
X109000000Y-81000000D03*
X131136117Y-76788800D03*
X130300000Y-79100000D03*
X132700000Y-79100000D03*
X139000000Y-83200000D03*
X133700000Y-85500000D03*
X138900000Y-87600000D03*
X143000000Y-79800000D03*
X147000000Y-79800000D03*
X146800000Y-75900000D03*
X149200000Y-75900000D03*
X155800000Y-74500000D03*
X133300000Y-94500000D03*
X135700000Y-94500000D03*
X144200000Y-90400000D03*
X146900000Y-90100000D03*
X151600000Y-102100000D03*
X151700000Y-100200000D03*
X159300000Y-100200000D03*
X155500000Y-101400000D03*
X175300000Y-73500000D03*
X176200000Y-74500000D03*
X177700000Y-74500000D03*
X178600000Y-73500000D03*
X171800000Y-87900000D03*
X180199992Y-89000000D03*
X174000000Y-84700000D03*
X174200000Y-94200000D03*
X174300000Y-99600000D03*
X174200000Y-102000000D03*
X180700000Y-102900000D03*
X182000000Y-93800000D03*
D14*
%TO.N,2V5*%
X134000000Y-89750000D03*
D13*
X141750000Y-93500000D03*
X141750000Y-92500004D03*
X137500000Y-102400000D03*
X137500000Y-100000000D03*
X137800000Y-96099996D03*
X137000000Y-96900000D03*
D14*
X135299994Y-90999994D03*
D13*
X138500000Y-92700000D03*
X173600000Y-90500000D03*
X176000000Y-85500000D03*
X171700000Y-96900000D03*
X171700000Y-94000000D03*
X138500000Y-93999986D03*
%TO.N,5V*%
X178200000Y-85500000D03*
X177800000Y-83000000D03*
X182400000Y-87300000D03*
X179800000Y-100900000D03*
X179900000Y-99100000D03*
X179800359Y-93899561D03*
X179800000Y-95800000D03*
X192300000Y-82900000D03*
X191200000Y-81900000D03*
X191200000Y-78400000D03*
X192300000Y-79300000D03*
X182000000Y-91100000D03*
D14*
%TO.N,Net-(D1-Pad2)*%
X161996160Y-87382208D03*
X161000000Y-90200000D03*
%TO.N,Net-(D2-Pad2)*%
X161297719Y-86792013D03*
X160800000Y-89200000D03*
%TO.N,Net-(D3-Pad2)*%
X160700000Y-86100000D03*
X160300000Y-88300000D03*
%TO.N,RX_2V5*%
X154000000Y-81700000D03*
X159900000Y-80000000D03*
%TO.N,RX_2V5_B*%
X167700000Y-85100000D03*
X168800000Y-86200000D03*
%TO.N,TX_2V5*%
X159499994Y-78800000D03*
X154900000Y-79400000D03*
%TO.N,TX_2V5_B*%
X166900000Y-85800000D03*
X168100000Y-87000000D03*
%TO.N,RX_B*%
X184399998Y-89300000D03*
X182900000Y-89900000D03*
%TO.N,TX_B*%
X183600000Y-91200000D03*
X185200000Y-87200000D03*
%TO.N,VCTRL*%
X149585800Y-81500000D03*
X145000000Y-81800000D03*
%TO.N,Net-(SW1-Pad2)*%
X153000000Y-81500000D03*
X154600000Y-84000000D03*
X160800000Y-92100000D03*
X157700000Y-87800000D03*
%TO.N,VBAT_ADC_A*%
X151700000Y-85900000D03*
X149500000Y-85900000D03*
X146762000Y-83900000D03*
X143000000Y-83500000D03*
%TD*%
D15*
%TO.N,GND*%
X163700000Y-90711474D02*
X164000000Y-90411474D01*
X163700000Y-91000000D02*
X163700000Y-90711474D01*
X164000000Y-90400000D02*
X164100000Y-90300000D01*
X164000000Y-90411474D02*
X164000000Y-90400000D01*
D16*
X160100000Y-90400000D02*
X160900000Y-91200000D01*
D15*
X163300000Y-91600000D02*
X163700000Y-91200000D01*
X163700000Y-91000000D02*
X163700000Y-91200000D01*
X163200000Y-91600000D02*
X163300000Y-91600000D01*
X163700000Y-91200000D02*
X163700000Y-91700000D01*
X164000000Y-90411474D02*
X164000000Y-89500000D01*
X164000000Y-90411474D02*
X164000000Y-90200000D01*
X164000000Y-90411474D02*
X164000000Y-90100000D01*
X164000000Y-90100000D02*
X164500000Y-89600000D01*
%TO.N,VBAT*%
X114024000Y-74500000D02*
X118000000Y-74500000D01*
X122240000Y-78740000D02*
X124460000Y-78740000D01*
X118000000Y-74500000D02*
X122240000Y-78740000D01*
X109200000Y-74500000D02*
X110976000Y-74500000D01*
X106680000Y-77020000D02*
X109200000Y-74500000D01*
X106680000Y-93180000D02*
X106680000Y-77020000D01*
X110976000Y-95328000D02*
X108828000Y-95328000D01*
X108828000Y-95328000D02*
X106680000Y-93180000D01*
X110976000Y-74500000D02*
X114024000Y-74500000D01*
X110976000Y-95328000D02*
X114024000Y-95328000D01*
%TO.N,GND*%
X163700000Y-91700000D02*
X163400000Y-91700000D01*
X163700000Y-91700000D02*
X163700000Y-92200000D01*
X164400000Y-89500000D02*
X164500000Y-89600000D01*
X164000000Y-89500000D02*
X164400000Y-89500000D01*
X164500000Y-90100000D02*
X164700000Y-89900000D01*
X164000000Y-90100000D02*
X164500000Y-90100000D01*
X163700000Y-91200000D02*
X163100000Y-91200000D01*
X163100000Y-91200000D02*
X162900000Y-91400000D01*
%TO.N,2V5*%
X141749996Y-92500000D02*
X141750000Y-92500004D01*
X141000000Y-92500000D02*
X141749996Y-92500000D01*
X140500000Y-93000000D02*
X141000000Y-92500000D01*
X140500000Y-93000000D02*
X141000000Y-93500000D01*
X141000000Y-93500000D02*
X141750000Y-93500000D01*
X137500000Y-102400000D02*
X137500000Y-101800000D01*
X137500000Y-101800000D02*
X138500000Y-100800000D01*
X137500000Y-100000000D02*
X138400000Y-100000000D01*
X138500000Y-100800000D02*
X138500000Y-100100000D01*
X138400000Y-100000000D02*
X138500000Y-100100000D01*
X138500000Y-99900000D02*
X138400000Y-100000000D01*
X138500000Y-99900000D02*
X138500000Y-100100000D01*
X138500000Y-96799996D02*
X137800000Y-96099996D01*
X138500000Y-99900000D02*
X138500000Y-97500000D01*
X138500000Y-97500000D02*
X138500000Y-96799996D01*
X137600000Y-97500000D02*
X137000000Y-96900000D01*
X138500000Y-97500000D02*
X137600000Y-97500000D01*
D16*
X135249994Y-90999994D02*
X135299994Y-90999994D01*
X134000000Y-89750000D02*
X135249994Y-90999994D01*
D15*
X139400000Y-92700000D02*
X138500000Y-92700000D01*
X140500000Y-93000000D02*
X139700000Y-93000000D01*
X139700000Y-93000000D02*
X139400000Y-92700000D01*
X173600000Y-90500000D02*
X176000000Y-88100000D01*
X176000000Y-88100000D02*
X176000000Y-85500000D01*
X171700000Y-96900000D02*
X171700000Y-94000000D01*
X138880999Y-93618987D02*
X138500000Y-93999986D01*
X139381013Y-93618987D02*
X138880999Y-93618987D01*
X139700000Y-93000000D02*
X139700000Y-93300000D01*
X139700000Y-93300000D02*
X139381013Y-93618987D01*
%TO.N,5V*%
X178200000Y-85500000D02*
X178200000Y-83400000D01*
X178200000Y-83400000D02*
X177800000Y-83000000D01*
X179800359Y-95799641D02*
X179800000Y-95800000D01*
X179800359Y-93899561D02*
X179800359Y-95799641D01*
X179900000Y-100800000D02*
X179900000Y-99100000D01*
X179800000Y-100900000D02*
X179900000Y-100800000D01*
X191200000Y-81900000D02*
X191200000Y-78400000D01*
X192300000Y-82900000D02*
X192300000Y-79300000D01*
X182400000Y-87300000D02*
X182000000Y-87700000D01*
X182000000Y-87700000D02*
X182000000Y-91100000D01*
D17*
%TO.N,Net-(D1-Pad2)*%
X161000000Y-90101302D02*
X161000000Y-90200000D01*
X161900000Y-89201302D02*
X161000000Y-90101302D01*
X161996160Y-87382208D02*
X161900000Y-87478368D01*
X161900000Y-87478368D02*
X161900000Y-89201302D01*
%TO.N,Net-(D2-Pad2)*%
X161297719Y-86792013D02*
X161297719Y-88702281D01*
X161297719Y-88702281D02*
X160800000Y-89200000D01*
%TO.N,Net-(D3-Pad2)*%
X160700000Y-86100000D02*
X160300000Y-86500000D01*
X160300000Y-86500000D02*
X160300000Y-88300000D01*
%TO.N,RX_2V5*%
X154000000Y-81700000D02*
X155700000Y-80000000D01*
X155700000Y-80000000D02*
X159900000Y-80000000D01*
%TO.N,RX_2V5_B*%
X167700000Y-85100000D02*
X168800000Y-86200000D01*
%TO.N,TX_2V5*%
X159499994Y-78800000D02*
X155500000Y-78800000D01*
X155500000Y-78800000D02*
X154900000Y-79400000D01*
%TO.N,TX_2V5_B*%
X166900000Y-85800000D02*
X168100000Y-87000000D01*
%TO.N,RX_B*%
X183799998Y-89900000D02*
X182900000Y-89900000D01*
X184399998Y-89300000D02*
X183799998Y-89900000D01*
%TO.N,TX_B*%
X183600000Y-91200000D02*
X185000000Y-89800000D01*
X185000000Y-89800000D02*
X185200000Y-89600000D01*
X185200000Y-89600000D02*
X185200000Y-87200000D01*
%TO.N,VCTRL*%
X149585800Y-81500000D02*
X145300000Y-81500000D01*
X145300000Y-81500000D02*
X145000000Y-81800000D01*
%TO.N,Net-(SW1-Pad2)*%
X153000000Y-81500000D02*
X153000000Y-82400000D01*
X153000000Y-82400000D02*
X154600000Y-84000000D01*
X160800000Y-92100000D02*
X157700000Y-89000000D01*
X157700000Y-89000000D02*
X157700000Y-87800000D01*
%TO.N,VBAT_ADC_A*%
X151700000Y-85900000D02*
X149500000Y-85900000D01*
X146762000Y-83900000D02*
X143400000Y-83900000D01*
X143400000Y-83900000D02*
X143000000Y-83500000D01*
%TD*%
D15*
%TO.N,GND*%
G36*
X195702825Y-73039686D02*
G01*
X195820972Y-73075358D01*
X195929940Y-73133297D01*
X196025582Y-73211300D01*
X196104249Y-73306392D01*
X196162946Y-73414950D01*
X196199441Y-73532845D01*
X196215400Y-73684689D01*
X196215400Y-74759809D01*
X196207416Y-74757387D01*
X196005000Y-74737451D01*
X195155000Y-74737451D01*
X194952584Y-74757387D01*
X194757947Y-74816430D01*
X194578569Y-74912310D01*
X194421342Y-75041342D01*
X194292310Y-75198569D01*
X194196430Y-75377947D01*
X194137387Y-75572584D01*
X194117451Y-75775000D01*
X194117451Y-76625000D01*
X194137387Y-76827416D01*
X194196430Y-77022053D01*
X194292310Y-77201431D01*
X194358538Y-77282130D01*
X194332967Y-77295798D01*
X194224673Y-77384673D01*
X194135798Y-77492967D01*
X194069758Y-77616519D01*
X194029091Y-77750580D01*
X194015359Y-77890000D01*
X194018800Y-78536800D01*
X194196600Y-78714600D01*
X195554600Y-78714600D01*
X195554600Y-78694600D01*
X195605400Y-78694600D01*
X195605400Y-78714600D01*
X195625400Y-78714600D01*
X195625400Y-78765400D01*
X195605400Y-78765400D01*
X195605400Y-78785400D01*
X195554600Y-78785400D01*
X195554600Y-78765400D01*
X194196600Y-78765400D01*
X194018800Y-78943200D01*
X194015359Y-79590000D01*
X194029091Y-79729420D01*
X194069758Y-79863481D01*
X194135798Y-79987033D01*
X194224673Y-80095327D01*
X194332967Y-80184202D01*
X194358538Y-80197870D01*
X194292310Y-80278569D01*
X194196430Y-80457947D01*
X194137387Y-80652584D01*
X194117451Y-80855000D01*
X194117451Y-81705000D01*
X194137387Y-81907416D01*
X194196430Y-82102053D01*
X194292310Y-82281431D01*
X194421342Y-82438658D01*
X194557014Y-82550000D01*
X194421342Y-82661342D01*
X194292310Y-82818569D01*
X194196430Y-82997947D01*
X194137387Y-83192584D01*
X194117451Y-83395000D01*
X194117451Y-84245000D01*
X194137387Y-84447416D01*
X194196430Y-84642053D01*
X194292310Y-84821431D01*
X194421342Y-84978658D01*
X194578569Y-85107690D01*
X194757947Y-85203570D01*
X194952584Y-85262613D01*
X195155000Y-85282549D01*
X196005000Y-85282549D01*
X196207416Y-85262613D01*
X196215400Y-85260191D01*
X196215401Y-89999809D01*
X196207416Y-89997387D01*
X196005000Y-89977451D01*
X195155000Y-89977451D01*
X194952584Y-89997387D01*
X194757947Y-90056430D01*
X194578569Y-90152310D01*
X194421342Y-90281342D01*
X194292310Y-90438569D01*
X194196430Y-90617947D01*
X194137387Y-90812584D01*
X194117451Y-91015000D01*
X194117451Y-91865000D01*
X194137387Y-92067416D01*
X194196430Y-92262053D01*
X194292310Y-92441431D01*
X194358538Y-92522130D01*
X194332967Y-92535798D01*
X194224673Y-92624673D01*
X194135798Y-92732967D01*
X194069758Y-92856519D01*
X194029091Y-92990580D01*
X194015359Y-93130000D01*
X194018800Y-93776800D01*
X194196600Y-93954600D01*
X195554600Y-93954600D01*
X195554600Y-93934600D01*
X195605400Y-93934600D01*
X195605400Y-93954600D01*
X195625400Y-93954600D01*
X195625400Y-94005400D01*
X195605400Y-94005400D01*
X195605400Y-94025400D01*
X195554600Y-94025400D01*
X195554600Y-94005400D01*
X194196600Y-94005400D01*
X194018800Y-94183200D01*
X194015359Y-94830000D01*
X194029091Y-94969420D01*
X194069758Y-95103481D01*
X194135798Y-95227033D01*
X194224673Y-95335327D01*
X194332967Y-95424202D01*
X194358538Y-95437870D01*
X194292310Y-95518569D01*
X194196430Y-95697947D01*
X194137387Y-95892584D01*
X194117451Y-96095000D01*
X194117451Y-96945000D01*
X194137387Y-97147416D01*
X194196430Y-97342053D01*
X194292310Y-97521431D01*
X194421342Y-97678658D01*
X194578569Y-97807690D01*
X194757947Y-97903570D01*
X194952584Y-97962613D01*
X195155000Y-97982549D01*
X196005000Y-97982549D01*
X196207416Y-97962613D01*
X196215401Y-97960191D01*
X196215401Y-104108956D01*
X196200314Y-104262826D01*
X196164644Y-104380971D01*
X196106704Y-104489940D01*
X196028700Y-104585582D01*
X195933609Y-104664248D01*
X195825049Y-104722946D01*
X195707155Y-104759441D01*
X195555312Y-104775400D01*
X106711034Y-104775400D01*
X106557174Y-104760314D01*
X106439029Y-104724644D01*
X106330060Y-104666704D01*
X106234418Y-104588700D01*
X106155752Y-104493609D01*
X106097054Y-104385049D01*
X106060559Y-104267155D01*
X106044600Y-104115312D01*
X106044600Y-101745577D01*
X108921355Y-101745577D01*
X108921932Y-101750107D01*
X108997387Y-102016002D01*
X109123266Y-102262068D01*
X109294731Y-102478848D01*
X109505193Y-102658011D01*
X109746564Y-102792673D01*
X110009569Y-102877658D01*
X110284100Y-102909700D01*
X110474600Y-102909700D01*
X110474600Y-101525400D01*
X110525400Y-101525400D01*
X110525400Y-102909700D01*
X110715900Y-102909700D01*
X110990431Y-102877658D01*
X111253436Y-102792673D01*
X111494807Y-102658011D01*
X111705269Y-102478848D01*
X111728086Y-102450000D01*
X112735359Y-102450000D01*
X112749091Y-102589420D01*
X112789758Y-102723481D01*
X112855798Y-102847033D01*
X112944673Y-102955327D01*
X113052967Y-103044202D01*
X113176519Y-103110242D01*
X113310580Y-103150909D01*
X113450000Y-103164641D01*
X114096800Y-103161200D01*
X114274600Y-102983400D01*
X114274600Y-101625400D01*
X114325400Y-101625400D01*
X114325400Y-102983400D01*
X114503200Y-103161200D01*
X115150000Y-103164641D01*
X115289420Y-103150909D01*
X115423481Y-103110242D01*
X115547033Y-103044202D01*
X115655327Y-102955327D01*
X115744202Y-102847033D01*
X115810242Y-102723481D01*
X115850909Y-102589420D01*
X115864641Y-102450000D01*
X115861200Y-101803200D01*
X115683400Y-101625400D01*
X114325400Y-101625400D01*
X114274600Y-101625400D01*
X112916600Y-101625400D01*
X112738800Y-101803200D01*
X112735359Y-102450000D01*
X111728086Y-102450000D01*
X111876734Y-102262068D01*
X112002613Y-102016002D01*
X112078068Y-101750107D01*
X112078645Y-101745577D01*
X111922138Y-101525400D01*
X110525400Y-101525400D01*
X110474600Y-101525400D01*
X109077862Y-101525400D01*
X108921355Y-101745577D01*
X106044600Y-101745577D01*
X106044600Y-101254423D01*
X108921355Y-101254423D01*
X109077862Y-101474600D01*
X110474600Y-101474600D01*
X110474600Y-101454600D01*
X110525400Y-101454600D01*
X110525400Y-101474600D01*
X111922138Y-101474600D01*
X112078645Y-101254423D01*
X112078068Y-101249893D01*
X112002613Y-100983998D01*
X111882908Y-100750000D01*
X112735359Y-100750000D01*
X112738800Y-101396800D01*
X112916600Y-101574600D01*
X114274600Y-101574600D01*
X114274600Y-101554600D01*
X114325400Y-101554600D01*
X114325400Y-101574600D01*
X115683400Y-101574600D01*
X115861200Y-101396800D01*
X115864641Y-100750000D01*
X115850909Y-100610580D01*
X115810242Y-100476519D01*
X115744202Y-100352967D01*
X115655327Y-100244673D01*
X115547033Y-100155798D01*
X115521462Y-100142130D01*
X115587690Y-100061431D01*
X115683570Y-99882053D01*
X115742613Y-99687416D01*
X115762549Y-99485000D01*
X115762549Y-98635000D01*
X115742613Y-98432584D01*
X115683570Y-98237947D01*
X115587690Y-98058569D01*
X115458658Y-97901342D01*
X115301431Y-97772310D01*
X115122053Y-97676430D01*
X114927416Y-97617387D01*
X114725000Y-97597451D01*
X113875000Y-97597451D01*
X113672584Y-97617387D01*
X113477947Y-97676430D01*
X113298569Y-97772310D01*
X113141342Y-97901342D01*
X113012310Y-98058569D01*
X112916430Y-98237947D01*
X112857387Y-98432584D01*
X112837451Y-98635000D01*
X112837451Y-99485000D01*
X112857387Y-99687416D01*
X112916430Y-99882053D01*
X113012310Y-100061431D01*
X113078538Y-100142130D01*
X113052967Y-100155798D01*
X112944673Y-100244673D01*
X112855798Y-100352967D01*
X112789758Y-100476519D01*
X112749091Y-100610580D01*
X112735359Y-100750000D01*
X111882908Y-100750000D01*
X111876734Y-100737932D01*
X111714936Y-100533374D01*
X111719845Y-100529345D01*
X111839457Y-100383597D01*
X111928336Y-100217315D01*
X111983068Y-100036888D01*
X112001549Y-99849250D01*
X112001549Y-99150750D01*
X111983068Y-98963112D01*
X111928336Y-98782685D01*
X111839457Y-98616403D01*
X111719845Y-98470655D01*
X111574097Y-98351043D01*
X111407815Y-98262164D01*
X111227388Y-98207432D01*
X111039750Y-98188951D01*
X109960250Y-98188951D01*
X109772612Y-98207432D01*
X109592185Y-98262164D01*
X109425903Y-98351043D01*
X109280155Y-98470655D01*
X109160543Y-98616403D01*
X109071664Y-98782685D01*
X109016932Y-98963112D01*
X108998451Y-99150750D01*
X108998451Y-99849250D01*
X109016932Y-100036888D01*
X109071664Y-100217315D01*
X109160543Y-100383597D01*
X109280155Y-100529345D01*
X109285064Y-100533374D01*
X109123266Y-100737932D01*
X108997387Y-100983998D01*
X108921932Y-101249893D01*
X108921355Y-101254423D01*
X106044600Y-101254423D01*
X106044600Y-93686986D01*
X106102483Y-93757517D01*
X106133499Y-93782971D01*
X108225033Y-95874506D01*
X108250483Y-95905517D01*
X108315626Y-95958978D01*
X108374248Y-96007088D01*
X108515450Y-96082562D01*
X108668663Y-96129039D01*
X108828000Y-96144732D01*
X108867923Y-96140800D01*
X109415672Y-96140800D01*
X109422866Y-96158167D01*
X109614667Y-96445217D01*
X109858783Y-96689333D01*
X110145833Y-96881134D01*
X110464785Y-97013248D01*
X110803384Y-97080600D01*
X111148616Y-97080600D01*
X111487215Y-97013248D01*
X111806167Y-96881134D01*
X112093217Y-96689333D01*
X112337333Y-96445217D01*
X112500000Y-96201769D01*
X112662667Y-96445217D01*
X112906783Y-96689333D01*
X113193833Y-96881134D01*
X113512785Y-97013248D01*
X113851384Y-97080600D01*
X114196616Y-97080600D01*
X114535215Y-97013248D01*
X114854167Y-96881134D01*
X115141217Y-96689333D01*
X115385333Y-96445217D01*
X115577134Y-96158167D01*
X115603298Y-96095000D01*
X122997451Y-96095000D01*
X122997451Y-96945000D01*
X123017387Y-97147416D01*
X123076430Y-97342053D01*
X123172310Y-97521431D01*
X123301342Y-97678658D01*
X123437014Y-97790000D01*
X123301342Y-97901342D01*
X123172310Y-98058569D01*
X123076430Y-98237947D01*
X123017387Y-98432584D01*
X122997451Y-98635000D01*
X122997451Y-99485000D01*
X123017387Y-99687416D01*
X123076430Y-99882053D01*
X123172310Y-100061431D01*
X123301342Y-100218658D01*
X123437014Y-100330000D01*
X123301342Y-100441342D01*
X123172310Y-100598569D01*
X123076430Y-100777947D01*
X123017387Y-100972584D01*
X122997451Y-101175000D01*
X122997451Y-102025000D01*
X123017387Y-102227416D01*
X123076430Y-102422053D01*
X123172310Y-102601431D01*
X123301342Y-102758658D01*
X123458569Y-102887690D01*
X123637947Y-102983570D01*
X123832584Y-103042613D01*
X124035000Y-103062549D01*
X124885000Y-103062549D01*
X125087416Y-103042613D01*
X125282053Y-102983570D01*
X125461431Y-102887690D01*
X125618658Y-102758658D01*
X125730000Y-102622986D01*
X125841342Y-102758658D01*
X125998569Y-102887690D01*
X126177947Y-102983570D01*
X126372584Y-103042613D01*
X126575000Y-103062549D01*
X127425000Y-103062549D01*
X127627416Y-103042613D01*
X127822053Y-102983570D01*
X128001431Y-102887690D01*
X128158658Y-102758658D01*
X128287690Y-102601431D01*
X128383570Y-102422053D01*
X128442613Y-102227416D01*
X128462549Y-102025000D01*
X128462549Y-101175000D01*
X128442613Y-100972584D01*
X128383570Y-100777947D01*
X128287690Y-100598569D01*
X128158658Y-100441342D01*
X128022986Y-100330000D01*
X128158658Y-100218658D01*
X128287690Y-100061431D01*
X128383570Y-99882053D01*
X128442613Y-99687416D01*
X128462549Y-99485000D01*
X128462549Y-98635000D01*
X128442613Y-98432584D01*
X128383570Y-98237947D01*
X128287690Y-98058569D01*
X128158658Y-97901342D01*
X128022986Y-97790000D01*
X128158658Y-97678658D01*
X128287690Y-97521431D01*
X128383570Y-97342053D01*
X128442613Y-97147416D01*
X128462549Y-96945000D01*
X128462549Y-96802434D01*
X136009400Y-96802434D01*
X136009400Y-96997566D01*
X136047468Y-97188947D01*
X136122142Y-97369225D01*
X136230551Y-97531471D01*
X136368529Y-97669449D01*
X136530775Y-97777858D01*
X136711053Y-97852532D01*
X136825905Y-97875377D01*
X136997033Y-98046506D01*
X137022483Y-98077517D01*
X137146248Y-98179088D01*
X137287450Y-98254562D01*
X137440663Y-98301039D01*
X137560077Y-98312800D01*
X137560079Y-98312800D01*
X137599999Y-98316732D01*
X137639920Y-98312800D01*
X137687201Y-98312800D01*
X137687200Y-99027229D01*
X137597566Y-99009400D01*
X137402434Y-99009400D01*
X137211053Y-99047468D01*
X137030775Y-99122142D01*
X136868529Y-99230551D01*
X136730551Y-99368529D01*
X136622142Y-99530775D01*
X136547468Y-99711053D01*
X136509400Y-99902434D01*
X136509400Y-100097566D01*
X136547468Y-100288947D01*
X136622142Y-100469225D01*
X136730551Y-100631471D01*
X136868529Y-100769449D01*
X137030775Y-100877858D01*
X137201820Y-100948708D01*
X136953495Y-101197033D01*
X136922484Y-101222483D01*
X136897034Y-101253494D01*
X136820912Y-101346249D01*
X136808631Y-101369225D01*
X136745438Y-101487450D01*
X136698961Y-101640663D01*
X136688628Y-101745577D01*
X136683268Y-101800000D01*
X136686641Y-101834245D01*
X136622142Y-101930775D01*
X136547468Y-102111053D01*
X136509400Y-102302434D01*
X136509400Y-102497566D01*
X136547468Y-102688947D01*
X136622142Y-102869225D01*
X136730551Y-103031471D01*
X136868529Y-103169449D01*
X137030775Y-103277858D01*
X137211053Y-103352532D01*
X137402434Y-103390600D01*
X137597566Y-103390600D01*
X137788947Y-103352532D01*
X137969225Y-103277858D01*
X138131471Y-103169449D01*
X138269449Y-103031471D01*
X138377858Y-102869225D01*
X138452532Y-102688947D01*
X138490600Y-102497566D01*
X138490600Y-102302434D01*
X138452532Y-102111053D01*
X138419109Y-102030363D01*
X139046507Y-101402966D01*
X139077517Y-101377517D01*
X139179088Y-101253752D01*
X139254562Y-101112550D01*
X139301039Y-100959337D01*
X139312800Y-100839923D01*
X139312800Y-100839922D01*
X139316732Y-100800000D01*
X139312800Y-100760077D01*
X139312800Y-100139920D01*
X139316732Y-100099999D01*
X139312800Y-100060077D01*
X139312800Y-99939921D01*
X139316732Y-99900001D01*
X139312800Y-99860077D01*
X139312800Y-97539922D01*
X139316732Y-97500000D01*
X139312800Y-97460077D01*
X139312800Y-96839916D01*
X139316732Y-96799995D01*
X139312057Y-96752532D01*
X139301039Y-96640659D01*
X139254562Y-96487446D01*
X139201911Y-96388943D01*
X139179088Y-96346243D01*
X139147729Y-96308033D01*
X139077517Y-96222479D01*
X139046500Y-96197024D01*
X138944476Y-96095000D01*
X140777451Y-96095000D01*
X140777451Y-96945000D01*
X140797387Y-97147416D01*
X140856430Y-97342053D01*
X140952310Y-97521431D01*
X141081342Y-97678658D01*
X141217014Y-97790000D01*
X141081342Y-97901342D01*
X140952310Y-98058569D01*
X140856430Y-98237947D01*
X140797387Y-98432584D01*
X140777451Y-98635000D01*
X140777451Y-99485000D01*
X140797387Y-99687416D01*
X140856430Y-99882053D01*
X140952310Y-100061431D01*
X141081342Y-100218658D01*
X141217014Y-100330000D01*
X141081342Y-100441342D01*
X140952310Y-100598569D01*
X140856430Y-100777947D01*
X140797387Y-100972584D01*
X140777451Y-101175000D01*
X140777451Y-102025000D01*
X140797387Y-102227416D01*
X140856430Y-102422053D01*
X140952310Y-102601431D01*
X141081342Y-102758658D01*
X141238569Y-102887690D01*
X141417947Y-102983570D01*
X141612584Y-103042613D01*
X141815000Y-103062549D01*
X142665000Y-103062549D01*
X142867416Y-103042613D01*
X143062053Y-102983570D01*
X143241431Y-102887690D01*
X143398658Y-102758658D01*
X143510000Y-102622986D01*
X143621342Y-102758658D01*
X143778569Y-102887690D01*
X143957947Y-102983570D01*
X144152584Y-103042613D01*
X144355000Y-103062549D01*
X145205000Y-103062549D01*
X145407416Y-103042613D01*
X145602053Y-102983570D01*
X145781431Y-102887690D01*
X145938658Y-102758658D01*
X146067690Y-102601431D01*
X146163570Y-102422053D01*
X146222613Y-102227416D01*
X146242549Y-102025000D01*
X146242549Y-101175000D01*
X146222613Y-100972584D01*
X146170999Y-100802434D01*
X178809400Y-100802434D01*
X178809400Y-100997566D01*
X178847468Y-101188947D01*
X178922142Y-101369225D01*
X179030551Y-101531471D01*
X179168529Y-101669449D01*
X179330775Y-101777858D01*
X179511053Y-101852532D01*
X179702434Y-101890600D01*
X179897566Y-101890600D01*
X180088947Y-101852532D01*
X180269225Y-101777858D01*
X180431471Y-101669449D01*
X180569449Y-101531471D01*
X180677858Y-101369225D01*
X180752532Y-101188947D01*
X180790600Y-100997566D01*
X180790600Y-100802434D01*
X180752532Y-100611053D01*
X180712800Y-100515132D01*
X180712800Y-99666591D01*
X180777858Y-99569225D01*
X180852532Y-99388947D01*
X180890600Y-99197566D01*
X180890600Y-99002434D01*
X180852532Y-98811053D01*
X180777858Y-98630775D01*
X180669449Y-98468529D01*
X180531471Y-98330551D01*
X180369225Y-98222142D01*
X180188947Y-98147468D01*
X179997566Y-98109400D01*
X179802434Y-98109400D01*
X179611053Y-98147468D01*
X179430775Y-98222142D01*
X179268529Y-98330551D01*
X179130551Y-98468529D01*
X179022142Y-98630775D01*
X178947468Y-98811053D01*
X178909400Y-99002434D01*
X178909400Y-99197566D01*
X178947468Y-99388947D01*
X179022142Y-99569225D01*
X179087201Y-99666592D01*
X179087200Y-100211880D01*
X179030551Y-100268529D01*
X178922142Y-100430775D01*
X178847468Y-100611053D01*
X178809400Y-100802434D01*
X146170999Y-100802434D01*
X146163570Y-100777947D01*
X146067690Y-100598569D01*
X145938658Y-100441342D01*
X145802986Y-100330000D01*
X145938658Y-100218658D01*
X146067690Y-100061431D01*
X146163570Y-99882053D01*
X146222613Y-99687416D01*
X146242549Y-99485000D01*
X146242549Y-98635000D01*
X146222613Y-98432584D01*
X146163570Y-98237947D01*
X146067690Y-98058569D01*
X145938658Y-97901342D01*
X145802986Y-97790000D01*
X145938658Y-97678658D01*
X146067690Y-97521431D01*
X146163570Y-97342053D01*
X146222613Y-97147416D01*
X146242549Y-96945000D01*
X146242549Y-96095000D01*
X146222613Y-95892584D01*
X146163570Y-95697947D01*
X146067690Y-95518569D01*
X145938658Y-95361342D01*
X145781431Y-95232310D01*
X145602053Y-95136430D01*
X145407416Y-95077387D01*
X145205000Y-95057451D01*
X144355000Y-95057451D01*
X144152584Y-95077387D01*
X143957947Y-95136430D01*
X143778569Y-95232310D01*
X143621342Y-95361342D01*
X143510000Y-95497014D01*
X143398658Y-95361342D01*
X143241431Y-95232310D01*
X143062053Y-95136430D01*
X142867416Y-95077387D01*
X142665000Y-95057451D01*
X141815000Y-95057451D01*
X141612584Y-95077387D01*
X141417947Y-95136430D01*
X141238569Y-95232310D01*
X141081342Y-95361342D01*
X140952310Y-95518569D01*
X140856430Y-95697947D01*
X140797387Y-95892584D01*
X140777451Y-96095000D01*
X138944476Y-96095000D01*
X138775378Y-95925902D01*
X138752532Y-95811049D01*
X138677858Y-95630771D01*
X138569449Y-95468525D01*
X138431471Y-95330547D01*
X138269225Y-95222138D01*
X138088947Y-95147464D01*
X137897566Y-95109396D01*
X137702434Y-95109396D01*
X137511053Y-95147464D01*
X137330775Y-95222138D01*
X137168529Y-95330547D01*
X137030551Y-95468525D01*
X136922142Y-95630771D01*
X136847468Y-95811049D01*
X136824834Y-95924835D01*
X136711053Y-95947468D01*
X136530775Y-96022142D01*
X136368529Y-96130551D01*
X136230551Y-96268529D01*
X136122142Y-96430775D01*
X136047468Y-96611053D01*
X136009400Y-96802434D01*
X128462549Y-96802434D01*
X128462549Y-96095000D01*
X128442613Y-95892584D01*
X128383570Y-95697947D01*
X128287690Y-95518569D01*
X128158658Y-95361342D01*
X128001431Y-95232310D01*
X127822053Y-95136430D01*
X127627416Y-95077387D01*
X127425000Y-95057451D01*
X126575000Y-95057451D01*
X126372584Y-95077387D01*
X126177947Y-95136430D01*
X125998569Y-95232310D01*
X125841342Y-95361342D01*
X125730000Y-95497014D01*
X125618658Y-95361342D01*
X125461431Y-95232310D01*
X125282053Y-95136430D01*
X125087416Y-95077387D01*
X124885000Y-95057451D01*
X124035000Y-95057451D01*
X123832584Y-95077387D01*
X123637947Y-95136430D01*
X123458569Y-95232310D01*
X123301342Y-95361342D01*
X123172310Y-95518569D01*
X123076430Y-95697947D01*
X123017387Y-95892584D01*
X122997451Y-96095000D01*
X115603298Y-96095000D01*
X115709248Y-95839215D01*
X115776600Y-95500616D01*
X115776600Y-95155384D01*
X115709248Y-94816785D01*
X115577134Y-94497833D01*
X115385333Y-94210783D01*
X115141217Y-93966667D01*
X114854167Y-93774866D01*
X114535215Y-93642752D01*
X114196616Y-93575400D01*
X113851384Y-93575400D01*
X113512785Y-93642752D01*
X113193833Y-93774866D01*
X112906783Y-93966667D01*
X112662667Y-94210783D01*
X112500000Y-94454231D01*
X112337333Y-94210783D01*
X112093217Y-93966667D01*
X111806167Y-93774866D01*
X111487215Y-93642752D01*
X111148616Y-93575400D01*
X110803384Y-93575400D01*
X110464785Y-93642752D01*
X110145833Y-93774866D01*
X109858783Y-93966667D01*
X109614667Y-94210783D01*
X109422866Y-94497833D01*
X109415672Y-94515200D01*
X109164673Y-94515200D01*
X107492800Y-92843328D01*
X107492800Y-92602434D01*
X137509400Y-92602434D01*
X137509400Y-92797566D01*
X137547468Y-92988947D01*
X137622142Y-93169225D01*
X137730551Y-93331471D01*
X137749073Y-93349993D01*
X137730551Y-93368515D01*
X137622142Y-93530761D01*
X137547468Y-93711039D01*
X137509400Y-93902420D01*
X137509400Y-94097552D01*
X137547468Y-94288933D01*
X137622142Y-94469211D01*
X137730551Y-94631457D01*
X137868529Y-94769435D01*
X138030775Y-94877844D01*
X138211053Y-94952518D01*
X138402434Y-94990586D01*
X138597566Y-94990586D01*
X138788947Y-94952518D01*
X138969225Y-94877844D01*
X139131471Y-94769435D01*
X139269449Y-94631457D01*
X139377858Y-94469211D01*
X139392187Y-94434618D01*
X139420933Y-94431787D01*
X139420936Y-94431787D01*
X139540350Y-94420026D01*
X139693563Y-94373549D01*
X139834765Y-94298075D01*
X139958530Y-94196504D01*
X139983985Y-94165487D01*
X140246500Y-93902972D01*
X140250345Y-93899817D01*
X140397028Y-94046500D01*
X140422483Y-94077517D01*
X140546248Y-94179088D01*
X140687450Y-94254562D01*
X140840663Y-94301039D01*
X141000000Y-94316732D01*
X141039923Y-94312800D01*
X141183409Y-94312800D01*
X141280775Y-94377858D01*
X141461053Y-94452532D01*
X141652434Y-94490600D01*
X141847566Y-94490600D01*
X142038947Y-94452532D01*
X142219225Y-94377858D01*
X142381471Y-94269449D01*
X142519449Y-94131471D01*
X142627858Y-93969225D01*
X142702532Y-93788947D01*
X142740600Y-93597566D01*
X142740600Y-93402434D01*
X142702532Y-93211053D01*
X142627858Y-93030775D01*
X142607296Y-93000002D01*
X142627858Y-92969229D01*
X142702532Y-92788951D01*
X142740600Y-92597570D01*
X142740600Y-92402438D01*
X142702532Y-92211057D01*
X142627858Y-92030779D01*
X142519449Y-91868533D01*
X142381471Y-91730555D01*
X142219225Y-91622146D01*
X142038947Y-91547472D01*
X141847566Y-91509404D01*
X141652434Y-91509404D01*
X141461053Y-91547472D01*
X141280775Y-91622146D01*
X141183415Y-91687200D01*
X141039923Y-91687200D01*
X141000000Y-91683268D01*
X140960077Y-91687200D01*
X140840663Y-91698961D01*
X140687450Y-91745438D01*
X140546248Y-91820912D01*
X140422483Y-91922483D01*
X140397030Y-91953498D01*
X140163328Y-92187200D01*
X140036672Y-92187200D01*
X140002972Y-92153500D01*
X139977517Y-92122483D01*
X139853752Y-92020912D01*
X139712550Y-91945438D01*
X139559337Y-91898961D01*
X139439923Y-91887200D01*
X139439920Y-91887200D01*
X139400000Y-91883268D01*
X139360080Y-91887200D01*
X139066591Y-91887200D01*
X138969225Y-91822142D01*
X138788947Y-91747468D01*
X138597566Y-91709400D01*
X138402434Y-91709400D01*
X138211053Y-91747468D01*
X138030775Y-91822142D01*
X137868529Y-91930551D01*
X137730551Y-92068529D01*
X137622142Y-92230775D01*
X137547468Y-92411053D01*
X137509400Y-92602434D01*
X107492800Y-92602434D01*
X107492800Y-89654936D01*
X133034800Y-89654936D01*
X133034800Y-89845064D01*
X133071892Y-90031538D01*
X133144651Y-90207194D01*
X133250280Y-90365279D01*
X133384721Y-90499720D01*
X133542806Y-90605349D01*
X133718462Y-90678108D01*
X133883258Y-90710888D01*
X134351521Y-91179152D01*
X134371886Y-91281532D01*
X134444645Y-91457188D01*
X134550274Y-91615273D01*
X134684715Y-91749714D01*
X134842800Y-91855343D01*
X135018456Y-91928102D01*
X135204930Y-91965194D01*
X135395058Y-91965194D01*
X135581532Y-91928102D01*
X135757188Y-91855343D01*
X135915273Y-91749714D01*
X136049714Y-91615273D01*
X136155343Y-91457188D01*
X136228102Y-91281532D01*
X136265194Y-91095058D01*
X136265194Y-90904930D01*
X136228102Y-90718456D01*
X136155343Y-90542800D01*
X136049714Y-90384715D01*
X135915273Y-90250274D01*
X135757188Y-90144645D01*
X135581532Y-90071886D01*
X135395058Y-90034794D01*
X135362425Y-90034794D01*
X134960888Y-89633258D01*
X134928108Y-89468462D01*
X134855349Y-89292806D01*
X134749720Y-89134721D01*
X134615279Y-89000280D01*
X134457194Y-88894651D01*
X134281538Y-88821892D01*
X134095064Y-88784800D01*
X133904936Y-88784800D01*
X133718462Y-88821892D01*
X133542806Y-88894651D01*
X133384721Y-89000280D01*
X133250280Y-89134721D01*
X133144651Y-89292806D01*
X133071892Y-89468462D01*
X133034800Y-89654936D01*
X107492800Y-89654936D01*
X107492800Y-85935000D01*
X140777451Y-85935000D01*
X140777451Y-86785000D01*
X140797387Y-86987416D01*
X140856430Y-87182053D01*
X140952310Y-87361431D01*
X141081342Y-87518658D01*
X141217014Y-87630000D01*
X141081342Y-87741342D01*
X140952310Y-87898569D01*
X140856430Y-88077947D01*
X140797387Y-88272584D01*
X140777451Y-88475000D01*
X140777451Y-89325000D01*
X140797387Y-89527416D01*
X140856430Y-89722053D01*
X140952310Y-89901431D01*
X141081342Y-90058658D01*
X141238569Y-90187690D01*
X141417947Y-90283570D01*
X141612584Y-90342613D01*
X141815000Y-90362549D01*
X142665000Y-90362549D01*
X142867416Y-90342613D01*
X143062053Y-90283570D01*
X143241431Y-90187690D01*
X143398658Y-90058658D01*
X143527690Y-89901431D01*
X143623570Y-89722053D01*
X143682613Y-89527416D01*
X143702549Y-89325000D01*
X143702549Y-88475000D01*
X143682613Y-88272584D01*
X143623570Y-88077947D01*
X143527690Y-87898569D01*
X143398658Y-87741342D01*
X143262986Y-87630000D01*
X143398658Y-87518658D01*
X143527690Y-87361431D01*
X143611304Y-87205000D01*
X148397451Y-87205000D01*
X148397451Y-88055000D01*
X148417387Y-88257416D01*
X148476430Y-88452053D01*
X148572310Y-88631431D01*
X148701342Y-88788658D01*
X148858569Y-88917690D01*
X149037947Y-89013570D01*
X149232584Y-89072613D01*
X149435000Y-89092549D01*
X150285000Y-89092549D01*
X150487416Y-89072613D01*
X150682053Y-89013570D01*
X150861431Y-88917690D01*
X151018658Y-88788658D01*
X151130000Y-88652986D01*
X151241342Y-88788658D01*
X151398569Y-88917690D01*
X151577947Y-89013570D01*
X151772584Y-89072613D01*
X151975000Y-89092549D01*
X152825000Y-89092549D01*
X153027416Y-89072613D01*
X153222053Y-89013570D01*
X153401431Y-88917690D01*
X153558658Y-88788658D01*
X153670000Y-88652986D01*
X153781342Y-88788658D01*
X153938569Y-88917690D01*
X154117947Y-89013570D01*
X154312584Y-89072613D01*
X154515000Y-89092549D01*
X155365000Y-89092549D01*
X155567416Y-89072613D01*
X155762053Y-89013570D01*
X155941431Y-88917690D01*
X156098658Y-88788658D01*
X156227690Y-88631431D01*
X156323570Y-88452053D01*
X156382613Y-88257416D01*
X156402549Y-88055000D01*
X156402549Y-87704936D01*
X156734800Y-87704936D01*
X156734800Y-87895064D01*
X156771892Y-88081538D01*
X156844651Y-88257194D01*
X156950280Y-88415279D01*
X156963400Y-88428399D01*
X156963400Y-88963816D01*
X156959836Y-89000000D01*
X156963400Y-89036183D01*
X156963400Y-89036185D01*
X156974058Y-89144398D01*
X157016178Y-89283248D01*
X157055058Y-89355988D01*
X157084576Y-89411212D01*
X157143694Y-89483247D01*
X157176625Y-89523374D01*
X157204732Y-89546441D01*
X159834800Y-92176510D01*
X159834800Y-92195064D01*
X159871892Y-92381538D01*
X159944651Y-92557194D01*
X160050280Y-92715279D01*
X160184721Y-92849720D01*
X160342806Y-92955349D01*
X160518462Y-93028108D01*
X160704936Y-93065200D01*
X160895064Y-93065200D01*
X161081538Y-93028108D01*
X161257194Y-92955349D01*
X161415279Y-92849720D01*
X161549720Y-92715279D01*
X161655349Y-92557194D01*
X161728108Y-92381538D01*
X161765200Y-92195064D01*
X161765200Y-92004936D01*
X161728108Y-91818462D01*
X161655349Y-91642806D01*
X161549720Y-91484721D01*
X161415279Y-91350280D01*
X161257194Y-91244651D01*
X161081538Y-91171892D01*
X161047895Y-91165200D01*
X161095064Y-91165200D01*
X161281538Y-91128108D01*
X161457194Y-91055349D01*
X161615279Y-90949720D01*
X161671117Y-90893883D01*
X161833305Y-91056071D01*
X162055988Y-91204862D01*
X162303419Y-91307352D01*
X162566091Y-91359600D01*
X162833909Y-91359600D01*
X163096581Y-91307352D01*
X163344012Y-91204862D01*
X163566695Y-91056071D01*
X163640694Y-90982072D01*
X163637451Y-91015000D01*
X163637451Y-91865000D01*
X163657387Y-92067416D01*
X163716430Y-92262053D01*
X163812310Y-92441431D01*
X163941342Y-92598658D01*
X164077014Y-92710000D01*
X163941342Y-92821342D01*
X163812310Y-92978569D01*
X163716430Y-93157947D01*
X163657387Y-93352584D01*
X163637451Y-93555000D01*
X163637451Y-94405000D01*
X163657387Y-94607416D01*
X163716430Y-94802053D01*
X163812310Y-94981431D01*
X163941342Y-95138658D01*
X164077014Y-95250000D01*
X163941342Y-95361342D01*
X163812310Y-95518569D01*
X163716430Y-95697947D01*
X163657387Y-95892584D01*
X163637451Y-96095000D01*
X163637451Y-96945000D01*
X163657387Y-97147416D01*
X163716430Y-97342053D01*
X163812310Y-97521431D01*
X163941342Y-97678658D01*
X164098569Y-97807690D01*
X164277947Y-97903570D01*
X164472584Y-97962613D01*
X164675000Y-97982549D01*
X165525000Y-97982549D01*
X165727416Y-97962613D01*
X165922053Y-97903570D01*
X166101431Y-97807690D01*
X166258658Y-97678658D01*
X166387690Y-97521431D01*
X166483570Y-97342053D01*
X166542613Y-97147416D01*
X166562549Y-96945000D01*
X166562549Y-96095000D01*
X166542613Y-95892584D01*
X166483570Y-95697947D01*
X166387690Y-95518569D01*
X166258658Y-95361342D01*
X166122986Y-95250000D01*
X166258658Y-95138658D01*
X166387690Y-94981431D01*
X166483570Y-94802053D01*
X166542613Y-94607416D01*
X166562549Y-94405000D01*
X166562549Y-93902434D01*
X170709400Y-93902434D01*
X170709400Y-94097566D01*
X170747468Y-94288947D01*
X170822142Y-94469225D01*
X170887201Y-94566593D01*
X170887200Y-96333408D01*
X170822142Y-96430775D01*
X170747468Y-96611053D01*
X170709400Y-96802434D01*
X170709400Y-96997566D01*
X170747468Y-97188947D01*
X170822142Y-97369225D01*
X170930551Y-97531471D01*
X171068529Y-97669449D01*
X171230775Y-97777858D01*
X171411053Y-97852532D01*
X171602434Y-97890600D01*
X171797566Y-97890600D01*
X171988947Y-97852532D01*
X172169225Y-97777858D01*
X172331471Y-97669449D01*
X172469449Y-97531471D01*
X172577858Y-97369225D01*
X172652532Y-97188947D01*
X172690600Y-96997566D01*
X172690600Y-96802434D01*
X172652532Y-96611053D01*
X172577858Y-96430775D01*
X172512800Y-96333409D01*
X172512800Y-95702434D01*
X178809400Y-95702434D01*
X178809400Y-95897566D01*
X178847468Y-96088947D01*
X178922142Y-96269225D01*
X179030551Y-96431471D01*
X179168529Y-96569449D01*
X179330775Y-96677858D01*
X179511053Y-96752532D01*
X179702434Y-96790600D01*
X179897566Y-96790600D01*
X180088947Y-96752532D01*
X180269225Y-96677858D01*
X180431471Y-96569449D01*
X180569449Y-96431471D01*
X180677858Y-96269225D01*
X180752532Y-96088947D01*
X180790600Y-95897566D01*
X180790600Y-95702434D01*
X180752532Y-95511053D01*
X180677858Y-95330775D01*
X180613159Y-95233946D01*
X180613159Y-94466152D01*
X180678217Y-94368786D01*
X180752891Y-94188508D01*
X180790959Y-93997127D01*
X180790959Y-93801995D01*
X180752891Y-93610614D01*
X180678217Y-93430336D01*
X180569808Y-93268090D01*
X180431830Y-93130112D01*
X180269584Y-93021703D01*
X180089306Y-92947029D01*
X179897925Y-92908961D01*
X179702793Y-92908961D01*
X179511412Y-92947029D01*
X179331134Y-93021703D01*
X179168888Y-93130112D01*
X179030910Y-93268090D01*
X178922501Y-93430336D01*
X178847827Y-93610614D01*
X178809759Y-93801995D01*
X178809759Y-93997127D01*
X178847827Y-94188508D01*
X178922501Y-94368786D01*
X178987559Y-94466153D01*
X178987560Y-95232870D01*
X178922142Y-95330775D01*
X178847468Y-95511053D01*
X178809400Y-95702434D01*
X172512800Y-95702434D01*
X172512800Y-94566591D01*
X172577858Y-94469225D01*
X172652532Y-94288947D01*
X172690600Y-94097566D01*
X172690600Y-93902434D01*
X172652532Y-93711053D01*
X172577858Y-93530775D01*
X172469449Y-93368529D01*
X172331471Y-93230551D01*
X172169225Y-93122142D01*
X171988947Y-93047468D01*
X171797566Y-93009400D01*
X171602434Y-93009400D01*
X171411053Y-93047468D01*
X171230775Y-93122142D01*
X171068529Y-93230551D01*
X170930551Y-93368529D01*
X170822142Y-93530775D01*
X170747468Y-93711053D01*
X170709400Y-93902434D01*
X166562549Y-93902434D01*
X166562549Y-93555000D01*
X166542613Y-93352584D01*
X166483570Y-93157947D01*
X166387690Y-92978569D01*
X166258658Y-92821342D01*
X166122986Y-92710000D01*
X166258658Y-92598658D01*
X166387690Y-92441431D01*
X166483570Y-92262053D01*
X166542613Y-92067416D01*
X166562549Y-91865000D01*
X166562549Y-91015000D01*
X166542613Y-90812584D01*
X166483570Y-90617947D01*
X166387690Y-90438569D01*
X166358035Y-90402434D01*
X172609400Y-90402434D01*
X172609400Y-90597566D01*
X172647468Y-90788947D01*
X172722142Y-90969225D01*
X172830551Y-91131471D01*
X172968529Y-91269449D01*
X173130775Y-91377858D01*
X173311053Y-91452532D01*
X173502434Y-91490600D01*
X173697566Y-91490600D01*
X173888947Y-91452532D01*
X174069225Y-91377858D01*
X174231471Y-91269449D01*
X174369449Y-91131471D01*
X174455668Y-91002434D01*
X181009400Y-91002434D01*
X181009400Y-91197566D01*
X181047468Y-91388947D01*
X181122142Y-91569225D01*
X181230551Y-91731471D01*
X181368529Y-91869449D01*
X181530775Y-91977858D01*
X181711053Y-92052532D01*
X181902434Y-92090600D01*
X182097566Y-92090600D01*
X182288947Y-92052532D01*
X182469225Y-91977858D01*
X182631471Y-91869449D01*
X182769449Y-91731471D01*
X182781865Y-91712889D01*
X182850280Y-91815279D01*
X182984721Y-91949720D01*
X183142806Y-92055349D01*
X183318462Y-92128108D01*
X183504936Y-92165200D01*
X183695064Y-92165200D01*
X183881538Y-92128108D01*
X184057194Y-92055349D01*
X184215279Y-91949720D01*
X184349720Y-91815279D01*
X184455349Y-91657194D01*
X184528108Y-91481538D01*
X184565200Y-91295064D01*
X184565200Y-91276509D01*
X184826709Y-91015000D01*
X186497451Y-91015000D01*
X186497451Y-91865000D01*
X186517387Y-92067416D01*
X186576430Y-92262053D01*
X186672310Y-92441431D01*
X186801342Y-92598658D01*
X186937014Y-92710000D01*
X186801342Y-92821342D01*
X186672310Y-92978569D01*
X186576430Y-93157947D01*
X186517387Y-93352584D01*
X186497451Y-93555000D01*
X186497451Y-94405000D01*
X186517387Y-94607416D01*
X186576430Y-94802053D01*
X186672310Y-94981431D01*
X186801342Y-95138658D01*
X186937014Y-95250000D01*
X186801342Y-95361342D01*
X186672310Y-95518569D01*
X186576430Y-95697947D01*
X186517387Y-95892584D01*
X186497451Y-96095000D01*
X186497451Y-96945000D01*
X186517387Y-97147416D01*
X186576430Y-97342053D01*
X186672310Y-97521431D01*
X186801342Y-97678658D01*
X186958569Y-97807690D01*
X187137947Y-97903570D01*
X187332584Y-97962613D01*
X187535000Y-97982549D01*
X188385000Y-97982549D01*
X188587416Y-97962613D01*
X188782053Y-97903570D01*
X188961431Y-97807690D01*
X189118658Y-97678658D01*
X189247690Y-97521431D01*
X189343570Y-97342053D01*
X189402613Y-97147416D01*
X189422549Y-96945000D01*
X189422549Y-96095000D01*
X189402613Y-95892584D01*
X189343570Y-95697947D01*
X189247690Y-95518569D01*
X189118658Y-95361342D01*
X188982986Y-95250000D01*
X189118658Y-95138658D01*
X189247690Y-94981431D01*
X189343570Y-94802053D01*
X189402613Y-94607416D01*
X189422549Y-94405000D01*
X189422549Y-93555000D01*
X189402613Y-93352584D01*
X189343570Y-93157947D01*
X189247690Y-92978569D01*
X189118658Y-92821342D01*
X188982986Y-92710000D01*
X189118658Y-92598658D01*
X189247690Y-92441431D01*
X189343570Y-92262053D01*
X189402613Y-92067416D01*
X189422549Y-91865000D01*
X189422549Y-91015000D01*
X189402613Y-90812584D01*
X189343570Y-90617947D01*
X189247690Y-90438569D01*
X189118658Y-90281342D01*
X188961431Y-90152310D01*
X188782053Y-90056430D01*
X188587416Y-89997387D01*
X188385000Y-89977451D01*
X187535000Y-89977451D01*
X187332584Y-89997387D01*
X187137947Y-90056430D01*
X186958569Y-90152310D01*
X186801342Y-90281342D01*
X186672310Y-90438569D01*
X186576430Y-90617947D01*
X186517387Y-90812584D01*
X186497451Y-91015000D01*
X184826709Y-91015000D01*
X185546442Y-90295268D01*
X185546447Y-90295262D01*
X185695268Y-90146441D01*
X185723374Y-90123375D01*
X185815424Y-90011213D01*
X185883822Y-89883249D01*
X185925942Y-89744399D01*
X185936600Y-89636186D01*
X185936600Y-89636185D01*
X185940164Y-89600000D01*
X185936600Y-89563814D01*
X185936600Y-87828399D01*
X185949720Y-87815279D01*
X186055349Y-87657194D01*
X186128108Y-87481538D01*
X186165200Y-87295064D01*
X186165200Y-87104936D01*
X186128108Y-86918462D01*
X186055349Y-86742806D01*
X185949720Y-86584721D01*
X185815279Y-86450280D01*
X185657194Y-86344651D01*
X185481538Y-86271892D01*
X185295064Y-86234800D01*
X185104936Y-86234800D01*
X184918462Y-86271892D01*
X184742806Y-86344651D01*
X184584721Y-86450280D01*
X184450280Y-86584721D01*
X184344651Y-86742806D01*
X184271892Y-86918462D01*
X184234800Y-87104936D01*
X184234800Y-87295064D01*
X184271892Y-87481538D01*
X184344651Y-87657194D01*
X184450280Y-87815279D01*
X184463401Y-87828400D01*
X184463401Y-88334800D01*
X184304934Y-88334800D01*
X184118460Y-88371892D01*
X183942804Y-88444651D01*
X183784719Y-88550280D01*
X183650278Y-88684721D01*
X183544649Y-88842806D01*
X183471890Y-89018462D01*
X183453836Y-89109225D01*
X183357194Y-89044651D01*
X183181538Y-88971892D01*
X182995064Y-88934800D01*
X182812800Y-88934800D01*
X182812800Y-88201230D01*
X182869225Y-88177858D01*
X183031471Y-88069449D01*
X183169449Y-87931471D01*
X183277858Y-87769225D01*
X183352532Y-87588947D01*
X183390600Y-87397566D01*
X183390600Y-87202434D01*
X183352532Y-87011053D01*
X183277858Y-86830775D01*
X183169449Y-86668529D01*
X183031471Y-86530551D01*
X182869225Y-86422142D01*
X182688947Y-86347468D01*
X182497566Y-86309400D01*
X182302434Y-86309400D01*
X182111053Y-86347468D01*
X181930775Y-86422142D01*
X181768529Y-86530551D01*
X181630551Y-86668529D01*
X181522142Y-86830775D01*
X181447468Y-87011053D01*
X181425853Y-87119717D01*
X181422483Y-87122483D01*
X181320912Y-87246249D01*
X181245438Y-87387451D01*
X181198961Y-87540664D01*
X181188420Y-87647690D01*
X181183268Y-87700000D01*
X181187200Y-87739921D01*
X181187201Y-90533407D01*
X181122142Y-90630775D01*
X181047468Y-90811053D01*
X181009400Y-91002434D01*
X174455668Y-91002434D01*
X174477858Y-90969225D01*
X174552532Y-90788947D01*
X174575378Y-90674095D01*
X176546507Y-88702966D01*
X176577517Y-88677517D01*
X176679088Y-88553752D01*
X176754562Y-88412550D01*
X176801039Y-88259337D01*
X176812800Y-88139923D01*
X176812800Y-88139922D01*
X176816732Y-88100000D01*
X176812800Y-88060077D01*
X176812800Y-86066591D01*
X176877858Y-85969225D01*
X176952532Y-85788947D01*
X176990600Y-85597566D01*
X176990600Y-85402434D01*
X176952532Y-85211053D01*
X176877858Y-85030775D01*
X176769449Y-84868529D01*
X176631471Y-84730551D01*
X176469225Y-84622142D01*
X176288947Y-84547468D01*
X176097566Y-84509400D01*
X175902434Y-84509400D01*
X175711053Y-84547468D01*
X175530775Y-84622142D01*
X175368529Y-84730551D01*
X175230551Y-84868529D01*
X175122142Y-85030775D01*
X175047468Y-85211053D01*
X175009400Y-85402434D01*
X175009400Y-85597566D01*
X175047468Y-85788947D01*
X175122142Y-85969225D01*
X175187201Y-86066593D01*
X175187200Y-87763327D01*
X173425905Y-89524622D01*
X173311053Y-89547468D01*
X173130775Y-89622142D01*
X172968529Y-89730551D01*
X172830551Y-89868529D01*
X172722142Y-90030775D01*
X172647468Y-90211053D01*
X172609400Y-90402434D01*
X166358035Y-90402434D01*
X166258658Y-90281342D01*
X166101431Y-90152310D01*
X165922053Y-90056430D01*
X165727416Y-89997387D01*
X165525000Y-89977451D01*
X164675000Y-89977451D01*
X164472584Y-89997387D01*
X164277947Y-90056430D01*
X164098569Y-90152310D01*
X164047624Y-90194120D01*
X164059600Y-90133909D01*
X164059600Y-89866091D01*
X164007352Y-89603419D01*
X163904862Y-89355988D01*
X163756071Y-89133305D01*
X163566695Y-88943929D01*
X163344012Y-88795138D01*
X163096581Y-88692648D01*
X162833909Y-88640400D01*
X162636600Y-88640400D01*
X162636600Y-88106767D01*
X162745880Y-87997487D01*
X162851509Y-87839402D01*
X162924268Y-87663746D01*
X162961360Y-87477272D01*
X162961360Y-87287144D01*
X162924268Y-87100670D01*
X162851509Y-86925014D01*
X162745880Y-86766929D01*
X162611439Y-86632488D01*
X162453354Y-86526859D01*
X162277698Y-86454100D01*
X162195722Y-86437794D01*
X162153068Y-86334819D01*
X162047439Y-86176734D01*
X161912998Y-86042293D01*
X161754913Y-85936664D01*
X161642345Y-85890037D01*
X161628108Y-85818462D01*
X161581085Y-85704936D01*
X165934800Y-85704936D01*
X165934800Y-85895064D01*
X165971892Y-86081538D01*
X166044651Y-86257194D01*
X166150280Y-86415279D01*
X166284721Y-86549720D01*
X166442806Y-86655349D01*
X166618462Y-86728108D01*
X166804936Y-86765200D01*
X166823491Y-86765200D01*
X167134800Y-87076510D01*
X167134800Y-87095064D01*
X167171892Y-87281538D01*
X167244651Y-87457194D01*
X167350280Y-87615279D01*
X167484721Y-87749720D01*
X167642806Y-87855349D01*
X167818462Y-87928108D01*
X168004936Y-87965200D01*
X168195064Y-87965200D01*
X168381538Y-87928108D01*
X168557194Y-87855349D01*
X168715279Y-87749720D01*
X168849720Y-87615279D01*
X168955349Y-87457194D01*
X169028108Y-87281538D01*
X169057683Y-87132853D01*
X169081538Y-87128108D01*
X169257194Y-87055349D01*
X169415279Y-86949720D01*
X169549720Y-86815279D01*
X169655349Y-86657194D01*
X169728108Y-86481538D01*
X169765200Y-86295064D01*
X169765200Y-86104936D01*
X169728108Y-85918462D01*
X169655349Y-85742806D01*
X169549720Y-85584721D01*
X169415279Y-85450280D01*
X169257194Y-85344651D01*
X169081538Y-85271892D01*
X168895064Y-85234800D01*
X168876510Y-85234800D01*
X168665200Y-85023491D01*
X168665200Y-85004936D01*
X168628108Y-84818462D01*
X168555349Y-84642806D01*
X168449720Y-84484721D01*
X168315279Y-84350280D01*
X168157194Y-84244651D01*
X167981538Y-84171892D01*
X167795064Y-84134800D01*
X167604936Y-84134800D01*
X167418462Y-84171892D01*
X167242806Y-84244651D01*
X167084721Y-84350280D01*
X166950280Y-84484721D01*
X166844651Y-84642806D01*
X166771892Y-84818462D01*
X166767147Y-84842317D01*
X166618462Y-84871892D01*
X166442806Y-84944651D01*
X166284721Y-85050280D01*
X166150280Y-85184721D01*
X166044651Y-85342806D01*
X165971892Y-85518462D01*
X165934800Y-85704936D01*
X161581085Y-85704936D01*
X161555349Y-85642806D01*
X161449720Y-85484721D01*
X161315279Y-85350280D01*
X161157194Y-85244651D01*
X160981538Y-85171892D01*
X160795064Y-85134800D01*
X160604936Y-85134800D01*
X160418462Y-85171892D01*
X160242806Y-85244651D01*
X160084721Y-85350280D01*
X159950280Y-85484721D01*
X159844651Y-85642806D01*
X159771892Y-85818462D01*
X159734800Y-86004936D01*
X159734800Y-86027590D01*
X159734375Y-86028108D01*
X159684576Y-86088788D01*
X159616178Y-86216752D01*
X159574058Y-86355602D01*
X159564357Y-86454100D01*
X159559836Y-86500000D01*
X159563400Y-86536184D01*
X159563401Y-87671600D01*
X159550280Y-87684721D01*
X159444651Y-87842806D01*
X159371892Y-88018462D01*
X159334800Y-88204936D01*
X159334800Y-88395064D01*
X159371892Y-88581538D01*
X159444651Y-88757194D01*
X159550280Y-88915279D01*
X159684721Y-89049720D01*
X159834800Y-89150000D01*
X159834800Y-89295064D01*
X159871892Y-89481538D01*
X159944651Y-89657194D01*
X160050280Y-89815279D01*
X160095784Y-89860783D01*
X160071892Y-89918462D01*
X160034800Y-90104936D01*
X160034800Y-90293090D01*
X158436600Y-88694891D01*
X158436600Y-88428399D01*
X158449720Y-88415279D01*
X158555349Y-88257194D01*
X158628108Y-88081538D01*
X158665200Y-87895064D01*
X158665200Y-87704936D01*
X158628108Y-87518462D01*
X158555349Y-87342806D01*
X158449720Y-87184721D01*
X158315279Y-87050280D01*
X158157194Y-86944651D01*
X157981538Y-86871892D01*
X157795064Y-86834800D01*
X157604936Y-86834800D01*
X157418462Y-86871892D01*
X157242806Y-86944651D01*
X157084721Y-87050280D01*
X156950280Y-87184721D01*
X156844651Y-87342806D01*
X156771892Y-87518462D01*
X156734800Y-87704936D01*
X156402549Y-87704936D01*
X156402549Y-87205000D01*
X156382613Y-87002584D01*
X156323570Y-86807947D01*
X156227690Y-86628569D01*
X156098658Y-86471342D01*
X155941431Y-86342310D01*
X155762053Y-86246430D01*
X155567416Y-86187387D01*
X155365000Y-86167451D01*
X154515000Y-86167451D01*
X154312584Y-86187387D01*
X154117947Y-86246430D01*
X153938569Y-86342310D01*
X153781342Y-86471342D01*
X153670000Y-86607014D01*
X153558658Y-86471342D01*
X153401431Y-86342310D01*
X153222053Y-86246430D01*
X153027416Y-86187387D01*
X152825000Y-86167451D01*
X152630910Y-86167451D01*
X152665200Y-85995064D01*
X152665200Y-85804936D01*
X152628108Y-85618462D01*
X152555349Y-85442806D01*
X152449720Y-85284721D01*
X152315279Y-85150280D01*
X152157194Y-85044651D01*
X151981538Y-84971892D01*
X151795064Y-84934800D01*
X151604936Y-84934800D01*
X151418462Y-84971892D01*
X151242806Y-85044651D01*
X151084721Y-85150280D01*
X151071601Y-85163400D01*
X150128399Y-85163400D01*
X150115279Y-85150280D01*
X149957194Y-85044651D01*
X149781538Y-84971892D01*
X149595064Y-84934800D01*
X149404936Y-84934800D01*
X149218462Y-84971892D01*
X149042806Y-85044651D01*
X148884721Y-85150280D01*
X148750280Y-85284721D01*
X148644651Y-85442806D01*
X148571892Y-85618462D01*
X148534800Y-85804936D01*
X148534800Y-85995064D01*
X148571892Y-86181538D01*
X148644651Y-86357194D01*
X148713988Y-86460964D01*
X148701342Y-86471342D01*
X148572310Y-86628569D01*
X148476430Y-86807947D01*
X148417387Y-87002584D01*
X148397451Y-87205000D01*
X143611304Y-87205000D01*
X143623570Y-87182053D01*
X143682613Y-86987416D01*
X143702549Y-86785000D01*
X143702549Y-85935000D01*
X143682613Y-85732584D01*
X143623570Y-85537947D01*
X143527690Y-85358569D01*
X143398658Y-85201342D01*
X143241431Y-85072310D01*
X143062053Y-84976430D01*
X142867416Y-84917387D01*
X142665000Y-84897451D01*
X141815000Y-84897451D01*
X141612584Y-84917387D01*
X141417947Y-84976430D01*
X141238569Y-85072310D01*
X141081342Y-85201342D01*
X140952310Y-85358569D01*
X140856430Y-85537947D01*
X140797387Y-85732584D01*
X140777451Y-85935000D01*
X107492800Y-85935000D01*
X107492800Y-83404936D01*
X142034800Y-83404936D01*
X142034800Y-83595064D01*
X142071892Y-83781538D01*
X142144651Y-83957194D01*
X142250280Y-84115279D01*
X142384721Y-84249720D01*
X142542806Y-84355349D01*
X142718462Y-84428108D01*
X142904936Y-84465200D01*
X142927589Y-84465200D01*
X142988787Y-84515424D01*
X143116751Y-84583822D01*
X143255601Y-84625942D01*
X143363814Y-84636600D01*
X143363823Y-84636600D01*
X143399999Y-84640163D01*
X143436175Y-84636600D01*
X146133601Y-84636600D01*
X146146721Y-84649720D01*
X146304806Y-84755349D01*
X146480462Y-84828108D01*
X146666936Y-84865200D01*
X146857064Y-84865200D01*
X147043538Y-84828108D01*
X147219194Y-84755349D01*
X147377279Y-84649720D01*
X147511720Y-84515279D01*
X147617349Y-84357194D01*
X147690108Y-84181538D01*
X147727200Y-83995064D01*
X147727200Y-83804936D01*
X147690108Y-83618462D01*
X147617349Y-83442806D01*
X147511720Y-83284721D01*
X147377279Y-83150280D01*
X147219194Y-83044651D01*
X147043538Y-82971892D01*
X146857064Y-82934800D01*
X146666936Y-82934800D01*
X146480462Y-82971892D01*
X146304806Y-83044651D01*
X146146721Y-83150280D01*
X146133601Y-83163400D01*
X143905301Y-83163400D01*
X143855349Y-83042806D01*
X143749720Y-82884721D01*
X143615279Y-82750280D01*
X143457194Y-82644651D01*
X143281538Y-82571892D01*
X143095064Y-82534800D01*
X142904936Y-82534800D01*
X142718462Y-82571892D01*
X142542806Y-82644651D01*
X142384721Y-82750280D01*
X142250280Y-82884721D01*
X142144651Y-83042806D01*
X142071892Y-83218462D01*
X142034800Y-83404936D01*
X107492800Y-83404936D01*
X107492800Y-82130000D01*
X122895359Y-82130000D01*
X122909091Y-82269420D01*
X122949758Y-82403481D01*
X123015798Y-82527033D01*
X123104673Y-82635327D01*
X123212967Y-82724202D01*
X123336519Y-82790242D01*
X123470580Y-82830909D01*
X123610000Y-82844641D01*
X124256800Y-82841200D01*
X124434600Y-82663400D01*
X124434600Y-81305400D01*
X124485400Y-81305400D01*
X124485400Y-82663400D01*
X124663200Y-82841200D01*
X125310000Y-82844641D01*
X125449420Y-82830909D01*
X125583481Y-82790242D01*
X125707033Y-82724202D01*
X125815327Y-82635327D01*
X125904202Y-82527033D01*
X125970242Y-82403481D01*
X126010909Y-82269420D01*
X126024641Y-82130000D01*
X126022380Y-81704936D01*
X144034800Y-81704936D01*
X144034800Y-81895064D01*
X144071892Y-82081538D01*
X144144651Y-82257194D01*
X144250280Y-82415279D01*
X144384721Y-82549720D01*
X144542806Y-82655349D01*
X144718462Y-82728108D01*
X144904936Y-82765200D01*
X145095064Y-82765200D01*
X145281538Y-82728108D01*
X145457194Y-82655349D01*
X145615279Y-82549720D01*
X145749720Y-82415279D01*
X145855349Y-82257194D01*
X145863879Y-82236600D01*
X148957401Y-82236600D01*
X148970521Y-82249720D01*
X149128606Y-82355349D01*
X149304262Y-82428108D01*
X149490736Y-82465200D01*
X149680864Y-82465200D01*
X149867338Y-82428108D01*
X150042994Y-82355349D01*
X150201079Y-82249720D01*
X150335520Y-82115279D01*
X150441149Y-81957194D01*
X150513908Y-81781538D01*
X150551000Y-81595064D01*
X150551000Y-81404936D01*
X152034800Y-81404936D01*
X152034800Y-81595064D01*
X152071892Y-81781538D01*
X152144651Y-81957194D01*
X152250280Y-82115279D01*
X152263400Y-82128399D01*
X152263400Y-82363817D01*
X152259836Y-82400000D01*
X152263400Y-82436183D01*
X152263400Y-82436186D01*
X152273642Y-82540164D01*
X152274059Y-82544398D01*
X152316178Y-82683247D01*
X152384576Y-82811212D01*
X152418487Y-82852532D01*
X152476626Y-82923375D01*
X152504732Y-82946441D01*
X153634800Y-84076510D01*
X153634800Y-84095064D01*
X153671892Y-84281538D01*
X153744651Y-84457194D01*
X153850280Y-84615279D01*
X153984721Y-84749720D01*
X154142806Y-84855349D01*
X154318462Y-84928108D01*
X154504936Y-84965200D01*
X154695064Y-84965200D01*
X154881538Y-84928108D01*
X155057194Y-84855349D01*
X155215279Y-84749720D01*
X155349720Y-84615279D01*
X155455349Y-84457194D01*
X155528108Y-84281538D01*
X155565200Y-84095064D01*
X155565200Y-83904936D01*
X155528108Y-83718462D01*
X155455349Y-83542806D01*
X155349720Y-83384721D01*
X155215279Y-83250280D01*
X155057194Y-83144651D01*
X154881538Y-83071892D01*
X154695064Y-83034800D01*
X154676510Y-83034800D01*
X154544144Y-82902434D01*
X176809400Y-82902434D01*
X176809400Y-83097566D01*
X176847468Y-83288947D01*
X176922142Y-83469225D01*
X177030551Y-83631471D01*
X177168529Y-83769449D01*
X177330775Y-83877858D01*
X177387201Y-83901230D01*
X177387200Y-84933408D01*
X177322142Y-85030775D01*
X177247468Y-85211053D01*
X177209400Y-85402434D01*
X177209400Y-85597566D01*
X177247468Y-85788947D01*
X177322142Y-85969225D01*
X177430551Y-86131471D01*
X177568529Y-86269449D01*
X177730775Y-86377858D01*
X177911053Y-86452532D01*
X178102434Y-86490600D01*
X178297566Y-86490600D01*
X178488947Y-86452532D01*
X178669225Y-86377858D01*
X178831471Y-86269449D01*
X178969449Y-86131471D01*
X179077858Y-85969225D01*
X179152532Y-85788947D01*
X179190600Y-85597566D01*
X179190600Y-85402434D01*
X179152532Y-85211053D01*
X179077858Y-85030775D01*
X179012800Y-84933409D01*
X179012800Y-83439920D01*
X179016732Y-83399999D01*
X179005378Y-83284721D01*
X179001039Y-83240663D01*
X178954562Y-83087450D01*
X178879088Y-82946248D01*
X178777517Y-82822483D01*
X178774147Y-82819717D01*
X178752532Y-82711053D01*
X178677858Y-82530775D01*
X178569449Y-82368529D01*
X178431471Y-82230551D01*
X178269225Y-82122142D01*
X178088947Y-82047468D01*
X177897566Y-82009400D01*
X177702434Y-82009400D01*
X177511053Y-82047468D01*
X177330775Y-82122142D01*
X177168529Y-82230551D01*
X177030551Y-82368529D01*
X176922142Y-82530775D01*
X176847468Y-82711053D01*
X176809400Y-82902434D01*
X154544144Y-82902434D01*
X154271762Y-82630053D01*
X154281538Y-82628108D01*
X154457194Y-82555349D01*
X154615279Y-82449720D01*
X154749720Y-82315279D01*
X154855349Y-82157194D01*
X154928108Y-81981538D01*
X154965200Y-81795064D01*
X154965200Y-81776509D01*
X156005110Y-80736600D01*
X159271601Y-80736600D01*
X159284721Y-80749720D01*
X159442806Y-80855349D01*
X159618462Y-80928108D01*
X159804936Y-80965200D01*
X159995064Y-80965200D01*
X160181538Y-80928108D01*
X160357194Y-80855349D01*
X160515279Y-80749720D01*
X160649720Y-80615279D01*
X160755349Y-80457194D01*
X160828108Y-80281538D01*
X160865200Y-80095064D01*
X160865200Y-79904936D01*
X160828108Y-79718462D01*
X160755349Y-79542806D01*
X160649720Y-79384721D01*
X160515279Y-79250280D01*
X160392256Y-79168079D01*
X160428102Y-79081538D01*
X160465194Y-78895064D01*
X160465194Y-78704936D01*
X160428102Y-78518462D01*
X160355343Y-78342806D01*
X160249714Y-78184721D01*
X160115273Y-78050280D01*
X159957188Y-77944651D01*
X159781532Y-77871892D01*
X159595058Y-77834800D01*
X159404930Y-77834800D01*
X159218456Y-77871892D01*
X159042800Y-77944651D01*
X158884715Y-78050280D01*
X158871595Y-78063400D01*
X155536175Y-78063400D01*
X155499999Y-78059837D01*
X155463823Y-78063400D01*
X155463814Y-78063400D01*
X155355601Y-78074058D01*
X155216751Y-78116178D01*
X155088787Y-78184576D01*
X154976625Y-78276625D01*
X154953559Y-78304731D01*
X154823490Y-78434800D01*
X154804936Y-78434800D01*
X154618462Y-78471892D01*
X154442806Y-78544651D01*
X154284721Y-78650280D01*
X154150280Y-78784721D01*
X154044651Y-78942806D01*
X153971892Y-79118462D01*
X153934800Y-79304936D01*
X153934800Y-79495064D01*
X153971892Y-79681538D01*
X154044651Y-79857194D01*
X154150280Y-80015279D01*
X154284721Y-80149720D01*
X154418909Y-80239382D01*
X153923491Y-80734800D01*
X153904936Y-80734800D01*
X153718462Y-80771892D01*
X153660783Y-80795784D01*
X153615279Y-80750280D01*
X153457194Y-80644651D01*
X153281538Y-80571892D01*
X153095064Y-80534800D01*
X152904936Y-80534800D01*
X152718462Y-80571892D01*
X152542806Y-80644651D01*
X152384721Y-80750280D01*
X152250280Y-80884721D01*
X152144651Y-81042806D01*
X152071892Y-81218462D01*
X152034800Y-81404936D01*
X150551000Y-81404936D01*
X150513908Y-81218462D01*
X150441149Y-81042806D01*
X150335520Y-80884721D01*
X150201079Y-80750280D01*
X150042994Y-80644651D01*
X149867338Y-80571892D01*
X149680864Y-80534800D01*
X149490736Y-80534800D01*
X149304262Y-80571892D01*
X149128606Y-80644651D01*
X148970521Y-80750280D01*
X148957401Y-80763400D01*
X145336175Y-80763400D01*
X145299999Y-80759837D01*
X145263823Y-80763400D01*
X145263814Y-80763400D01*
X145155601Y-80774058D01*
X145016751Y-80816178D01*
X144981912Y-80834800D01*
X144904936Y-80834800D01*
X144718462Y-80871892D01*
X144542806Y-80944651D01*
X144384721Y-81050280D01*
X144250280Y-81184721D01*
X144144651Y-81342806D01*
X144071892Y-81518462D01*
X144034800Y-81704936D01*
X126022380Y-81704936D01*
X126021200Y-81483200D01*
X125843400Y-81305400D01*
X124485400Y-81305400D01*
X124434600Y-81305400D01*
X123076600Y-81305400D01*
X122898800Y-81483200D01*
X122895359Y-82130000D01*
X107492800Y-82130000D01*
X107492800Y-77356672D01*
X109461494Y-75387978D01*
X109614667Y-75617217D01*
X109858783Y-75861333D01*
X110145833Y-76053134D01*
X110464785Y-76185248D01*
X110803384Y-76252600D01*
X111148616Y-76252600D01*
X111487215Y-76185248D01*
X111806167Y-76053134D01*
X112093217Y-75861333D01*
X112337333Y-75617217D01*
X112500000Y-75373769D01*
X112662667Y-75617217D01*
X112906783Y-75861333D01*
X113193833Y-76053134D01*
X113512785Y-76185248D01*
X113851384Y-76252600D01*
X114196616Y-76252600D01*
X114535215Y-76185248D01*
X114854167Y-76053134D01*
X115141217Y-75861333D01*
X115385333Y-75617217D01*
X115577134Y-75330167D01*
X115584328Y-75312800D01*
X117663328Y-75312800D01*
X121637033Y-79286506D01*
X121662483Y-79317517D01*
X121693493Y-79342966D01*
X121786248Y-79419088D01*
X121927450Y-79494562D01*
X122080663Y-79541039D01*
X122240000Y-79556732D01*
X122279923Y-79552800D01*
X123073623Y-79552800D01*
X123076430Y-79562053D01*
X123172310Y-79741431D01*
X123238538Y-79822130D01*
X123212967Y-79835798D01*
X123104673Y-79924673D01*
X123015798Y-80032967D01*
X122949758Y-80156519D01*
X122909091Y-80290580D01*
X122895359Y-80430000D01*
X122898800Y-81076800D01*
X123076600Y-81254600D01*
X124434600Y-81254600D01*
X124434600Y-81234600D01*
X124485400Y-81234600D01*
X124485400Y-81254600D01*
X125843400Y-81254600D01*
X126021200Y-81076800D01*
X126024641Y-80430000D01*
X126010909Y-80290580D01*
X125970242Y-80156519D01*
X125904202Y-80032967D01*
X125815327Y-79924673D01*
X125707033Y-79835798D01*
X125681462Y-79822130D01*
X125747690Y-79741431D01*
X125843570Y-79562053D01*
X125902613Y-79367416D01*
X125922549Y-79165000D01*
X125922549Y-78315000D01*
X125902613Y-78112584D01*
X125843570Y-77917947D01*
X125747690Y-77738569D01*
X125618658Y-77581342D01*
X125482986Y-77470000D01*
X125618658Y-77358658D01*
X125747690Y-77201431D01*
X125843570Y-77022053D01*
X125902613Y-76827416D01*
X125922549Y-76625000D01*
X125922549Y-75775000D01*
X163637451Y-75775000D01*
X163637451Y-76625000D01*
X163657387Y-76827416D01*
X163716430Y-77022053D01*
X163812310Y-77201431D01*
X163941342Y-77358658D01*
X164077014Y-77470000D01*
X163941342Y-77581342D01*
X163812310Y-77738569D01*
X163716430Y-77917947D01*
X163657387Y-78112584D01*
X163637451Y-78315000D01*
X163637451Y-79165000D01*
X163657387Y-79367416D01*
X163716430Y-79562053D01*
X163812310Y-79741431D01*
X163941342Y-79898658D01*
X164077014Y-80010000D01*
X163941342Y-80121342D01*
X163812310Y-80278569D01*
X163716430Y-80457947D01*
X163657387Y-80652584D01*
X163637451Y-80855000D01*
X163637451Y-81705000D01*
X163657387Y-81907416D01*
X163716430Y-82102053D01*
X163812310Y-82281431D01*
X163941342Y-82438658D01*
X164098569Y-82567690D01*
X164277947Y-82663570D01*
X164472584Y-82722613D01*
X164675000Y-82742549D01*
X165525000Y-82742549D01*
X165727416Y-82722613D01*
X165922053Y-82663570D01*
X166101431Y-82567690D01*
X166258658Y-82438658D01*
X166370000Y-82302986D01*
X166481342Y-82438658D01*
X166638569Y-82567690D01*
X166817947Y-82663570D01*
X167012584Y-82722613D01*
X167215000Y-82742549D01*
X168065000Y-82742549D01*
X168267416Y-82722613D01*
X168462053Y-82663570D01*
X168641431Y-82567690D01*
X168798658Y-82438658D01*
X168927690Y-82281431D01*
X169023570Y-82102053D01*
X169082613Y-81907416D01*
X169102549Y-81705000D01*
X169102549Y-80855000D01*
X169082613Y-80652584D01*
X169023570Y-80457947D01*
X168927690Y-80278569D01*
X168798658Y-80121342D01*
X168662986Y-80010000D01*
X168798658Y-79898658D01*
X168927690Y-79741431D01*
X169023570Y-79562053D01*
X169082613Y-79367416D01*
X169102549Y-79165000D01*
X169102549Y-78315000D01*
X169082613Y-78112584D01*
X169023570Y-77917947D01*
X168927690Y-77738569D01*
X168798658Y-77581342D01*
X168662986Y-77470000D01*
X168798658Y-77358658D01*
X168927690Y-77201431D01*
X169023570Y-77022053D01*
X169082613Y-76827416D01*
X169102549Y-76625000D01*
X169102549Y-75775000D01*
X183957451Y-75775000D01*
X183957451Y-76625000D01*
X183977387Y-76827416D01*
X184036430Y-77022053D01*
X184132310Y-77201431D01*
X184261342Y-77358658D01*
X184397014Y-77470000D01*
X184261342Y-77581342D01*
X184132310Y-77738569D01*
X184036430Y-77917947D01*
X183977387Y-78112584D01*
X183957451Y-78315000D01*
X183957451Y-79165000D01*
X183977387Y-79367416D01*
X184036430Y-79562053D01*
X184132310Y-79741431D01*
X184261342Y-79898658D01*
X184397014Y-80010000D01*
X184261342Y-80121342D01*
X184132310Y-80278569D01*
X184036430Y-80457947D01*
X183977387Y-80652584D01*
X183957451Y-80855000D01*
X183957451Y-81705000D01*
X183977387Y-81907416D01*
X184036430Y-82102053D01*
X184132310Y-82281431D01*
X184261342Y-82438658D01*
X184418569Y-82567690D01*
X184597947Y-82663570D01*
X184792584Y-82722613D01*
X184995000Y-82742549D01*
X185845000Y-82742549D01*
X186047416Y-82722613D01*
X186242053Y-82663570D01*
X186421431Y-82567690D01*
X186578658Y-82438658D01*
X186690000Y-82302986D01*
X186801342Y-82438658D01*
X186958569Y-82567690D01*
X187137947Y-82663570D01*
X187332584Y-82722613D01*
X187535000Y-82742549D01*
X188385000Y-82742549D01*
X188587416Y-82722613D01*
X188782053Y-82663570D01*
X188961431Y-82567690D01*
X189118658Y-82438658D01*
X189247690Y-82281431D01*
X189343570Y-82102053D01*
X189402613Y-81907416D01*
X189422549Y-81705000D01*
X189422549Y-80855000D01*
X189402613Y-80652584D01*
X189343570Y-80457947D01*
X189247690Y-80278569D01*
X189118658Y-80121342D01*
X188982986Y-80010000D01*
X189118658Y-79898658D01*
X189247690Y-79741431D01*
X189343570Y-79562053D01*
X189402613Y-79367416D01*
X189422549Y-79165000D01*
X189422549Y-78315000D01*
X189421312Y-78302434D01*
X190209400Y-78302434D01*
X190209400Y-78497566D01*
X190247468Y-78688947D01*
X190322142Y-78869225D01*
X190387201Y-78966593D01*
X190387200Y-81333408D01*
X190322142Y-81430775D01*
X190247468Y-81611053D01*
X190209400Y-81802434D01*
X190209400Y-81997566D01*
X190247468Y-82188947D01*
X190322142Y-82369225D01*
X190430551Y-82531471D01*
X190568529Y-82669449D01*
X190730775Y-82777858D01*
X190911053Y-82852532D01*
X191102434Y-82890600D01*
X191297566Y-82890600D01*
X191309400Y-82888246D01*
X191309400Y-82997566D01*
X191347468Y-83188947D01*
X191422142Y-83369225D01*
X191530551Y-83531471D01*
X191668529Y-83669449D01*
X191830775Y-83777858D01*
X192011053Y-83852532D01*
X192202434Y-83890600D01*
X192397566Y-83890600D01*
X192588947Y-83852532D01*
X192769225Y-83777858D01*
X192931471Y-83669449D01*
X193069449Y-83531471D01*
X193177858Y-83369225D01*
X193252532Y-83188947D01*
X193290600Y-82997566D01*
X193290600Y-82802434D01*
X193252532Y-82611053D01*
X193177858Y-82430775D01*
X193112800Y-82333409D01*
X193112800Y-79866591D01*
X193177858Y-79769225D01*
X193252532Y-79588947D01*
X193290600Y-79397566D01*
X193290600Y-79202434D01*
X193252532Y-79011053D01*
X193177858Y-78830775D01*
X193069449Y-78668529D01*
X192931471Y-78530551D01*
X192769225Y-78422142D01*
X192588947Y-78347468D01*
X192397566Y-78309400D01*
X192202434Y-78309400D01*
X192190600Y-78311754D01*
X192190600Y-78302434D01*
X192152532Y-78111053D01*
X192077858Y-77930775D01*
X191969449Y-77768529D01*
X191831471Y-77630551D01*
X191669225Y-77522142D01*
X191488947Y-77447468D01*
X191297566Y-77409400D01*
X191102434Y-77409400D01*
X190911053Y-77447468D01*
X190730775Y-77522142D01*
X190568529Y-77630551D01*
X190430551Y-77768529D01*
X190322142Y-77930775D01*
X190247468Y-78111053D01*
X190209400Y-78302434D01*
X189421312Y-78302434D01*
X189402613Y-78112584D01*
X189343570Y-77917947D01*
X189247690Y-77738569D01*
X189118658Y-77581342D01*
X188982986Y-77470000D01*
X189118658Y-77358658D01*
X189247690Y-77201431D01*
X189343570Y-77022053D01*
X189402613Y-76827416D01*
X189422549Y-76625000D01*
X189422549Y-75775000D01*
X189402613Y-75572584D01*
X189343570Y-75377947D01*
X189247690Y-75198569D01*
X189118658Y-75041342D01*
X188961431Y-74912310D01*
X188782053Y-74816430D01*
X188587416Y-74757387D01*
X188385000Y-74737451D01*
X187535000Y-74737451D01*
X187332584Y-74757387D01*
X187137947Y-74816430D01*
X186958569Y-74912310D01*
X186801342Y-75041342D01*
X186690000Y-75177014D01*
X186578658Y-75041342D01*
X186421431Y-74912310D01*
X186242053Y-74816430D01*
X186047416Y-74757387D01*
X185845000Y-74737451D01*
X184995000Y-74737451D01*
X184792584Y-74757387D01*
X184597947Y-74816430D01*
X184418569Y-74912310D01*
X184261342Y-75041342D01*
X184132310Y-75198569D01*
X184036430Y-75377947D01*
X183977387Y-75572584D01*
X183957451Y-75775000D01*
X169102549Y-75775000D01*
X169082613Y-75572584D01*
X169023570Y-75377947D01*
X168927690Y-75198569D01*
X168798658Y-75041342D01*
X168641431Y-74912310D01*
X168462053Y-74816430D01*
X168267416Y-74757387D01*
X168065000Y-74737451D01*
X167215000Y-74737451D01*
X167012584Y-74757387D01*
X166817947Y-74816430D01*
X166638569Y-74912310D01*
X166481342Y-75041342D01*
X166370000Y-75177014D01*
X166258658Y-75041342D01*
X166101431Y-74912310D01*
X165922053Y-74816430D01*
X165727416Y-74757387D01*
X165525000Y-74737451D01*
X164675000Y-74737451D01*
X164472584Y-74757387D01*
X164277947Y-74816430D01*
X164098569Y-74912310D01*
X163941342Y-75041342D01*
X163812310Y-75198569D01*
X163716430Y-75377947D01*
X163657387Y-75572584D01*
X163637451Y-75775000D01*
X125922549Y-75775000D01*
X125902613Y-75572584D01*
X125843570Y-75377947D01*
X125747690Y-75198569D01*
X125618658Y-75041342D01*
X125482986Y-74930000D01*
X125618658Y-74818658D01*
X125747690Y-74661431D01*
X125843570Y-74482053D01*
X125902613Y-74287416D01*
X125922549Y-74085000D01*
X125922549Y-73235000D01*
X125902613Y-73032584D01*
X125900191Y-73024600D01*
X195548966Y-73024600D01*
X195702825Y-73039686D01*
G37*
X195702825Y-73039686D02*
X195820972Y-73075358D01*
X195929940Y-73133297D01*
X196025582Y-73211300D01*
X196104249Y-73306392D01*
X196162946Y-73414950D01*
X196199441Y-73532845D01*
X196215400Y-73684689D01*
X196215400Y-74759809D01*
X196207416Y-74757387D01*
X196005000Y-74737451D01*
X195155000Y-74737451D01*
X194952584Y-74757387D01*
X194757947Y-74816430D01*
X194578569Y-74912310D01*
X194421342Y-75041342D01*
X194292310Y-75198569D01*
X194196430Y-75377947D01*
X194137387Y-75572584D01*
X194117451Y-75775000D01*
X194117451Y-76625000D01*
X194137387Y-76827416D01*
X194196430Y-77022053D01*
X194292310Y-77201431D01*
X194358538Y-77282130D01*
X194332967Y-77295798D01*
X194224673Y-77384673D01*
X194135798Y-77492967D01*
X194069758Y-77616519D01*
X194029091Y-77750580D01*
X194015359Y-77890000D01*
X194018800Y-78536800D01*
X194196600Y-78714600D01*
X195554600Y-78714600D01*
X195554600Y-78694600D01*
X195605400Y-78694600D01*
X195605400Y-78714600D01*
X195625400Y-78714600D01*
X195625400Y-78765400D01*
X195605400Y-78765400D01*
X195605400Y-78785400D01*
X195554600Y-78785400D01*
X195554600Y-78765400D01*
X194196600Y-78765400D01*
X194018800Y-78943200D01*
X194015359Y-79590000D01*
X194029091Y-79729420D01*
X194069758Y-79863481D01*
X194135798Y-79987033D01*
X194224673Y-80095327D01*
X194332967Y-80184202D01*
X194358538Y-80197870D01*
X194292310Y-80278569D01*
X194196430Y-80457947D01*
X194137387Y-80652584D01*
X194117451Y-80855000D01*
X194117451Y-81705000D01*
X194137387Y-81907416D01*
X194196430Y-82102053D01*
X194292310Y-82281431D01*
X194421342Y-82438658D01*
X194557014Y-82550000D01*
X194421342Y-82661342D01*
X194292310Y-82818569D01*
X194196430Y-82997947D01*
X194137387Y-83192584D01*
X194117451Y-83395000D01*
X194117451Y-84245000D01*
X194137387Y-84447416D01*
X194196430Y-84642053D01*
X194292310Y-84821431D01*
X194421342Y-84978658D01*
X194578569Y-85107690D01*
X194757947Y-85203570D01*
X194952584Y-85262613D01*
X195155000Y-85282549D01*
X196005000Y-85282549D01*
X196207416Y-85262613D01*
X196215400Y-85260191D01*
X196215401Y-89999809D01*
X196207416Y-89997387D01*
X196005000Y-89977451D01*
X195155000Y-89977451D01*
X194952584Y-89997387D01*
X194757947Y-90056430D01*
X194578569Y-90152310D01*
X194421342Y-90281342D01*
X194292310Y-90438569D01*
X194196430Y-90617947D01*
X194137387Y-90812584D01*
X194117451Y-91015000D01*
X194117451Y-91865000D01*
X194137387Y-92067416D01*
X194196430Y-92262053D01*
X194292310Y-92441431D01*
X194358538Y-92522130D01*
X194332967Y-92535798D01*
X194224673Y-92624673D01*
X194135798Y-92732967D01*
X194069758Y-92856519D01*
X194029091Y-92990580D01*
X194015359Y-93130000D01*
X194018800Y-93776800D01*
X194196600Y-93954600D01*
X195554600Y-93954600D01*
X195554600Y-93934600D01*
X195605400Y-93934600D01*
X195605400Y-93954600D01*
X195625400Y-93954600D01*
X195625400Y-94005400D01*
X195605400Y-94005400D01*
X195605400Y-94025400D01*
X195554600Y-94025400D01*
X195554600Y-94005400D01*
X194196600Y-94005400D01*
X194018800Y-94183200D01*
X194015359Y-94830000D01*
X194029091Y-94969420D01*
X194069758Y-95103481D01*
X194135798Y-95227033D01*
X194224673Y-95335327D01*
X194332967Y-95424202D01*
X194358538Y-95437870D01*
X194292310Y-95518569D01*
X194196430Y-95697947D01*
X194137387Y-95892584D01*
X194117451Y-96095000D01*
X194117451Y-96945000D01*
X194137387Y-97147416D01*
X194196430Y-97342053D01*
X194292310Y-97521431D01*
X194421342Y-97678658D01*
X194578569Y-97807690D01*
X194757947Y-97903570D01*
X194952584Y-97962613D01*
X195155000Y-97982549D01*
X196005000Y-97982549D01*
X196207416Y-97962613D01*
X196215401Y-97960191D01*
X196215401Y-104108956D01*
X196200314Y-104262826D01*
X196164644Y-104380971D01*
X196106704Y-104489940D01*
X196028700Y-104585582D01*
X195933609Y-104664248D01*
X195825049Y-104722946D01*
X195707155Y-104759441D01*
X195555312Y-104775400D01*
X106711034Y-104775400D01*
X106557174Y-104760314D01*
X106439029Y-104724644D01*
X106330060Y-104666704D01*
X106234418Y-104588700D01*
X106155752Y-104493609D01*
X106097054Y-104385049D01*
X106060559Y-104267155D01*
X106044600Y-104115312D01*
X106044600Y-101745577D01*
X108921355Y-101745577D01*
X108921932Y-101750107D01*
X108997387Y-102016002D01*
X109123266Y-102262068D01*
X109294731Y-102478848D01*
X109505193Y-102658011D01*
X109746564Y-102792673D01*
X110009569Y-102877658D01*
X110284100Y-102909700D01*
X110474600Y-102909700D01*
X110474600Y-101525400D01*
X110525400Y-101525400D01*
X110525400Y-102909700D01*
X110715900Y-102909700D01*
X110990431Y-102877658D01*
X111253436Y-102792673D01*
X111494807Y-102658011D01*
X111705269Y-102478848D01*
X111728086Y-102450000D01*
X112735359Y-102450000D01*
X112749091Y-102589420D01*
X112789758Y-102723481D01*
X112855798Y-102847033D01*
X112944673Y-102955327D01*
X113052967Y-103044202D01*
X113176519Y-103110242D01*
X113310580Y-103150909D01*
X113450000Y-103164641D01*
X114096800Y-103161200D01*
X114274600Y-102983400D01*
X114274600Y-101625400D01*
X114325400Y-101625400D01*
X114325400Y-102983400D01*
X114503200Y-103161200D01*
X115150000Y-103164641D01*
X115289420Y-103150909D01*
X115423481Y-103110242D01*
X115547033Y-103044202D01*
X115655327Y-102955327D01*
X115744202Y-102847033D01*
X115810242Y-102723481D01*
X115850909Y-102589420D01*
X115864641Y-102450000D01*
X115861200Y-101803200D01*
X115683400Y-101625400D01*
X114325400Y-101625400D01*
X114274600Y-101625400D01*
X112916600Y-101625400D01*
X112738800Y-101803200D01*
X112735359Y-102450000D01*
X111728086Y-102450000D01*
X111876734Y-102262068D01*
X112002613Y-102016002D01*
X112078068Y-101750107D01*
X112078645Y-101745577D01*
X111922138Y-101525400D01*
X110525400Y-101525400D01*
X110474600Y-101525400D01*
X109077862Y-101525400D01*
X108921355Y-101745577D01*
X106044600Y-101745577D01*
X106044600Y-101254423D01*
X108921355Y-101254423D01*
X109077862Y-101474600D01*
X110474600Y-101474600D01*
X110474600Y-101454600D01*
X110525400Y-101454600D01*
X110525400Y-101474600D01*
X111922138Y-101474600D01*
X112078645Y-101254423D01*
X112078068Y-101249893D01*
X112002613Y-100983998D01*
X111882908Y-100750000D01*
X112735359Y-100750000D01*
X112738800Y-101396800D01*
X112916600Y-101574600D01*
X114274600Y-101574600D01*
X114274600Y-101554600D01*
X114325400Y-101554600D01*
X114325400Y-101574600D01*
X115683400Y-101574600D01*
X115861200Y-101396800D01*
X115864641Y-100750000D01*
X115850909Y-100610580D01*
X115810242Y-100476519D01*
X115744202Y-100352967D01*
X115655327Y-100244673D01*
X115547033Y-100155798D01*
X115521462Y-100142130D01*
X115587690Y-100061431D01*
X115683570Y-99882053D01*
X115742613Y-99687416D01*
X115762549Y-99485000D01*
X115762549Y-98635000D01*
X115742613Y-98432584D01*
X115683570Y-98237947D01*
X115587690Y-98058569D01*
X115458658Y-97901342D01*
X115301431Y-97772310D01*
X115122053Y-97676430D01*
X114927416Y-97617387D01*
X114725000Y-97597451D01*
X113875000Y-97597451D01*
X113672584Y-97617387D01*
X113477947Y-97676430D01*
X113298569Y-97772310D01*
X113141342Y-97901342D01*
X113012310Y-98058569D01*
X112916430Y-98237947D01*
X112857387Y-98432584D01*
X112837451Y-98635000D01*
X112837451Y-99485000D01*
X112857387Y-99687416D01*
X112916430Y-99882053D01*
X113012310Y-100061431D01*
X113078538Y-100142130D01*
X113052967Y-100155798D01*
X112944673Y-100244673D01*
X112855798Y-100352967D01*
X112789758Y-100476519D01*
X112749091Y-100610580D01*
X112735359Y-100750000D01*
X111882908Y-100750000D01*
X111876734Y-100737932D01*
X111714936Y-100533374D01*
X111719845Y-100529345D01*
X111839457Y-100383597D01*
X111928336Y-100217315D01*
X111983068Y-100036888D01*
X112001549Y-99849250D01*
X112001549Y-99150750D01*
X111983068Y-98963112D01*
X111928336Y-98782685D01*
X111839457Y-98616403D01*
X111719845Y-98470655D01*
X111574097Y-98351043D01*
X111407815Y-98262164D01*
X111227388Y-98207432D01*
X111039750Y-98188951D01*
X109960250Y-98188951D01*
X109772612Y-98207432D01*
X109592185Y-98262164D01*
X109425903Y-98351043D01*
X109280155Y-98470655D01*
X109160543Y-98616403D01*
X109071664Y-98782685D01*
X109016932Y-98963112D01*
X108998451Y-99150750D01*
X108998451Y-99849250D01*
X109016932Y-100036888D01*
X109071664Y-100217315D01*
X109160543Y-100383597D01*
X109280155Y-100529345D01*
X109285064Y-100533374D01*
X109123266Y-100737932D01*
X108997387Y-100983998D01*
X108921932Y-101249893D01*
X108921355Y-101254423D01*
X106044600Y-101254423D01*
X106044600Y-93686986D01*
X106102483Y-93757517D01*
X106133499Y-93782971D01*
X108225033Y-95874506D01*
X108250483Y-95905517D01*
X108315626Y-95958978D01*
X108374248Y-96007088D01*
X108515450Y-96082562D01*
X108668663Y-96129039D01*
X108828000Y-96144732D01*
X108867923Y-96140800D01*
X109415672Y-96140800D01*
X109422866Y-96158167D01*
X109614667Y-96445217D01*
X109858783Y-96689333D01*
X110145833Y-96881134D01*
X110464785Y-97013248D01*
X110803384Y-97080600D01*
X111148616Y-97080600D01*
X111487215Y-97013248D01*
X111806167Y-96881134D01*
X112093217Y-96689333D01*
X112337333Y-96445217D01*
X112500000Y-96201769D01*
X112662667Y-96445217D01*
X112906783Y-96689333D01*
X113193833Y-96881134D01*
X113512785Y-97013248D01*
X113851384Y-97080600D01*
X114196616Y-97080600D01*
X114535215Y-97013248D01*
X114854167Y-96881134D01*
X115141217Y-96689333D01*
X115385333Y-96445217D01*
X115577134Y-96158167D01*
X115603298Y-96095000D01*
X122997451Y-96095000D01*
X122997451Y-96945000D01*
X123017387Y-97147416D01*
X123076430Y-97342053D01*
X123172310Y-97521431D01*
X123301342Y-97678658D01*
X123437014Y-97790000D01*
X123301342Y-97901342D01*
X123172310Y-98058569D01*
X123076430Y-98237947D01*
X123017387Y-98432584D01*
X122997451Y-98635000D01*
X122997451Y-99485000D01*
X123017387Y-99687416D01*
X123076430Y-99882053D01*
X123172310Y-100061431D01*
X123301342Y-100218658D01*
X123437014Y-100330000D01*
X123301342Y-100441342D01*
X123172310Y-100598569D01*
X123076430Y-100777947D01*
X123017387Y-100972584D01*
X122997451Y-101175000D01*
X122997451Y-102025000D01*
X123017387Y-102227416D01*
X123076430Y-102422053D01*
X123172310Y-102601431D01*
X123301342Y-102758658D01*
X123458569Y-102887690D01*
X123637947Y-102983570D01*
X123832584Y-103042613D01*
X124035000Y-103062549D01*
X124885000Y-103062549D01*
X125087416Y-103042613D01*
X125282053Y-102983570D01*
X125461431Y-102887690D01*
X125618658Y-102758658D01*
X125730000Y-102622986D01*
X125841342Y-102758658D01*
X125998569Y-102887690D01*
X126177947Y-102983570D01*
X126372584Y-103042613D01*
X126575000Y-103062549D01*
X127425000Y-103062549D01*
X127627416Y-103042613D01*
X127822053Y-102983570D01*
X128001431Y-102887690D01*
X128158658Y-102758658D01*
X128287690Y-102601431D01*
X128383570Y-102422053D01*
X128442613Y-102227416D01*
X128462549Y-102025000D01*
X128462549Y-101175000D01*
X128442613Y-100972584D01*
X128383570Y-100777947D01*
X128287690Y-100598569D01*
X128158658Y-100441342D01*
X128022986Y-100330000D01*
X128158658Y-100218658D01*
X128287690Y-100061431D01*
X128383570Y-99882053D01*
X128442613Y-99687416D01*
X128462549Y-99485000D01*
X128462549Y-98635000D01*
X128442613Y-98432584D01*
X128383570Y-98237947D01*
X128287690Y-98058569D01*
X128158658Y-97901342D01*
X128022986Y-97790000D01*
X128158658Y-97678658D01*
X128287690Y-97521431D01*
X128383570Y-97342053D01*
X128442613Y-97147416D01*
X128462549Y-96945000D01*
X128462549Y-96802434D01*
X136009400Y-96802434D01*
X136009400Y-96997566D01*
X136047468Y-97188947D01*
X136122142Y-97369225D01*
X136230551Y-97531471D01*
X136368529Y-97669449D01*
X136530775Y-97777858D01*
X136711053Y-97852532D01*
X136825905Y-97875377D01*
X136997033Y-98046506D01*
X137022483Y-98077517D01*
X137146248Y-98179088D01*
X137287450Y-98254562D01*
X137440663Y-98301039D01*
X137560077Y-98312800D01*
X137560079Y-98312800D01*
X137599999Y-98316732D01*
X137639920Y-98312800D01*
X137687201Y-98312800D01*
X137687200Y-99027229D01*
X137597566Y-99009400D01*
X137402434Y-99009400D01*
X137211053Y-99047468D01*
X137030775Y-99122142D01*
X136868529Y-99230551D01*
X136730551Y-99368529D01*
X136622142Y-99530775D01*
X136547468Y-99711053D01*
X136509400Y-99902434D01*
X136509400Y-100097566D01*
X136547468Y-100288947D01*
X136622142Y-100469225D01*
X136730551Y-100631471D01*
X136868529Y-100769449D01*
X137030775Y-100877858D01*
X137201820Y-100948708D01*
X136953495Y-101197033D01*
X136922484Y-101222483D01*
X136897034Y-101253494D01*
X136820912Y-101346249D01*
X136808631Y-101369225D01*
X136745438Y-101487450D01*
X136698961Y-101640663D01*
X136688628Y-101745577D01*
X136683268Y-101800000D01*
X136686641Y-101834245D01*
X136622142Y-101930775D01*
X136547468Y-102111053D01*
X136509400Y-102302434D01*
X136509400Y-102497566D01*
X136547468Y-102688947D01*
X136622142Y-102869225D01*
X136730551Y-103031471D01*
X136868529Y-103169449D01*
X137030775Y-103277858D01*
X137211053Y-103352532D01*
X137402434Y-103390600D01*
X137597566Y-103390600D01*
X137788947Y-103352532D01*
X137969225Y-103277858D01*
X138131471Y-103169449D01*
X138269449Y-103031471D01*
X138377858Y-102869225D01*
X138452532Y-102688947D01*
X138490600Y-102497566D01*
X138490600Y-102302434D01*
X138452532Y-102111053D01*
X138419109Y-102030363D01*
X139046507Y-101402966D01*
X139077517Y-101377517D01*
X139179088Y-101253752D01*
X139254562Y-101112550D01*
X139301039Y-100959337D01*
X139312800Y-100839923D01*
X139312800Y-100839922D01*
X139316732Y-100800000D01*
X139312800Y-100760077D01*
X139312800Y-100139920D01*
X139316732Y-100099999D01*
X139312800Y-100060077D01*
X139312800Y-99939921D01*
X139316732Y-99900001D01*
X139312800Y-99860077D01*
X139312800Y-97539922D01*
X139316732Y-97500000D01*
X139312800Y-97460077D01*
X139312800Y-96839916D01*
X139316732Y-96799995D01*
X139312057Y-96752532D01*
X139301039Y-96640659D01*
X139254562Y-96487446D01*
X139201911Y-96388943D01*
X139179088Y-96346243D01*
X139147729Y-96308033D01*
X139077517Y-96222479D01*
X139046500Y-96197024D01*
X138944476Y-96095000D01*
X140777451Y-96095000D01*
X140777451Y-96945000D01*
X140797387Y-97147416D01*
X140856430Y-97342053D01*
X140952310Y-97521431D01*
X141081342Y-97678658D01*
X141217014Y-97790000D01*
X141081342Y-97901342D01*
X140952310Y-98058569D01*
X140856430Y-98237947D01*
X140797387Y-98432584D01*
X140777451Y-98635000D01*
X140777451Y-99485000D01*
X140797387Y-99687416D01*
X140856430Y-99882053D01*
X140952310Y-100061431D01*
X141081342Y-100218658D01*
X141217014Y-100330000D01*
X141081342Y-100441342D01*
X140952310Y-100598569D01*
X140856430Y-100777947D01*
X140797387Y-100972584D01*
X140777451Y-101175000D01*
X140777451Y-102025000D01*
X140797387Y-102227416D01*
X140856430Y-102422053D01*
X140952310Y-102601431D01*
X141081342Y-102758658D01*
X141238569Y-102887690D01*
X141417947Y-102983570D01*
X141612584Y-103042613D01*
X141815000Y-103062549D01*
X142665000Y-103062549D01*
X142867416Y-103042613D01*
X143062053Y-102983570D01*
X143241431Y-102887690D01*
X143398658Y-102758658D01*
X143510000Y-102622986D01*
X143621342Y-102758658D01*
X143778569Y-102887690D01*
X143957947Y-102983570D01*
X144152584Y-103042613D01*
X144355000Y-103062549D01*
X145205000Y-103062549D01*
X145407416Y-103042613D01*
X145602053Y-102983570D01*
X145781431Y-102887690D01*
X145938658Y-102758658D01*
X146067690Y-102601431D01*
X146163570Y-102422053D01*
X146222613Y-102227416D01*
X146242549Y-102025000D01*
X146242549Y-101175000D01*
X146222613Y-100972584D01*
X146170999Y-100802434D01*
X178809400Y-100802434D01*
X178809400Y-100997566D01*
X178847468Y-101188947D01*
X178922142Y-101369225D01*
X179030551Y-101531471D01*
X179168529Y-101669449D01*
X179330775Y-101777858D01*
X179511053Y-101852532D01*
X179702434Y-101890600D01*
X179897566Y-101890600D01*
X180088947Y-101852532D01*
X180269225Y-101777858D01*
X180431471Y-101669449D01*
X180569449Y-101531471D01*
X180677858Y-101369225D01*
X180752532Y-101188947D01*
X180790600Y-100997566D01*
X180790600Y-100802434D01*
X180752532Y-100611053D01*
X180712800Y-100515132D01*
X180712800Y-99666591D01*
X180777858Y-99569225D01*
X180852532Y-99388947D01*
X180890600Y-99197566D01*
X180890600Y-99002434D01*
X180852532Y-98811053D01*
X180777858Y-98630775D01*
X180669449Y-98468529D01*
X180531471Y-98330551D01*
X180369225Y-98222142D01*
X180188947Y-98147468D01*
X179997566Y-98109400D01*
X179802434Y-98109400D01*
X179611053Y-98147468D01*
X179430775Y-98222142D01*
X179268529Y-98330551D01*
X179130551Y-98468529D01*
X179022142Y-98630775D01*
X178947468Y-98811053D01*
X178909400Y-99002434D01*
X178909400Y-99197566D01*
X178947468Y-99388947D01*
X179022142Y-99569225D01*
X179087201Y-99666592D01*
X179087200Y-100211880D01*
X179030551Y-100268529D01*
X178922142Y-100430775D01*
X178847468Y-100611053D01*
X178809400Y-100802434D01*
X146170999Y-100802434D01*
X146163570Y-100777947D01*
X146067690Y-100598569D01*
X145938658Y-100441342D01*
X145802986Y-100330000D01*
X145938658Y-100218658D01*
X146067690Y-100061431D01*
X146163570Y-99882053D01*
X146222613Y-99687416D01*
X146242549Y-99485000D01*
X146242549Y-98635000D01*
X146222613Y-98432584D01*
X146163570Y-98237947D01*
X146067690Y-98058569D01*
X145938658Y-97901342D01*
X145802986Y-97790000D01*
X145938658Y-97678658D01*
X146067690Y-97521431D01*
X146163570Y-97342053D01*
X146222613Y-97147416D01*
X146242549Y-96945000D01*
X146242549Y-96095000D01*
X146222613Y-95892584D01*
X146163570Y-95697947D01*
X146067690Y-95518569D01*
X145938658Y-95361342D01*
X145781431Y-95232310D01*
X145602053Y-95136430D01*
X145407416Y-95077387D01*
X145205000Y-95057451D01*
X144355000Y-95057451D01*
X144152584Y-95077387D01*
X143957947Y-95136430D01*
X143778569Y-95232310D01*
X143621342Y-95361342D01*
X143510000Y-95497014D01*
X143398658Y-95361342D01*
X143241431Y-95232310D01*
X143062053Y-95136430D01*
X142867416Y-95077387D01*
X142665000Y-95057451D01*
X141815000Y-95057451D01*
X141612584Y-95077387D01*
X141417947Y-95136430D01*
X141238569Y-95232310D01*
X141081342Y-95361342D01*
X140952310Y-95518569D01*
X140856430Y-95697947D01*
X140797387Y-95892584D01*
X140777451Y-96095000D01*
X138944476Y-96095000D01*
X138775378Y-95925902D01*
X138752532Y-95811049D01*
X138677858Y-95630771D01*
X138569449Y-95468525D01*
X138431471Y-95330547D01*
X138269225Y-95222138D01*
X138088947Y-95147464D01*
X137897566Y-95109396D01*
X137702434Y-95109396D01*
X137511053Y-95147464D01*
X137330775Y-95222138D01*
X137168529Y-95330547D01*
X137030551Y-95468525D01*
X136922142Y-95630771D01*
X136847468Y-95811049D01*
X136824834Y-95924835D01*
X136711053Y-95947468D01*
X136530775Y-96022142D01*
X136368529Y-96130551D01*
X136230551Y-96268529D01*
X136122142Y-96430775D01*
X136047468Y-96611053D01*
X136009400Y-96802434D01*
X128462549Y-96802434D01*
X128462549Y-96095000D01*
X128442613Y-95892584D01*
X128383570Y-95697947D01*
X128287690Y-95518569D01*
X128158658Y-95361342D01*
X128001431Y-95232310D01*
X127822053Y-95136430D01*
X127627416Y-95077387D01*
X127425000Y-95057451D01*
X126575000Y-95057451D01*
X126372584Y-95077387D01*
X126177947Y-95136430D01*
X125998569Y-95232310D01*
X125841342Y-95361342D01*
X125730000Y-95497014D01*
X125618658Y-95361342D01*
X125461431Y-95232310D01*
X125282053Y-95136430D01*
X125087416Y-95077387D01*
X124885000Y-95057451D01*
X124035000Y-95057451D01*
X123832584Y-95077387D01*
X123637947Y-95136430D01*
X123458569Y-95232310D01*
X123301342Y-95361342D01*
X123172310Y-95518569D01*
X123076430Y-95697947D01*
X123017387Y-95892584D01*
X122997451Y-96095000D01*
X115603298Y-96095000D01*
X115709248Y-95839215D01*
X115776600Y-95500616D01*
X115776600Y-95155384D01*
X115709248Y-94816785D01*
X115577134Y-94497833D01*
X115385333Y-94210783D01*
X115141217Y-93966667D01*
X114854167Y-93774866D01*
X114535215Y-93642752D01*
X114196616Y-93575400D01*
X113851384Y-93575400D01*
X113512785Y-93642752D01*
X113193833Y-93774866D01*
X112906783Y-93966667D01*
X112662667Y-94210783D01*
X112500000Y-94454231D01*
X112337333Y-94210783D01*
X112093217Y-93966667D01*
X111806167Y-93774866D01*
X111487215Y-93642752D01*
X111148616Y-93575400D01*
X110803384Y-93575400D01*
X110464785Y-93642752D01*
X110145833Y-93774866D01*
X109858783Y-93966667D01*
X109614667Y-94210783D01*
X109422866Y-94497833D01*
X109415672Y-94515200D01*
X109164673Y-94515200D01*
X107492800Y-92843328D01*
X107492800Y-92602434D01*
X137509400Y-92602434D01*
X137509400Y-92797566D01*
X137547468Y-92988947D01*
X137622142Y-93169225D01*
X137730551Y-93331471D01*
X137749073Y-93349993D01*
X137730551Y-93368515D01*
X137622142Y-93530761D01*
X137547468Y-93711039D01*
X137509400Y-93902420D01*
X137509400Y-94097552D01*
X137547468Y-94288933D01*
X137622142Y-94469211D01*
X137730551Y-94631457D01*
X137868529Y-94769435D01*
X138030775Y-94877844D01*
X138211053Y-94952518D01*
X138402434Y-94990586D01*
X138597566Y-94990586D01*
X138788947Y-94952518D01*
X138969225Y-94877844D01*
X139131471Y-94769435D01*
X139269449Y-94631457D01*
X139377858Y-94469211D01*
X139392187Y-94434618D01*
X139420933Y-94431787D01*
X139420936Y-94431787D01*
X139540350Y-94420026D01*
X139693563Y-94373549D01*
X139834765Y-94298075D01*
X139958530Y-94196504D01*
X139983985Y-94165487D01*
X140246500Y-93902972D01*
X140250345Y-93899817D01*
X140397028Y-94046500D01*
X140422483Y-94077517D01*
X140546248Y-94179088D01*
X140687450Y-94254562D01*
X140840663Y-94301039D01*
X141000000Y-94316732D01*
X141039923Y-94312800D01*
X141183409Y-94312800D01*
X141280775Y-94377858D01*
X141461053Y-94452532D01*
X141652434Y-94490600D01*
X141847566Y-94490600D01*
X142038947Y-94452532D01*
X142219225Y-94377858D01*
X142381471Y-94269449D01*
X142519449Y-94131471D01*
X142627858Y-93969225D01*
X142702532Y-93788947D01*
X142740600Y-93597566D01*
X142740600Y-93402434D01*
X142702532Y-93211053D01*
X142627858Y-93030775D01*
X142607296Y-93000002D01*
X142627858Y-92969229D01*
X142702532Y-92788951D01*
X142740600Y-92597570D01*
X142740600Y-92402438D01*
X142702532Y-92211057D01*
X142627858Y-92030779D01*
X142519449Y-91868533D01*
X142381471Y-91730555D01*
X142219225Y-91622146D01*
X142038947Y-91547472D01*
X141847566Y-91509404D01*
X141652434Y-91509404D01*
X141461053Y-91547472D01*
X141280775Y-91622146D01*
X141183415Y-91687200D01*
X141039923Y-91687200D01*
X141000000Y-91683268D01*
X140960077Y-91687200D01*
X140840663Y-91698961D01*
X140687450Y-91745438D01*
X140546248Y-91820912D01*
X140422483Y-91922483D01*
X140397030Y-91953498D01*
X140163328Y-92187200D01*
X140036672Y-92187200D01*
X140002972Y-92153500D01*
X139977517Y-92122483D01*
X139853752Y-92020912D01*
X139712550Y-91945438D01*
X139559337Y-91898961D01*
X139439923Y-91887200D01*
X139439920Y-91887200D01*
X139400000Y-91883268D01*
X139360080Y-91887200D01*
X139066591Y-91887200D01*
X138969225Y-91822142D01*
X138788947Y-91747468D01*
X138597566Y-91709400D01*
X138402434Y-91709400D01*
X138211053Y-91747468D01*
X138030775Y-91822142D01*
X137868529Y-91930551D01*
X137730551Y-92068529D01*
X137622142Y-92230775D01*
X137547468Y-92411053D01*
X137509400Y-92602434D01*
X107492800Y-92602434D01*
X107492800Y-89654936D01*
X133034800Y-89654936D01*
X133034800Y-89845064D01*
X133071892Y-90031538D01*
X133144651Y-90207194D01*
X133250280Y-90365279D01*
X133384721Y-90499720D01*
X133542806Y-90605349D01*
X133718462Y-90678108D01*
X133883258Y-90710888D01*
X134351521Y-91179152D01*
X134371886Y-91281532D01*
X134444645Y-91457188D01*
X134550274Y-91615273D01*
X134684715Y-91749714D01*
X134842800Y-91855343D01*
X135018456Y-91928102D01*
X135204930Y-91965194D01*
X135395058Y-91965194D01*
X135581532Y-91928102D01*
X135757188Y-91855343D01*
X135915273Y-91749714D01*
X136049714Y-91615273D01*
X136155343Y-91457188D01*
X136228102Y-91281532D01*
X136265194Y-91095058D01*
X136265194Y-90904930D01*
X136228102Y-90718456D01*
X136155343Y-90542800D01*
X136049714Y-90384715D01*
X135915273Y-90250274D01*
X135757188Y-90144645D01*
X135581532Y-90071886D01*
X135395058Y-90034794D01*
X135362425Y-90034794D01*
X134960888Y-89633258D01*
X134928108Y-89468462D01*
X134855349Y-89292806D01*
X134749720Y-89134721D01*
X134615279Y-89000280D01*
X134457194Y-88894651D01*
X134281538Y-88821892D01*
X134095064Y-88784800D01*
X133904936Y-88784800D01*
X133718462Y-88821892D01*
X133542806Y-88894651D01*
X133384721Y-89000280D01*
X133250280Y-89134721D01*
X133144651Y-89292806D01*
X133071892Y-89468462D01*
X133034800Y-89654936D01*
X107492800Y-89654936D01*
X107492800Y-85935000D01*
X140777451Y-85935000D01*
X140777451Y-86785000D01*
X140797387Y-86987416D01*
X140856430Y-87182053D01*
X140952310Y-87361431D01*
X141081342Y-87518658D01*
X141217014Y-87630000D01*
X141081342Y-87741342D01*
X140952310Y-87898569D01*
X140856430Y-88077947D01*
X140797387Y-88272584D01*
X140777451Y-88475000D01*
X140777451Y-89325000D01*
X140797387Y-89527416D01*
X140856430Y-89722053D01*
X140952310Y-89901431D01*
X141081342Y-90058658D01*
X141238569Y-90187690D01*
X141417947Y-90283570D01*
X141612584Y-90342613D01*
X141815000Y-90362549D01*
X142665000Y-90362549D01*
X142867416Y-90342613D01*
X143062053Y-90283570D01*
X143241431Y-90187690D01*
X143398658Y-90058658D01*
X143527690Y-89901431D01*
X143623570Y-89722053D01*
X143682613Y-89527416D01*
X143702549Y-89325000D01*
X143702549Y-88475000D01*
X143682613Y-88272584D01*
X143623570Y-88077947D01*
X143527690Y-87898569D01*
X143398658Y-87741342D01*
X143262986Y-87630000D01*
X143398658Y-87518658D01*
X143527690Y-87361431D01*
X143611304Y-87205000D01*
X148397451Y-87205000D01*
X148397451Y-88055000D01*
X148417387Y-88257416D01*
X148476430Y-88452053D01*
X148572310Y-88631431D01*
X148701342Y-88788658D01*
X148858569Y-88917690D01*
X149037947Y-89013570D01*
X149232584Y-89072613D01*
X149435000Y-89092549D01*
X150285000Y-89092549D01*
X150487416Y-89072613D01*
X150682053Y-89013570D01*
X150861431Y-88917690D01*
X151018658Y-88788658D01*
X151130000Y-88652986D01*
X151241342Y-88788658D01*
X151398569Y-88917690D01*
X151577947Y-89013570D01*
X151772584Y-89072613D01*
X151975000Y-89092549D01*
X152825000Y-89092549D01*
X153027416Y-89072613D01*
X153222053Y-89013570D01*
X153401431Y-88917690D01*
X153558658Y-88788658D01*
X153670000Y-88652986D01*
X153781342Y-88788658D01*
X153938569Y-88917690D01*
X154117947Y-89013570D01*
X154312584Y-89072613D01*
X154515000Y-89092549D01*
X155365000Y-89092549D01*
X155567416Y-89072613D01*
X155762053Y-89013570D01*
X155941431Y-88917690D01*
X156098658Y-88788658D01*
X156227690Y-88631431D01*
X156323570Y-88452053D01*
X156382613Y-88257416D01*
X156402549Y-88055000D01*
X156402549Y-87704936D01*
X156734800Y-87704936D01*
X156734800Y-87895064D01*
X156771892Y-88081538D01*
X156844651Y-88257194D01*
X156950280Y-88415279D01*
X156963400Y-88428399D01*
X156963400Y-88963816D01*
X156959836Y-89000000D01*
X156963400Y-89036183D01*
X156963400Y-89036185D01*
X156974058Y-89144398D01*
X157016178Y-89283248D01*
X157055058Y-89355988D01*
X157084576Y-89411212D01*
X157143694Y-89483247D01*
X157176625Y-89523374D01*
X157204732Y-89546441D01*
X159834800Y-92176510D01*
X159834800Y-92195064D01*
X159871892Y-92381538D01*
X159944651Y-92557194D01*
X160050280Y-92715279D01*
X160184721Y-92849720D01*
X160342806Y-92955349D01*
X160518462Y-93028108D01*
X160704936Y-93065200D01*
X160895064Y-93065200D01*
X161081538Y-93028108D01*
X161257194Y-92955349D01*
X161415279Y-92849720D01*
X161549720Y-92715279D01*
X161655349Y-92557194D01*
X161728108Y-92381538D01*
X161765200Y-92195064D01*
X161765200Y-92004936D01*
X161728108Y-91818462D01*
X161655349Y-91642806D01*
X161549720Y-91484721D01*
X161415279Y-91350280D01*
X161257194Y-91244651D01*
X161081538Y-91171892D01*
X161047895Y-91165200D01*
X161095064Y-91165200D01*
X161281538Y-91128108D01*
X161457194Y-91055349D01*
X161615279Y-90949720D01*
X161671117Y-90893883D01*
X161833305Y-91056071D01*
X162055988Y-91204862D01*
X162303419Y-91307352D01*
X162566091Y-91359600D01*
X162833909Y-91359600D01*
X163096581Y-91307352D01*
X163344012Y-91204862D01*
X163566695Y-91056071D01*
X163640694Y-90982072D01*
X163637451Y-91015000D01*
X163637451Y-91865000D01*
X163657387Y-92067416D01*
X163716430Y-92262053D01*
X163812310Y-92441431D01*
X163941342Y-92598658D01*
X164077014Y-92710000D01*
X163941342Y-92821342D01*
X163812310Y-92978569D01*
X163716430Y-93157947D01*
X163657387Y-93352584D01*
X163637451Y-93555000D01*
X163637451Y-94405000D01*
X163657387Y-94607416D01*
X163716430Y-94802053D01*
X163812310Y-94981431D01*
X163941342Y-95138658D01*
X164077014Y-95250000D01*
X163941342Y-95361342D01*
X163812310Y-95518569D01*
X163716430Y-95697947D01*
X163657387Y-95892584D01*
X163637451Y-96095000D01*
X163637451Y-96945000D01*
X163657387Y-97147416D01*
X163716430Y-97342053D01*
X163812310Y-97521431D01*
X163941342Y-97678658D01*
X164098569Y-97807690D01*
X164277947Y-97903570D01*
X164472584Y-97962613D01*
X164675000Y-97982549D01*
X165525000Y-97982549D01*
X165727416Y-97962613D01*
X165922053Y-97903570D01*
X166101431Y-97807690D01*
X166258658Y-97678658D01*
X166387690Y-97521431D01*
X166483570Y-97342053D01*
X166542613Y-97147416D01*
X166562549Y-96945000D01*
X166562549Y-96095000D01*
X166542613Y-95892584D01*
X166483570Y-95697947D01*
X166387690Y-95518569D01*
X166258658Y-95361342D01*
X166122986Y-95250000D01*
X166258658Y-95138658D01*
X166387690Y-94981431D01*
X166483570Y-94802053D01*
X166542613Y-94607416D01*
X166562549Y-94405000D01*
X166562549Y-93902434D01*
X170709400Y-93902434D01*
X170709400Y-94097566D01*
X170747468Y-94288947D01*
X170822142Y-94469225D01*
X170887201Y-94566593D01*
X170887200Y-96333408D01*
X170822142Y-96430775D01*
X170747468Y-96611053D01*
X170709400Y-96802434D01*
X170709400Y-96997566D01*
X170747468Y-97188947D01*
X170822142Y-97369225D01*
X170930551Y-97531471D01*
X171068529Y-97669449D01*
X171230775Y-97777858D01*
X171411053Y-97852532D01*
X171602434Y-97890600D01*
X171797566Y-97890600D01*
X171988947Y-97852532D01*
X172169225Y-97777858D01*
X172331471Y-97669449D01*
X172469449Y-97531471D01*
X172577858Y-97369225D01*
X172652532Y-97188947D01*
X172690600Y-96997566D01*
X172690600Y-96802434D01*
X172652532Y-96611053D01*
X172577858Y-96430775D01*
X172512800Y-96333409D01*
X172512800Y-95702434D01*
X178809400Y-95702434D01*
X178809400Y-95897566D01*
X178847468Y-96088947D01*
X178922142Y-96269225D01*
X179030551Y-96431471D01*
X179168529Y-96569449D01*
X179330775Y-96677858D01*
X179511053Y-96752532D01*
X179702434Y-96790600D01*
X179897566Y-96790600D01*
X180088947Y-96752532D01*
X180269225Y-96677858D01*
X180431471Y-96569449D01*
X180569449Y-96431471D01*
X180677858Y-96269225D01*
X180752532Y-96088947D01*
X180790600Y-95897566D01*
X180790600Y-95702434D01*
X180752532Y-95511053D01*
X180677858Y-95330775D01*
X180613159Y-95233946D01*
X180613159Y-94466152D01*
X180678217Y-94368786D01*
X180752891Y-94188508D01*
X180790959Y-93997127D01*
X180790959Y-93801995D01*
X180752891Y-93610614D01*
X180678217Y-93430336D01*
X180569808Y-93268090D01*
X180431830Y-93130112D01*
X180269584Y-93021703D01*
X180089306Y-92947029D01*
X179897925Y-92908961D01*
X179702793Y-92908961D01*
X179511412Y-92947029D01*
X179331134Y-93021703D01*
X179168888Y-93130112D01*
X179030910Y-93268090D01*
X178922501Y-93430336D01*
X178847827Y-93610614D01*
X178809759Y-93801995D01*
X178809759Y-93997127D01*
X178847827Y-94188508D01*
X178922501Y-94368786D01*
X178987559Y-94466153D01*
X178987560Y-95232870D01*
X178922142Y-95330775D01*
X178847468Y-95511053D01*
X178809400Y-95702434D01*
X172512800Y-95702434D01*
X172512800Y-94566591D01*
X172577858Y-94469225D01*
X172652532Y-94288947D01*
X172690600Y-94097566D01*
X172690600Y-93902434D01*
X172652532Y-93711053D01*
X172577858Y-93530775D01*
X172469449Y-93368529D01*
X172331471Y-93230551D01*
X172169225Y-93122142D01*
X171988947Y-93047468D01*
X171797566Y-93009400D01*
X171602434Y-93009400D01*
X171411053Y-93047468D01*
X171230775Y-93122142D01*
X171068529Y-93230551D01*
X170930551Y-93368529D01*
X170822142Y-93530775D01*
X170747468Y-93711053D01*
X170709400Y-93902434D01*
X166562549Y-93902434D01*
X166562549Y-93555000D01*
X166542613Y-93352584D01*
X166483570Y-93157947D01*
X166387690Y-92978569D01*
X166258658Y-92821342D01*
X166122986Y-92710000D01*
X166258658Y-92598658D01*
X166387690Y-92441431D01*
X166483570Y-92262053D01*
X166542613Y-92067416D01*
X166562549Y-91865000D01*
X166562549Y-91015000D01*
X166542613Y-90812584D01*
X166483570Y-90617947D01*
X166387690Y-90438569D01*
X166358035Y-90402434D01*
X172609400Y-90402434D01*
X172609400Y-90597566D01*
X172647468Y-90788947D01*
X172722142Y-90969225D01*
X172830551Y-91131471D01*
X172968529Y-91269449D01*
X173130775Y-91377858D01*
X173311053Y-91452532D01*
X173502434Y-91490600D01*
X173697566Y-91490600D01*
X173888947Y-91452532D01*
X174069225Y-91377858D01*
X174231471Y-91269449D01*
X174369449Y-91131471D01*
X174455668Y-91002434D01*
X181009400Y-91002434D01*
X181009400Y-91197566D01*
X181047468Y-91388947D01*
X181122142Y-91569225D01*
X181230551Y-91731471D01*
X181368529Y-91869449D01*
X181530775Y-91977858D01*
X181711053Y-92052532D01*
X181902434Y-92090600D01*
X182097566Y-92090600D01*
X182288947Y-92052532D01*
X182469225Y-91977858D01*
X182631471Y-91869449D01*
X182769449Y-91731471D01*
X182781865Y-91712889D01*
X182850280Y-91815279D01*
X182984721Y-91949720D01*
X183142806Y-92055349D01*
X183318462Y-92128108D01*
X183504936Y-92165200D01*
X183695064Y-92165200D01*
X183881538Y-92128108D01*
X184057194Y-92055349D01*
X184215279Y-91949720D01*
X184349720Y-91815279D01*
X184455349Y-91657194D01*
X184528108Y-91481538D01*
X184565200Y-91295064D01*
X184565200Y-91276509D01*
X184826709Y-91015000D01*
X186497451Y-91015000D01*
X186497451Y-91865000D01*
X186517387Y-92067416D01*
X186576430Y-92262053D01*
X186672310Y-92441431D01*
X186801342Y-92598658D01*
X186937014Y-92710000D01*
X186801342Y-92821342D01*
X186672310Y-92978569D01*
X186576430Y-93157947D01*
X186517387Y-93352584D01*
X186497451Y-93555000D01*
X186497451Y-94405000D01*
X186517387Y-94607416D01*
X186576430Y-94802053D01*
X186672310Y-94981431D01*
X186801342Y-95138658D01*
X186937014Y-95250000D01*
X186801342Y-95361342D01*
X186672310Y-95518569D01*
X186576430Y-95697947D01*
X186517387Y-95892584D01*
X186497451Y-96095000D01*
X186497451Y-96945000D01*
X186517387Y-97147416D01*
X186576430Y-97342053D01*
X186672310Y-97521431D01*
X186801342Y-97678658D01*
X186958569Y-97807690D01*
X187137947Y-97903570D01*
X187332584Y-97962613D01*
X187535000Y-97982549D01*
X188385000Y-97982549D01*
X188587416Y-97962613D01*
X188782053Y-97903570D01*
X188961431Y-97807690D01*
X189118658Y-97678658D01*
X189247690Y-97521431D01*
X189343570Y-97342053D01*
X189402613Y-97147416D01*
X189422549Y-96945000D01*
X189422549Y-96095000D01*
X189402613Y-95892584D01*
X189343570Y-95697947D01*
X189247690Y-95518569D01*
X189118658Y-95361342D01*
X188982986Y-95250000D01*
X189118658Y-95138658D01*
X189247690Y-94981431D01*
X189343570Y-94802053D01*
X189402613Y-94607416D01*
X189422549Y-94405000D01*
X189422549Y-93555000D01*
X189402613Y-93352584D01*
X189343570Y-93157947D01*
X189247690Y-92978569D01*
X189118658Y-92821342D01*
X188982986Y-92710000D01*
X189118658Y-92598658D01*
X189247690Y-92441431D01*
X189343570Y-92262053D01*
X189402613Y-92067416D01*
X189422549Y-91865000D01*
X189422549Y-91015000D01*
X189402613Y-90812584D01*
X189343570Y-90617947D01*
X189247690Y-90438569D01*
X189118658Y-90281342D01*
X188961431Y-90152310D01*
X188782053Y-90056430D01*
X188587416Y-89997387D01*
X188385000Y-89977451D01*
X187535000Y-89977451D01*
X187332584Y-89997387D01*
X187137947Y-90056430D01*
X186958569Y-90152310D01*
X186801342Y-90281342D01*
X186672310Y-90438569D01*
X186576430Y-90617947D01*
X186517387Y-90812584D01*
X186497451Y-91015000D01*
X184826709Y-91015000D01*
X185546442Y-90295268D01*
X185546447Y-90295262D01*
X185695268Y-90146441D01*
X185723374Y-90123375D01*
X185815424Y-90011213D01*
X185883822Y-89883249D01*
X185925942Y-89744399D01*
X185936600Y-89636186D01*
X185936600Y-89636185D01*
X185940164Y-89600000D01*
X185936600Y-89563814D01*
X185936600Y-87828399D01*
X185949720Y-87815279D01*
X186055349Y-87657194D01*
X186128108Y-87481538D01*
X186165200Y-87295064D01*
X186165200Y-87104936D01*
X186128108Y-86918462D01*
X186055349Y-86742806D01*
X185949720Y-86584721D01*
X185815279Y-86450280D01*
X185657194Y-86344651D01*
X185481538Y-86271892D01*
X185295064Y-86234800D01*
X185104936Y-86234800D01*
X184918462Y-86271892D01*
X184742806Y-86344651D01*
X184584721Y-86450280D01*
X184450280Y-86584721D01*
X184344651Y-86742806D01*
X184271892Y-86918462D01*
X184234800Y-87104936D01*
X184234800Y-87295064D01*
X184271892Y-87481538D01*
X184344651Y-87657194D01*
X184450280Y-87815279D01*
X184463401Y-87828400D01*
X184463401Y-88334800D01*
X184304934Y-88334800D01*
X184118460Y-88371892D01*
X183942804Y-88444651D01*
X183784719Y-88550280D01*
X183650278Y-88684721D01*
X183544649Y-88842806D01*
X183471890Y-89018462D01*
X183453836Y-89109225D01*
X183357194Y-89044651D01*
X183181538Y-88971892D01*
X182995064Y-88934800D01*
X182812800Y-88934800D01*
X182812800Y-88201230D01*
X182869225Y-88177858D01*
X183031471Y-88069449D01*
X183169449Y-87931471D01*
X183277858Y-87769225D01*
X183352532Y-87588947D01*
X183390600Y-87397566D01*
X183390600Y-87202434D01*
X183352532Y-87011053D01*
X183277858Y-86830775D01*
X183169449Y-86668529D01*
X183031471Y-86530551D01*
X182869225Y-86422142D01*
X182688947Y-86347468D01*
X182497566Y-86309400D01*
X182302434Y-86309400D01*
X182111053Y-86347468D01*
X181930775Y-86422142D01*
X181768529Y-86530551D01*
X181630551Y-86668529D01*
X181522142Y-86830775D01*
X181447468Y-87011053D01*
X181425853Y-87119717D01*
X181422483Y-87122483D01*
X181320912Y-87246249D01*
X181245438Y-87387451D01*
X181198961Y-87540664D01*
X181188420Y-87647690D01*
X181183268Y-87700000D01*
X181187200Y-87739921D01*
X181187201Y-90533407D01*
X181122142Y-90630775D01*
X181047468Y-90811053D01*
X181009400Y-91002434D01*
X174455668Y-91002434D01*
X174477858Y-90969225D01*
X174552532Y-90788947D01*
X174575378Y-90674095D01*
X176546507Y-88702966D01*
X176577517Y-88677517D01*
X176679088Y-88553752D01*
X176754562Y-88412550D01*
X176801039Y-88259337D01*
X176812800Y-88139923D01*
X176812800Y-88139922D01*
X176816732Y-88100000D01*
X176812800Y-88060077D01*
X176812800Y-86066591D01*
X176877858Y-85969225D01*
X176952532Y-85788947D01*
X176990600Y-85597566D01*
X176990600Y-85402434D01*
X176952532Y-85211053D01*
X176877858Y-85030775D01*
X176769449Y-84868529D01*
X176631471Y-84730551D01*
X176469225Y-84622142D01*
X176288947Y-84547468D01*
X176097566Y-84509400D01*
X175902434Y-84509400D01*
X175711053Y-84547468D01*
X175530775Y-84622142D01*
X175368529Y-84730551D01*
X175230551Y-84868529D01*
X175122142Y-85030775D01*
X175047468Y-85211053D01*
X175009400Y-85402434D01*
X175009400Y-85597566D01*
X175047468Y-85788947D01*
X175122142Y-85969225D01*
X175187201Y-86066593D01*
X175187200Y-87763327D01*
X173425905Y-89524622D01*
X173311053Y-89547468D01*
X173130775Y-89622142D01*
X172968529Y-89730551D01*
X172830551Y-89868529D01*
X172722142Y-90030775D01*
X172647468Y-90211053D01*
X172609400Y-90402434D01*
X166358035Y-90402434D01*
X166258658Y-90281342D01*
X166101431Y-90152310D01*
X165922053Y-90056430D01*
X165727416Y-89997387D01*
X165525000Y-89977451D01*
X164675000Y-89977451D01*
X164472584Y-89997387D01*
X164277947Y-90056430D01*
X164098569Y-90152310D01*
X164047624Y-90194120D01*
X164059600Y-90133909D01*
X164059600Y-89866091D01*
X164007352Y-89603419D01*
X163904862Y-89355988D01*
X163756071Y-89133305D01*
X163566695Y-88943929D01*
X163344012Y-88795138D01*
X163096581Y-88692648D01*
X162833909Y-88640400D01*
X162636600Y-88640400D01*
X162636600Y-88106767D01*
X162745880Y-87997487D01*
X162851509Y-87839402D01*
X162924268Y-87663746D01*
X162961360Y-87477272D01*
X162961360Y-87287144D01*
X162924268Y-87100670D01*
X162851509Y-86925014D01*
X162745880Y-86766929D01*
X162611439Y-86632488D01*
X162453354Y-86526859D01*
X162277698Y-86454100D01*
X162195722Y-86437794D01*
X162153068Y-86334819D01*
X162047439Y-86176734D01*
X161912998Y-86042293D01*
X161754913Y-85936664D01*
X161642345Y-85890037D01*
X161628108Y-85818462D01*
X161581085Y-85704936D01*
X165934800Y-85704936D01*
X165934800Y-85895064D01*
X165971892Y-86081538D01*
X166044651Y-86257194D01*
X166150280Y-86415279D01*
X166284721Y-86549720D01*
X166442806Y-86655349D01*
X166618462Y-86728108D01*
X166804936Y-86765200D01*
X166823491Y-86765200D01*
X167134800Y-87076510D01*
X167134800Y-87095064D01*
X167171892Y-87281538D01*
X167244651Y-87457194D01*
X167350280Y-87615279D01*
X167484721Y-87749720D01*
X167642806Y-87855349D01*
X167818462Y-87928108D01*
X168004936Y-87965200D01*
X168195064Y-87965200D01*
X168381538Y-87928108D01*
X168557194Y-87855349D01*
X168715279Y-87749720D01*
X168849720Y-87615279D01*
X168955349Y-87457194D01*
X169028108Y-87281538D01*
X169057683Y-87132853D01*
X169081538Y-87128108D01*
X169257194Y-87055349D01*
X169415279Y-86949720D01*
X169549720Y-86815279D01*
X169655349Y-86657194D01*
X169728108Y-86481538D01*
X169765200Y-86295064D01*
X169765200Y-86104936D01*
X169728108Y-85918462D01*
X169655349Y-85742806D01*
X169549720Y-85584721D01*
X169415279Y-85450280D01*
X169257194Y-85344651D01*
X169081538Y-85271892D01*
X168895064Y-85234800D01*
X168876510Y-85234800D01*
X168665200Y-85023491D01*
X168665200Y-85004936D01*
X168628108Y-84818462D01*
X168555349Y-84642806D01*
X168449720Y-84484721D01*
X168315279Y-84350280D01*
X168157194Y-84244651D01*
X167981538Y-84171892D01*
X167795064Y-84134800D01*
X167604936Y-84134800D01*
X167418462Y-84171892D01*
X167242806Y-84244651D01*
X167084721Y-84350280D01*
X166950280Y-84484721D01*
X166844651Y-84642806D01*
X166771892Y-84818462D01*
X166767147Y-84842317D01*
X166618462Y-84871892D01*
X166442806Y-84944651D01*
X166284721Y-85050280D01*
X166150280Y-85184721D01*
X166044651Y-85342806D01*
X165971892Y-85518462D01*
X165934800Y-85704936D01*
X161581085Y-85704936D01*
X161555349Y-85642806D01*
X161449720Y-85484721D01*
X161315279Y-85350280D01*
X161157194Y-85244651D01*
X160981538Y-85171892D01*
X160795064Y-85134800D01*
X160604936Y-85134800D01*
X160418462Y-85171892D01*
X160242806Y-85244651D01*
X160084721Y-85350280D01*
X159950280Y-85484721D01*
X159844651Y-85642806D01*
X159771892Y-85818462D01*
X159734800Y-86004936D01*
X159734800Y-86027590D01*
X159734375Y-86028108D01*
X159684576Y-86088788D01*
X159616178Y-86216752D01*
X159574058Y-86355602D01*
X159564357Y-86454100D01*
X159559836Y-86500000D01*
X159563400Y-86536184D01*
X159563401Y-87671600D01*
X159550280Y-87684721D01*
X159444651Y-87842806D01*
X159371892Y-88018462D01*
X159334800Y-88204936D01*
X159334800Y-88395064D01*
X159371892Y-88581538D01*
X159444651Y-88757194D01*
X159550280Y-88915279D01*
X159684721Y-89049720D01*
X159834800Y-89150000D01*
X159834800Y-89295064D01*
X159871892Y-89481538D01*
X159944651Y-89657194D01*
X160050280Y-89815279D01*
X160095784Y-89860783D01*
X160071892Y-89918462D01*
X160034800Y-90104936D01*
X160034800Y-90293090D01*
X158436600Y-88694891D01*
X158436600Y-88428399D01*
X158449720Y-88415279D01*
X158555349Y-88257194D01*
X158628108Y-88081538D01*
X158665200Y-87895064D01*
X158665200Y-87704936D01*
X158628108Y-87518462D01*
X158555349Y-87342806D01*
X158449720Y-87184721D01*
X158315279Y-87050280D01*
X158157194Y-86944651D01*
X157981538Y-86871892D01*
X157795064Y-86834800D01*
X157604936Y-86834800D01*
X157418462Y-86871892D01*
X157242806Y-86944651D01*
X157084721Y-87050280D01*
X156950280Y-87184721D01*
X156844651Y-87342806D01*
X156771892Y-87518462D01*
X156734800Y-87704936D01*
X156402549Y-87704936D01*
X156402549Y-87205000D01*
X156382613Y-87002584D01*
X156323570Y-86807947D01*
X156227690Y-86628569D01*
X156098658Y-86471342D01*
X155941431Y-86342310D01*
X155762053Y-86246430D01*
X155567416Y-86187387D01*
X155365000Y-86167451D01*
X154515000Y-86167451D01*
X154312584Y-86187387D01*
X154117947Y-86246430D01*
X153938569Y-86342310D01*
X153781342Y-86471342D01*
X153670000Y-86607014D01*
X153558658Y-86471342D01*
X153401431Y-86342310D01*
X153222053Y-86246430D01*
X153027416Y-86187387D01*
X152825000Y-86167451D01*
X152630910Y-86167451D01*
X152665200Y-85995064D01*
X152665200Y-85804936D01*
X152628108Y-85618462D01*
X152555349Y-85442806D01*
X152449720Y-85284721D01*
X152315279Y-85150280D01*
X152157194Y-85044651D01*
X151981538Y-84971892D01*
X151795064Y-84934800D01*
X151604936Y-84934800D01*
X151418462Y-84971892D01*
X151242806Y-85044651D01*
X151084721Y-85150280D01*
X151071601Y-85163400D01*
X150128399Y-85163400D01*
X150115279Y-85150280D01*
X149957194Y-85044651D01*
X149781538Y-84971892D01*
X149595064Y-84934800D01*
X149404936Y-84934800D01*
X149218462Y-84971892D01*
X149042806Y-85044651D01*
X148884721Y-85150280D01*
X148750280Y-85284721D01*
X148644651Y-85442806D01*
X148571892Y-85618462D01*
X148534800Y-85804936D01*
X148534800Y-85995064D01*
X148571892Y-86181538D01*
X148644651Y-86357194D01*
X148713988Y-86460964D01*
X148701342Y-86471342D01*
X148572310Y-86628569D01*
X148476430Y-86807947D01*
X148417387Y-87002584D01*
X148397451Y-87205000D01*
X143611304Y-87205000D01*
X143623570Y-87182053D01*
X143682613Y-86987416D01*
X143702549Y-86785000D01*
X143702549Y-85935000D01*
X143682613Y-85732584D01*
X143623570Y-85537947D01*
X143527690Y-85358569D01*
X143398658Y-85201342D01*
X143241431Y-85072310D01*
X143062053Y-84976430D01*
X142867416Y-84917387D01*
X142665000Y-84897451D01*
X141815000Y-84897451D01*
X141612584Y-84917387D01*
X141417947Y-84976430D01*
X141238569Y-85072310D01*
X141081342Y-85201342D01*
X140952310Y-85358569D01*
X140856430Y-85537947D01*
X140797387Y-85732584D01*
X140777451Y-85935000D01*
X107492800Y-85935000D01*
X107492800Y-83404936D01*
X142034800Y-83404936D01*
X142034800Y-83595064D01*
X142071892Y-83781538D01*
X142144651Y-83957194D01*
X142250280Y-84115279D01*
X142384721Y-84249720D01*
X142542806Y-84355349D01*
X142718462Y-84428108D01*
X142904936Y-84465200D01*
X142927589Y-84465200D01*
X142988787Y-84515424D01*
X143116751Y-84583822D01*
X143255601Y-84625942D01*
X143363814Y-84636600D01*
X143363823Y-84636600D01*
X143399999Y-84640163D01*
X143436175Y-84636600D01*
X146133601Y-84636600D01*
X146146721Y-84649720D01*
X146304806Y-84755349D01*
X146480462Y-84828108D01*
X146666936Y-84865200D01*
X146857064Y-84865200D01*
X147043538Y-84828108D01*
X147219194Y-84755349D01*
X147377279Y-84649720D01*
X147511720Y-84515279D01*
X147617349Y-84357194D01*
X147690108Y-84181538D01*
X147727200Y-83995064D01*
X147727200Y-83804936D01*
X147690108Y-83618462D01*
X147617349Y-83442806D01*
X147511720Y-83284721D01*
X147377279Y-83150280D01*
X147219194Y-83044651D01*
X147043538Y-82971892D01*
X146857064Y-82934800D01*
X146666936Y-82934800D01*
X146480462Y-82971892D01*
X146304806Y-83044651D01*
X146146721Y-83150280D01*
X146133601Y-83163400D01*
X143905301Y-83163400D01*
X143855349Y-83042806D01*
X143749720Y-82884721D01*
X143615279Y-82750280D01*
X143457194Y-82644651D01*
X143281538Y-82571892D01*
X143095064Y-82534800D01*
X142904936Y-82534800D01*
X142718462Y-82571892D01*
X142542806Y-82644651D01*
X142384721Y-82750280D01*
X142250280Y-82884721D01*
X142144651Y-83042806D01*
X142071892Y-83218462D01*
X142034800Y-83404936D01*
X107492800Y-83404936D01*
X107492800Y-82130000D01*
X122895359Y-82130000D01*
X122909091Y-82269420D01*
X122949758Y-82403481D01*
X123015798Y-82527033D01*
X123104673Y-82635327D01*
X123212967Y-82724202D01*
X123336519Y-82790242D01*
X123470580Y-82830909D01*
X123610000Y-82844641D01*
X124256800Y-82841200D01*
X124434600Y-82663400D01*
X124434600Y-81305400D01*
X124485400Y-81305400D01*
X124485400Y-82663400D01*
X124663200Y-82841200D01*
X125310000Y-82844641D01*
X125449420Y-82830909D01*
X125583481Y-82790242D01*
X125707033Y-82724202D01*
X125815327Y-82635327D01*
X125904202Y-82527033D01*
X125970242Y-82403481D01*
X126010909Y-82269420D01*
X126024641Y-82130000D01*
X126022380Y-81704936D01*
X144034800Y-81704936D01*
X144034800Y-81895064D01*
X144071892Y-82081538D01*
X144144651Y-82257194D01*
X144250280Y-82415279D01*
X144384721Y-82549720D01*
X144542806Y-82655349D01*
X144718462Y-82728108D01*
X144904936Y-82765200D01*
X145095064Y-82765200D01*
X145281538Y-82728108D01*
X145457194Y-82655349D01*
X145615279Y-82549720D01*
X145749720Y-82415279D01*
X145855349Y-82257194D01*
X145863879Y-82236600D01*
X148957401Y-82236600D01*
X148970521Y-82249720D01*
X149128606Y-82355349D01*
X149304262Y-82428108D01*
X149490736Y-82465200D01*
X149680864Y-82465200D01*
X149867338Y-82428108D01*
X150042994Y-82355349D01*
X150201079Y-82249720D01*
X150335520Y-82115279D01*
X150441149Y-81957194D01*
X150513908Y-81781538D01*
X150551000Y-81595064D01*
X150551000Y-81404936D01*
X152034800Y-81404936D01*
X152034800Y-81595064D01*
X152071892Y-81781538D01*
X152144651Y-81957194D01*
X152250280Y-82115279D01*
X152263400Y-82128399D01*
X152263400Y-82363817D01*
X152259836Y-82400000D01*
X152263400Y-82436183D01*
X152263400Y-82436186D01*
X152273642Y-82540164D01*
X152274059Y-82544398D01*
X152316178Y-82683247D01*
X152384576Y-82811212D01*
X152418487Y-82852532D01*
X152476626Y-82923375D01*
X152504732Y-82946441D01*
X153634800Y-84076510D01*
X153634800Y-84095064D01*
X153671892Y-84281538D01*
X153744651Y-84457194D01*
X153850280Y-84615279D01*
X153984721Y-84749720D01*
X154142806Y-84855349D01*
X154318462Y-84928108D01*
X154504936Y-84965200D01*
X154695064Y-84965200D01*
X154881538Y-84928108D01*
X155057194Y-84855349D01*
X155215279Y-84749720D01*
X155349720Y-84615279D01*
X155455349Y-84457194D01*
X155528108Y-84281538D01*
X155565200Y-84095064D01*
X155565200Y-83904936D01*
X155528108Y-83718462D01*
X155455349Y-83542806D01*
X155349720Y-83384721D01*
X155215279Y-83250280D01*
X155057194Y-83144651D01*
X154881538Y-83071892D01*
X154695064Y-83034800D01*
X154676510Y-83034800D01*
X154544144Y-82902434D01*
X176809400Y-82902434D01*
X176809400Y-83097566D01*
X176847468Y-83288947D01*
X176922142Y-83469225D01*
X177030551Y-83631471D01*
X177168529Y-83769449D01*
X177330775Y-83877858D01*
X177387201Y-83901230D01*
X177387200Y-84933408D01*
X177322142Y-85030775D01*
X177247468Y-85211053D01*
X177209400Y-85402434D01*
X177209400Y-85597566D01*
X177247468Y-85788947D01*
X177322142Y-85969225D01*
X177430551Y-86131471D01*
X177568529Y-86269449D01*
X177730775Y-86377858D01*
X177911053Y-86452532D01*
X178102434Y-86490600D01*
X178297566Y-86490600D01*
X178488947Y-86452532D01*
X178669225Y-86377858D01*
X178831471Y-86269449D01*
X178969449Y-86131471D01*
X179077858Y-85969225D01*
X179152532Y-85788947D01*
X179190600Y-85597566D01*
X179190600Y-85402434D01*
X179152532Y-85211053D01*
X179077858Y-85030775D01*
X179012800Y-84933409D01*
X179012800Y-83439920D01*
X179016732Y-83399999D01*
X179005378Y-83284721D01*
X179001039Y-83240663D01*
X178954562Y-83087450D01*
X178879088Y-82946248D01*
X178777517Y-82822483D01*
X178774147Y-82819717D01*
X178752532Y-82711053D01*
X178677858Y-82530775D01*
X178569449Y-82368529D01*
X178431471Y-82230551D01*
X178269225Y-82122142D01*
X178088947Y-82047468D01*
X177897566Y-82009400D01*
X177702434Y-82009400D01*
X177511053Y-82047468D01*
X177330775Y-82122142D01*
X177168529Y-82230551D01*
X177030551Y-82368529D01*
X176922142Y-82530775D01*
X176847468Y-82711053D01*
X176809400Y-82902434D01*
X154544144Y-82902434D01*
X154271762Y-82630053D01*
X154281538Y-82628108D01*
X154457194Y-82555349D01*
X154615279Y-82449720D01*
X154749720Y-82315279D01*
X154855349Y-82157194D01*
X154928108Y-81981538D01*
X154965200Y-81795064D01*
X154965200Y-81776509D01*
X156005110Y-80736600D01*
X159271601Y-80736600D01*
X159284721Y-80749720D01*
X159442806Y-80855349D01*
X159618462Y-80928108D01*
X159804936Y-80965200D01*
X159995064Y-80965200D01*
X160181538Y-80928108D01*
X160357194Y-80855349D01*
X160515279Y-80749720D01*
X160649720Y-80615279D01*
X160755349Y-80457194D01*
X160828108Y-80281538D01*
X160865200Y-80095064D01*
X160865200Y-79904936D01*
X160828108Y-79718462D01*
X160755349Y-79542806D01*
X160649720Y-79384721D01*
X160515279Y-79250280D01*
X160392256Y-79168079D01*
X160428102Y-79081538D01*
X160465194Y-78895064D01*
X160465194Y-78704936D01*
X160428102Y-78518462D01*
X160355343Y-78342806D01*
X160249714Y-78184721D01*
X160115273Y-78050280D01*
X159957188Y-77944651D01*
X159781532Y-77871892D01*
X159595058Y-77834800D01*
X159404930Y-77834800D01*
X159218456Y-77871892D01*
X159042800Y-77944651D01*
X158884715Y-78050280D01*
X158871595Y-78063400D01*
X155536175Y-78063400D01*
X155499999Y-78059837D01*
X155463823Y-78063400D01*
X155463814Y-78063400D01*
X155355601Y-78074058D01*
X155216751Y-78116178D01*
X155088787Y-78184576D01*
X154976625Y-78276625D01*
X154953559Y-78304731D01*
X154823490Y-78434800D01*
X154804936Y-78434800D01*
X154618462Y-78471892D01*
X154442806Y-78544651D01*
X154284721Y-78650280D01*
X154150280Y-78784721D01*
X154044651Y-78942806D01*
X153971892Y-79118462D01*
X153934800Y-79304936D01*
X153934800Y-79495064D01*
X153971892Y-79681538D01*
X154044651Y-79857194D01*
X154150280Y-80015279D01*
X154284721Y-80149720D01*
X154418909Y-80239382D01*
X153923491Y-80734800D01*
X153904936Y-80734800D01*
X153718462Y-80771892D01*
X153660783Y-80795784D01*
X153615279Y-80750280D01*
X153457194Y-80644651D01*
X153281538Y-80571892D01*
X153095064Y-80534800D01*
X152904936Y-80534800D01*
X152718462Y-80571892D01*
X152542806Y-80644651D01*
X152384721Y-80750280D01*
X152250280Y-80884721D01*
X152144651Y-81042806D01*
X152071892Y-81218462D01*
X152034800Y-81404936D01*
X150551000Y-81404936D01*
X150513908Y-81218462D01*
X150441149Y-81042806D01*
X150335520Y-80884721D01*
X150201079Y-80750280D01*
X150042994Y-80644651D01*
X149867338Y-80571892D01*
X149680864Y-80534800D01*
X149490736Y-80534800D01*
X149304262Y-80571892D01*
X149128606Y-80644651D01*
X148970521Y-80750280D01*
X148957401Y-80763400D01*
X145336175Y-80763400D01*
X145299999Y-80759837D01*
X145263823Y-80763400D01*
X145263814Y-80763400D01*
X145155601Y-80774058D01*
X145016751Y-80816178D01*
X144981912Y-80834800D01*
X144904936Y-80834800D01*
X144718462Y-80871892D01*
X144542806Y-80944651D01*
X144384721Y-81050280D01*
X144250280Y-81184721D01*
X144144651Y-81342806D01*
X144071892Y-81518462D01*
X144034800Y-81704936D01*
X126022380Y-81704936D01*
X126021200Y-81483200D01*
X125843400Y-81305400D01*
X124485400Y-81305400D01*
X124434600Y-81305400D01*
X123076600Y-81305400D01*
X122898800Y-81483200D01*
X122895359Y-82130000D01*
X107492800Y-82130000D01*
X107492800Y-77356672D01*
X109461494Y-75387978D01*
X109614667Y-75617217D01*
X109858783Y-75861333D01*
X110145833Y-76053134D01*
X110464785Y-76185248D01*
X110803384Y-76252600D01*
X111148616Y-76252600D01*
X111487215Y-76185248D01*
X111806167Y-76053134D01*
X112093217Y-75861333D01*
X112337333Y-75617217D01*
X112500000Y-75373769D01*
X112662667Y-75617217D01*
X112906783Y-75861333D01*
X113193833Y-76053134D01*
X113512785Y-76185248D01*
X113851384Y-76252600D01*
X114196616Y-76252600D01*
X114535215Y-76185248D01*
X114854167Y-76053134D01*
X115141217Y-75861333D01*
X115385333Y-75617217D01*
X115577134Y-75330167D01*
X115584328Y-75312800D01*
X117663328Y-75312800D01*
X121637033Y-79286506D01*
X121662483Y-79317517D01*
X121693493Y-79342966D01*
X121786248Y-79419088D01*
X121927450Y-79494562D01*
X122080663Y-79541039D01*
X122240000Y-79556732D01*
X122279923Y-79552800D01*
X123073623Y-79552800D01*
X123076430Y-79562053D01*
X123172310Y-79741431D01*
X123238538Y-79822130D01*
X123212967Y-79835798D01*
X123104673Y-79924673D01*
X123015798Y-80032967D01*
X122949758Y-80156519D01*
X122909091Y-80290580D01*
X122895359Y-80430000D01*
X122898800Y-81076800D01*
X123076600Y-81254600D01*
X124434600Y-81254600D01*
X124434600Y-81234600D01*
X124485400Y-81234600D01*
X124485400Y-81254600D01*
X125843400Y-81254600D01*
X126021200Y-81076800D01*
X126024641Y-80430000D01*
X126010909Y-80290580D01*
X125970242Y-80156519D01*
X125904202Y-80032967D01*
X125815327Y-79924673D01*
X125707033Y-79835798D01*
X125681462Y-79822130D01*
X125747690Y-79741431D01*
X125843570Y-79562053D01*
X125902613Y-79367416D01*
X125922549Y-79165000D01*
X125922549Y-78315000D01*
X125902613Y-78112584D01*
X125843570Y-77917947D01*
X125747690Y-77738569D01*
X125618658Y-77581342D01*
X125482986Y-77470000D01*
X125618658Y-77358658D01*
X125747690Y-77201431D01*
X125843570Y-77022053D01*
X125902613Y-76827416D01*
X125922549Y-76625000D01*
X125922549Y-75775000D01*
X163637451Y-75775000D01*
X163637451Y-76625000D01*
X163657387Y-76827416D01*
X163716430Y-77022053D01*
X163812310Y-77201431D01*
X163941342Y-77358658D01*
X164077014Y-77470000D01*
X163941342Y-77581342D01*
X163812310Y-77738569D01*
X163716430Y-77917947D01*
X163657387Y-78112584D01*
X163637451Y-78315000D01*
X163637451Y-79165000D01*
X163657387Y-79367416D01*
X163716430Y-79562053D01*
X163812310Y-79741431D01*
X163941342Y-79898658D01*
X164077014Y-80010000D01*
X163941342Y-80121342D01*
X163812310Y-80278569D01*
X163716430Y-80457947D01*
X163657387Y-80652584D01*
X163637451Y-80855000D01*
X163637451Y-81705000D01*
X163657387Y-81907416D01*
X163716430Y-82102053D01*
X163812310Y-82281431D01*
X163941342Y-82438658D01*
X164098569Y-82567690D01*
X164277947Y-82663570D01*
X164472584Y-82722613D01*
X164675000Y-82742549D01*
X165525000Y-82742549D01*
X165727416Y-82722613D01*
X165922053Y-82663570D01*
X166101431Y-82567690D01*
X166258658Y-82438658D01*
X166370000Y-82302986D01*
X166481342Y-82438658D01*
X166638569Y-82567690D01*
X166817947Y-82663570D01*
X167012584Y-82722613D01*
X167215000Y-82742549D01*
X168065000Y-82742549D01*
X168267416Y-82722613D01*
X168462053Y-82663570D01*
X168641431Y-82567690D01*
X168798658Y-82438658D01*
X168927690Y-82281431D01*
X169023570Y-82102053D01*
X169082613Y-81907416D01*
X169102549Y-81705000D01*
X169102549Y-80855000D01*
X169082613Y-80652584D01*
X169023570Y-80457947D01*
X168927690Y-80278569D01*
X168798658Y-80121342D01*
X168662986Y-80010000D01*
X168798658Y-79898658D01*
X168927690Y-79741431D01*
X169023570Y-79562053D01*
X169082613Y-79367416D01*
X169102549Y-79165000D01*
X169102549Y-78315000D01*
X169082613Y-78112584D01*
X169023570Y-77917947D01*
X168927690Y-77738569D01*
X168798658Y-77581342D01*
X168662986Y-77470000D01*
X168798658Y-77358658D01*
X168927690Y-77201431D01*
X169023570Y-77022053D01*
X169082613Y-76827416D01*
X169102549Y-76625000D01*
X169102549Y-75775000D01*
X183957451Y-75775000D01*
X183957451Y-76625000D01*
X183977387Y-76827416D01*
X184036430Y-77022053D01*
X184132310Y-77201431D01*
X184261342Y-77358658D01*
X184397014Y-77470000D01*
X184261342Y-77581342D01*
X184132310Y-77738569D01*
X184036430Y-77917947D01*
X183977387Y-78112584D01*
X183957451Y-78315000D01*
X183957451Y-79165000D01*
X183977387Y-79367416D01*
X184036430Y-79562053D01*
X184132310Y-79741431D01*
X184261342Y-79898658D01*
X184397014Y-80010000D01*
X184261342Y-80121342D01*
X184132310Y-80278569D01*
X184036430Y-80457947D01*
X183977387Y-80652584D01*
X183957451Y-80855000D01*
X183957451Y-81705000D01*
X183977387Y-81907416D01*
X184036430Y-82102053D01*
X184132310Y-82281431D01*
X184261342Y-82438658D01*
X184418569Y-82567690D01*
X184597947Y-82663570D01*
X184792584Y-82722613D01*
X184995000Y-82742549D01*
X185845000Y-82742549D01*
X186047416Y-82722613D01*
X186242053Y-82663570D01*
X186421431Y-82567690D01*
X186578658Y-82438658D01*
X186690000Y-82302986D01*
X186801342Y-82438658D01*
X186958569Y-82567690D01*
X187137947Y-82663570D01*
X187332584Y-82722613D01*
X187535000Y-82742549D01*
X188385000Y-82742549D01*
X188587416Y-82722613D01*
X188782053Y-82663570D01*
X188961431Y-82567690D01*
X189118658Y-82438658D01*
X189247690Y-82281431D01*
X189343570Y-82102053D01*
X189402613Y-81907416D01*
X189422549Y-81705000D01*
X189422549Y-80855000D01*
X189402613Y-80652584D01*
X189343570Y-80457947D01*
X189247690Y-80278569D01*
X189118658Y-80121342D01*
X188982986Y-80010000D01*
X189118658Y-79898658D01*
X189247690Y-79741431D01*
X189343570Y-79562053D01*
X189402613Y-79367416D01*
X189422549Y-79165000D01*
X189422549Y-78315000D01*
X189421312Y-78302434D01*
X190209400Y-78302434D01*
X190209400Y-78497566D01*
X190247468Y-78688947D01*
X190322142Y-78869225D01*
X190387201Y-78966593D01*
X190387200Y-81333408D01*
X190322142Y-81430775D01*
X190247468Y-81611053D01*
X190209400Y-81802434D01*
X190209400Y-81997566D01*
X190247468Y-82188947D01*
X190322142Y-82369225D01*
X190430551Y-82531471D01*
X190568529Y-82669449D01*
X190730775Y-82777858D01*
X190911053Y-82852532D01*
X191102434Y-82890600D01*
X191297566Y-82890600D01*
X191309400Y-82888246D01*
X191309400Y-82997566D01*
X191347468Y-83188947D01*
X191422142Y-83369225D01*
X191530551Y-83531471D01*
X191668529Y-83669449D01*
X191830775Y-83777858D01*
X192011053Y-83852532D01*
X192202434Y-83890600D01*
X192397566Y-83890600D01*
X192588947Y-83852532D01*
X192769225Y-83777858D01*
X192931471Y-83669449D01*
X193069449Y-83531471D01*
X193177858Y-83369225D01*
X193252532Y-83188947D01*
X193290600Y-82997566D01*
X193290600Y-82802434D01*
X193252532Y-82611053D01*
X193177858Y-82430775D01*
X193112800Y-82333409D01*
X193112800Y-79866591D01*
X193177858Y-79769225D01*
X193252532Y-79588947D01*
X193290600Y-79397566D01*
X193290600Y-79202434D01*
X193252532Y-79011053D01*
X193177858Y-78830775D01*
X193069449Y-78668529D01*
X192931471Y-78530551D01*
X192769225Y-78422142D01*
X192588947Y-78347468D01*
X192397566Y-78309400D01*
X192202434Y-78309400D01*
X192190600Y-78311754D01*
X192190600Y-78302434D01*
X192152532Y-78111053D01*
X192077858Y-77930775D01*
X191969449Y-77768529D01*
X191831471Y-77630551D01*
X191669225Y-77522142D01*
X191488947Y-77447468D01*
X191297566Y-77409400D01*
X191102434Y-77409400D01*
X190911053Y-77447468D01*
X190730775Y-77522142D01*
X190568529Y-77630551D01*
X190430551Y-77768529D01*
X190322142Y-77930775D01*
X190247468Y-78111053D01*
X190209400Y-78302434D01*
X189421312Y-78302434D01*
X189402613Y-78112584D01*
X189343570Y-77917947D01*
X189247690Y-77738569D01*
X189118658Y-77581342D01*
X188982986Y-77470000D01*
X189118658Y-77358658D01*
X189247690Y-77201431D01*
X189343570Y-77022053D01*
X189402613Y-76827416D01*
X189422549Y-76625000D01*
X189422549Y-75775000D01*
X189402613Y-75572584D01*
X189343570Y-75377947D01*
X189247690Y-75198569D01*
X189118658Y-75041342D01*
X188961431Y-74912310D01*
X188782053Y-74816430D01*
X188587416Y-74757387D01*
X188385000Y-74737451D01*
X187535000Y-74737451D01*
X187332584Y-74757387D01*
X187137947Y-74816430D01*
X186958569Y-74912310D01*
X186801342Y-75041342D01*
X186690000Y-75177014D01*
X186578658Y-75041342D01*
X186421431Y-74912310D01*
X186242053Y-74816430D01*
X186047416Y-74757387D01*
X185845000Y-74737451D01*
X184995000Y-74737451D01*
X184792584Y-74757387D01*
X184597947Y-74816430D01*
X184418569Y-74912310D01*
X184261342Y-75041342D01*
X184132310Y-75198569D01*
X184036430Y-75377947D01*
X183977387Y-75572584D01*
X183957451Y-75775000D01*
X169102549Y-75775000D01*
X169082613Y-75572584D01*
X169023570Y-75377947D01*
X168927690Y-75198569D01*
X168798658Y-75041342D01*
X168641431Y-74912310D01*
X168462053Y-74816430D01*
X168267416Y-74757387D01*
X168065000Y-74737451D01*
X167215000Y-74737451D01*
X167012584Y-74757387D01*
X166817947Y-74816430D01*
X166638569Y-74912310D01*
X166481342Y-75041342D01*
X166370000Y-75177014D01*
X166258658Y-75041342D01*
X166101431Y-74912310D01*
X165922053Y-74816430D01*
X165727416Y-74757387D01*
X165525000Y-74737451D01*
X164675000Y-74737451D01*
X164472584Y-74757387D01*
X164277947Y-74816430D01*
X164098569Y-74912310D01*
X163941342Y-75041342D01*
X163812310Y-75198569D01*
X163716430Y-75377947D01*
X163657387Y-75572584D01*
X163637451Y-75775000D01*
X125922549Y-75775000D01*
X125902613Y-75572584D01*
X125843570Y-75377947D01*
X125747690Y-75198569D01*
X125618658Y-75041342D01*
X125482986Y-74930000D01*
X125618658Y-74818658D01*
X125747690Y-74661431D01*
X125843570Y-74482053D01*
X125902613Y-74287416D01*
X125922549Y-74085000D01*
X125922549Y-73235000D01*
X125902613Y-73032584D01*
X125900191Y-73024600D01*
X195548966Y-73024600D01*
X195702825Y-73039686D01*
%TD*%
M02*
