%TF.GenerationSoftware,KiCad,Pcbnew,5.1.6*%
%TF.CreationDate,2020-06-13T14:07:02-07:00*%
%TF.ProjectId,pcb-lab-1,7063622d-6c61-4622-9d31-2e6b69636164,rev?*%
%TF.SameCoordinates,Original*%
%TF.FileFunction,Paste,Top*%
%TF.FilePolarity,Positive*%
%FSLAX46Y46*%
G04 Gerber Fmt 4.6, Leading zero omitted, Abs format (unit mm)*
G04 Created by KiCad (PCBNEW 5.1.6) date 2020-06-13 14:07:02*
%MOMM*%
%LPD*%
G01*
G04 APERTURE LIST*
%ADD10C,12.700000*%
G04 APERTURE END LIST*
D10*
%TO.C,BT1*%
X112500000Y-84914000D03*
%TD*%
%TO.C,C1*%
G36*
G01*
X127043750Y-78575000D02*
X127956250Y-78575000D01*
G75*
G02*
X128200000Y-78818750I0J-243750D01*
G01*
X128200000Y-79306250D01*
G75*
G02*
X127956250Y-79550000I-243750J0D01*
G01*
X127043750Y-79550000D01*
G75*
G02*
X126800000Y-79306250I0J243750D01*
G01*
X126800000Y-78818750D01*
G75*
G02*
X127043750Y-78575000I243750J0D01*
G01*
G37*
G36*
G01*
X127043750Y-80450000D02*
X127956250Y-80450000D01*
G75*
G02*
X128200000Y-80693750I0J-243750D01*
G01*
X128200000Y-81181250D01*
G75*
G02*
X127956250Y-81425000I-243750J0D01*
G01*
X127043750Y-81425000D01*
G75*
G02*
X126800000Y-81181250I0J243750D01*
G01*
X126800000Y-80693750D01*
G75*
G02*
X127043750Y-80450000I243750J0D01*
G01*
G37*
%TD*%
%TO.C,C2*%
G36*
G01*
X131743750Y-73775000D02*
X132256250Y-73775000D01*
G75*
G02*
X132475000Y-73993750I0J-218750D01*
G01*
X132475000Y-74431250D01*
G75*
G02*
X132256250Y-74650000I-218750J0D01*
G01*
X131743750Y-74650000D01*
G75*
G02*
X131525000Y-74431250I0J218750D01*
G01*
X131525000Y-73993750D01*
G75*
G02*
X131743750Y-73775000I218750J0D01*
G01*
G37*
G36*
G01*
X131743750Y-75350000D02*
X132256250Y-75350000D01*
G75*
G02*
X132475000Y-75568750I0J-218750D01*
G01*
X132475000Y-76006250D01*
G75*
G02*
X132256250Y-76225000I-218750J0D01*
G01*
X131743750Y-76225000D01*
G75*
G02*
X131525000Y-76006250I0J218750D01*
G01*
X131525000Y-75568750D01*
G75*
G02*
X131743750Y-75350000I218750J0D01*
G01*
G37*
%TD*%
%TO.C,C3*%
G36*
G01*
X138743750Y-75350000D02*
X139256250Y-75350000D01*
G75*
G02*
X139475000Y-75568750I0J-218750D01*
G01*
X139475000Y-76006250D01*
G75*
G02*
X139256250Y-76225000I-218750J0D01*
G01*
X138743750Y-76225000D01*
G75*
G02*
X138525000Y-76006250I0J218750D01*
G01*
X138525000Y-75568750D01*
G75*
G02*
X138743750Y-75350000I218750J0D01*
G01*
G37*
G36*
G01*
X138743750Y-73775000D02*
X139256250Y-73775000D01*
G75*
G02*
X139475000Y-73993750I0J-218750D01*
G01*
X139475000Y-74431250D01*
G75*
G02*
X139256250Y-74650000I-218750J0D01*
G01*
X138743750Y-74650000D01*
G75*
G02*
X138525000Y-74431250I0J218750D01*
G01*
X138525000Y-73993750D01*
G75*
G02*
X138743750Y-73775000I218750J0D01*
G01*
G37*
%TD*%
%TO.C,C4*%
G36*
G01*
X152775000Y-74756250D02*
X152775000Y-74243750D01*
G75*
G02*
X152993750Y-74025000I218750J0D01*
G01*
X153431250Y-74025000D01*
G75*
G02*
X153650000Y-74243750I0J-218750D01*
G01*
X153650000Y-74756250D01*
G75*
G02*
X153431250Y-74975000I-218750J0D01*
G01*
X152993750Y-74975000D01*
G75*
G02*
X152775000Y-74756250I0J218750D01*
G01*
G37*
G36*
G01*
X154350000Y-74756250D02*
X154350000Y-74243750D01*
G75*
G02*
X154568750Y-74025000I218750J0D01*
G01*
X155006250Y-74025000D01*
G75*
G02*
X155225000Y-74243750I0J-218750D01*
G01*
X155225000Y-74756250D01*
G75*
G02*
X155006250Y-74975000I-218750J0D01*
G01*
X154568750Y-74975000D01*
G75*
G02*
X154350000Y-74756250I0J218750D01*
G01*
G37*
%TD*%
%TO.C,C5*%
G36*
G01*
X131956250Y-79550000D02*
X131043750Y-79550000D01*
G75*
G02*
X130800000Y-79306250I0J243750D01*
G01*
X130800000Y-78818750D01*
G75*
G02*
X131043750Y-78575000I243750J0D01*
G01*
X131956250Y-78575000D01*
G75*
G02*
X132200000Y-78818750I0J-243750D01*
G01*
X132200000Y-79306250D01*
G75*
G02*
X131956250Y-79550000I-243750J0D01*
G01*
G37*
G36*
G01*
X131956250Y-81425000D02*
X131043750Y-81425000D01*
G75*
G02*
X130800000Y-81181250I0J243750D01*
G01*
X130800000Y-80693750D01*
G75*
G02*
X131043750Y-80450000I243750J0D01*
G01*
X131956250Y-80450000D01*
G75*
G02*
X132200000Y-80693750I0J-243750D01*
G01*
X132200000Y-81181250D01*
G75*
G02*
X131956250Y-81425000I-243750J0D01*
G01*
G37*
%TD*%
%TO.C,C6*%
G36*
G01*
X138743750Y-80275000D02*
X139256250Y-80275000D01*
G75*
G02*
X139475000Y-80493750I0J-218750D01*
G01*
X139475000Y-80931250D01*
G75*
G02*
X139256250Y-81150000I-218750J0D01*
G01*
X138743750Y-81150000D01*
G75*
G02*
X138525000Y-80931250I0J218750D01*
G01*
X138525000Y-80493750D01*
G75*
G02*
X138743750Y-80275000I218750J0D01*
G01*
G37*
G36*
G01*
X138743750Y-81850000D02*
X139256250Y-81850000D01*
G75*
G02*
X139475000Y-82068750I0J-218750D01*
G01*
X139475000Y-82506250D01*
G75*
G02*
X139256250Y-82725000I-218750J0D01*
G01*
X138743750Y-82725000D01*
G75*
G02*
X138525000Y-82506250I0J218750D01*
G01*
X138525000Y-82068750D01*
G75*
G02*
X138743750Y-81850000I218750J0D01*
G01*
G37*
%TD*%
%TO.C,C7*%
G36*
G01*
X147743750Y-79350000D02*
X148256250Y-79350000D01*
G75*
G02*
X148475000Y-79568750I0J-218750D01*
G01*
X148475000Y-80006250D01*
G75*
G02*
X148256250Y-80225000I-218750J0D01*
G01*
X147743750Y-80225000D01*
G75*
G02*
X147525000Y-80006250I0J218750D01*
G01*
X147525000Y-79568750D01*
G75*
G02*
X147743750Y-79350000I218750J0D01*
G01*
G37*
G36*
G01*
X147743750Y-77775000D02*
X148256250Y-77775000D01*
G75*
G02*
X148475000Y-77993750I0J-218750D01*
G01*
X148475000Y-78431250D01*
G75*
G02*
X148256250Y-78650000I-218750J0D01*
G01*
X147743750Y-78650000D01*
G75*
G02*
X147525000Y-78431250I0J218750D01*
G01*
X147525000Y-77993750D01*
G75*
G02*
X147743750Y-77775000I218750J0D01*
G01*
G37*
%TD*%
%TO.C,C10*%
G36*
G01*
X173235000Y-74756250D02*
X173235000Y-74243750D01*
G75*
G02*
X173453750Y-74025000I218750J0D01*
G01*
X173891250Y-74025000D01*
G75*
G02*
X174110000Y-74243750I0J-218750D01*
G01*
X174110000Y-74756250D01*
G75*
G02*
X173891250Y-74975000I-218750J0D01*
G01*
X173453750Y-74975000D01*
G75*
G02*
X173235000Y-74756250I0J218750D01*
G01*
G37*
G36*
G01*
X174810000Y-74756250D02*
X174810000Y-74243750D01*
G75*
G02*
X175028750Y-74025000I218750J0D01*
G01*
X175466250Y-74025000D01*
G75*
G02*
X175685000Y-74243750I0J-218750D01*
G01*
X175685000Y-74756250D01*
G75*
G02*
X175466250Y-74975000I-218750J0D01*
G01*
X175028750Y-74975000D01*
G75*
G02*
X174810000Y-74756250I0J218750D01*
G01*
G37*
%TD*%
%TO.C,C11*%
G36*
G01*
X179110000Y-74243750D02*
X179110000Y-74756250D01*
G75*
G02*
X178891250Y-74975000I-218750J0D01*
G01*
X178453750Y-74975000D01*
G75*
G02*
X178235000Y-74756250I0J218750D01*
G01*
X178235000Y-74243750D01*
G75*
G02*
X178453750Y-74025000I218750J0D01*
G01*
X178891250Y-74025000D01*
G75*
G02*
X179110000Y-74243750I0J-218750D01*
G01*
G37*
G36*
G01*
X180685000Y-74243750D02*
X180685000Y-74756250D01*
G75*
G02*
X180466250Y-74975000I-218750J0D01*
G01*
X180028750Y-74975000D01*
G75*
G02*
X179810000Y-74756250I0J218750D01*
G01*
X179810000Y-74243750D01*
G75*
G02*
X180028750Y-74025000I218750J0D01*
G01*
X180466250Y-74025000D01*
G75*
G02*
X180685000Y-74243750I0J-218750D01*
G01*
G37*
%TD*%
%TO.C,C12*%
G36*
G01*
X172703750Y-87850000D02*
X173216250Y-87850000D01*
G75*
G02*
X173435000Y-88068750I0J-218750D01*
G01*
X173435000Y-88506250D01*
G75*
G02*
X173216250Y-88725000I-218750J0D01*
G01*
X172703750Y-88725000D01*
G75*
G02*
X172485000Y-88506250I0J218750D01*
G01*
X172485000Y-88068750D01*
G75*
G02*
X172703750Y-87850000I218750J0D01*
G01*
G37*
G36*
G01*
X172703750Y-86275000D02*
X173216250Y-86275000D01*
G75*
G02*
X173435000Y-86493750I0J-218750D01*
G01*
X173435000Y-86931250D01*
G75*
G02*
X173216250Y-87150000I-218750J0D01*
G01*
X172703750Y-87150000D01*
G75*
G02*
X172485000Y-86931250I0J218750D01*
G01*
X172485000Y-86493750D01*
G75*
G02*
X172703750Y-86275000I218750J0D01*
G01*
G37*
%TD*%
%TO.C,C13*%
G36*
G01*
X172703750Y-93350000D02*
X173216250Y-93350000D01*
G75*
G02*
X173435000Y-93568750I0J-218750D01*
G01*
X173435000Y-94006250D01*
G75*
G02*
X173216250Y-94225000I-218750J0D01*
G01*
X172703750Y-94225000D01*
G75*
G02*
X172485000Y-94006250I0J218750D01*
G01*
X172485000Y-93568750D01*
G75*
G02*
X172703750Y-93350000I218750J0D01*
G01*
G37*
G36*
G01*
X172703750Y-91775000D02*
X173216250Y-91775000D01*
G75*
G02*
X173435000Y-91993750I0J-218750D01*
G01*
X173435000Y-92431250D01*
G75*
G02*
X173216250Y-92650000I-218750J0D01*
G01*
X172703750Y-92650000D01*
G75*
G02*
X172485000Y-92431250I0J218750D01*
G01*
X172485000Y-91993750D01*
G75*
G02*
X172703750Y-91775000I218750J0D01*
G01*
G37*
%TD*%
%TO.C,C14*%
G36*
G01*
X180703750Y-86275000D02*
X181216250Y-86275000D01*
G75*
G02*
X181435000Y-86493750I0J-218750D01*
G01*
X181435000Y-86931250D01*
G75*
G02*
X181216250Y-87150000I-218750J0D01*
G01*
X180703750Y-87150000D01*
G75*
G02*
X180485000Y-86931250I0J218750D01*
G01*
X180485000Y-86493750D01*
G75*
G02*
X180703750Y-86275000I218750J0D01*
G01*
G37*
G36*
G01*
X180703750Y-87850000D02*
X181216250Y-87850000D01*
G75*
G02*
X181435000Y-88068750I0J-218750D01*
G01*
X181435000Y-88506250D01*
G75*
G02*
X181216250Y-88725000I-218750J0D01*
G01*
X180703750Y-88725000D01*
G75*
G02*
X180485000Y-88506250I0J218750D01*
G01*
X180485000Y-88068750D01*
G75*
G02*
X180703750Y-87850000I218750J0D01*
G01*
G37*
%TD*%
%TO.C,C15*%
G36*
G01*
X180703750Y-91775000D02*
X181216250Y-91775000D01*
G75*
G02*
X181435000Y-91993750I0J-218750D01*
G01*
X181435000Y-92431250D01*
G75*
G02*
X181216250Y-92650000I-218750J0D01*
G01*
X180703750Y-92650000D01*
G75*
G02*
X180485000Y-92431250I0J218750D01*
G01*
X180485000Y-91993750D01*
G75*
G02*
X180703750Y-91775000I218750J0D01*
G01*
G37*
G36*
G01*
X180703750Y-93350000D02*
X181216250Y-93350000D01*
G75*
G02*
X181435000Y-93568750I0J-218750D01*
G01*
X181435000Y-94006250D01*
G75*
G02*
X181216250Y-94225000I-218750J0D01*
G01*
X180703750Y-94225000D01*
G75*
G02*
X180485000Y-94006250I0J218750D01*
G01*
X180485000Y-93568750D01*
G75*
G02*
X180703750Y-93350000I218750J0D01*
G01*
G37*
%TD*%
%TO.C,C20*%
G36*
G01*
X176185000Y-102743750D02*
X176185000Y-103256250D01*
G75*
G02*
X175966250Y-103475000I-218750J0D01*
G01*
X175528750Y-103475000D01*
G75*
G02*
X175310000Y-103256250I0J218750D01*
G01*
X175310000Y-102743750D01*
G75*
G02*
X175528750Y-102525000I218750J0D01*
G01*
X175966250Y-102525000D01*
G75*
G02*
X176185000Y-102743750I0J-218750D01*
G01*
G37*
G36*
G01*
X174610000Y-102743750D02*
X174610000Y-103256250D01*
G75*
G02*
X174391250Y-103475000I-218750J0D01*
G01*
X173953750Y-103475000D01*
G75*
G02*
X173735000Y-103256250I0J218750D01*
G01*
X173735000Y-102743750D01*
G75*
G02*
X173953750Y-102525000I218750J0D01*
G01*
X174391250Y-102525000D01*
G75*
G02*
X174610000Y-102743750I0J-218750D01*
G01*
G37*
%TD*%
%TO.C,C21*%
G36*
G01*
X179310000Y-103256250D02*
X179310000Y-102743750D01*
G75*
G02*
X179528750Y-102525000I218750J0D01*
G01*
X179966250Y-102525000D01*
G75*
G02*
X180185000Y-102743750I0J-218750D01*
G01*
X180185000Y-103256250D01*
G75*
G02*
X179966250Y-103475000I-218750J0D01*
G01*
X179528750Y-103475000D01*
G75*
G02*
X179310000Y-103256250I0J218750D01*
G01*
G37*
G36*
G01*
X177735000Y-103256250D02*
X177735000Y-102743750D01*
G75*
G02*
X177953750Y-102525000I218750J0D01*
G01*
X178391250Y-102525000D01*
G75*
G02*
X178610000Y-102743750I0J-218750D01*
G01*
X178610000Y-103256250D01*
G75*
G02*
X178391250Y-103475000I-218750J0D01*
G01*
X177953750Y-103475000D01*
G75*
G02*
X177735000Y-103256250I0J218750D01*
G01*
G37*
%TD*%
%TO.C,C30*%
G36*
G01*
X136150000Y-93243750D02*
X136150000Y-93756250D01*
G75*
G02*
X135931250Y-93975000I-218750J0D01*
G01*
X135493750Y-93975000D01*
G75*
G02*
X135275000Y-93756250I0J218750D01*
G01*
X135275000Y-93243750D01*
G75*
G02*
X135493750Y-93025000I218750J0D01*
G01*
X135931250Y-93025000D01*
G75*
G02*
X136150000Y-93243750I0J-218750D01*
G01*
G37*
G36*
G01*
X137725000Y-93243750D02*
X137725000Y-93756250D01*
G75*
G02*
X137506250Y-93975000I-218750J0D01*
G01*
X137068750Y-93975000D01*
G75*
G02*
X136850000Y-93756250I0J218750D01*
G01*
X136850000Y-93243750D01*
G75*
G02*
X137068750Y-93025000I218750J0D01*
G01*
X137506250Y-93025000D01*
G75*
G02*
X137725000Y-93243750I0J-218750D01*
G01*
G37*
%TD*%
%TO.C,C31*%
G36*
G01*
X131275000Y-93756250D02*
X131275000Y-93243750D01*
G75*
G02*
X131493750Y-93025000I218750J0D01*
G01*
X131931250Y-93025000D01*
G75*
G02*
X132150000Y-93243750I0J-218750D01*
G01*
X132150000Y-93756250D01*
G75*
G02*
X131931250Y-93975000I-218750J0D01*
G01*
X131493750Y-93975000D01*
G75*
G02*
X131275000Y-93756250I0J218750D01*
G01*
G37*
G36*
G01*
X132850000Y-93756250D02*
X132850000Y-93243750D01*
G75*
G02*
X133068750Y-93025000I218750J0D01*
G01*
X133506250Y-93025000D01*
G75*
G02*
X133725000Y-93243750I0J-218750D01*
G01*
X133725000Y-93756250D01*
G75*
G02*
X133506250Y-93975000I-218750J0D01*
G01*
X133068750Y-93975000D01*
G75*
G02*
X132850000Y-93756250I0J218750D01*
G01*
G37*
%TD*%
%TO.C,D1*%
G36*
G01*
X158476250Y-95865000D02*
X157563750Y-95865000D01*
G75*
G02*
X157320000Y-95621250I0J243750D01*
G01*
X157320000Y-95133750D01*
G75*
G02*
X157563750Y-94890000I243750J0D01*
G01*
X158476250Y-94890000D01*
G75*
G02*
X158720000Y-95133750I0J-243750D01*
G01*
X158720000Y-95621250D01*
G75*
G02*
X158476250Y-95865000I-243750J0D01*
G01*
G37*
G36*
G01*
X158476250Y-93990000D02*
X157563750Y-93990000D01*
G75*
G02*
X157320000Y-93746250I0J243750D01*
G01*
X157320000Y-93258750D01*
G75*
G02*
X157563750Y-93015000I243750J0D01*
G01*
X158476250Y-93015000D01*
G75*
G02*
X158720000Y-93258750I0J-243750D01*
G01*
X158720000Y-93746250D01*
G75*
G02*
X158476250Y-93990000I-243750J0D01*
G01*
G37*
%TD*%
%TO.C,D2*%
G36*
G01*
X155936250Y-95865000D02*
X155023750Y-95865000D01*
G75*
G02*
X154780000Y-95621250I0J243750D01*
G01*
X154780000Y-95133750D01*
G75*
G02*
X155023750Y-94890000I243750J0D01*
G01*
X155936250Y-94890000D01*
G75*
G02*
X156180000Y-95133750I0J-243750D01*
G01*
X156180000Y-95621250D01*
G75*
G02*
X155936250Y-95865000I-243750J0D01*
G01*
G37*
G36*
G01*
X155936250Y-93990000D02*
X155023750Y-93990000D01*
G75*
G02*
X154780000Y-93746250I0J243750D01*
G01*
X154780000Y-93258750D01*
G75*
G02*
X155023750Y-93015000I243750J0D01*
G01*
X155936250Y-93015000D01*
G75*
G02*
X156180000Y-93258750I0J-243750D01*
G01*
X156180000Y-93746250D01*
G75*
G02*
X155936250Y-93990000I-243750J0D01*
G01*
G37*
%TD*%
%TO.C,D3*%
G36*
G01*
X153396250Y-93990000D02*
X152483750Y-93990000D01*
G75*
G02*
X152240000Y-93746250I0J243750D01*
G01*
X152240000Y-93258750D01*
G75*
G02*
X152483750Y-93015000I243750J0D01*
G01*
X153396250Y-93015000D01*
G75*
G02*
X153640000Y-93258750I0J-243750D01*
G01*
X153640000Y-93746250D01*
G75*
G02*
X153396250Y-93990000I-243750J0D01*
G01*
G37*
G36*
G01*
X153396250Y-95865000D02*
X152483750Y-95865000D01*
G75*
G02*
X152240000Y-95621250I0J243750D01*
G01*
X152240000Y-95133750D01*
G75*
G02*
X152483750Y-94890000I243750J0D01*
G01*
X153396250Y-94890000D01*
G75*
G02*
X153640000Y-95133750I0J-243750D01*
G01*
X153640000Y-95621250D01*
G75*
G02*
X153396250Y-95865000I-243750J0D01*
G01*
G37*
%TD*%
%TO.C,Q30*%
G36*
G01*
X133950000Y-97800000D02*
X133950000Y-98200000D01*
G75*
G02*
X133750000Y-98400000I-200000J0D01*
G01*
X132850000Y-98400000D01*
G75*
G02*
X132650000Y-98200000I0J200000D01*
G01*
X132650000Y-97800000D01*
G75*
G02*
X132850000Y-97600000I200000J0D01*
G01*
X133750000Y-97600000D01*
G75*
G02*
X133950000Y-97800000I0J-200000D01*
G01*
G37*
G36*
G01*
X136350000Y-96850000D02*
X136350000Y-97250000D01*
G75*
G02*
X136150000Y-97450000I-200000J0D01*
G01*
X135250000Y-97450000D01*
G75*
G02*
X135050000Y-97250000I0J200000D01*
G01*
X135050000Y-96850000D01*
G75*
G02*
X135250000Y-96650000I200000J0D01*
G01*
X136150000Y-96650000D01*
G75*
G02*
X136350000Y-96850000I0J-200000D01*
G01*
G37*
G36*
G01*
X136350000Y-98750000D02*
X136350000Y-99150000D01*
G75*
G02*
X136150000Y-99350000I-200000J0D01*
G01*
X135250000Y-99350000D01*
G75*
G02*
X135050000Y-99150000I0J200000D01*
G01*
X135050000Y-98750000D01*
G75*
G02*
X135250000Y-98550000I200000J0D01*
G01*
X136150000Y-98550000D01*
G75*
G02*
X136350000Y-98750000I0J-200000D01*
G01*
G37*
%TD*%
%TO.C,Q31*%
G36*
G01*
X136350000Y-103250000D02*
X136350000Y-103650000D01*
G75*
G02*
X136150000Y-103850000I-200000J0D01*
G01*
X135250000Y-103850000D01*
G75*
G02*
X135050000Y-103650000I0J200000D01*
G01*
X135050000Y-103250000D01*
G75*
G02*
X135250000Y-103050000I200000J0D01*
G01*
X136150000Y-103050000D01*
G75*
G02*
X136350000Y-103250000I0J-200000D01*
G01*
G37*
G36*
G01*
X136350000Y-101350000D02*
X136350000Y-101750000D01*
G75*
G02*
X136150000Y-101950000I-200000J0D01*
G01*
X135250000Y-101950000D01*
G75*
G02*
X135050000Y-101750000I0J200000D01*
G01*
X135050000Y-101350000D01*
G75*
G02*
X135250000Y-101150000I200000J0D01*
G01*
X136150000Y-101150000D01*
G75*
G02*
X136350000Y-101350000I0J-200000D01*
G01*
G37*
G36*
G01*
X133950000Y-102300000D02*
X133950000Y-102700000D01*
G75*
G02*
X133750000Y-102900000I-200000J0D01*
G01*
X132850000Y-102900000D01*
G75*
G02*
X132650000Y-102700000I0J200000D01*
G01*
X132650000Y-102300000D01*
G75*
G02*
X132850000Y-102100000I200000J0D01*
G01*
X133750000Y-102100000D01*
G75*
G02*
X133950000Y-102300000I0J-200000D01*
G01*
G37*
%TD*%
%TO.C,R1*%
G36*
G01*
X158395000Y-98500000D02*
X157645000Y-98500000D01*
G75*
G02*
X157370000Y-98225000I0J275000D01*
G01*
X157370000Y-97675000D01*
G75*
G02*
X157645000Y-97400000I275000J0D01*
G01*
X158395000Y-97400000D01*
G75*
G02*
X158670000Y-97675000I0J-275000D01*
G01*
X158670000Y-98225000D01*
G75*
G02*
X158395000Y-98500000I-275000J0D01*
G01*
G37*
G36*
G01*
X158395000Y-100800000D02*
X157645000Y-100800000D01*
G75*
G02*
X157370000Y-100525000I0J275000D01*
G01*
X157370000Y-99975000D01*
G75*
G02*
X157645000Y-99700000I275000J0D01*
G01*
X158395000Y-99700000D01*
G75*
G02*
X158670000Y-99975000I0J-275000D01*
G01*
X158670000Y-100525000D01*
G75*
G02*
X158395000Y-100800000I-275000J0D01*
G01*
G37*
%TD*%
%TO.C,R2*%
G36*
G01*
X155855000Y-98500000D02*
X155105000Y-98500000D01*
G75*
G02*
X154830000Y-98225000I0J275000D01*
G01*
X154830000Y-97675000D01*
G75*
G02*
X155105000Y-97400000I275000J0D01*
G01*
X155855000Y-97400000D01*
G75*
G02*
X156130000Y-97675000I0J-275000D01*
G01*
X156130000Y-98225000D01*
G75*
G02*
X155855000Y-98500000I-275000J0D01*
G01*
G37*
G36*
G01*
X155855000Y-100800000D02*
X155105000Y-100800000D01*
G75*
G02*
X154830000Y-100525000I0J275000D01*
G01*
X154830000Y-99975000D01*
G75*
G02*
X155105000Y-99700000I275000J0D01*
G01*
X155855000Y-99700000D01*
G75*
G02*
X156130000Y-99975000I0J-275000D01*
G01*
X156130000Y-100525000D01*
G75*
G02*
X155855000Y-100800000I-275000J0D01*
G01*
G37*
%TD*%
%TO.C,R3*%
G36*
G01*
X153315000Y-100800000D02*
X152565000Y-100800000D01*
G75*
G02*
X152290000Y-100525000I0J275000D01*
G01*
X152290000Y-99975000D01*
G75*
G02*
X152565000Y-99700000I275000J0D01*
G01*
X153315000Y-99700000D01*
G75*
G02*
X153590000Y-99975000I0J-275000D01*
G01*
X153590000Y-100525000D01*
G75*
G02*
X153315000Y-100800000I-275000J0D01*
G01*
G37*
G36*
G01*
X153315000Y-98500000D02*
X152565000Y-98500000D01*
G75*
G02*
X152290000Y-98225000I0J275000D01*
G01*
X152290000Y-97675000D01*
G75*
G02*
X152565000Y-97400000I275000J0D01*
G01*
X153315000Y-97400000D01*
G75*
G02*
X153590000Y-97675000I0J-275000D01*
G01*
X153590000Y-98225000D01*
G75*
G02*
X153315000Y-98500000I-275000J0D01*
G01*
G37*
%TD*%
%TO.C,R4*%
G36*
G01*
X162443750Y-91675000D02*
X162956250Y-91675000D01*
G75*
G02*
X163175000Y-91893750I0J-218750D01*
G01*
X163175000Y-92331250D01*
G75*
G02*
X162956250Y-92550000I-218750J0D01*
G01*
X162443750Y-92550000D01*
G75*
G02*
X162225000Y-92331250I0J218750D01*
G01*
X162225000Y-91893750D01*
G75*
G02*
X162443750Y-91675000I218750J0D01*
G01*
G37*
G36*
G01*
X162443750Y-93250000D02*
X162956250Y-93250000D01*
G75*
G02*
X163175000Y-93468750I0J-218750D01*
G01*
X163175000Y-93906250D01*
G75*
G02*
X162956250Y-94125000I-218750J0D01*
G01*
X162443750Y-94125000D01*
G75*
G02*
X162225000Y-93906250I0J218750D01*
G01*
X162225000Y-93468750D01*
G75*
G02*
X162443750Y-93250000I218750J0D01*
G01*
G37*
%TD*%
%TO.C,R5*%
G36*
G01*
X136725000Y-85243750D02*
X136725000Y-85756250D01*
G75*
G02*
X136506250Y-85975000I-218750J0D01*
G01*
X136068750Y-85975000D01*
G75*
G02*
X135850000Y-85756250I0J218750D01*
G01*
X135850000Y-85243750D01*
G75*
G02*
X136068750Y-85025000I218750J0D01*
G01*
X136506250Y-85025000D01*
G75*
G02*
X136725000Y-85243750I0J-218750D01*
G01*
G37*
G36*
G01*
X135150000Y-85243750D02*
X135150000Y-85756250D01*
G75*
G02*
X134931250Y-85975000I-218750J0D01*
G01*
X134493750Y-85975000D01*
G75*
G02*
X134275000Y-85756250I0J218750D01*
G01*
X134275000Y-85243750D01*
G75*
G02*
X134493750Y-85025000I218750J0D01*
G01*
X134931250Y-85025000D01*
G75*
G02*
X135150000Y-85243750I0J-218750D01*
G01*
G37*
%TD*%
%TO.C,R6*%
G36*
G01*
X140743750Y-81850000D02*
X141256250Y-81850000D01*
G75*
G02*
X141475000Y-82068750I0J-218750D01*
G01*
X141475000Y-82506250D01*
G75*
G02*
X141256250Y-82725000I-218750J0D01*
G01*
X140743750Y-82725000D01*
G75*
G02*
X140525000Y-82506250I0J218750D01*
G01*
X140525000Y-82068750D01*
G75*
G02*
X140743750Y-81850000I218750J0D01*
G01*
G37*
G36*
G01*
X140743750Y-80275000D02*
X141256250Y-80275000D01*
G75*
G02*
X141475000Y-80493750I0J-218750D01*
G01*
X141475000Y-80931250D01*
G75*
G02*
X141256250Y-81150000I-218750J0D01*
G01*
X140743750Y-81150000D01*
G75*
G02*
X140525000Y-80931250I0J218750D01*
G01*
X140525000Y-80493750D01*
G75*
G02*
X140743750Y-80275000I218750J0D01*
G01*
G37*
%TD*%
%TO.C,R7*%
G36*
G01*
X143256250Y-82725000D02*
X142743750Y-82725000D01*
G75*
G02*
X142525000Y-82506250I0J218750D01*
G01*
X142525000Y-82068750D01*
G75*
G02*
X142743750Y-81850000I218750J0D01*
G01*
X143256250Y-81850000D01*
G75*
G02*
X143475000Y-82068750I0J-218750D01*
G01*
X143475000Y-82506250D01*
G75*
G02*
X143256250Y-82725000I-218750J0D01*
G01*
G37*
G36*
G01*
X143256250Y-81150000D02*
X142743750Y-81150000D01*
G75*
G02*
X142525000Y-80931250I0J218750D01*
G01*
X142525000Y-80493750D01*
G75*
G02*
X142743750Y-80275000I218750J0D01*
G01*
X143256250Y-80275000D01*
G75*
G02*
X143475000Y-80493750I0J-218750D01*
G01*
X143475000Y-80931250D01*
G75*
G02*
X143256250Y-81150000I-218750J0D01*
G01*
G37*
%TD*%
%TO.C,R20*%
G36*
G01*
X192310000Y-97256250D02*
X192310000Y-96743750D01*
G75*
G02*
X192528750Y-96525000I218750J0D01*
G01*
X192966250Y-96525000D01*
G75*
G02*
X193185000Y-96743750I0J-218750D01*
G01*
X193185000Y-97256250D01*
G75*
G02*
X192966250Y-97475000I-218750J0D01*
G01*
X192528750Y-97475000D01*
G75*
G02*
X192310000Y-97256250I0J218750D01*
G01*
G37*
G36*
G01*
X190735000Y-97256250D02*
X190735000Y-96743750D01*
G75*
G02*
X190953750Y-96525000I218750J0D01*
G01*
X191391250Y-96525000D01*
G75*
G02*
X191610000Y-96743750I0J-218750D01*
G01*
X191610000Y-97256250D01*
G75*
G02*
X191391250Y-97475000I-218750J0D01*
G01*
X190953750Y-97475000D01*
G75*
G02*
X190735000Y-97256250I0J218750D01*
G01*
G37*
%TD*%
%TO.C,R30*%
G36*
G01*
X138756250Y-97650000D02*
X138243750Y-97650000D01*
G75*
G02*
X138025000Y-97431250I0J218750D01*
G01*
X138025000Y-96993750D01*
G75*
G02*
X138243750Y-96775000I218750J0D01*
G01*
X138756250Y-96775000D01*
G75*
G02*
X138975000Y-96993750I0J-218750D01*
G01*
X138975000Y-97431250D01*
G75*
G02*
X138756250Y-97650000I-218750J0D01*
G01*
G37*
G36*
G01*
X138756250Y-99225000D02*
X138243750Y-99225000D01*
G75*
G02*
X138025000Y-99006250I0J218750D01*
G01*
X138025000Y-98568750D01*
G75*
G02*
X138243750Y-98350000I218750J0D01*
G01*
X138756250Y-98350000D01*
G75*
G02*
X138975000Y-98568750I0J-218750D01*
G01*
X138975000Y-99006250D01*
G75*
G02*
X138756250Y-99225000I-218750J0D01*
G01*
G37*
%TD*%
%TO.C,R31*%
G36*
G01*
X130756250Y-99225000D02*
X130243750Y-99225000D01*
G75*
G02*
X130025000Y-99006250I0J218750D01*
G01*
X130025000Y-98568750D01*
G75*
G02*
X130243750Y-98350000I218750J0D01*
G01*
X130756250Y-98350000D01*
G75*
G02*
X130975000Y-98568750I0J-218750D01*
G01*
X130975000Y-99006250D01*
G75*
G02*
X130756250Y-99225000I-218750J0D01*
G01*
G37*
G36*
G01*
X130756250Y-97650000D02*
X130243750Y-97650000D01*
G75*
G02*
X130025000Y-97431250I0J218750D01*
G01*
X130025000Y-96993750D01*
G75*
G02*
X130243750Y-96775000I218750J0D01*
G01*
X130756250Y-96775000D01*
G75*
G02*
X130975000Y-96993750I0J-218750D01*
G01*
X130975000Y-97431250D01*
G75*
G02*
X130756250Y-97650000I-218750J0D01*
G01*
G37*
%TD*%
%TO.C,R32*%
G36*
G01*
X138756250Y-102150000D02*
X138243750Y-102150000D01*
G75*
G02*
X138025000Y-101931250I0J218750D01*
G01*
X138025000Y-101493750D01*
G75*
G02*
X138243750Y-101275000I218750J0D01*
G01*
X138756250Y-101275000D01*
G75*
G02*
X138975000Y-101493750I0J-218750D01*
G01*
X138975000Y-101931250D01*
G75*
G02*
X138756250Y-102150000I-218750J0D01*
G01*
G37*
G36*
G01*
X138756250Y-103725000D02*
X138243750Y-103725000D01*
G75*
G02*
X138025000Y-103506250I0J218750D01*
G01*
X138025000Y-103068750D01*
G75*
G02*
X138243750Y-102850000I218750J0D01*
G01*
X138756250Y-102850000D01*
G75*
G02*
X138975000Y-103068750I0J-218750D01*
G01*
X138975000Y-103506250D01*
G75*
G02*
X138756250Y-103725000I-218750J0D01*
G01*
G37*
%TD*%
%TO.C,R33*%
G36*
G01*
X130756250Y-103725000D02*
X130243750Y-103725000D01*
G75*
G02*
X130025000Y-103506250I0J218750D01*
G01*
X130025000Y-103068750D01*
G75*
G02*
X130243750Y-102850000I218750J0D01*
G01*
X130756250Y-102850000D01*
G75*
G02*
X130975000Y-103068750I0J-218750D01*
G01*
X130975000Y-103506250D01*
G75*
G02*
X130756250Y-103725000I-218750J0D01*
G01*
G37*
G36*
G01*
X130756250Y-102150000D02*
X130243750Y-102150000D01*
G75*
G02*
X130025000Y-101931250I0J218750D01*
G01*
X130025000Y-101493750D01*
G75*
G02*
X130243750Y-101275000I218750J0D01*
G01*
X130756250Y-101275000D01*
G75*
G02*
X130975000Y-101493750I0J-218750D01*
G01*
X130975000Y-101931250D01*
G75*
G02*
X130756250Y-102150000I-218750J0D01*
G01*
G37*
%TD*%
%TO.C,SW1*%
G36*
G01*
X158400000Y-103900000D02*
X158400000Y-103100000D01*
G75*
G02*
X158800000Y-102700000I400000J0D01*
G01*
X160000000Y-102700000D01*
G75*
G02*
X160400000Y-103100000I0J-400000D01*
G01*
X160400000Y-103900000D01*
G75*
G02*
X160000000Y-104300000I-400000J0D01*
G01*
X158800000Y-104300000D01*
G75*
G02*
X158400000Y-103900000I0J400000D01*
G01*
G37*
G36*
G01*
X150600000Y-103900000D02*
X150600000Y-103100000D01*
G75*
G02*
X151000000Y-102700000I400000J0D01*
G01*
X152200000Y-102700000D01*
G75*
G02*
X152600000Y-103100000I0J-400000D01*
G01*
X152600000Y-103900000D01*
G75*
G02*
X152200000Y-104300000I-400000J0D01*
G01*
X151000000Y-104300000D01*
G75*
G02*
X150600000Y-103900000I0J400000D01*
G01*
G37*
%TD*%
%TO.C,U1*%
G36*
G01*
X136070000Y-74712500D02*
X136070000Y-74387500D01*
G75*
G02*
X136232500Y-74225000I162500J0D01*
G01*
X137367500Y-74225000D01*
G75*
G02*
X137530000Y-74387500I0J-162500D01*
G01*
X137530000Y-74712500D01*
G75*
G02*
X137367500Y-74875000I-162500J0D01*
G01*
X136232500Y-74875000D01*
G75*
G02*
X136070000Y-74712500I0J162500D01*
G01*
G37*
G36*
G01*
X136070000Y-76612500D02*
X136070000Y-76287500D01*
G75*
G02*
X136232500Y-76125000I162500J0D01*
G01*
X137367500Y-76125000D01*
G75*
G02*
X137530000Y-76287500I0J-162500D01*
G01*
X137530000Y-76612500D01*
G75*
G02*
X137367500Y-76775000I-162500J0D01*
G01*
X136232500Y-76775000D01*
G75*
G02*
X136070000Y-76612500I0J162500D01*
G01*
G37*
G36*
G01*
X133470000Y-76612500D02*
X133470000Y-76287500D01*
G75*
G02*
X133632500Y-76125000I162500J0D01*
G01*
X134767500Y-76125000D01*
G75*
G02*
X134930000Y-76287500I0J-162500D01*
G01*
X134930000Y-76612500D01*
G75*
G02*
X134767500Y-76775000I-162500J0D01*
G01*
X133632500Y-76775000D01*
G75*
G02*
X133470000Y-76612500I0J162500D01*
G01*
G37*
G36*
G01*
X133470000Y-75662500D02*
X133470000Y-75337500D01*
G75*
G02*
X133632500Y-75175000I162500J0D01*
G01*
X134767500Y-75175000D01*
G75*
G02*
X134930000Y-75337500I0J-162500D01*
G01*
X134930000Y-75662500D01*
G75*
G02*
X134767500Y-75825000I-162500J0D01*
G01*
X133632500Y-75825000D01*
G75*
G02*
X133470000Y-75662500I0J162500D01*
G01*
G37*
G36*
G01*
X133470000Y-74712500D02*
X133470000Y-74387500D01*
G75*
G02*
X133632500Y-74225000I162500J0D01*
G01*
X134767500Y-74225000D01*
G75*
G02*
X134930000Y-74387500I0J-162500D01*
G01*
X134930000Y-74712500D01*
G75*
G02*
X134767500Y-74875000I-162500J0D01*
G01*
X133632500Y-74875000D01*
G75*
G02*
X133470000Y-74712500I0J162500D01*
G01*
G37*
%TD*%
%TO.C,U2*%
G36*
G01*
X155950000Y-76540000D02*
X155950000Y-76240000D01*
G75*
G02*
X156100000Y-76090000I150000J0D01*
G01*
X157800000Y-76090000D01*
G75*
G02*
X157950000Y-76240000I0J-150000D01*
G01*
X157950000Y-76540000D01*
G75*
G02*
X157800000Y-76690000I-150000J0D01*
G01*
X156100000Y-76690000D01*
G75*
G02*
X155950000Y-76540000I0J150000D01*
G01*
G37*
G36*
G01*
X155950000Y-77810000D02*
X155950000Y-77510000D01*
G75*
G02*
X156100000Y-77360000I150000J0D01*
G01*
X157800000Y-77360000D01*
G75*
G02*
X157950000Y-77510000I0J-150000D01*
G01*
X157950000Y-77810000D01*
G75*
G02*
X157800000Y-77960000I-150000J0D01*
G01*
X156100000Y-77960000D01*
G75*
G02*
X155950000Y-77810000I0J150000D01*
G01*
G37*
G36*
G01*
X155950000Y-79080000D02*
X155950000Y-78780000D01*
G75*
G02*
X156100000Y-78630000I150000J0D01*
G01*
X157800000Y-78630000D01*
G75*
G02*
X157950000Y-78780000I0J-150000D01*
G01*
X157950000Y-79080000D01*
G75*
G02*
X157800000Y-79230000I-150000J0D01*
G01*
X156100000Y-79230000D01*
G75*
G02*
X155950000Y-79080000I0J150000D01*
G01*
G37*
G36*
G01*
X155950000Y-80350000D02*
X155950000Y-80050000D01*
G75*
G02*
X156100000Y-79900000I150000J0D01*
G01*
X157800000Y-79900000D01*
G75*
G02*
X157950000Y-80050000I0J-150000D01*
G01*
X157950000Y-80350000D01*
G75*
G02*
X157800000Y-80500000I-150000J0D01*
G01*
X156100000Y-80500000D01*
G75*
G02*
X155950000Y-80350000I0J150000D01*
G01*
G37*
G36*
G01*
X155950000Y-81620000D02*
X155950000Y-81320000D01*
G75*
G02*
X156100000Y-81170000I150000J0D01*
G01*
X157800000Y-81170000D01*
G75*
G02*
X157950000Y-81320000I0J-150000D01*
G01*
X157950000Y-81620000D01*
G75*
G02*
X157800000Y-81770000I-150000J0D01*
G01*
X156100000Y-81770000D01*
G75*
G02*
X155950000Y-81620000I0J150000D01*
G01*
G37*
G36*
G01*
X155950000Y-82890000D02*
X155950000Y-82590000D01*
G75*
G02*
X156100000Y-82440000I150000J0D01*
G01*
X157800000Y-82440000D01*
G75*
G02*
X157950000Y-82590000I0J-150000D01*
G01*
X157950000Y-82890000D01*
G75*
G02*
X157800000Y-83040000I-150000J0D01*
G01*
X156100000Y-83040000D01*
G75*
G02*
X155950000Y-82890000I0J150000D01*
G01*
G37*
G36*
G01*
X155950000Y-84160000D02*
X155950000Y-83860000D01*
G75*
G02*
X156100000Y-83710000I150000J0D01*
G01*
X157800000Y-83710000D01*
G75*
G02*
X157950000Y-83860000I0J-150000D01*
G01*
X157950000Y-84160000D01*
G75*
G02*
X157800000Y-84310000I-150000J0D01*
G01*
X156100000Y-84310000D01*
G75*
G02*
X155950000Y-84160000I0J150000D01*
G01*
G37*
G36*
G01*
X150050000Y-84160000D02*
X150050000Y-83860000D01*
G75*
G02*
X150200000Y-83710000I150000J0D01*
G01*
X151900000Y-83710000D01*
G75*
G02*
X152050000Y-83860000I0J-150000D01*
G01*
X152050000Y-84160000D01*
G75*
G02*
X151900000Y-84310000I-150000J0D01*
G01*
X150200000Y-84310000D01*
G75*
G02*
X150050000Y-84160000I0J150000D01*
G01*
G37*
G36*
G01*
X150050000Y-82890000D02*
X150050000Y-82590000D01*
G75*
G02*
X150200000Y-82440000I150000J0D01*
G01*
X151900000Y-82440000D01*
G75*
G02*
X152050000Y-82590000I0J-150000D01*
G01*
X152050000Y-82890000D01*
G75*
G02*
X151900000Y-83040000I-150000J0D01*
G01*
X150200000Y-83040000D01*
G75*
G02*
X150050000Y-82890000I0J150000D01*
G01*
G37*
G36*
G01*
X150050000Y-81620000D02*
X150050000Y-81320000D01*
G75*
G02*
X150200000Y-81170000I150000J0D01*
G01*
X151900000Y-81170000D01*
G75*
G02*
X152050000Y-81320000I0J-150000D01*
G01*
X152050000Y-81620000D01*
G75*
G02*
X151900000Y-81770000I-150000J0D01*
G01*
X150200000Y-81770000D01*
G75*
G02*
X150050000Y-81620000I0J150000D01*
G01*
G37*
G36*
G01*
X150050000Y-80350000D02*
X150050000Y-80050000D01*
G75*
G02*
X150200000Y-79900000I150000J0D01*
G01*
X151900000Y-79900000D01*
G75*
G02*
X152050000Y-80050000I0J-150000D01*
G01*
X152050000Y-80350000D01*
G75*
G02*
X151900000Y-80500000I-150000J0D01*
G01*
X150200000Y-80500000D01*
G75*
G02*
X150050000Y-80350000I0J150000D01*
G01*
G37*
G36*
G01*
X150050000Y-79080000D02*
X150050000Y-78780000D01*
G75*
G02*
X150200000Y-78630000I150000J0D01*
G01*
X151900000Y-78630000D01*
G75*
G02*
X152050000Y-78780000I0J-150000D01*
G01*
X152050000Y-79080000D01*
G75*
G02*
X151900000Y-79230000I-150000J0D01*
G01*
X150200000Y-79230000D01*
G75*
G02*
X150050000Y-79080000I0J150000D01*
G01*
G37*
G36*
G01*
X150050000Y-77810000D02*
X150050000Y-77510000D01*
G75*
G02*
X150200000Y-77360000I150000J0D01*
G01*
X151900000Y-77360000D01*
G75*
G02*
X152050000Y-77510000I0J-150000D01*
G01*
X152050000Y-77810000D01*
G75*
G02*
X151900000Y-77960000I-150000J0D01*
G01*
X150200000Y-77960000D01*
G75*
G02*
X150050000Y-77810000I0J150000D01*
G01*
G37*
G36*
G01*
X150050000Y-76540000D02*
X150050000Y-76240000D01*
G75*
G02*
X150200000Y-76090000I150000J0D01*
G01*
X151900000Y-76090000D01*
G75*
G02*
X152050000Y-76240000I0J-150000D01*
G01*
X152050000Y-76540000D01*
G75*
G02*
X151900000Y-76690000I-150000J0D01*
G01*
X150200000Y-76690000D01*
G75*
G02*
X150050000Y-76540000I0J150000D01*
G01*
G37*
%TD*%
%TO.C,U5*%
G36*
G01*
X137530000Y-83287500D02*
X137530000Y-83612500D01*
G75*
G02*
X137367500Y-83775000I-162500J0D01*
G01*
X136232500Y-83775000D01*
G75*
G02*
X136070000Y-83612500I0J162500D01*
G01*
X136070000Y-83287500D01*
G75*
G02*
X136232500Y-83125000I162500J0D01*
G01*
X137367500Y-83125000D01*
G75*
G02*
X137530000Y-83287500I0J-162500D01*
G01*
G37*
G36*
G01*
X137530000Y-82337500D02*
X137530000Y-82662500D01*
G75*
G02*
X137367500Y-82825000I-162500J0D01*
G01*
X136232500Y-82825000D01*
G75*
G02*
X136070000Y-82662500I0J162500D01*
G01*
X136070000Y-82337500D01*
G75*
G02*
X136232500Y-82175000I162500J0D01*
G01*
X137367500Y-82175000D01*
G75*
G02*
X137530000Y-82337500I0J-162500D01*
G01*
G37*
G36*
G01*
X137530000Y-81387500D02*
X137530000Y-81712500D01*
G75*
G02*
X137367500Y-81875000I-162500J0D01*
G01*
X136232500Y-81875000D01*
G75*
G02*
X136070000Y-81712500I0J162500D01*
G01*
X136070000Y-81387500D01*
G75*
G02*
X136232500Y-81225000I162500J0D01*
G01*
X137367500Y-81225000D01*
G75*
G02*
X137530000Y-81387500I0J-162500D01*
G01*
G37*
G36*
G01*
X134930000Y-81387500D02*
X134930000Y-81712500D01*
G75*
G02*
X134767500Y-81875000I-162500J0D01*
G01*
X133632500Y-81875000D01*
G75*
G02*
X133470000Y-81712500I0J162500D01*
G01*
X133470000Y-81387500D01*
G75*
G02*
X133632500Y-81225000I162500J0D01*
G01*
X134767500Y-81225000D01*
G75*
G02*
X134930000Y-81387500I0J-162500D01*
G01*
G37*
G36*
G01*
X134930000Y-83287500D02*
X134930000Y-83612500D01*
G75*
G02*
X134767500Y-83775000I-162500J0D01*
G01*
X133632500Y-83775000D01*
G75*
G02*
X133470000Y-83612500I0J162500D01*
G01*
X133470000Y-83287500D01*
G75*
G02*
X133632500Y-83125000I162500J0D01*
G01*
X134767500Y-83125000D01*
G75*
G02*
X134930000Y-83287500I0J-162500D01*
G01*
G37*
%TD*%
%TO.C,U10*%
G36*
G01*
X173010000Y-76340000D02*
X173010000Y-76040000D01*
G75*
G02*
X173160000Y-75890000I150000J0D01*
G01*
X174860000Y-75890000D01*
G75*
G02*
X175010000Y-76040000I0J-150000D01*
G01*
X175010000Y-76340000D01*
G75*
G02*
X174860000Y-76490000I-150000J0D01*
G01*
X173160000Y-76490000D01*
G75*
G02*
X173010000Y-76340000I0J150000D01*
G01*
G37*
G36*
G01*
X173010000Y-77610000D02*
X173010000Y-77310000D01*
G75*
G02*
X173160000Y-77160000I150000J0D01*
G01*
X174860000Y-77160000D01*
G75*
G02*
X175010000Y-77310000I0J-150000D01*
G01*
X175010000Y-77610000D01*
G75*
G02*
X174860000Y-77760000I-150000J0D01*
G01*
X173160000Y-77760000D01*
G75*
G02*
X173010000Y-77610000I0J150000D01*
G01*
G37*
G36*
G01*
X173010000Y-78880000D02*
X173010000Y-78580000D01*
G75*
G02*
X173160000Y-78430000I150000J0D01*
G01*
X174860000Y-78430000D01*
G75*
G02*
X175010000Y-78580000I0J-150000D01*
G01*
X175010000Y-78880000D01*
G75*
G02*
X174860000Y-79030000I-150000J0D01*
G01*
X173160000Y-79030000D01*
G75*
G02*
X173010000Y-78880000I0J150000D01*
G01*
G37*
G36*
G01*
X173010000Y-80150000D02*
X173010000Y-79850000D01*
G75*
G02*
X173160000Y-79700000I150000J0D01*
G01*
X174860000Y-79700000D01*
G75*
G02*
X175010000Y-79850000I0J-150000D01*
G01*
X175010000Y-80150000D01*
G75*
G02*
X174860000Y-80300000I-150000J0D01*
G01*
X173160000Y-80300000D01*
G75*
G02*
X173010000Y-80150000I0J150000D01*
G01*
G37*
G36*
G01*
X173010000Y-81420000D02*
X173010000Y-81120000D01*
G75*
G02*
X173160000Y-80970000I150000J0D01*
G01*
X174860000Y-80970000D01*
G75*
G02*
X175010000Y-81120000I0J-150000D01*
G01*
X175010000Y-81420000D01*
G75*
G02*
X174860000Y-81570000I-150000J0D01*
G01*
X173160000Y-81570000D01*
G75*
G02*
X173010000Y-81420000I0J150000D01*
G01*
G37*
G36*
G01*
X173010000Y-82690000D02*
X173010000Y-82390000D01*
G75*
G02*
X173160000Y-82240000I150000J0D01*
G01*
X174860000Y-82240000D01*
G75*
G02*
X175010000Y-82390000I0J-150000D01*
G01*
X175010000Y-82690000D01*
G75*
G02*
X174860000Y-82840000I-150000J0D01*
G01*
X173160000Y-82840000D01*
G75*
G02*
X173010000Y-82690000I0J150000D01*
G01*
G37*
G36*
G01*
X173010000Y-83960000D02*
X173010000Y-83660000D01*
G75*
G02*
X173160000Y-83510000I150000J0D01*
G01*
X174860000Y-83510000D01*
G75*
G02*
X175010000Y-83660000I0J-150000D01*
G01*
X175010000Y-83960000D01*
G75*
G02*
X174860000Y-84110000I-150000J0D01*
G01*
X173160000Y-84110000D01*
G75*
G02*
X173010000Y-83960000I0J150000D01*
G01*
G37*
G36*
G01*
X178910000Y-83960000D02*
X178910000Y-83660000D01*
G75*
G02*
X179060000Y-83510000I150000J0D01*
G01*
X180760000Y-83510000D01*
G75*
G02*
X180910000Y-83660000I0J-150000D01*
G01*
X180910000Y-83960000D01*
G75*
G02*
X180760000Y-84110000I-150000J0D01*
G01*
X179060000Y-84110000D01*
G75*
G02*
X178910000Y-83960000I0J150000D01*
G01*
G37*
G36*
G01*
X178910000Y-82690000D02*
X178910000Y-82390000D01*
G75*
G02*
X179060000Y-82240000I150000J0D01*
G01*
X180760000Y-82240000D01*
G75*
G02*
X180910000Y-82390000I0J-150000D01*
G01*
X180910000Y-82690000D01*
G75*
G02*
X180760000Y-82840000I-150000J0D01*
G01*
X179060000Y-82840000D01*
G75*
G02*
X178910000Y-82690000I0J150000D01*
G01*
G37*
G36*
G01*
X178910000Y-81420000D02*
X178910000Y-81120000D01*
G75*
G02*
X179060000Y-80970000I150000J0D01*
G01*
X180760000Y-80970000D01*
G75*
G02*
X180910000Y-81120000I0J-150000D01*
G01*
X180910000Y-81420000D01*
G75*
G02*
X180760000Y-81570000I-150000J0D01*
G01*
X179060000Y-81570000D01*
G75*
G02*
X178910000Y-81420000I0J150000D01*
G01*
G37*
G36*
G01*
X178910000Y-80150000D02*
X178910000Y-79850000D01*
G75*
G02*
X179060000Y-79700000I150000J0D01*
G01*
X180760000Y-79700000D01*
G75*
G02*
X180910000Y-79850000I0J-150000D01*
G01*
X180910000Y-80150000D01*
G75*
G02*
X180760000Y-80300000I-150000J0D01*
G01*
X179060000Y-80300000D01*
G75*
G02*
X178910000Y-80150000I0J150000D01*
G01*
G37*
G36*
G01*
X178910000Y-78880000D02*
X178910000Y-78580000D01*
G75*
G02*
X179060000Y-78430000I150000J0D01*
G01*
X180760000Y-78430000D01*
G75*
G02*
X180910000Y-78580000I0J-150000D01*
G01*
X180910000Y-78880000D01*
G75*
G02*
X180760000Y-79030000I-150000J0D01*
G01*
X179060000Y-79030000D01*
G75*
G02*
X178910000Y-78880000I0J150000D01*
G01*
G37*
G36*
G01*
X178910000Y-77610000D02*
X178910000Y-77310000D01*
G75*
G02*
X179060000Y-77160000I150000J0D01*
G01*
X180760000Y-77160000D01*
G75*
G02*
X180910000Y-77310000I0J-150000D01*
G01*
X180910000Y-77610000D01*
G75*
G02*
X180760000Y-77760000I-150000J0D01*
G01*
X179060000Y-77760000D01*
G75*
G02*
X178910000Y-77610000I0J150000D01*
G01*
G37*
G36*
G01*
X178910000Y-76340000D02*
X178910000Y-76040000D01*
G75*
G02*
X179060000Y-75890000I150000J0D01*
G01*
X180760000Y-75890000D01*
G75*
G02*
X180910000Y-76040000I0J-150000D01*
G01*
X180910000Y-76340000D01*
G75*
G02*
X180760000Y-76490000I-150000J0D01*
G01*
X179060000Y-76490000D01*
G75*
G02*
X178910000Y-76340000I0J150000D01*
G01*
G37*
%TD*%
%TO.C,U11*%
G36*
G01*
X174930000Y-87212500D02*
X174930000Y-86887500D01*
G75*
G02*
X175092500Y-86725000I162500J0D01*
G01*
X176227500Y-86725000D01*
G75*
G02*
X176390000Y-86887500I0J-162500D01*
G01*
X176390000Y-87212500D01*
G75*
G02*
X176227500Y-87375000I-162500J0D01*
G01*
X175092500Y-87375000D01*
G75*
G02*
X174930000Y-87212500I0J162500D01*
G01*
G37*
G36*
G01*
X174930000Y-88162500D02*
X174930000Y-87837500D01*
G75*
G02*
X175092500Y-87675000I162500J0D01*
G01*
X176227500Y-87675000D01*
G75*
G02*
X176390000Y-87837500I0J-162500D01*
G01*
X176390000Y-88162500D01*
G75*
G02*
X176227500Y-88325000I-162500J0D01*
G01*
X175092500Y-88325000D01*
G75*
G02*
X174930000Y-88162500I0J162500D01*
G01*
G37*
G36*
G01*
X174930000Y-89112500D02*
X174930000Y-88787500D01*
G75*
G02*
X175092500Y-88625000I162500J0D01*
G01*
X176227500Y-88625000D01*
G75*
G02*
X176390000Y-88787500I0J-162500D01*
G01*
X176390000Y-89112500D01*
G75*
G02*
X176227500Y-89275000I-162500J0D01*
G01*
X175092500Y-89275000D01*
G75*
G02*
X174930000Y-89112500I0J162500D01*
G01*
G37*
G36*
G01*
X177530000Y-89112500D02*
X177530000Y-88787500D01*
G75*
G02*
X177692500Y-88625000I162500J0D01*
G01*
X178827500Y-88625000D01*
G75*
G02*
X178990000Y-88787500I0J-162500D01*
G01*
X178990000Y-89112500D01*
G75*
G02*
X178827500Y-89275000I-162500J0D01*
G01*
X177692500Y-89275000D01*
G75*
G02*
X177530000Y-89112500I0J162500D01*
G01*
G37*
G36*
G01*
X177530000Y-87212500D02*
X177530000Y-86887500D01*
G75*
G02*
X177692500Y-86725000I162500J0D01*
G01*
X178827500Y-86725000D01*
G75*
G02*
X178990000Y-86887500I0J-162500D01*
G01*
X178990000Y-87212500D01*
G75*
G02*
X178827500Y-87375000I-162500J0D01*
G01*
X177692500Y-87375000D01*
G75*
G02*
X177530000Y-87212500I0J162500D01*
G01*
G37*
G36*
G01*
X177530000Y-88162500D02*
X177530000Y-87837500D01*
G75*
G02*
X177692500Y-87675000I162500J0D01*
G01*
X178827500Y-87675000D01*
G75*
G02*
X178990000Y-87837500I0J-162500D01*
G01*
X178990000Y-88162500D01*
G75*
G02*
X178827500Y-88325000I-162500J0D01*
G01*
X177692500Y-88325000D01*
G75*
G02*
X177530000Y-88162500I0J162500D01*
G01*
G37*
%TD*%
%TO.C,U12*%
G36*
G01*
X177530000Y-93662500D02*
X177530000Y-93337500D01*
G75*
G02*
X177692500Y-93175000I162500J0D01*
G01*
X178827500Y-93175000D01*
G75*
G02*
X178990000Y-93337500I0J-162500D01*
G01*
X178990000Y-93662500D01*
G75*
G02*
X178827500Y-93825000I-162500J0D01*
G01*
X177692500Y-93825000D01*
G75*
G02*
X177530000Y-93662500I0J162500D01*
G01*
G37*
G36*
G01*
X177530000Y-92712500D02*
X177530000Y-92387500D01*
G75*
G02*
X177692500Y-92225000I162500J0D01*
G01*
X178827500Y-92225000D01*
G75*
G02*
X178990000Y-92387500I0J-162500D01*
G01*
X178990000Y-92712500D01*
G75*
G02*
X178827500Y-92875000I-162500J0D01*
G01*
X177692500Y-92875000D01*
G75*
G02*
X177530000Y-92712500I0J162500D01*
G01*
G37*
G36*
G01*
X177530000Y-94612500D02*
X177530000Y-94287500D01*
G75*
G02*
X177692500Y-94125000I162500J0D01*
G01*
X178827500Y-94125000D01*
G75*
G02*
X178990000Y-94287500I0J-162500D01*
G01*
X178990000Y-94612500D01*
G75*
G02*
X178827500Y-94775000I-162500J0D01*
G01*
X177692500Y-94775000D01*
G75*
G02*
X177530000Y-94612500I0J162500D01*
G01*
G37*
G36*
G01*
X174930000Y-94612500D02*
X174930000Y-94287500D01*
G75*
G02*
X175092500Y-94125000I162500J0D01*
G01*
X176227500Y-94125000D01*
G75*
G02*
X176390000Y-94287500I0J-162500D01*
G01*
X176390000Y-94612500D01*
G75*
G02*
X176227500Y-94775000I-162500J0D01*
G01*
X175092500Y-94775000D01*
G75*
G02*
X174930000Y-94612500I0J162500D01*
G01*
G37*
G36*
G01*
X174930000Y-93662500D02*
X174930000Y-93337500D01*
G75*
G02*
X175092500Y-93175000I162500J0D01*
G01*
X176227500Y-93175000D01*
G75*
G02*
X176390000Y-93337500I0J-162500D01*
G01*
X176390000Y-93662500D01*
G75*
G02*
X176227500Y-93825000I-162500J0D01*
G01*
X175092500Y-93825000D01*
G75*
G02*
X174930000Y-93662500I0J162500D01*
G01*
G37*
G36*
G01*
X174930000Y-92712500D02*
X174930000Y-92387500D01*
G75*
G02*
X175092500Y-92225000I162500J0D01*
G01*
X176227500Y-92225000D01*
G75*
G02*
X176390000Y-92387500I0J-162500D01*
G01*
X176390000Y-92712500D01*
G75*
G02*
X176227500Y-92875000I-162500J0D01*
G01*
X175092500Y-92875000D01*
G75*
G02*
X174930000Y-92712500I0J162500D01*
G01*
G37*
%TD*%
%TO.C,U20*%
G36*
G01*
X177530000Y-100162500D02*
X177530000Y-99837500D01*
G75*
G02*
X177692500Y-99675000I162500J0D01*
G01*
X178827500Y-99675000D01*
G75*
G02*
X178990000Y-99837500I0J-162500D01*
G01*
X178990000Y-100162500D01*
G75*
G02*
X178827500Y-100325000I-162500J0D01*
G01*
X177692500Y-100325000D01*
G75*
G02*
X177530000Y-100162500I0J162500D01*
G01*
G37*
G36*
G01*
X177530000Y-99212500D02*
X177530000Y-98887500D01*
G75*
G02*
X177692500Y-98725000I162500J0D01*
G01*
X178827500Y-98725000D01*
G75*
G02*
X178990000Y-98887500I0J-162500D01*
G01*
X178990000Y-99212500D01*
G75*
G02*
X178827500Y-99375000I-162500J0D01*
G01*
X177692500Y-99375000D01*
G75*
G02*
X177530000Y-99212500I0J162500D01*
G01*
G37*
G36*
G01*
X177530000Y-101112500D02*
X177530000Y-100787500D01*
G75*
G02*
X177692500Y-100625000I162500J0D01*
G01*
X178827500Y-100625000D01*
G75*
G02*
X178990000Y-100787500I0J-162500D01*
G01*
X178990000Y-101112500D01*
G75*
G02*
X178827500Y-101275000I-162500J0D01*
G01*
X177692500Y-101275000D01*
G75*
G02*
X177530000Y-101112500I0J162500D01*
G01*
G37*
G36*
G01*
X174930000Y-101112500D02*
X174930000Y-100787500D01*
G75*
G02*
X175092500Y-100625000I162500J0D01*
G01*
X176227500Y-100625000D01*
G75*
G02*
X176390000Y-100787500I0J-162500D01*
G01*
X176390000Y-101112500D01*
G75*
G02*
X176227500Y-101275000I-162500J0D01*
G01*
X175092500Y-101275000D01*
G75*
G02*
X174930000Y-101112500I0J162500D01*
G01*
G37*
G36*
G01*
X174930000Y-100162500D02*
X174930000Y-99837500D01*
G75*
G02*
X175092500Y-99675000I162500J0D01*
G01*
X176227500Y-99675000D01*
G75*
G02*
X176390000Y-99837500I0J-162500D01*
G01*
X176390000Y-100162500D01*
G75*
G02*
X176227500Y-100325000I-162500J0D01*
G01*
X175092500Y-100325000D01*
G75*
G02*
X174930000Y-100162500I0J162500D01*
G01*
G37*
G36*
G01*
X174930000Y-99212500D02*
X174930000Y-98887500D01*
G75*
G02*
X175092500Y-98725000I162500J0D01*
G01*
X176227500Y-98725000D01*
G75*
G02*
X176390000Y-98887500I0J-162500D01*
G01*
X176390000Y-99212500D01*
G75*
G02*
X176227500Y-99375000I-162500J0D01*
G01*
X175092500Y-99375000D01*
G75*
G02*
X174930000Y-99212500I0J162500D01*
G01*
G37*
%TD*%
%TO.C,U30*%
G36*
G01*
X132575000Y-91255000D02*
X132575000Y-91555000D01*
G75*
G02*
X132425000Y-91705000I-150000J0D01*
G01*
X130775000Y-91705000D01*
G75*
G02*
X130625000Y-91555000I0J150000D01*
G01*
X130625000Y-91255000D01*
G75*
G02*
X130775000Y-91105000I150000J0D01*
G01*
X132425000Y-91105000D01*
G75*
G02*
X132575000Y-91255000I0J-150000D01*
G01*
G37*
G36*
G01*
X132575000Y-89985000D02*
X132575000Y-90285000D01*
G75*
G02*
X132425000Y-90435000I-150000J0D01*
G01*
X130775000Y-90435000D01*
G75*
G02*
X130625000Y-90285000I0J150000D01*
G01*
X130625000Y-89985000D01*
G75*
G02*
X130775000Y-89835000I150000J0D01*
G01*
X132425000Y-89835000D01*
G75*
G02*
X132575000Y-89985000I0J-150000D01*
G01*
G37*
G36*
G01*
X132575000Y-88715000D02*
X132575000Y-89015000D01*
G75*
G02*
X132425000Y-89165000I-150000J0D01*
G01*
X130775000Y-89165000D01*
G75*
G02*
X130625000Y-89015000I0J150000D01*
G01*
X130625000Y-88715000D01*
G75*
G02*
X130775000Y-88565000I150000J0D01*
G01*
X132425000Y-88565000D01*
G75*
G02*
X132575000Y-88715000I0J-150000D01*
G01*
G37*
G36*
G01*
X132575000Y-87445000D02*
X132575000Y-87745000D01*
G75*
G02*
X132425000Y-87895000I-150000J0D01*
G01*
X130775000Y-87895000D01*
G75*
G02*
X130625000Y-87745000I0J150000D01*
G01*
X130625000Y-87445000D01*
G75*
G02*
X130775000Y-87295000I150000J0D01*
G01*
X132425000Y-87295000D01*
G75*
G02*
X132575000Y-87445000I0J-150000D01*
G01*
G37*
G36*
G01*
X138375000Y-87445000D02*
X138375000Y-87745000D01*
G75*
G02*
X138225000Y-87895000I-150000J0D01*
G01*
X136575000Y-87895000D01*
G75*
G02*
X136425000Y-87745000I0J150000D01*
G01*
X136425000Y-87445000D01*
G75*
G02*
X136575000Y-87295000I150000J0D01*
G01*
X138225000Y-87295000D01*
G75*
G02*
X138375000Y-87445000I0J-150000D01*
G01*
G37*
G36*
G01*
X138375000Y-88715000D02*
X138375000Y-89015000D01*
G75*
G02*
X138225000Y-89165000I-150000J0D01*
G01*
X136575000Y-89165000D01*
G75*
G02*
X136425000Y-89015000I0J150000D01*
G01*
X136425000Y-88715000D01*
G75*
G02*
X136575000Y-88565000I150000J0D01*
G01*
X138225000Y-88565000D01*
G75*
G02*
X138375000Y-88715000I0J-150000D01*
G01*
G37*
G36*
G01*
X138375000Y-89985000D02*
X138375000Y-90285000D01*
G75*
G02*
X138225000Y-90435000I-150000J0D01*
G01*
X136575000Y-90435000D01*
G75*
G02*
X136425000Y-90285000I0J150000D01*
G01*
X136425000Y-89985000D01*
G75*
G02*
X136575000Y-89835000I150000J0D01*
G01*
X138225000Y-89835000D01*
G75*
G02*
X138375000Y-89985000I0J-150000D01*
G01*
G37*
G36*
G01*
X138375000Y-91255000D02*
X138375000Y-91555000D01*
G75*
G02*
X138225000Y-91705000I-150000J0D01*
G01*
X136575000Y-91705000D01*
G75*
G02*
X136425000Y-91555000I0J150000D01*
G01*
X136425000Y-91255000D01*
G75*
G02*
X136575000Y-91105000I150000J0D01*
G01*
X138225000Y-91105000D01*
G75*
G02*
X138375000Y-91255000I0J-150000D01*
G01*
G37*
%TD*%
%TO.C,C8*%
G36*
G01*
X147543750Y-73575000D02*
X148456250Y-73575000D01*
G75*
G02*
X148700000Y-73818750I0J-243750D01*
G01*
X148700000Y-74306250D01*
G75*
G02*
X148456250Y-74550000I-243750J0D01*
G01*
X147543750Y-74550000D01*
G75*
G02*
X147300000Y-74306250I0J243750D01*
G01*
X147300000Y-73818750D01*
G75*
G02*
X147543750Y-73575000I243750J0D01*
G01*
G37*
G36*
G01*
X147543750Y-75450000D02*
X148456250Y-75450000D01*
G75*
G02*
X148700000Y-75693750I0J-243750D01*
G01*
X148700000Y-76181250D01*
G75*
G02*
X148456250Y-76425000I-243750J0D01*
G01*
X147543750Y-76425000D01*
G75*
G02*
X147300000Y-76181250I0J243750D01*
G01*
X147300000Y-75693750D01*
G75*
G02*
X147543750Y-75450000I243750J0D01*
G01*
G37*
%TD*%
%TO.C,R8*%
G36*
G01*
X142743750Y-90775000D02*
X143256250Y-90775000D01*
G75*
G02*
X143475000Y-90993750I0J-218750D01*
G01*
X143475000Y-91431250D01*
G75*
G02*
X143256250Y-91650000I-218750J0D01*
G01*
X142743750Y-91650000D01*
G75*
G02*
X142525000Y-91431250I0J218750D01*
G01*
X142525000Y-90993750D01*
G75*
G02*
X142743750Y-90775000I218750J0D01*
G01*
G37*
G36*
G01*
X142743750Y-92350000D02*
X143256250Y-92350000D01*
G75*
G02*
X143475000Y-92568750I0J-218750D01*
G01*
X143475000Y-93006250D01*
G75*
G02*
X143256250Y-93225000I-218750J0D01*
G01*
X142743750Y-93225000D01*
G75*
G02*
X142525000Y-93006250I0J218750D01*
G01*
X142525000Y-92568750D01*
G75*
G02*
X142743750Y-92350000I218750J0D01*
G01*
G37*
%TD*%
%TO.C,R9*%
G36*
G01*
X145256250Y-91650000D02*
X144743750Y-91650000D01*
G75*
G02*
X144525000Y-91431250I0J218750D01*
G01*
X144525000Y-90993750D01*
G75*
G02*
X144743750Y-90775000I218750J0D01*
G01*
X145256250Y-90775000D01*
G75*
G02*
X145475000Y-90993750I0J-218750D01*
G01*
X145475000Y-91431250D01*
G75*
G02*
X145256250Y-91650000I-218750J0D01*
G01*
G37*
G36*
G01*
X145256250Y-93225000D02*
X144743750Y-93225000D01*
G75*
G02*
X144525000Y-93006250I0J218750D01*
G01*
X144525000Y-92568750D01*
G75*
G02*
X144743750Y-92350000I218750J0D01*
G01*
X145256250Y-92350000D01*
G75*
G02*
X145475000Y-92568750I0J-218750D01*
G01*
X145475000Y-93006250D01*
G75*
G02*
X145256250Y-93225000I-218750J0D01*
G01*
G37*
%TD*%
%TO.C,U6*%
G36*
G01*
X146162500Y-86930000D02*
X145837500Y-86930000D01*
G75*
G02*
X145675000Y-86767500I0J162500D01*
G01*
X145675000Y-85632500D01*
G75*
G02*
X145837500Y-85470000I162500J0D01*
G01*
X146162500Y-85470000D01*
G75*
G02*
X146325000Y-85632500I0J-162500D01*
G01*
X146325000Y-86767500D01*
G75*
G02*
X146162500Y-86930000I-162500J0D01*
G01*
G37*
G36*
G01*
X145212500Y-86930000D02*
X144887500Y-86930000D01*
G75*
G02*
X144725000Y-86767500I0J162500D01*
G01*
X144725000Y-85632500D01*
G75*
G02*
X144887500Y-85470000I162500J0D01*
G01*
X145212500Y-85470000D01*
G75*
G02*
X145375000Y-85632500I0J-162500D01*
G01*
X145375000Y-86767500D01*
G75*
G02*
X145212500Y-86930000I-162500J0D01*
G01*
G37*
G36*
G01*
X147112500Y-86930000D02*
X146787500Y-86930000D01*
G75*
G02*
X146625000Y-86767500I0J162500D01*
G01*
X146625000Y-85632500D01*
G75*
G02*
X146787500Y-85470000I162500J0D01*
G01*
X147112500Y-85470000D01*
G75*
G02*
X147275000Y-85632500I0J-162500D01*
G01*
X147275000Y-86767500D01*
G75*
G02*
X147112500Y-86930000I-162500J0D01*
G01*
G37*
G36*
G01*
X147112500Y-89530000D02*
X146787500Y-89530000D01*
G75*
G02*
X146625000Y-89367500I0J162500D01*
G01*
X146625000Y-88232500D01*
G75*
G02*
X146787500Y-88070000I162500J0D01*
G01*
X147112500Y-88070000D01*
G75*
G02*
X147275000Y-88232500I0J-162500D01*
G01*
X147275000Y-89367500D01*
G75*
G02*
X147112500Y-89530000I-162500J0D01*
G01*
G37*
G36*
G01*
X146162500Y-89530000D02*
X145837500Y-89530000D01*
G75*
G02*
X145675000Y-89367500I0J162500D01*
G01*
X145675000Y-88232500D01*
G75*
G02*
X145837500Y-88070000I162500J0D01*
G01*
X146162500Y-88070000D01*
G75*
G02*
X146325000Y-88232500I0J-162500D01*
G01*
X146325000Y-89367500D01*
G75*
G02*
X146162500Y-89530000I-162500J0D01*
G01*
G37*
G36*
G01*
X145212500Y-89530000D02*
X144887500Y-89530000D01*
G75*
G02*
X144725000Y-89367500I0J162500D01*
G01*
X144725000Y-88232500D01*
G75*
G02*
X144887500Y-88070000I162500J0D01*
G01*
X145212500Y-88070000D01*
G75*
G02*
X145375000Y-88232500I0J-162500D01*
G01*
X145375000Y-89367500D01*
G75*
G02*
X145212500Y-89530000I-162500J0D01*
G01*
G37*
%TD*%
M02*
