%TF.GenerationSoftware,KiCad,Pcbnew,5.1.6*%
%TF.CreationDate,2020-06-13T14:07:02-07:00*%
%TF.ProjectId,pcb-lab-1,7063622d-6c61-4622-9d31-2e6b69636164,rev?*%
%TF.SameCoordinates,Original*%
%TF.FileFunction,Legend,Top*%
%TF.FilePolarity,Positive*%
%FSLAX46Y46*%
G04 Gerber Fmt 4.6, Leading zero omitted, Abs format (unit mm)*
G04 Created by KiCad (PCBNEW 5.1.6) date 2020-06-13 14:07:02*
%MOMM*%
%LPD*%
G01*
G04 APERTURE LIST*
%ADD10C,0.152400*%
%ADD11C,0.127000*%
%ADD12C,0.150000*%
%ADD13C,0.120000*%
%ADD14C,0.076200*%
%ADD15C,0.101600*%
G04 APERTURE END LIST*
D10*
X121519428Y-80919000D02*
X121446857Y-80882714D01*
X121338000Y-80882714D01*
X121229142Y-80919000D01*
X121156571Y-80991571D01*
X121120285Y-81064142D01*
X121084000Y-81209285D01*
X121084000Y-81318142D01*
X121120285Y-81463285D01*
X121156571Y-81535857D01*
X121229142Y-81608428D01*
X121338000Y-81644714D01*
X121410571Y-81644714D01*
X121519428Y-81608428D01*
X121555714Y-81572142D01*
X121555714Y-81318142D01*
X121410571Y-81318142D01*
X121882285Y-81644714D02*
X121882285Y-80882714D01*
X122317714Y-81644714D01*
X122317714Y-80882714D01*
X122680571Y-81644714D02*
X122680571Y-80882714D01*
X122862000Y-80882714D01*
X122970857Y-80919000D01*
X123043428Y-80991571D01*
X123079714Y-81064142D01*
X123116000Y-81209285D01*
X123116000Y-81318142D01*
X123079714Y-81463285D01*
X123043428Y-81535857D01*
X122970857Y-81608428D01*
X122862000Y-81644714D01*
X122680571Y-81644714D01*
X152319428Y-91919000D02*
X152246857Y-91882714D01*
X152138000Y-91882714D01*
X152029142Y-91919000D01*
X151956571Y-91991571D01*
X151920285Y-92064142D01*
X151884000Y-92209285D01*
X151884000Y-92318142D01*
X151920285Y-92463285D01*
X151956571Y-92535857D01*
X152029142Y-92608428D01*
X152138000Y-92644714D01*
X152210571Y-92644714D01*
X152319428Y-92608428D01*
X152355714Y-92572142D01*
X152355714Y-92318142D01*
X152210571Y-92318142D01*
X153117714Y-92644714D02*
X152863714Y-92281857D01*
X152682285Y-92644714D02*
X152682285Y-91882714D01*
X152972571Y-91882714D01*
X153045142Y-91919000D01*
X153081428Y-91955285D01*
X153117714Y-92027857D01*
X153117714Y-92136714D01*
X153081428Y-92209285D01*
X153045142Y-92245571D01*
X152972571Y-92281857D01*
X152682285Y-92281857D01*
X153444285Y-92644714D02*
X153444285Y-91882714D01*
X153879714Y-92644714D01*
X153879714Y-91882714D01*
X154846857Y-92281857D02*
X154846857Y-92644714D01*
X154592857Y-91882714D02*
X154846857Y-92281857D01*
X155100857Y-91882714D01*
X155354857Y-92245571D02*
X155608857Y-92245571D01*
X155717714Y-92644714D02*
X155354857Y-92644714D01*
X155354857Y-91882714D01*
X155717714Y-91882714D01*
X156407142Y-92644714D02*
X156044285Y-92644714D01*
X156044285Y-91882714D01*
X157610142Y-92644714D02*
X157356142Y-92281857D01*
X157174714Y-92644714D02*
X157174714Y-91882714D01*
X157465000Y-91882714D01*
X157537571Y-91919000D01*
X157573857Y-91955285D01*
X157610142Y-92027857D01*
X157610142Y-92136714D01*
X157573857Y-92209285D01*
X157537571Y-92245571D01*
X157465000Y-92281857D01*
X157174714Y-92281857D01*
X157936714Y-92245571D02*
X158190714Y-92245571D01*
X158299571Y-92644714D02*
X157936714Y-92644714D01*
X157936714Y-91882714D01*
X158299571Y-91882714D01*
X158626142Y-92644714D02*
X158626142Y-91882714D01*
X158807571Y-91882714D01*
X158916428Y-91919000D01*
X158989000Y-91991571D01*
X159025285Y-92064142D01*
X159061571Y-92209285D01*
X159061571Y-92318142D01*
X159025285Y-92463285D01*
X158989000Y-92535857D01*
X158916428Y-92608428D01*
X158807571Y-92644714D01*
X158626142Y-92644714D01*
X186738857Y-98135014D02*
X186738857Y-98751871D01*
X186775142Y-98824442D01*
X186811428Y-98860728D01*
X186884000Y-98897014D01*
X187029142Y-98897014D01*
X187101714Y-98860728D01*
X187138000Y-98824442D01*
X187174285Y-98751871D01*
X187174285Y-98135014D01*
X187537142Y-98897014D02*
X187537142Y-98135014D01*
X187827428Y-98135014D01*
X187900000Y-98171300D01*
X187936285Y-98207585D01*
X187972571Y-98280157D01*
X187972571Y-98389014D01*
X187936285Y-98461585D01*
X187900000Y-98497871D01*
X187827428Y-98534157D01*
X187537142Y-98534157D01*
X188299142Y-98897014D02*
X188299142Y-98135014D01*
X188480571Y-98135014D01*
X188589428Y-98171300D01*
X188662000Y-98243871D01*
X188698285Y-98316442D01*
X188734571Y-98461585D01*
X188734571Y-98570442D01*
X188698285Y-98715585D01*
X188662000Y-98788157D01*
X188589428Y-98860728D01*
X188480571Y-98897014D01*
X188299142Y-98897014D01*
X189061142Y-98897014D02*
X189061142Y-98135014D01*
X187754857Y-99430414D02*
X187392000Y-99430414D01*
X187355714Y-99793271D01*
X187392000Y-99756985D01*
X187464571Y-99720700D01*
X187646000Y-99720700D01*
X187718571Y-99756985D01*
X187754857Y-99793271D01*
X187791142Y-99865842D01*
X187791142Y-100047271D01*
X187754857Y-100119842D01*
X187718571Y-100156128D01*
X187646000Y-100192414D01*
X187464571Y-100192414D01*
X187392000Y-100156128D01*
X187355714Y-100119842D01*
X188008857Y-99430414D02*
X188262857Y-100192414D01*
X188516857Y-99430414D01*
X182885714Y-96944714D02*
X182885714Y-96182714D01*
X183176000Y-96182714D01*
X183248571Y-96219000D01*
X183284857Y-96255285D01*
X183321142Y-96327857D01*
X183321142Y-96436714D01*
X183284857Y-96509285D01*
X183248571Y-96545571D01*
X183176000Y-96581857D01*
X182885714Y-96581857D01*
X183647714Y-96944714D02*
X183647714Y-96182714D01*
X184337142Y-96436714D02*
X184337142Y-96944714D01*
X184155714Y-96146428D02*
X183974285Y-96690714D01*
X184446000Y-96690714D01*
X184736285Y-96182714D02*
X184736285Y-96799571D01*
X184772571Y-96872142D01*
X184808857Y-96908428D01*
X184881428Y-96944714D01*
X185026571Y-96944714D01*
X185099142Y-96908428D01*
X185135428Y-96872142D01*
X185171714Y-96799571D01*
X185171714Y-96182714D01*
X185897428Y-96944714D02*
X185534571Y-96944714D01*
X185534571Y-96182714D01*
X186115142Y-96908428D02*
X186224000Y-96944714D01*
X186405428Y-96944714D01*
X186478000Y-96908428D01*
X186514285Y-96872142D01*
X186550571Y-96799571D01*
X186550571Y-96727000D01*
X186514285Y-96654428D01*
X186478000Y-96618142D01*
X186405428Y-96581857D01*
X186260285Y-96545571D01*
X186187714Y-96509285D01*
X186151428Y-96473000D01*
X186115142Y-96400428D01*
X186115142Y-96327857D01*
X186151428Y-96255285D01*
X186187714Y-96219000D01*
X186260285Y-96182714D01*
X186441714Y-96182714D01*
X186550571Y-96219000D01*
X184738428Y-91082714D02*
X185173857Y-91082714D01*
X184956142Y-91844714D02*
X184956142Y-91082714D01*
X185355285Y-91082714D02*
X185863285Y-91844714D01*
X185863285Y-91082714D02*
X185355285Y-91844714D01*
X186407571Y-91445571D02*
X186516428Y-91481857D01*
X186552714Y-91518142D01*
X186589000Y-91590714D01*
X186589000Y-91699571D01*
X186552714Y-91772142D01*
X186516428Y-91808428D01*
X186443857Y-91844714D01*
X186153571Y-91844714D01*
X186153571Y-91082714D01*
X186407571Y-91082714D01*
X186480142Y-91119000D01*
X186516428Y-91155285D01*
X186552714Y-91227857D01*
X186552714Y-91300428D01*
X186516428Y-91373000D01*
X186480142Y-91409285D01*
X186407571Y-91445571D01*
X186153571Y-91445571D01*
X193838857Y-98082714D02*
X193838857Y-98699571D01*
X193875142Y-98772142D01*
X193911428Y-98808428D01*
X193984000Y-98844714D01*
X194129142Y-98844714D01*
X194201714Y-98808428D01*
X194238000Y-98772142D01*
X194274285Y-98699571D01*
X194274285Y-98082714D01*
X194637142Y-98844714D02*
X194637142Y-98082714D01*
X194927428Y-98082714D01*
X195000000Y-98119000D01*
X195036285Y-98155285D01*
X195072571Y-98227857D01*
X195072571Y-98336714D01*
X195036285Y-98409285D01*
X195000000Y-98445571D01*
X194927428Y-98481857D01*
X194637142Y-98481857D01*
X195399142Y-98844714D02*
X195399142Y-98082714D01*
X195580571Y-98082714D01*
X195689428Y-98119000D01*
X195762000Y-98191571D01*
X195798285Y-98264142D01*
X195834571Y-98409285D01*
X195834571Y-98518142D01*
X195798285Y-98663285D01*
X195762000Y-98735857D01*
X195689428Y-98808428D01*
X195580571Y-98844714D01*
X195399142Y-98844714D01*
X196161142Y-98844714D02*
X196161142Y-98082714D01*
X193799571Y-93619000D02*
X193727000Y-93582714D01*
X193618142Y-93582714D01*
X193509285Y-93619000D01*
X193436714Y-93691571D01*
X193400428Y-93764142D01*
X193364142Y-93909285D01*
X193364142Y-94018142D01*
X193400428Y-94163285D01*
X193436714Y-94235857D01*
X193509285Y-94308428D01*
X193618142Y-94344714D01*
X193690714Y-94344714D01*
X193799571Y-94308428D01*
X193835857Y-94272142D01*
X193835857Y-94018142D01*
X193690714Y-94018142D01*
X193354857Y-90982714D02*
X192992000Y-90982714D01*
X192955714Y-91345571D01*
X192992000Y-91309285D01*
X193064571Y-91273000D01*
X193246000Y-91273000D01*
X193318571Y-91309285D01*
X193354857Y-91345571D01*
X193391142Y-91418142D01*
X193391142Y-91599571D01*
X193354857Y-91672142D01*
X193318571Y-91708428D01*
X193246000Y-91744714D01*
X193064571Y-91744714D01*
X192992000Y-91708428D01*
X192955714Y-91672142D01*
X193608857Y-90982714D02*
X193862857Y-91744714D01*
X194116857Y-90982714D01*
X193454857Y-75882714D02*
X193092000Y-75882714D01*
X193055714Y-76245571D01*
X193092000Y-76209285D01*
X193164571Y-76173000D01*
X193346000Y-76173000D01*
X193418571Y-76209285D01*
X193454857Y-76245571D01*
X193491142Y-76318142D01*
X193491142Y-76499571D01*
X193454857Y-76572142D01*
X193418571Y-76608428D01*
X193346000Y-76644714D01*
X193164571Y-76644714D01*
X193092000Y-76608428D01*
X193055714Y-76572142D01*
X193708857Y-75882714D02*
X193962857Y-76644714D01*
X194216857Y-75882714D01*
X193799571Y-78419000D02*
X193727000Y-78382714D01*
X193618142Y-78382714D01*
X193509285Y-78419000D01*
X193436714Y-78491571D01*
X193400428Y-78564142D01*
X193364142Y-78709285D01*
X193364142Y-78818142D01*
X193400428Y-78963285D01*
X193436714Y-79035857D01*
X193509285Y-79108428D01*
X193618142Y-79144714D01*
X193690714Y-79144714D01*
X193799571Y-79108428D01*
X193835857Y-79072142D01*
X193835857Y-78818142D01*
X193690714Y-78818142D01*
X193119428Y-83582714D02*
X193554857Y-83582714D01*
X193337142Y-84344714D02*
X193337142Y-83582714D01*
X193736285Y-83582714D02*
X194244285Y-84344714D01*
X194244285Y-83582714D02*
X193736285Y-84344714D01*
X193573000Y-81744714D02*
X193319000Y-81381857D01*
X193137571Y-81744714D02*
X193137571Y-80982714D01*
X193427857Y-80982714D01*
X193500428Y-81019000D01*
X193536714Y-81055285D01*
X193573000Y-81127857D01*
X193573000Y-81236714D01*
X193536714Y-81309285D01*
X193500428Y-81345571D01*
X193427857Y-81381857D01*
X193137571Y-81381857D01*
X193827000Y-80982714D02*
X194335000Y-81744714D01*
X194335000Y-80982714D02*
X193827000Y-81744714D01*
D11*
X168939285Y-80952261D02*
X169362619Y-80952261D01*
X169090476Y-81587261D01*
X169876666Y-81163928D02*
X169876666Y-81587261D01*
X169725476Y-80922023D02*
X169574285Y-81375595D01*
X169967380Y-81375595D01*
X170511666Y-81587261D02*
X170209285Y-81587261D01*
X170209285Y-80952261D01*
X170632619Y-80952261D02*
X170844285Y-81587261D01*
X171055952Y-80952261D01*
X171630476Y-81526785D02*
X171600238Y-81557023D01*
X171509523Y-81587261D01*
X171449047Y-81587261D01*
X171358333Y-81557023D01*
X171297857Y-81496547D01*
X171267619Y-81436071D01*
X171237380Y-81315119D01*
X171237380Y-81224404D01*
X171267619Y-81103452D01*
X171297857Y-81042976D01*
X171358333Y-80982500D01*
X171449047Y-80952261D01*
X171509523Y-80952261D01*
X171600238Y-80982500D01*
X171630476Y-81012738D01*
X181339285Y-80952261D02*
X181762619Y-80952261D01*
X181490476Y-81587261D01*
X182276666Y-81163928D02*
X182276666Y-81587261D01*
X182125476Y-80922023D02*
X181974285Y-81375595D01*
X182367380Y-81375595D01*
X182911666Y-81587261D02*
X182609285Y-81587261D01*
X182609285Y-80952261D01*
X183032619Y-80952261D02*
X183244285Y-81587261D01*
X183455952Y-80952261D01*
X184030476Y-81526785D02*
X184000238Y-81557023D01*
X183909523Y-81587261D01*
X183849047Y-81587261D01*
X183758333Y-81557023D01*
X183697857Y-81496547D01*
X183667619Y-81436071D01*
X183637380Y-81315119D01*
X183637380Y-81224404D01*
X183667619Y-81103452D01*
X183697857Y-81042976D01*
X183758333Y-80982500D01*
X183849047Y-80952261D01*
X183909523Y-80952261D01*
X184000238Y-80982500D01*
X184030476Y-81012738D01*
D10*
X182138428Y-75782714D02*
X182573857Y-75782714D01*
X182356142Y-76544714D02*
X182356142Y-75782714D01*
X182755285Y-75782714D02*
X183263285Y-76544714D01*
X183263285Y-75782714D02*
X182755285Y-76544714D01*
X183807571Y-76145571D02*
X183916428Y-76181857D01*
X183952714Y-76218142D01*
X183989000Y-76290714D01*
X183989000Y-76399571D01*
X183952714Y-76472142D01*
X183916428Y-76508428D01*
X183843857Y-76544714D01*
X183553571Y-76544714D01*
X183553571Y-75782714D01*
X183807571Y-75782714D01*
X183880142Y-75819000D01*
X183916428Y-75855285D01*
X183952714Y-75927857D01*
X183952714Y-76000428D01*
X183916428Y-76073000D01*
X183880142Y-76109285D01*
X183807571Y-76145571D01*
X183553571Y-76145571D01*
X169038428Y-75782714D02*
X169473857Y-75782714D01*
X169256142Y-76544714D02*
X169256142Y-75782714D01*
X169655285Y-75782714D02*
X170163285Y-76544714D01*
X170163285Y-75782714D02*
X169655285Y-76544714D01*
X170707571Y-76145571D02*
X170816428Y-76181857D01*
X170852714Y-76218142D01*
X170889000Y-76290714D01*
X170889000Y-76399571D01*
X170852714Y-76472142D01*
X170816428Y-76508428D01*
X170743857Y-76544714D01*
X170453571Y-76544714D01*
X170453571Y-75782714D01*
X170707571Y-75782714D01*
X170780142Y-75819000D01*
X170816428Y-75855285D01*
X170852714Y-75927857D01*
X170852714Y-76000428D01*
X170816428Y-76073000D01*
X170780142Y-76109285D01*
X170707571Y-76145571D01*
X170453571Y-76145571D01*
X186454857Y-73982714D02*
X186092000Y-73982714D01*
X186055714Y-74345571D01*
X186092000Y-74309285D01*
X186164571Y-74273000D01*
X186346000Y-74273000D01*
X186418571Y-74309285D01*
X186454857Y-74345571D01*
X186491142Y-74418142D01*
X186491142Y-74599571D01*
X186454857Y-74672142D01*
X186418571Y-74708428D01*
X186346000Y-74744714D01*
X186164571Y-74744714D01*
X186092000Y-74708428D01*
X186055714Y-74672142D01*
X186708857Y-73982714D02*
X186962857Y-74744714D01*
X187216857Y-73982714D01*
X165392857Y-74055285D02*
X165429142Y-74019000D01*
X165501714Y-73982714D01*
X165683142Y-73982714D01*
X165755714Y-74019000D01*
X165792000Y-74055285D01*
X165828285Y-74127857D01*
X165828285Y-74200428D01*
X165792000Y-74309285D01*
X165356571Y-74744714D01*
X165828285Y-74744714D01*
X166046000Y-73982714D02*
X166300000Y-74744714D01*
X166554000Y-73982714D01*
X167170857Y-73982714D02*
X166808000Y-73982714D01*
X166771714Y-74345571D01*
X166808000Y-74309285D01*
X166880571Y-74273000D01*
X167062000Y-74273000D01*
X167134571Y-74309285D01*
X167170857Y-74345571D01*
X167207142Y-74418142D01*
X167207142Y-74599571D01*
X167170857Y-74672142D01*
X167134571Y-74708428D01*
X167062000Y-74744714D01*
X166880571Y-74744714D01*
X166808000Y-74708428D01*
X166771714Y-74672142D01*
X167573000Y-83444714D02*
X167319000Y-83081857D01*
X167137571Y-83444714D02*
X167137571Y-82682714D01*
X167427857Y-82682714D01*
X167500428Y-82719000D01*
X167536714Y-82755285D01*
X167573000Y-82827857D01*
X167573000Y-82936714D01*
X167536714Y-83009285D01*
X167500428Y-83045571D01*
X167427857Y-83081857D01*
X167137571Y-83081857D01*
X167827000Y-82682714D02*
X168335000Y-83444714D01*
X168335000Y-82682714D02*
X167827000Y-83444714D01*
X187873000Y-83444714D02*
X187619000Y-83081857D01*
X187437571Y-83444714D02*
X187437571Y-82682714D01*
X187727857Y-82682714D01*
X187800428Y-82719000D01*
X187836714Y-82755285D01*
X187873000Y-82827857D01*
X187873000Y-82936714D01*
X187836714Y-83009285D01*
X187800428Y-83045571D01*
X187727857Y-83081857D01*
X187437571Y-83081857D01*
X188127000Y-82682714D02*
X188635000Y-83444714D01*
X188635000Y-82682714D02*
X188127000Y-83444714D01*
X184919428Y-82682714D02*
X185354857Y-82682714D01*
X185137142Y-83444714D02*
X185137142Y-82682714D01*
X185536285Y-82682714D02*
X186044285Y-83444714D01*
X186044285Y-82682714D02*
X185536285Y-83444714D01*
X164519428Y-82682714D02*
X164954857Y-82682714D01*
X164737142Y-83444714D02*
X164737142Y-82682714D01*
X165136285Y-82682714D02*
X165644285Y-83444714D01*
X165644285Y-82682714D02*
X165136285Y-83444714D01*
X164038857Y-98135014D02*
X164038857Y-98751871D01*
X164075142Y-98824442D01*
X164111428Y-98860728D01*
X164184000Y-98897014D01*
X164329142Y-98897014D01*
X164401714Y-98860728D01*
X164438000Y-98824442D01*
X164474285Y-98751871D01*
X164474285Y-98135014D01*
X164837142Y-98897014D02*
X164837142Y-98135014D01*
X165127428Y-98135014D01*
X165200000Y-98171300D01*
X165236285Y-98207585D01*
X165272571Y-98280157D01*
X165272571Y-98389014D01*
X165236285Y-98461585D01*
X165200000Y-98497871D01*
X165127428Y-98534157D01*
X164837142Y-98534157D01*
X165599142Y-98897014D02*
X165599142Y-98135014D01*
X165780571Y-98135014D01*
X165889428Y-98171300D01*
X165962000Y-98243871D01*
X165998285Y-98316442D01*
X166034571Y-98461585D01*
X166034571Y-98570442D01*
X165998285Y-98715585D01*
X165962000Y-98788157D01*
X165889428Y-98860728D01*
X165780571Y-98897014D01*
X165599142Y-98897014D01*
X166361142Y-98897014D02*
X166361142Y-98135014D01*
X164292857Y-99502985D02*
X164329142Y-99466700D01*
X164401714Y-99430414D01*
X164583142Y-99430414D01*
X164655714Y-99466700D01*
X164692000Y-99502985D01*
X164728285Y-99575557D01*
X164728285Y-99648128D01*
X164692000Y-99756985D01*
X164256571Y-100192414D01*
X164728285Y-100192414D01*
X164946000Y-99430414D02*
X165200000Y-100192414D01*
X165454000Y-99430414D01*
X166070857Y-99430414D02*
X165708000Y-99430414D01*
X165671714Y-99793271D01*
X165708000Y-99756985D01*
X165780571Y-99720700D01*
X165962000Y-99720700D01*
X166034571Y-99756985D01*
X166070857Y-99793271D01*
X166107142Y-99865842D01*
X166107142Y-100047271D01*
X166070857Y-100119842D01*
X166034571Y-100156128D01*
X165962000Y-100192414D01*
X165780571Y-100192414D01*
X165708000Y-100156128D01*
X165671714Y-100119842D01*
X166485714Y-97144714D02*
X166485714Y-96382714D01*
X166776000Y-96382714D01*
X166848571Y-96419000D01*
X166884857Y-96455285D01*
X166921142Y-96527857D01*
X166921142Y-96636714D01*
X166884857Y-96709285D01*
X166848571Y-96745571D01*
X166776000Y-96781857D01*
X166485714Y-96781857D01*
X167247714Y-97144714D02*
X167247714Y-96382714D01*
X167937142Y-96636714D02*
X167937142Y-97144714D01*
X167755714Y-96346428D02*
X167574285Y-96890714D01*
X168046000Y-96890714D01*
X168336285Y-96382714D02*
X168336285Y-96999571D01*
X168372571Y-97072142D01*
X168408857Y-97108428D01*
X168481428Y-97144714D01*
X168626571Y-97144714D01*
X168699142Y-97108428D01*
X168735428Y-97072142D01*
X168771714Y-96999571D01*
X168771714Y-96382714D01*
X169497428Y-97144714D02*
X169134571Y-97144714D01*
X169134571Y-96382714D01*
X169715142Y-97108428D02*
X169824000Y-97144714D01*
X170005428Y-97144714D01*
X170078000Y-97108428D01*
X170114285Y-97072142D01*
X170150571Y-96999571D01*
X170150571Y-96927000D01*
X170114285Y-96854428D01*
X170078000Y-96818142D01*
X170005428Y-96781857D01*
X169860285Y-96745571D01*
X169787714Y-96709285D01*
X169751428Y-96673000D01*
X169715142Y-96600428D01*
X169715142Y-96527857D01*
X169751428Y-96455285D01*
X169787714Y-96419000D01*
X169860285Y-96382714D01*
X170041714Y-96382714D01*
X170150571Y-96419000D01*
X166438428Y-90882714D02*
X166873857Y-90882714D01*
X166656142Y-91644714D02*
X166656142Y-90882714D01*
X167055285Y-90882714D02*
X167563285Y-91644714D01*
X167563285Y-90882714D02*
X167055285Y-91644714D01*
X168107571Y-91245571D02*
X168216428Y-91281857D01*
X168252714Y-91318142D01*
X168289000Y-91390714D01*
X168289000Y-91499571D01*
X168252714Y-91572142D01*
X168216428Y-91608428D01*
X168143857Y-91644714D01*
X167853571Y-91644714D01*
X167853571Y-90882714D01*
X168107571Y-90882714D01*
X168180142Y-90919000D01*
X168216428Y-90955285D01*
X168252714Y-91027857D01*
X168252714Y-91100428D01*
X168216428Y-91173000D01*
X168180142Y-91209285D01*
X168107571Y-91245571D01*
X167853571Y-91245571D01*
X153848142Y-89135014D02*
X154102142Y-89897014D01*
X154356142Y-89135014D01*
X154864142Y-89497871D02*
X154973000Y-89534157D01*
X155009285Y-89570442D01*
X155045571Y-89643014D01*
X155045571Y-89751871D01*
X155009285Y-89824442D01*
X154973000Y-89860728D01*
X154900428Y-89897014D01*
X154610142Y-89897014D01*
X154610142Y-89135014D01*
X154864142Y-89135014D01*
X154936714Y-89171300D01*
X154973000Y-89207585D01*
X155009285Y-89280157D01*
X155009285Y-89352728D01*
X154973000Y-89425300D01*
X154936714Y-89461585D01*
X154864142Y-89497871D01*
X154610142Y-89497871D01*
X155335857Y-89679300D02*
X155698714Y-89679300D01*
X155263285Y-89897014D02*
X155517285Y-89135014D01*
X155771285Y-89897014D01*
X155916428Y-89135014D02*
X156351857Y-89135014D01*
X156134142Y-89897014D02*
X156134142Y-89135014D01*
X153467142Y-91192414D02*
X153467142Y-90793271D01*
X153430857Y-90720700D01*
X153358285Y-90684414D01*
X153213142Y-90684414D01*
X153140571Y-90720700D01*
X153467142Y-91156128D02*
X153394571Y-91192414D01*
X153213142Y-91192414D01*
X153140571Y-91156128D01*
X153104285Y-91083557D01*
X153104285Y-91010985D01*
X153140571Y-90938414D01*
X153213142Y-90902128D01*
X153394571Y-90902128D01*
X153467142Y-90865842D01*
X153830000Y-90684414D02*
X153830000Y-91446414D01*
X153830000Y-90720700D02*
X153902571Y-90684414D01*
X154047714Y-90684414D01*
X154120285Y-90720700D01*
X154156571Y-90756985D01*
X154192857Y-90829557D01*
X154192857Y-91047271D01*
X154156571Y-91119842D01*
X154120285Y-91156128D01*
X154047714Y-91192414D01*
X153902571Y-91192414D01*
X153830000Y-91156128D01*
X154483142Y-90502985D02*
X154519428Y-90466700D01*
X154592000Y-90430414D01*
X154773428Y-90430414D01*
X154846000Y-90466700D01*
X154882285Y-90502985D01*
X154918571Y-90575557D01*
X154918571Y-90648128D01*
X154882285Y-90756985D01*
X154446857Y-91192414D01*
X154918571Y-91192414D01*
X155208857Y-90502985D02*
X155245142Y-90466700D01*
X155317714Y-90430414D01*
X155499142Y-90430414D01*
X155571714Y-90466700D01*
X155608000Y-90502985D01*
X155644285Y-90575557D01*
X155644285Y-90648128D01*
X155608000Y-90756985D01*
X155172571Y-91192414D01*
X155644285Y-91192414D01*
X156079714Y-90756985D02*
X156007142Y-90720700D01*
X155970857Y-90684414D01*
X155934571Y-90611842D01*
X155934571Y-90575557D01*
X155970857Y-90502985D01*
X156007142Y-90466700D01*
X156079714Y-90430414D01*
X156224857Y-90430414D01*
X156297428Y-90466700D01*
X156333714Y-90502985D01*
X156370000Y-90575557D01*
X156370000Y-90611842D01*
X156333714Y-90684414D01*
X156297428Y-90720700D01*
X156224857Y-90756985D01*
X156079714Y-90756985D01*
X156007142Y-90793271D01*
X155970857Y-90829557D01*
X155934571Y-90902128D01*
X155934571Y-91047271D01*
X155970857Y-91119842D01*
X156007142Y-91156128D01*
X156079714Y-91192414D01*
X156224857Y-91192414D01*
X156297428Y-91156128D01*
X156333714Y-91119842D01*
X156370000Y-91047271D01*
X156370000Y-90902128D01*
X156333714Y-90829557D01*
X156297428Y-90793271D01*
X156224857Y-90756985D01*
X156841714Y-90430414D02*
X156914285Y-90430414D01*
X156986857Y-90466700D01*
X157023142Y-90502985D01*
X157059428Y-90575557D01*
X157095714Y-90720700D01*
X157095714Y-90902128D01*
X157059428Y-91047271D01*
X157023142Y-91119842D01*
X156986857Y-91156128D01*
X156914285Y-91192414D01*
X156841714Y-91192414D01*
X156769142Y-91156128D01*
X156732857Y-91119842D01*
X156696571Y-91047271D01*
X156660285Y-90902128D01*
X156660285Y-90720700D01*
X156696571Y-90575557D01*
X156732857Y-90502985D01*
X156769142Y-90466700D01*
X156841714Y-90430414D01*
X148748142Y-89135014D02*
X149002142Y-89897014D01*
X149256142Y-89135014D01*
X149764142Y-89497871D02*
X149873000Y-89534157D01*
X149909285Y-89570442D01*
X149945571Y-89643014D01*
X149945571Y-89751871D01*
X149909285Y-89824442D01*
X149873000Y-89860728D01*
X149800428Y-89897014D01*
X149510142Y-89897014D01*
X149510142Y-89135014D01*
X149764142Y-89135014D01*
X149836714Y-89171300D01*
X149873000Y-89207585D01*
X149909285Y-89280157D01*
X149909285Y-89352728D01*
X149873000Y-89425300D01*
X149836714Y-89461585D01*
X149764142Y-89497871D01*
X149510142Y-89497871D01*
X150235857Y-89679300D02*
X150598714Y-89679300D01*
X150163285Y-89897014D02*
X150417285Y-89135014D01*
X150671285Y-89897014D01*
X150816428Y-89135014D02*
X151251857Y-89135014D01*
X151034142Y-89897014D02*
X151034142Y-89135014D01*
X148929571Y-91192414D02*
X148929571Y-90793271D01*
X148893285Y-90720700D01*
X148820714Y-90684414D01*
X148675571Y-90684414D01*
X148603000Y-90720700D01*
X148929571Y-91156128D02*
X148857000Y-91192414D01*
X148675571Y-91192414D01*
X148603000Y-91156128D01*
X148566714Y-91083557D01*
X148566714Y-91010985D01*
X148603000Y-90938414D01*
X148675571Y-90902128D01*
X148857000Y-90902128D01*
X148929571Y-90865842D01*
X149292428Y-90684414D02*
X149292428Y-91192414D01*
X149292428Y-90756985D02*
X149328714Y-90720700D01*
X149401285Y-90684414D01*
X149510142Y-90684414D01*
X149582714Y-90720700D01*
X149619000Y-90793271D01*
X149619000Y-91192414D01*
X149981857Y-91119842D02*
X150018142Y-91156128D01*
X149981857Y-91192414D01*
X149945571Y-91156128D01*
X149981857Y-91119842D01*
X149981857Y-91192414D01*
X150308428Y-91156128D02*
X150381000Y-91192414D01*
X150526142Y-91192414D01*
X150598714Y-91156128D01*
X150635000Y-91083557D01*
X150635000Y-91047271D01*
X150598714Y-90974700D01*
X150526142Y-90938414D01*
X150417285Y-90938414D01*
X150344714Y-90902128D01*
X150308428Y-90829557D01*
X150308428Y-90793271D01*
X150344714Y-90720700D01*
X150417285Y-90684414D01*
X150526142Y-90684414D01*
X150598714Y-90720700D01*
X150889000Y-90684414D02*
X151034142Y-91192414D01*
X151179285Y-90829557D01*
X151324428Y-91192414D01*
X151469571Y-90684414D01*
X140484857Y-85044714D02*
X140484857Y-84645571D01*
X140448571Y-84573000D01*
X140376000Y-84536714D01*
X140230857Y-84536714D01*
X140158285Y-84573000D01*
X140484857Y-85008428D02*
X140412285Y-85044714D01*
X140230857Y-85044714D01*
X140158285Y-85008428D01*
X140122000Y-84935857D01*
X140122000Y-84863285D01*
X140158285Y-84790714D01*
X140230857Y-84754428D01*
X140412285Y-84754428D01*
X140484857Y-84718142D01*
X140847714Y-84536714D02*
X140847714Y-85044714D01*
X140847714Y-84609285D02*
X140884000Y-84573000D01*
X140956571Y-84536714D01*
X141065428Y-84536714D01*
X141138000Y-84573000D01*
X141174285Y-84645571D01*
X141174285Y-85044714D01*
X141863714Y-85044714D02*
X141863714Y-84645571D01*
X141827428Y-84573000D01*
X141754857Y-84536714D01*
X141609714Y-84536714D01*
X141537142Y-84573000D01*
X141863714Y-85008428D02*
X141791142Y-85044714D01*
X141609714Y-85044714D01*
X141537142Y-85008428D01*
X141500857Y-84935857D01*
X141500857Y-84863285D01*
X141537142Y-84790714D01*
X141609714Y-84754428D01*
X141791142Y-84754428D01*
X141863714Y-84718142D01*
X142335428Y-85044714D02*
X142262857Y-85008428D01*
X142226571Y-84935857D01*
X142226571Y-84282714D01*
X142734571Y-85044714D02*
X142662000Y-85008428D01*
X142625714Y-84972142D01*
X142589428Y-84899571D01*
X142589428Y-84681857D01*
X142625714Y-84609285D01*
X142662000Y-84573000D01*
X142734571Y-84536714D01*
X142843428Y-84536714D01*
X142916000Y-84573000D01*
X142952285Y-84609285D01*
X142988571Y-84681857D01*
X142988571Y-84899571D01*
X142952285Y-84972142D01*
X142916000Y-85008428D01*
X142843428Y-85044714D01*
X142734571Y-85044714D01*
X143641714Y-84536714D02*
X143641714Y-85153571D01*
X143605428Y-85226142D01*
X143569142Y-85262428D01*
X143496571Y-85298714D01*
X143387714Y-85298714D01*
X143315142Y-85262428D01*
X143641714Y-85008428D02*
X143569142Y-85044714D01*
X143424000Y-85044714D01*
X143351428Y-85008428D01*
X143315142Y-84972142D01*
X143278857Y-84899571D01*
X143278857Y-84681857D01*
X143315142Y-84609285D01*
X143351428Y-84573000D01*
X143424000Y-84536714D01*
X143569142Y-84536714D01*
X143641714Y-84573000D01*
X120648142Y-78282714D02*
X120902142Y-79044714D01*
X121156142Y-78282714D01*
X121664142Y-78645571D02*
X121773000Y-78681857D01*
X121809285Y-78718142D01*
X121845571Y-78790714D01*
X121845571Y-78899571D01*
X121809285Y-78972142D01*
X121773000Y-79008428D01*
X121700428Y-79044714D01*
X121410142Y-79044714D01*
X121410142Y-78282714D01*
X121664142Y-78282714D01*
X121736714Y-78319000D01*
X121773000Y-78355285D01*
X121809285Y-78427857D01*
X121809285Y-78500428D01*
X121773000Y-78573000D01*
X121736714Y-78609285D01*
X121664142Y-78645571D01*
X121410142Y-78645571D01*
X122135857Y-78827000D02*
X122498714Y-78827000D01*
X122063285Y-79044714D02*
X122317285Y-78282714D01*
X122571285Y-79044714D01*
X122716428Y-78282714D02*
X123151857Y-78282714D01*
X122934142Y-79044714D02*
X122934142Y-78282714D01*
X121092857Y-76408428D02*
X121201714Y-76444714D01*
X121383142Y-76444714D01*
X121455714Y-76408428D01*
X121492000Y-76372142D01*
X121528285Y-76299571D01*
X121528285Y-76227000D01*
X121492000Y-76154428D01*
X121455714Y-76118142D01*
X121383142Y-76081857D01*
X121238000Y-76045571D01*
X121165428Y-76009285D01*
X121129142Y-75973000D01*
X121092857Y-75900428D01*
X121092857Y-75827857D01*
X121129142Y-75755285D01*
X121165428Y-75719000D01*
X121238000Y-75682714D01*
X121419428Y-75682714D01*
X121528285Y-75719000D01*
X122290285Y-76372142D02*
X122254000Y-76408428D01*
X122145142Y-76444714D01*
X122072571Y-76444714D01*
X121963714Y-76408428D01*
X121891142Y-76335857D01*
X121854857Y-76263285D01*
X121818571Y-76118142D01*
X121818571Y-76009285D01*
X121854857Y-75864142D01*
X121891142Y-75791571D01*
X121963714Y-75719000D01*
X122072571Y-75682714D01*
X122145142Y-75682714D01*
X122254000Y-75719000D01*
X122290285Y-75755285D01*
X122979714Y-76444714D02*
X122616857Y-76444714D01*
X122616857Y-75682714D01*
X121074714Y-73908428D02*
X121183571Y-73944714D01*
X121365000Y-73944714D01*
X121437571Y-73908428D01*
X121473857Y-73872142D01*
X121510142Y-73799571D01*
X121510142Y-73727000D01*
X121473857Y-73654428D01*
X121437571Y-73618142D01*
X121365000Y-73581857D01*
X121219857Y-73545571D01*
X121147285Y-73509285D01*
X121111000Y-73473000D01*
X121074714Y-73400428D01*
X121074714Y-73327857D01*
X121111000Y-73255285D01*
X121147285Y-73219000D01*
X121219857Y-73182714D01*
X121401285Y-73182714D01*
X121510142Y-73219000D01*
X121836714Y-73944714D02*
X121836714Y-73182714D01*
X122018142Y-73182714D01*
X122127000Y-73219000D01*
X122199571Y-73291571D01*
X122235857Y-73364142D01*
X122272142Y-73509285D01*
X122272142Y-73618142D01*
X122235857Y-73763285D01*
X122199571Y-73835857D01*
X122127000Y-73908428D01*
X122018142Y-73944714D01*
X121836714Y-73944714D01*
X122562428Y-73727000D02*
X122925285Y-73727000D01*
X122489857Y-73944714D02*
X122743857Y-73182714D01*
X122997857Y-73944714D01*
X116219428Y-101319000D02*
X116146857Y-101282714D01*
X116038000Y-101282714D01*
X115929142Y-101319000D01*
X115856571Y-101391571D01*
X115820285Y-101464142D01*
X115784000Y-101609285D01*
X115784000Y-101718142D01*
X115820285Y-101863285D01*
X115856571Y-101935857D01*
X115929142Y-102008428D01*
X116038000Y-102044714D01*
X116110571Y-102044714D01*
X116219428Y-102008428D01*
X116255714Y-101972142D01*
X116255714Y-101718142D01*
X116110571Y-101718142D01*
X116582285Y-102044714D02*
X116582285Y-101282714D01*
X117017714Y-102044714D01*
X117017714Y-101282714D01*
X117380571Y-102044714D02*
X117380571Y-101282714D01*
X117562000Y-101282714D01*
X117670857Y-101319000D01*
X117743428Y-101391571D01*
X117779714Y-101464142D01*
X117816000Y-101609285D01*
X117816000Y-101718142D01*
X117779714Y-101863285D01*
X117743428Y-101935857D01*
X117670857Y-102008428D01*
X117562000Y-102044714D01*
X117380571Y-102044714D01*
X115648142Y-98682714D02*
X115902142Y-99444714D01*
X116156142Y-98682714D01*
X116664142Y-99045571D02*
X116773000Y-99081857D01*
X116809285Y-99118142D01*
X116845571Y-99190714D01*
X116845571Y-99299571D01*
X116809285Y-99372142D01*
X116773000Y-99408428D01*
X116700428Y-99444714D01*
X116410142Y-99444714D01*
X116410142Y-98682714D01*
X116664142Y-98682714D01*
X116736714Y-98719000D01*
X116773000Y-98755285D01*
X116809285Y-98827857D01*
X116809285Y-98900428D01*
X116773000Y-98973000D01*
X116736714Y-99009285D01*
X116664142Y-99045571D01*
X116410142Y-99045571D01*
X117135857Y-99227000D02*
X117498714Y-99227000D01*
X117063285Y-99444714D02*
X117317285Y-98682714D01*
X117571285Y-99444714D01*
X117716428Y-98682714D02*
X118151857Y-98682714D01*
X117934142Y-99444714D02*
X117934142Y-98682714D01*
X146192833Y-100702166D02*
X146192833Y-99813166D01*
X146489166Y-100448166D01*
X146785500Y-99813166D01*
X146785500Y-100702166D01*
X147378166Y-99813166D02*
X147547500Y-99813166D01*
X147632166Y-99855500D01*
X147716833Y-99940166D01*
X147759166Y-100109500D01*
X147759166Y-100405833D01*
X147716833Y-100575166D01*
X147632166Y-100659833D01*
X147547500Y-100702166D01*
X147378166Y-100702166D01*
X147293500Y-100659833D01*
X147208833Y-100575166D01*
X147166500Y-100405833D01*
X147166500Y-100109500D01*
X147208833Y-99940166D01*
X147293500Y-99855500D01*
X147378166Y-99813166D01*
X148097833Y-100659833D02*
X148224833Y-100702166D01*
X148436500Y-100702166D01*
X148521166Y-100659833D01*
X148563500Y-100617500D01*
X148605833Y-100532833D01*
X148605833Y-100448166D01*
X148563500Y-100363500D01*
X148521166Y-100321166D01*
X148436500Y-100278833D01*
X148267166Y-100236500D01*
X148182500Y-100194166D01*
X148140166Y-100151833D01*
X148097833Y-100067166D01*
X148097833Y-99982500D01*
X148140166Y-99897833D01*
X148182500Y-99855500D01*
X148267166Y-99813166D01*
X148478833Y-99813166D01*
X148605833Y-99855500D01*
X149283166Y-100236500D02*
X148986833Y-100236500D01*
X148986833Y-100702166D02*
X148986833Y-99813166D01*
X149410166Y-99813166D01*
X149748833Y-100236500D02*
X150045166Y-100236500D01*
X150172166Y-100702166D02*
X149748833Y-100702166D01*
X149748833Y-99813166D01*
X150172166Y-99813166D01*
X150426166Y-99813166D02*
X150934166Y-99813166D01*
X150680166Y-100702166D02*
X150680166Y-99813166D01*
X146339500Y-98102166D02*
X146339500Y-97213166D01*
X146847500Y-98102166D01*
X146847500Y-97213166D01*
X147694166Y-98102166D02*
X147270833Y-98102166D01*
X147270833Y-97213166D01*
X147948166Y-98059833D02*
X148075166Y-98102166D01*
X148286833Y-98102166D01*
X148371500Y-98059833D01*
X148413833Y-98017500D01*
X148456166Y-97932833D01*
X148456166Y-97848166D01*
X148413833Y-97763500D01*
X148371500Y-97721166D01*
X148286833Y-97678833D01*
X148117500Y-97636500D01*
X148032833Y-97594166D01*
X147990500Y-97551833D01*
X147948166Y-97467166D01*
X147948166Y-97382500D01*
X147990500Y-97297833D01*
X148032833Y-97255500D01*
X148117500Y-97213166D01*
X148329166Y-97213166D01*
X148456166Y-97255500D01*
X148752500Y-97213166D02*
X149345166Y-98102166D01*
X149345166Y-97213166D02*
X148752500Y-98102166D01*
X143920500Y-104059833D02*
X144047500Y-104102166D01*
X144259166Y-104102166D01*
X144343833Y-104059833D01*
X144386166Y-104017500D01*
X144428500Y-103932833D01*
X144428500Y-103848166D01*
X144386166Y-103763500D01*
X144343833Y-103721166D01*
X144259166Y-103678833D01*
X144089833Y-103636500D01*
X144005166Y-103594166D01*
X143962833Y-103551833D01*
X143920500Y-103467166D01*
X143920500Y-103382500D01*
X143962833Y-103297833D01*
X144005166Y-103255500D01*
X144089833Y-103213166D01*
X144301500Y-103213166D01*
X144428500Y-103255500D01*
X144809500Y-104102166D02*
X144809500Y-103213166D01*
X145021166Y-103213166D01*
X145148166Y-103255500D01*
X145232833Y-103340166D01*
X145275166Y-103424833D01*
X145317500Y-103594166D01*
X145317500Y-103721166D01*
X145275166Y-103890500D01*
X145232833Y-103975166D01*
X145148166Y-104059833D01*
X145021166Y-104102166D01*
X144809500Y-104102166D01*
X145656166Y-103848166D02*
X146079500Y-103848166D01*
X145571500Y-104102166D02*
X145867833Y-103213166D01*
X146164166Y-104102166D01*
X141141666Y-104059833D02*
X141268666Y-104102166D01*
X141480333Y-104102166D01*
X141565000Y-104059833D01*
X141607333Y-104017500D01*
X141649666Y-103932833D01*
X141649666Y-103848166D01*
X141607333Y-103763500D01*
X141565000Y-103721166D01*
X141480333Y-103678833D01*
X141311000Y-103636500D01*
X141226333Y-103594166D01*
X141184000Y-103551833D01*
X141141666Y-103467166D01*
X141141666Y-103382500D01*
X141184000Y-103297833D01*
X141226333Y-103255500D01*
X141311000Y-103213166D01*
X141522666Y-103213166D01*
X141649666Y-103255500D01*
X142538666Y-104017500D02*
X142496333Y-104059833D01*
X142369333Y-104102166D01*
X142284666Y-104102166D01*
X142157666Y-104059833D01*
X142073000Y-103975166D01*
X142030666Y-103890500D01*
X141988333Y-103721166D01*
X141988333Y-103594166D01*
X142030666Y-103424833D01*
X142073000Y-103340166D01*
X142157666Y-103255500D01*
X142284666Y-103213166D01*
X142369333Y-103213166D01*
X142496333Y-103255500D01*
X142538666Y-103297833D01*
X143343000Y-104102166D02*
X142919666Y-104102166D01*
X142919666Y-103213166D01*
X126041666Y-104059833D02*
X126168666Y-104102166D01*
X126380333Y-104102166D01*
X126465000Y-104059833D01*
X126507333Y-104017500D01*
X126549666Y-103932833D01*
X126549666Y-103848166D01*
X126507333Y-103763500D01*
X126465000Y-103721166D01*
X126380333Y-103678833D01*
X126211000Y-103636500D01*
X126126333Y-103594166D01*
X126084000Y-103551833D01*
X126041666Y-103467166D01*
X126041666Y-103382500D01*
X126084000Y-103297833D01*
X126126333Y-103255500D01*
X126211000Y-103213166D01*
X126422666Y-103213166D01*
X126549666Y-103255500D01*
X127438666Y-104017500D02*
X127396333Y-104059833D01*
X127269333Y-104102166D01*
X127184666Y-104102166D01*
X127057666Y-104059833D01*
X126973000Y-103975166D01*
X126930666Y-103890500D01*
X126888333Y-103721166D01*
X126888333Y-103594166D01*
X126930666Y-103424833D01*
X126973000Y-103340166D01*
X127057666Y-103255500D01*
X127184666Y-103213166D01*
X127269333Y-103213166D01*
X127396333Y-103255500D01*
X127438666Y-103297833D01*
X128243000Y-104102166D02*
X127819666Y-104102166D01*
X127819666Y-103213166D01*
X123220500Y-104059833D02*
X123347500Y-104102166D01*
X123559166Y-104102166D01*
X123643833Y-104059833D01*
X123686166Y-104017500D01*
X123728500Y-103932833D01*
X123728500Y-103848166D01*
X123686166Y-103763500D01*
X123643833Y-103721166D01*
X123559166Y-103678833D01*
X123389833Y-103636500D01*
X123305166Y-103594166D01*
X123262833Y-103551833D01*
X123220500Y-103467166D01*
X123220500Y-103382500D01*
X123262833Y-103297833D01*
X123305166Y-103255500D01*
X123389833Y-103213166D01*
X123601500Y-103213166D01*
X123728500Y-103255500D01*
X124109500Y-104102166D02*
X124109500Y-103213166D01*
X124321166Y-103213166D01*
X124448166Y-103255500D01*
X124532833Y-103340166D01*
X124575166Y-103424833D01*
X124617500Y-103594166D01*
X124617500Y-103721166D01*
X124575166Y-103890500D01*
X124532833Y-103975166D01*
X124448166Y-104059833D01*
X124321166Y-104102166D01*
X124109500Y-104102166D01*
X124956166Y-103848166D02*
X125379500Y-103848166D01*
X124871500Y-104102166D02*
X125167833Y-103213166D01*
X125464166Y-104102166D01*
X118392833Y-100702166D02*
X118392833Y-99813166D01*
X118689166Y-100448166D01*
X118985500Y-99813166D01*
X118985500Y-100702166D01*
X119578166Y-99813166D02*
X119747500Y-99813166D01*
X119832166Y-99855500D01*
X119916833Y-99940166D01*
X119959166Y-100109500D01*
X119959166Y-100405833D01*
X119916833Y-100575166D01*
X119832166Y-100659833D01*
X119747500Y-100702166D01*
X119578166Y-100702166D01*
X119493500Y-100659833D01*
X119408833Y-100575166D01*
X119366500Y-100405833D01*
X119366500Y-100109500D01*
X119408833Y-99940166D01*
X119493500Y-99855500D01*
X119578166Y-99813166D01*
X120297833Y-100659833D02*
X120424833Y-100702166D01*
X120636500Y-100702166D01*
X120721166Y-100659833D01*
X120763500Y-100617500D01*
X120805833Y-100532833D01*
X120805833Y-100448166D01*
X120763500Y-100363500D01*
X120721166Y-100321166D01*
X120636500Y-100278833D01*
X120467166Y-100236500D01*
X120382500Y-100194166D01*
X120340166Y-100151833D01*
X120297833Y-100067166D01*
X120297833Y-99982500D01*
X120340166Y-99897833D01*
X120382500Y-99855500D01*
X120467166Y-99813166D01*
X120678833Y-99813166D01*
X120805833Y-99855500D01*
X121483166Y-100236500D02*
X121186833Y-100236500D01*
X121186833Y-100702166D02*
X121186833Y-99813166D01*
X121610166Y-99813166D01*
X121948833Y-100236500D02*
X122245166Y-100236500D01*
X122372166Y-100702166D02*
X121948833Y-100702166D01*
X121948833Y-99813166D01*
X122372166Y-99813166D01*
X122626166Y-99813166D02*
X123134166Y-99813166D01*
X122880166Y-100702166D02*
X122880166Y-99813166D01*
X119839500Y-98102166D02*
X119839500Y-97213166D01*
X120347500Y-98102166D01*
X120347500Y-97213166D01*
X121194166Y-98102166D02*
X120770833Y-98102166D01*
X120770833Y-97213166D01*
X121448166Y-98059833D02*
X121575166Y-98102166D01*
X121786833Y-98102166D01*
X121871500Y-98059833D01*
X121913833Y-98017500D01*
X121956166Y-97932833D01*
X121956166Y-97848166D01*
X121913833Y-97763500D01*
X121871500Y-97721166D01*
X121786833Y-97678833D01*
X121617500Y-97636500D01*
X121532833Y-97594166D01*
X121490500Y-97551833D01*
X121448166Y-97467166D01*
X121448166Y-97382500D01*
X121490500Y-97297833D01*
X121532833Y-97255500D01*
X121617500Y-97213166D01*
X121829166Y-97213166D01*
X121956166Y-97255500D01*
X122252500Y-97213166D02*
X122845166Y-98102166D01*
X122845166Y-97213166D02*
X122252500Y-98102166D01*
D12*
X124923809Y-93427380D02*
X124923809Y-92427380D01*
X125352380Y-92522619D02*
X125400000Y-92475000D01*
X125495238Y-92427380D01*
X125733333Y-92427380D01*
X125828571Y-92475000D01*
X125876190Y-92522619D01*
X125923809Y-92617857D01*
X125923809Y-92713095D01*
X125876190Y-92855952D01*
X125304761Y-93427380D01*
X125923809Y-93427380D01*
X126923809Y-93332142D02*
X126876190Y-93379761D01*
X126733333Y-93427380D01*
X126638095Y-93427380D01*
X126495238Y-93379761D01*
X126400000Y-93284523D01*
X126352380Y-93189285D01*
X126304761Y-92998809D01*
X126304761Y-92855952D01*
X126352380Y-92665476D01*
X126400000Y-92570238D01*
X126495238Y-92475000D01*
X126638095Y-92427380D01*
X126733333Y-92427380D01*
X126876190Y-92475000D01*
X126923809Y-92522619D01*
X124257142Y-94077380D02*
X124590476Y-95077380D01*
X124923809Y-94077380D01*
X125590476Y-94553571D02*
X125733333Y-94601190D01*
X125780952Y-94648809D01*
X125828571Y-94744047D01*
X125828571Y-94886904D01*
X125780952Y-94982142D01*
X125733333Y-95029761D01*
X125638095Y-95077380D01*
X125257142Y-95077380D01*
X125257142Y-94077380D01*
X125590476Y-94077380D01*
X125685714Y-94125000D01*
X125733333Y-94172619D01*
X125780952Y-94267857D01*
X125780952Y-94363095D01*
X125733333Y-94458333D01*
X125685714Y-94505952D01*
X125590476Y-94553571D01*
X125257142Y-94553571D01*
X126209523Y-94791666D02*
X126685714Y-94791666D01*
X126114285Y-95077380D02*
X126447619Y-94077380D01*
X126780952Y-95077380D01*
X126971428Y-94077380D02*
X127542857Y-94077380D01*
X127257142Y-95077380D02*
X127257142Y-94077380D01*
D13*
%TO.C,BT1*%
X105134000Y-80596000D02*
X105134000Y-79326000D01*
X104626000Y-78818000D02*
X104626000Y-77040000D01*
X107928000Y-74246000D02*
X104626000Y-77040000D01*
X104626000Y-78818000D02*
X105134000Y-79326000D01*
X109452000Y-74246000D02*
X107928000Y-74246000D01*
X105134000Y-90502000D02*
X105134000Y-89232000D01*
X104626000Y-91010000D02*
X105134000Y-90502000D01*
X104626000Y-92788000D02*
X104626000Y-91010000D01*
X107928000Y-95582000D02*
X104626000Y-92788000D01*
X109452000Y-95582000D02*
X107928000Y-95582000D01*
X120374000Y-90248000D02*
X120374000Y-92280000D01*
X117072000Y-95582000D02*
X120374000Y-92280000D01*
X117072000Y-95582000D02*
X115548000Y-95582000D01*
X117072000Y-74246000D02*
X115548000Y-74246000D01*
X120374000Y-77548000D02*
X120374000Y-79580000D01*
X117072000Y-74246000D02*
X120374000Y-77548000D01*
%TO.C,C1*%
X126790000Y-79741422D02*
X126790000Y-80258578D01*
X128210000Y-79741422D02*
X128210000Y-80258578D01*
%TO.C,C2*%
X131490000Y-74837221D02*
X131490000Y-75162779D01*
X132510000Y-74837221D02*
X132510000Y-75162779D01*
%TO.C,C3*%
X139510000Y-74837221D02*
X139510000Y-75162779D01*
X138490000Y-74837221D02*
X138490000Y-75162779D01*
%TO.C,C4*%
X153837221Y-75010000D02*
X154162779Y-75010000D01*
X153837221Y-73990000D02*
X154162779Y-73990000D01*
%TO.C,C5*%
X130790000Y-80258578D02*
X130790000Y-79741422D01*
X132210000Y-80258578D02*
X132210000Y-79741422D01*
%TO.C,C6*%
X138490000Y-81337221D02*
X138490000Y-81662779D01*
X139510000Y-81337221D02*
X139510000Y-81662779D01*
%TO.C,C7*%
X148510000Y-78837221D02*
X148510000Y-79162779D01*
X147490000Y-78837221D02*
X147490000Y-79162779D01*
%TO.C,C10*%
X174297221Y-75010000D02*
X174622779Y-75010000D01*
X174297221Y-73990000D02*
X174622779Y-73990000D01*
%TO.C,C11*%
X179622779Y-75010000D02*
X179297221Y-75010000D01*
X179622779Y-73990000D02*
X179297221Y-73990000D01*
%TO.C,C12*%
X173470000Y-87337221D02*
X173470000Y-87662779D01*
X172450000Y-87337221D02*
X172450000Y-87662779D01*
%TO.C,C13*%
X173470000Y-92837221D02*
X173470000Y-93162779D01*
X172450000Y-92837221D02*
X172450000Y-93162779D01*
%TO.C,C14*%
X180450000Y-87337221D02*
X180450000Y-87662779D01*
X181470000Y-87337221D02*
X181470000Y-87662779D01*
%TO.C,C15*%
X180450000Y-92837221D02*
X180450000Y-93162779D01*
X181470000Y-92837221D02*
X181470000Y-93162779D01*
%TO.C,C20*%
X175122779Y-102490000D02*
X174797221Y-102490000D01*
X175122779Y-103510000D02*
X174797221Y-103510000D01*
%TO.C,C21*%
X178797221Y-102490000D02*
X179122779Y-102490000D01*
X178797221Y-103510000D02*
X179122779Y-103510000D01*
%TO.C,C30*%
X136662779Y-94010000D02*
X136337221Y-94010000D01*
X136662779Y-92990000D02*
X136337221Y-92990000D01*
%TO.C,C31*%
X132337221Y-94010000D02*
X132662779Y-94010000D01*
X132337221Y-92990000D02*
X132662779Y-92990000D01*
%TO.C,D1*%
X158980000Y-96125000D02*
X158980000Y-93440000D01*
X157060000Y-96125000D02*
X158980000Y-96125000D01*
X157060000Y-93440000D02*
X157060000Y-96125000D01*
%TO.C,D2*%
X156440000Y-96125000D02*
X156440000Y-93440000D01*
X154520000Y-96125000D02*
X156440000Y-96125000D01*
X154520000Y-93440000D02*
X154520000Y-96125000D01*
%TO.C,D3*%
X151980000Y-93440000D02*
X151980000Y-96125000D01*
X151980000Y-96125000D02*
X153900000Y-96125000D01*
X153900000Y-96125000D02*
X153900000Y-93440000D01*
D14*
%TO.C,JST_PH_BAT1*%
X110097210Y-102675000D02*
G75*
G03*
X110097210Y-102675000I-359210J0D01*
G01*
X110097210Y-98230000D02*
G75*
G03*
X110097210Y-98230000I-359210J0D01*
G01*
D15*
X109738000Y-102421000D02*
X109738000Y-102929000D01*
X109738000Y-97976000D02*
X109738000Y-98484000D01*
X109992000Y-98230000D02*
X109484000Y-98230000D01*
D13*
X104150000Y-100000000D02*
X108500000Y-100000000D01*
X108500000Y-100000000D02*
X108500000Y-101000000D01*
X108500000Y-101000000D02*
X104150000Y-101000000D01*
X110350000Y-98700000D02*
X110350000Y-98350000D01*
X110350000Y-98350000D02*
X111950000Y-98350000D01*
X111950000Y-98350000D02*
X111950000Y-97450000D01*
X111950000Y-97450000D02*
X104150000Y-97450000D01*
X104150000Y-97450000D02*
X104150000Y-103550000D01*
X104150000Y-103550000D02*
X111950000Y-103550000D01*
X111950000Y-103550000D02*
X111950000Y-102650000D01*
X111950000Y-102650000D02*
X110350000Y-102650000D01*
X110350000Y-102650000D02*
X110350000Y-102300000D01*
X110350000Y-97450000D02*
X110350000Y-98350000D01*
X110350000Y-103550000D02*
X110350000Y-102650000D01*
X108000000Y-98200000D02*
X106400000Y-98200000D01*
X106400000Y-98200000D02*
X106400000Y-99200000D01*
X106400000Y-99200000D02*
X108000000Y-99200000D01*
X108000000Y-99200000D02*
X108000000Y-98200000D01*
X108000000Y-102800000D02*
X106400000Y-102800000D01*
X106400000Y-102800000D02*
X106400000Y-101800000D01*
X106400000Y-101800000D02*
X108000000Y-101800000D01*
X108000000Y-101800000D02*
X108000000Y-102800000D01*
X106400000Y-99200000D02*
X104150000Y-99200000D01*
X106400000Y-98700000D02*
X104150000Y-98700000D01*
X110350000Y-98700000D02*
X111550000Y-98700000D01*
%TO.C,Q30*%
X133740000Y-96420000D02*
X133740000Y-97350000D01*
X133740000Y-99580000D02*
X133740000Y-98650000D01*
X133740000Y-99580000D02*
X135900000Y-99580000D01*
X133740000Y-96420000D02*
X135200000Y-96420000D01*
%TO.C,Q31*%
X133740000Y-100920000D02*
X135200000Y-100920000D01*
X133740000Y-104080000D02*
X135900000Y-104080000D01*
X133740000Y-104080000D02*
X133740000Y-103150000D01*
X133740000Y-100920000D02*
X133740000Y-101850000D01*
%TO.C,R1*%
X158900000Y-98500000D02*
X158900000Y-99700000D01*
X157140000Y-99700000D02*
X157140000Y-98500000D01*
%TO.C,R2*%
X156360000Y-98500000D02*
X156360000Y-99700000D01*
X154600000Y-99700000D02*
X154600000Y-98500000D01*
%TO.C,R3*%
X152060000Y-99700000D02*
X152060000Y-98500000D01*
X153820000Y-98500000D02*
X153820000Y-99700000D01*
%TO.C,R4*%
X162190000Y-92737221D02*
X162190000Y-93062779D01*
X163210000Y-92737221D02*
X163210000Y-93062779D01*
%TO.C,R5*%
X135662779Y-84990000D02*
X135337221Y-84990000D01*
X135662779Y-86010000D02*
X135337221Y-86010000D01*
%TO.C,R6*%
X141510000Y-81337221D02*
X141510000Y-81662779D01*
X140490000Y-81337221D02*
X140490000Y-81662779D01*
%TO.C,R7*%
X143510000Y-81662779D02*
X143510000Y-81337221D01*
X142490000Y-81662779D02*
X142490000Y-81337221D01*
%TO.C,R20*%
X191797221Y-96490000D02*
X192122779Y-96490000D01*
X191797221Y-97510000D02*
X192122779Y-97510000D01*
%TO.C,R30*%
X137990000Y-98162779D02*
X137990000Y-97837221D01*
X139010000Y-98162779D02*
X139010000Y-97837221D01*
%TO.C,R31*%
X131010000Y-98162779D02*
X131010000Y-97837221D01*
X129990000Y-98162779D02*
X129990000Y-97837221D01*
%TO.C,R32*%
X137990000Y-102662779D02*
X137990000Y-102337221D01*
X139010000Y-102662779D02*
X139010000Y-102337221D01*
%TO.C,R33*%
X131010000Y-102662779D02*
X131010000Y-102337221D01*
X129990000Y-102662779D02*
X129990000Y-102337221D01*
%TO.C,SW1*%
X152700000Y-101600000D02*
X158300000Y-101600000D01*
X158300000Y-101600000D02*
X158300000Y-105400000D01*
X158300000Y-105400000D02*
X152700000Y-105400000D01*
X152700000Y-105400000D02*
X152700000Y-101600000D01*
%TO.C,U1*%
X134600000Y-77110000D02*
X136400000Y-77110000D01*
X136400000Y-73890000D02*
X133950000Y-73890000D01*
D12*
%TO.C,U2*%
X151925000Y-75750000D02*
X151925000Y-75775000D01*
X156075000Y-75750000D02*
X156075000Y-75865000D01*
X156075000Y-84650000D02*
X156075000Y-84535000D01*
X151925000Y-84650000D02*
X151925000Y-84535000D01*
X151925000Y-75750000D02*
X156075000Y-75750000D01*
X151925000Y-84650000D02*
X156075000Y-84650000D01*
X151925000Y-75775000D02*
X150550000Y-75775000D01*
D13*
%TO.C,U5*%
X134600000Y-84110000D02*
X137050000Y-84110000D01*
X136400000Y-80890000D02*
X134600000Y-80890000D01*
D12*
%TO.C,U10*%
X174885000Y-75575000D02*
X173510000Y-75575000D01*
X174885000Y-84450000D02*
X179035000Y-84450000D01*
X174885000Y-75550000D02*
X179035000Y-75550000D01*
X174885000Y-84450000D02*
X174885000Y-84335000D01*
X179035000Y-84450000D02*
X179035000Y-84335000D01*
X179035000Y-75550000D02*
X179035000Y-75665000D01*
X174885000Y-75550000D02*
X174885000Y-75575000D01*
D13*
%TO.C,U11*%
X177860000Y-86390000D02*
X175410000Y-86390000D01*
X176060000Y-89610000D02*
X177860000Y-89610000D01*
%TO.C,U12*%
X176060000Y-95110000D02*
X177860000Y-95110000D01*
X177860000Y-91890000D02*
X175410000Y-91890000D01*
%TO.C,U20*%
X176060000Y-101610000D02*
X177860000Y-101610000D01*
X177860000Y-98390000D02*
X175410000Y-98390000D01*
D12*
%TO.C,U30*%
X136575000Y-92075000D02*
X136575000Y-92025000D01*
X132425000Y-92075000D02*
X132425000Y-91930000D01*
X132425000Y-86925000D02*
X132425000Y-87070000D01*
X136575000Y-86925000D02*
X136575000Y-87070000D01*
X136575000Y-92075000D02*
X132425000Y-92075000D01*
X136575000Y-86925000D02*
X132425000Y-86925000D01*
X136575000Y-92025000D02*
X137975000Y-92025000D01*
D13*
%TO.C,C8*%
X148710000Y-74741422D02*
X148710000Y-75258578D01*
X147290000Y-74741422D02*
X147290000Y-75258578D01*
%TO.C,R8*%
X142490000Y-91837221D02*
X142490000Y-92162779D01*
X143510000Y-91837221D02*
X143510000Y-92162779D01*
%TO.C,R9*%
X144490000Y-92162779D02*
X144490000Y-91837221D01*
X145510000Y-92162779D02*
X145510000Y-91837221D01*
%TO.C,U6*%
X147610000Y-88400000D02*
X147610000Y-86600000D01*
X144390000Y-86600000D02*
X144390000Y-89050000D01*
%TO.C,BT1*%
D12*
X121128571Y-91385714D02*
X121176190Y-91242857D01*
X121223809Y-91195238D01*
X121319047Y-91147619D01*
X121461904Y-91147619D01*
X121557142Y-91195238D01*
X121604761Y-91242857D01*
X121652380Y-91338095D01*
X121652380Y-91719047D01*
X120652380Y-91719047D01*
X120652380Y-91385714D01*
X120700000Y-91290476D01*
X120747619Y-91242857D01*
X120842857Y-91195238D01*
X120938095Y-91195238D01*
X121033333Y-91242857D01*
X121080952Y-91290476D01*
X121128571Y-91385714D01*
X121128571Y-91719047D01*
X120652380Y-90861904D02*
X120652380Y-90290476D01*
X121652380Y-90576190D02*
X120652380Y-90576190D01*
X121652380Y-89433333D02*
X121652380Y-90004761D01*
X121652380Y-89719047D02*
X120652380Y-89719047D01*
X120795238Y-89814285D01*
X120890476Y-89909523D01*
X120938095Y-90004761D01*
X116127428Y-75388952D02*
X116127428Y-74627047D01*
X116508380Y-75008000D02*
X115746476Y-75008000D01*
X116127428Y-95200952D02*
X116127428Y-94439047D01*
X116508380Y-94820000D02*
X115746476Y-94820000D01*
%TO.C,C1*%
D11*
X127394166Y-78026785D02*
X127363928Y-78057023D01*
X127273214Y-78087261D01*
X127212738Y-78087261D01*
X127122023Y-78057023D01*
X127061547Y-77996547D01*
X127031309Y-77936071D01*
X127001071Y-77815119D01*
X127001071Y-77724404D01*
X127031309Y-77603452D01*
X127061547Y-77542976D01*
X127122023Y-77482500D01*
X127212738Y-77452261D01*
X127273214Y-77452261D01*
X127363928Y-77482500D01*
X127394166Y-77512738D01*
X127998928Y-78087261D02*
X127636071Y-78087261D01*
X127817500Y-78087261D02*
X127817500Y-77452261D01*
X127757023Y-77542976D01*
X127696547Y-77603452D01*
X127636071Y-77633690D01*
%TO.C,C2*%
D12*
X130283333Y-74350000D02*
X130250000Y-74383333D01*
X130150000Y-74416666D01*
X130083333Y-74416666D01*
X129983333Y-74383333D01*
X129916666Y-74316666D01*
X129883333Y-74250000D01*
X129850000Y-74116666D01*
X129850000Y-74016666D01*
X129883333Y-73883333D01*
X129916666Y-73816666D01*
X129983333Y-73750000D01*
X130083333Y-73716666D01*
X130150000Y-73716666D01*
X130250000Y-73750000D01*
X130283333Y-73783333D01*
X130550000Y-73783333D02*
X130583333Y-73750000D01*
X130650000Y-73716666D01*
X130816666Y-73716666D01*
X130883333Y-73750000D01*
X130916666Y-73783333D01*
X130950000Y-73850000D01*
X130950000Y-73916666D01*
X130916666Y-74016666D01*
X130516666Y-74416666D01*
X130950000Y-74416666D01*
%TO.C,C3*%
X140383333Y-74750000D02*
X140350000Y-74783333D01*
X140250000Y-74816666D01*
X140183333Y-74816666D01*
X140083333Y-74783333D01*
X140016666Y-74716666D01*
X139983333Y-74650000D01*
X139950000Y-74516666D01*
X139950000Y-74416666D01*
X139983333Y-74283333D01*
X140016666Y-74216666D01*
X140083333Y-74150000D01*
X140183333Y-74116666D01*
X140250000Y-74116666D01*
X140350000Y-74150000D01*
X140383333Y-74183333D01*
X140616666Y-74116666D02*
X141050000Y-74116666D01*
X140816666Y-74383333D01*
X140916666Y-74383333D01*
X140983333Y-74416666D01*
X141016666Y-74450000D01*
X141050000Y-74516666D01*
X141050000Y-74683333D01*
X141016666Y-74750000D01*
X140983333Y-74783333D01*
X140916666Y-74816666D01*
X140716666Y-74816666D01*
X140650000Y-74783333D01*
X140616666Y-74750000D01*
%TO.C,C4*%
D11*
X153794166Y-73626785D02*
X153763928Y-73657023D01*
X153673214Y-73687261D01*
X153612738Y-73687261D01*
X153522023Y-73657023D01*
X153461547Y-73596547D01*
X153431309Y-73536071D01*
X153401071Y-73415119D01*
X153401071Y-73324404D01*
X153431309Y-73203452D01*
X153461547Y-73142976D01*
X153522023Y-73082500D01*
X153612738Y-73052261D01*
X153673214Y-73052261D01*
X153763928Y-73082500D01*
X153794166Y-73112738D01*
X154338452Y-73263928D02*
X154338452Y-73687261D01*
X154187261Y-73022023D02*
X154036071Y-73475595D01*
X154429166Y-73475595D01*
%TO.C,C5*%
X131394166Y-78026785D02*
X131363928Y-78057023D01*
X131273214Y-78087261D01*
X131212738Y-78087261D01*
X131122023Y-78057023D01*
X131061547Y-77996547D01*
X131031309Y-77936071D01*
X131001071Y-77815119D01*
X131001071Y-77724404D01*
X131031309Y-77603452D01*
X131061547Y-77542976D01*
X131122023Y-77482500D01*
X131212738Y-77452261D01*
X131273214Y-77452261D01*
X131363928Y-77482500D01*
X131394166Y-77512738D01*
X131968690Y-77452261D02*
X131666309Y-77452261D01*
X131636071Y-77754642D01*
X131666309Y-77724404D01*
X131726785Y-77694166D01*
X131877976Y-77694166D01*
X131938452Y-77724404D01*
X131968690Y-77754642D01*
X131998928Y-77815119D01*
X131998928Y-77966309D01*
X131968690Y-78026785D01*
X131938452Y-78057023D01*
X131877976Y-78087261D01*
X131726785Y-78087261D01*
X131666309Y-78057023D01*
X131636071Y-78026785D01*
%TO.C,C6*%
X138894166Y-79726785D02*
X138863928Y-79757023D01*
X138773214Y-79787261D01*
X138712738Y-79787261D01*
X138622023Y-79757023D01*
X138561547Y-79696547D01*
X138531309Y-79636071D01*
X138501071Y-79515119D01*
X138501071Y-79424404D01*
X138531309Y-79303452D01*
X138561547Y-79242976D01*
X138622023Y-79182500D01*
X138712738Y-79152261D01*
X138773214Y-79152261D01*
X138863928Y-79182500D01*
X138894166Y-79212738D01*
X139438452Y-79152261D02*
X139317500Y-79152261D01*
X139257023Y-79182500D01*
X139226785Y-79212738D01*
X139166309Y-79303452D01*
X139136071Y-79424404D01*
X139136071Y-79666309D01*
X139166309Y-79726785D01*
X139196547Y-79757023D01*
X139257023Y-79787261D01*
X139377976Y-79787261D01*
X139438452Y-79757023D01*
X139468690Y-79726785D01*
X139498928Y-79666309D01*
X139498928Y-79515119D01*
X139468690Y-79454642D01*
X139438452Y-79424404D01*
X139377976Y-79394166D01*
X139257023Y-79394166D01*
X139196547Y-79424404D01*
X139166309Y-79454642D01*
X139136071Y-79515119D01*
%TO.C,C7*%
X146594166Y-79126785D02*
X146563928Y-79157023D01*
X146473214Y-79187261D01*
X146412738Y-79187261D01*
X146322023Y-79157023D01*
X146261547Y-79096547D01*
X146231309Y-79036071D01*
X146201071Y-78915119D01*
X146201071Y-78824404D01*
X146231309Y-78703452D01*
X146261547Y-78642976D01*
X146322023Y-78582500D01*
X146412738Y-78552261D01*
X146473214Y-78552261D01*
X146563928Y-78582500D01*
X146594166Y-78612738D01*
X146805833Y-78552261D02*
X147229166Y-78552261D01*
X146957023Y-79187261D01*
%TO.C,C10*%
X171591785Y-74726785D02*
X171561547Y-74757023D01*
X171470833Y-74787261D01*
X171410357Y-74787261D01*
X171319642Y-74757023D01*
X171259166Y-74696547D01*
X171228928Y-74636071D01*
X171198690Y-74515119D01*
X171198690Y-74424404D01*
X171228928Y-74303452D01*
X171259166Y-74242976D01*
X171319642Y-74182500D01*
X171410357Y-74152261D01*
X171470833Y-74152261D01*
X171561547Y-74182500D01*
X171591785Y-74212738D01*
X172196547Y-74787261D02*
X171833690Y-74787261D01*
X172015119Y-74787261D02*
X172015119Y-74152261D01*
X171954642Y-74242976D01*
X171894166Y-74303452D01*
X171833690Y-74333690D01*
X172589642Y-74152261D02*
X172650119Y-74152261D01*
X172710595Y-74182500D01*
X172740833Y-74212738D01*
X172771071Y-74273214D01*
X172801309Y-74394166D01*
X172801309Y-74545357D01*
X172771071Y-74666309D01*
X172740833Y-74726785D01*
X172710595Y-74757023D01*
X172650119Y-74787261D01*
X172589642Y-74787261D01*
X172529166Y-74757023D01*
X172498928Y-74726785D01*
X172468690Y-74666309D01*
X172438452Y-74545357D01*
X172438452Y-74394166D01*
X172468690Y-74273214D01*
X172498928Y-74212738D01*
X172529166Y-74182500D01*
X172589642Y-74152261D01*
%TO.C,C11*%
X181591785Y-74726785D02*
X181561547Y-74757023D01*
X181470833Y-74787261D01*
X181410357Y-74787261D01*
X181319642Y-74757023D01*
X181259166Y-74696547D01*
X181228928Y-74636071D01*
X181198690Y-74515119D01*
X181198690Y-74424404D01*
X181228928Y-74303452D01*
X181259166Y-74242976D01*
X181319642Y-74182500D01*
X181410357Y-74152261D01*
X181470833Y-74152261D01*
X181561547Y-74182500D01*
X181591785Y-74212738D01*
X182196547Y-74787261D02*
X181833690Y-74787261D01*
X182015119Y-74787261D02*
X182015119Y-74152261D01*
X181954642Y-74242976D01*
X181894166Y-74303452D01*
X181833690Y-74333690D01*
X182801309Y-74787261D02*
X182438452Y-74787261D01*
X182619880Y-74787261D02*
X182619880Y-74152261D01*
X182559404Y-74242976D01*
X182498928Y-74303452D01*
X182438452Y-74333690D01*
%TO.C,C12*%
X172026785Y-86908214D02*
X172057023Y-86938452D01*
X172087261Y-87029166D01*
X172087261Y-87089642D01*
X172057023Y-87180357D01*
X171996547Y-87240833D01*
X171936071Y-87271071D01*
X171815119Y-87301309D01*
X171724404Y-87301309D01*
X171603452Y-87271071D01*
X171542976Y-87240833D01*
X171482500Y-87180357D01*
X171452261Y-87089642D01*
X171452261Y-87029166D01*
X171482500Y-86938452D01*
X171512738Y-86908214D01*
X172087261Y-86303452D02*
X172087261Y-86666309D01*
X172087261Y-86484880D02*
X171452261Y-86484880D01*
X171542976Y-86545357D01*
X171603452Y-86605833D01*
X171633690Y-86666309D01*
X171512738Y-86061547D02*
X171482500Y-86031309D01*
X171452261Y-85970833D01*
X171452261Y-85819642D01*
X171482500Y-85759166D01*
X171512738Y-85728928D01*
X171573214Y-85698690D01*
X171633690Y-85698690D01*
X171724404Y-85728928D01*
X172087261Y-86091785D01*
X172087261Y-85698690D01*
%TO.C,C13*%
X172026785Y-92608214D02*
X172057023Y-92638452D01*
X172087261Y-92729166D01*
X172087261Y-92789642D01*
X172057023Y-92880357D01*
X171996547Y-92940833D01*
X171936071Y-92971071D01*
X171815119Y-93001309D01*
X171724404Y-93001309D01*
X171603452Y-92971071D01*
X171542976Y-92940833D01*
X171482500Y-92880357D01*
X171452261Y-92789642D01*
X171452261Y-92729166D01*
X171482500Y-92638452D01*
X171512738Y-92608214D01*
X172087261Y-92003452D02*
X172087261Y-92366309D01*
X172087261Y-92184880D02*
X171452261Y-92184880D01*
X171542976Y-92245357D01*
X171603452Y-92305833D01*
X171633690Y-92366309D01*
X171452261Y-91791785D02*
X171452261Y-91398690D01*
X171694166Y-91610357D01*
X171694166Y-91519642D01*
X171724404Y-91459166D01*
X171754642Y-91428928D01*
X171815119Y-91398690D01*
X171966309Y-91398690D01*
X172026785Y-91428928D01*
X172057023Y-91459166D01*
X172087261Y-91519642D01*
X172087261Y-91701071D01*
X172057023Y-91761547D01*
X172026785Y-91791785D01*
%TO.C,C14*%
X182426785Y-89008214D02*
X182457023Y-89038452D01*
X182487261Y-89129166D01*
X182487261Y-89189642D01*
X182457023Y-89280357D01*
X182396547Y-89340833D01*
X182336071Y-89371071D01*
X182215119Y-89401309D01*
X182124404Y-89401309D01*
X182003452Y-89371071D01*
X181942976Y-89340833D01*
X181882500Y-89280357D01*
X181852261Y-89189642D01*
X181852261Y-89129166D01*
X181882500Y-89038452D01*
X181912738Y-89008214D01*
X182487261Y-88403452D02*
X182487261Y-88766309D01*
X182487261Y-88584880D02*
X181852261Y-88584880D01*
X181942976Y-88645357D01*
X182003452Y-88705833D01*
X182033690Y-88766309D01*
X182063928Y-87859166D02*
X182487261Y-87859166D01*
X181822023Y-88010357D02*
X182275595Y-88161547D01*
X182275595Y-87768452D01*
%TO.C,C15*%
X182426785Y-92908214D02*
X182457023Y-92938452D01*
X182487261Y-93029166D01*
X182487261Y-93089642D01*
X182457023Y-93180357D01*
X182396547Y-93240833D01*
X182336071Y-93271071D01*
X182215119Y-93301309D01*
X182124404Y-93301309D01*
X182003452Y-93271071D01*
X181942976Y-93240833D01*
X181882500Y-93180357D01*
X181852261Y-93089642D01*
X181852261Y-93029166D01*
X181882500Y-92938452D01*
X181912738Y-92908214D01*
X182487261Y-92303452D02*
X182487261Y-92666309D01*
X182487261Y-92484880D02*
X181852261Y-92484880D01*
X181942976Y-92545357D01*
X182003452Y-92605833D01*
X182033690Y-92666309D01*
X181852261Y-91728928D02*
X181852261Y-92031309D01*
X182154642Y-92061547D01*
X182124404Y-92031309D01*
X182094166Y-91970833D01*
X182094166Y-91819642D01*
X182124404Y-91759166D01*
X182154642Y-91728928D01*
X182215119Y-91698690D01*
X182366309Y-91698690D01*
X182426785Y-91728928D01*
X182457023Y-91759166D01*
X182487261Y-91819642D01*
X182487261Y-91970833D01*
X182457023Y-92031309D01*
X182426785Y-92061547D01*
%TO.C,C20*%
X174591785Y-104426785D02*
X174561547Y-104457023D01*
X174470833Y-104487261D01*
X174410357Y-104487261D01*
X174319642Y-104457023D01*
X174259166Y-104396547D01*
X174228928Y-104336071D01*
X174198690Y-104215119D01*
X174198690Y-104124404D01*
X174228928Y-104003452D01*
X174259166Y-103942976D01*
X174319642Y-103882500D01*
X174410357Y-103852261D01*
X174470833Y-103852261D01*
X174561547Y-103882500D01*
X174591785Y-103912738D01*
X174833690Y-103912738D02*
X174863928Y-103882500D01*
X174924404Y-103852261D01*
X175075595Y-103852261D01*
X175136071Y-103882500D01*
X175166309Y-103912738D01*
X175196547Y-103973214D01*
X175196547Y-104033690D01*
X175166309Y-104124404D01*
X174803452Y-104487261D01*
X175196547Y-104487261D01*
X175589642Y-103852261D02*
X175650119Y-103852261D01*
X175710595Y-103882500D01*
X175740833Y-103912738D01*
X175771071Y-103973214D01*
X175801309Y-104094166D01*
X175801309Y-104245357D01*
X175771071Y-104366309D01*
X175740833Y-104426785D01*
X175710595Y-104457023D01*
X175650119Y-104487261D01*
X175589642Y-104487261D01*
X175529166Y-104457023D01*
X175498928Y-104426785D01*
X175468690Y-104366309D01*
X175438452Y-104245357D01*
X175438452Y-104094166D01*
X175468690Y-103973214D01*
X175498928Y-103912738D01*
X175529166Y-103882500D01*
X175589642Y-103852261D01*
%TO.C,C21*%
X178591785Y-104426785D02*
X178561547Y-104457023D01*
X178470833Y-104487261D01*
X178410357Y-104487261D01*
X178319642Y-104457023D01*
X178259166Y-104396547D01*
X178228928Y-104336071D01*
X178198690Y-104215119D01*
X178198690Y-104124404D01*
X178228928Y-104003452D01*
X178259166Y-103942976D01*
X178319642Y-103882500D01*
X178410357Y-103852261D01*
X178470833Y-103852261D01*
X178561547Y-103882500D01*
X178591785Y-103912738D01*
X178833690Y-103912738D02*
X178863928Y-103882500D01*
X178924404Y-103852261D01*
X179075595Y-103852261D01*
X179136071Y-103882500D01*
X179166309Y-103912738D01*
X179196547Y-103973214D01*
X179196547Y-104033690D01*
X179166309Y-104124404D01*
X178803452Y-104487261D01*
X179196547Y-104487261D01*
X179801309Y-104487261D02*
X179438452Y-104487261D01*
X179619880Y-104487261D02*
X179619880Y-103852261D01*
X179559404Y-103942976D01*
X179498928Y-104003452D01*
X179438452Y-104033690D01*
%TO.C,C30*%
X136591785Y-95026785D02*
X136561547Y-95057023D01*
X136470833Y-95087261D01*
X136410357Y-95087261D01*
X136319642Y-95057023D01*
X136259166Y-94996547D01*
X136228928Y-94936071D01*
X136198690Y-94815119D01*
X136198690Y-94724404D01*
X136228928Y-94603452D01*
X136259166Y-94542976D01*
X136319642Y-94482500D01*
X136410357Y-94452261D01*
X136470833Y-94452261D01*
X136561547Y-94482500D01*
X136591785Y-94512738D01*
X136803452Y-94452261D02*
X137196547Y-94452261D01*
X136984880Y-94694166D01*
X137075595Y-94694166D01*
X137136071Y-94724404D01*
X137166309Y-94754642D01*
X137196547Y-94815119D01*
X137196547Y-94966309D01*
X137166309Y-95026785D01*
X137136071Y-95057023D01*
X137075595Y-95087261D01*
X136894166Y-95087261D01*
X136833690Y-95057023D01*
X136803452Y-95026785D01*
X137589642Y-94452261D02*
X137650119Y-94452261D01*
X137710595Y-94482500D01*
X137740833Y-94512738D01*
X137771071Y-94573214D01*
X137801309Y-94694166D01*
X137801309Y-94845357D01*
X137771071Y-94966309D01*
X137740833Y-95026785D01*
X137710595Y-95057023D01*
X137650119Y-95087261D01*
X137589642Y-95087261D01*
X137529166Y-95057023D01*
X137498928Y-95026785D01*
X137468690Y-94966309D01*
X137438452Y-94845357D01*
X137438452Y-94694166D01*
X137468690Y-94573214D01*
X137498928Y-94512738D01*
X137529166Y-94482500D01*
X137589642Y-94452261D01*
%TO.C,C31*%
X131691785Y-95026785D02*
X131661547Y-95057023D01*
X131570833Y-95087261D01*
X131510357Y-95087261D01*
X131419642Y-95057023D01*
X131359166Y-94996547D01*
X131328928Y-94936071D01*
X131298690Y-94815119D01*
X131298690Y-94724404D01*
X131328928Y-94603452D01*
X131359166Y-94542976D01*
X131419642Y-94482500D01*
X131510357Y-94452261D01*
X131570833Y-94452261D01*
X131661547Y-94482500D01*
X131691785Y-94512738D01*
X131903452Y-94452261D02*
X132296547Y-94452261D01*
X132084880Y-94694166D01*
X132175595Y-94694166D01*
X132236071Y-94724404D01*
X132266309Y-94754642D01*
X132296547Y-94815119D01*
X132296547Y-94966309D01*
X132266309Y-95026785D01*
X132236071Y-95057023D01*
X132175595Y-95087261D01*
X131994166Y-95087261D01*
X131933690Y-95057023D01*
X131903452Y-95026785D01*
X132901309Y-95087261D02*
X132538452Y-95087261D01*
X132719880Y-95087261D02*
X132719880Y-94452261D01*
X132659404Y-94542976D01*
X132598928Y-94603452D01*
X132538452Y-94633690D01*
%TO.C,D1*%
X157631309Y-96987261D02*
X157631309Y-96352261D01*
X157782500Y-96352261D01*
X157873214Y-96382500D01*
X157933690Y-96442976D01*
X157963928Y-96503452D01*
X157994166Y-96624404D01*
X157994166Y-96715119D01*
X157963928Y-96836071D01*
X157933690Y-96896547D01*
X157873214Y-96957023D01*
X157782500Y-96987261D01*
X157631309Y-96987261D01*
X158598928Y-96987261D02*
X158236071Y-96987261D01*
X158417500Y-96987261D02*
X158417500Y-96352261D01*
X158357023Y-96442976D01*
X158296547Y-96503452D01*
X158236071Y-96533690D01*
%TO.C,D2*%
X155031309Y-96987261D02*
X155031309Y-96352261D01*
X155182500Y-96352261D01*
X155273214Y-96382500D01*
X155333690Y-96442976D01*
X155363928Y-96503452D01*
X155394166Y-96624404D01*
X155394166Y-96715119D01*
X155363928Y-96836071D01*
X155333690Y-96896547D01*
X155273214Y-96957023D01*
X155182500Y-96987261D01*
X155031309Y-96987261D01*
X155636071Y-96412738D02*
X155666309Y-96382500D01*
X155726785Y-96352261D01*
X155877976Y-96352261D01*
X155938452Y-96382500D01*
X155968690Y-96412738D01*
X155998928Y-96473214D01*
X155998928Y-96533690D01*
X155968690Y-96624404D01*
X155605833Y-96987261D01*
X155998928Y-96987261D01*
%TO.C,D3*%
X152431309Y-96987261D02*
X152431309Y-96352261D01*
X152582500Y-96352261D01*
X152673214Y-96382500D01*
X152733690Y-96442976D01*
X152763928Y-96503452D01*
X152794166Y-96624404D01*
X152794166Y-96715119D01*
X152763928Y-96836071D01*
X152733690Y-96896547D01*
X152673214Y-96957023D01*
X152582500Y-96987261D01*
X152431309Y-96987261D01*
X153005833Y-96352261D02*
X153398928Y-96352261D01*
X153187261Y-96594166D01*
X153277976Y-96594166D01*
X153338452Y-96624404D01*
X153368690Y-96654642D01*
X153398928Y-96715119D01*
X153398928Y-96866309D01*
X153368690Y-96926785D01*
X153338452Y-96957023D01*
X153277976Y-96987261D01*
X153096547Y-96987261D01*
X153036071Y-96957023D01*
X153005833Y-96926785D01*
%TO.C,Q30*%
D15*
X134847738Y-98362857D02*
X134817500Y-98423333D01*
X134757023Y-98483809D01*
X134666309Y-98574523D01*
X134636071Y-98635000D01*
X134636071Y-98695476D01*
X134787261Y-98665238D02*
X134757023Y-98725714D01*
X134696547Y-98786190D01*
X134575595Y-98816428D01*
X134363928Y-98816428D01*
X134242976Y-98786190D01*
X134182500Y-98725714D01*
X134152261Y-98665238D01*
X134152261Y-98544285D01*
X134182500Y-98483809D01*
X134242976Y-98423333D01*
X134363928Y-98393095D01*
X134575595Y-98393095D01*
X134696547Y-98423333D01*
X134757023Y-98483809D01*
X134787261Y-98544285D01*
X134787261Y-98665238D01*
X134152261Y-98181428D02*
X134152261Y-97788333D01*
X134394166Y-98000000D01*
X134394166Y-97909285D01*
X134424404Y-97848809D01*
X134454642Y-97818571D01*
X134515119Y-97788333D01*
X134666309Y-97788333D01*
X134726785Y-97818571D01*
X134757023Y-97848809D01*
X134787261Y-97909285D01*
X134787261Y-98090714D01*
X134757023Y-98151190D01*
X134726785Y-98181428D01*
X134152261Y-97395238D02*
X134152261Y-97334761D01*
X134182500Y-97274285D01*
X134212738Y-97244047D01*
X134273214Y-97213809D01*
X134394166Y-97183571D01*
X134545357Y-97183571D01*
X134666309Y-97213809D01*
X134726785Y-97244047D01*
X134757023Y-97274285D01*
X134787261Y-97334761D01*
X134787261Y-97395238D01*
X134757023Y-97455714D01*
X134726785Y-97485952D01*
X134666309Y-97516190D01*
X134545357Y-97546428D01*
X134394166Y-97546428D01*
X134273214Y-97516190D01*
X134212738Y-97485952D01*
X134182500Y-97455714D01*
X134152261Y-97395238D01*
%TO.C,Q31*%
X134847738Y-102862857D02*
X134817500Y-102923333D01*
X134757023Y-102983809D01*
X134666309Y-103074523D01*
X134636071Y-103135000D01*
X134636071Y-103195476D01*
X134787261Y-103165238D02*
X134757023Y-103225714D01*
X134696547Y-103286190D01*
X134575595Y-103316428D01*
X134363928Y-103316428D01*
X134242976Y-103286190D01*
X134182500Y-103225714D01*
X134152261Y-103165238D01*
X134152261Y-103044285D01*
X134182500Y-102983809D01*
X134242976Y-102923333D01*
X134363928Y-102893095D01*
X134575595Y-102893095D01*
X134696547Y-102923333D01*
X134757023Y-102983809D01*
X134787261Y-103044285D01*
X134787261Y-103165238D01*
X134152261Y-102681428D02*
X134152261Y-102288333D01*
X134394166Y-102500000D01*
X134394166Y-102409285D01*
X134424404Y-102348809D01*
X134454642Y-102318571D01*
X134515119Y-102288333D01*
X134666309Y-102288333D01*
X134726785Y-102318571D01*
X134757023Y-102348809D01*
X134787261Y-102409285D01*
X134787261Y-102590714D01*
X134757023Y-102651190D01*
X134726785Y-102681428D01*
X134787261Y-101683571D02*
X134787261Y-102046428D01*
X134787261Y-101865000D02*
X134152261Y-101865000D01*
X134242976Y-101925476D01*
X134303452Y-101985952D01*
X134333690Y-102046428D01*
%TO.C,R1*%
X157914166Y-99387261D02*
X157702500Y-99084880D01*
X157551309Y-99387261D02*
X157551309Y-98752261D01*
X157793214Y-98752261D01*
X157853690Y-98782500D01*
X157883928Y-98812738D01*
X157914166Y-98873214D01*
X157914166Y-98963928D01*
X157883928Y-99024404D01*
X157853690Y-99054642D01*
X157793214Y-99084880D01*
X157551309Y-99084880D01*
X158518928Y-99387261D02*
X158156071Y-99387261D01*
X158337500Y-99387261D02*
X158337500Y-98752261D01*
X158277023Y-98842976D01*
X158216547Y-98903452D01*
X158156071Y-98933690D01*
%TO.C,R2*%
X155374166Y-99387261D02*
X155162500Y-99084880D01*
X155011309Y-99387261D02*
X155011309Y-98752261D01*
X155253214Y-98752261D01*
X155313690Y-98782500D01*
X155343928Y-98812738D01*
X155374166Y-98873214D01*
X155374166Y-98963928D01*
X155343928Y-99024404D01*
X155313690Y-99054642D01*
X155253214Y-99084880D01*
X155011309Y-99084880D01*
X155616071Y-98812738D02*
X155646309Y-98782500D01*
X155706785Y-98752261D01*
X155857976Y-98752261D01*
X155918452Y-98782500D01*
X155948690Y-98812738D01*
X155978928Y-98873214D01*
X155978928Y-98933690D01*
X155948690Y-99024404D01*
X155585833Y-99387261D01*
X155978928Y-99387261D01*
%TO.C,R3*%
X152834166Y-99387261D02*
X152622500Y-99084880D01*
X152471309Y-99387261D02*
X152471309Y-98752261D01*
X152713214Y-98752261D01*
X152773690Y-98782500D01*
X152803928Y-98812738D01*
X152834166Y-98873214D01*
X152834166Y-98963928D01*
X152803928Y-99024404D01*
X152773690Y-99054642D01*
X152713214Y-99084880D01*
X152471309Y-99084880D01*
X153045833Y-98752261D02*
X153438928Y-98752261D01*
X153227261Y-98994166D01*
X153317976Y-98994166D01*
X153378452Y-99024404D01*
X153408690Y-99054642D01*
X153438928Y-99115119D01*
X153438928Y-99266309D01*
X153408690Y-99326785D01*
X153378452Y-99357023D01*
X153317976Y-99387261D01*
X153136547Y-99387261D01*
X153076071Y-99357023D01*
X153045833Y-99326785D01*
%TO.C,R4*%
D11*
X162594166Y-95287261D02*
X162382500Y-94984880D01*
X162231309Y-95287261D02*
X162231309Y-94652261D01*
X162473214Y-94652261D01*
X162533690Y-94682500D01*
X162563928Y-94712738D01*
X162594166Y-94773214D01*
X162594166Y-94863928D01*
X162563928Y-94924404D01*
X162533690Y-94954642D01*
X162473214Y-94984880D01*
X162231309Y-94984880D01*
X163138452Y-94863928D02*
X163138452Y-95287261D01*
X162987261Y-94622023D02*
X162836071Y-95075595D01*
X163229166Y-95075595D01*
%TO.C,R5*%
X137294166Y-86387261D02*
X137082500Y-86084880D01*
X136931309Y-86387261D02*
X136931309Y-85752261D01*
X137173214Y-85752261D01*
X137233690Y-85782500D01*
X137263928Y-85812738D01*
X137294166Y-85873214D01*
X137294166Y-85963928D01*
X137263928Y-86024404D01*
X137233690Y-86054642D01*
X137173214Y-86084880D01*
X136931309Y-86084880D01*
X137868690Y-85752261D02*
X137566309Y-85752261D01*
X137536071Y-86054642D01*
X137566309Y-86024404D01*
X137626785Y-85994166D01*
X137777976Y-85994166D01*
X137838452Y-86024404D01*
X137868690Y-86054642D01*
X137898928Y-86115119D01*
X137898928Y-86266309D01*
X137868690Y-86326785D01*
X137838452Y-86357023D01*
X137777976Y-86387261D01*
X137626785Y-86387261D01*
X137566309Y-86357023D01*
X137536071Y-86326785D01*
%TO.C,R6*%
X140794166Y-79787261D02*
X140582500Y-79484880D01*
X140431309Y-79787261D02*
X140431309Y-79152261D01*
X140673214Y-79152261D01*
X140733690Y-79182500D01*
X140763928Y-79212738D01*
X140794166Y-79273214D01*
X140794166Y-79363928D01*
X140763928Y-79424404D01*
X140733690Y-79454642D01*
X140673214Y-79484880D01*
X140431309Y-79484880D01*
X141338452Y-79152261D02*
X141217500Y-79152261D01*
X141157023Y-79182500D01*
X141126785Y-79212738D01*
X141066309Y-79303452D01*
X141036071Y-79424404D01*
X141036071Y-79666309D01*
X141066309Y-79726785D01*
X141096547Y-79757023D01*
X141157023Y-79787261D01*
X141277976Y-79787261D01*
X141338452Y-79757023D01*
X141368690Y-79726785D01*
X141398928Y-79666309D01*
X141398928Y-79515119D01*
X141368690Y-79454642D01*
X141338452Y-79424404D01*
X141277976Y-79394166D01*
X141157023Y-79394166D01*
X141096547Y-79424404D01*
X141066309Y-79454642D01*
X141036071Y-79515119D01*
%TO.C,R7*%
X142894166Y-79287261D02*
X142682500Y-78984880D01*
X142531309Y-79287261D02*
X142531309Y-78652261D01*
X142773214Y-78652261D01*
X142833690Y-78682500D01*
X142863928Y-78712738D01*
X142894166Y-78773214D01*
X142894166Y-78863928D01*
X142863928Y-78924404D01*
X142833690Y-78954642D01*
X142773214Y-78984880D01*
X142531309Y-78984880D01*
X143105833Y-78652261D02*
X143529166Y-78652261D01*
X143257023Y-79287261D01*
%TO.C,R20*%
X191591785Y-98587261D02*
X191380119Y-98284880D01*
X191228928Y-98587261D02*
X191228928Y-97952261D01*
X191470833Y-97952261D01*
X191531309Y-97982500D01*
X191561547Y-98012738D01*
X191591785Y-98073214D01*
X191591785Y-98163928D01*
X191561547Y-98224404D01*
X191531309Y-98254642D01*
X191470833Y-98284880D01*
X191228928Y-98284880D01*
X191833690Y-98012738D02*
X191863928Y-97982500D01*
X191924404Y-97952261D01*
X192075595Y-97952261D01*
X192136071Y-97982500D01*
X192166309Y-98012738D01*
X192196547Y-98073214D01*
X192196547Y-98133690D01*
X192166309Y-98224404D01*
X191803452Y-98587261D01*
X192196547Y-98587261D01*
X192589642Y-97952261D02*
X192650119Y-97952261D01*
X192710595Y-97982500D01*
X192740833Y-98012738D01*
X192771071Y-98073214D01*
X192801309Y-98194166D01*
X192801309Y-98345357D01*
X192771071Y-98466309D01*
X192740833Y-98526785D01*
X192710595Y-98557023D01*
X192650119Y-98587261D01*
X192589642Y-98587261D01*
X192529166Y-98557023D01*
X192498928Y-98526785D01*
X192468690Y-98466309D01*
X192438452Y-98345357D01*
X192438452Y-98194166D01*
X192468690Y-98073214D01*
X192498928Y-98012738D01*
X192529166Y-97982500D01*
X192589642Y-97952261D01*
%TO.C,R30*%
X140187261Y-98408214D02*
X139884880Y-98619880D01*
X140187261Y-98771071D02*
X139552261Y-98771071D01*
X139552261Y-98529166D01*
X139582500Y-98468690D01*
X139612738Y-98438452D01*
X139673214Y-98408214D01*
X139763928Y-98408214D01*
X139824404Y-98438452D01*
X139854642Y-98468690D01*
X139884880Y-98529166D01*
X139884880Y-98771071D01*
X139552261Y-98196547D02*
X139552261Y-97803452D01*
X139794166Y-98015119D01*
X139794166Y-97924404D01*
X139824404Y-97863928D01*
X139854642Y-97833690D01*
X139915119Y-97803452D01*
X140066309Y-97803452D01*
X140126785Y-97833690D01*
X140157023Y-97863928D01*
X140187261Y-97924404D01*
X140187261Y-98105833D01*
X140157023Y-98166309D01*
X140126785Y-98196547D01*
X139552261Y-97410357D02*
X139552261Y-97349880D01*
X139582500Y-97289404D01*
X139612738Y-97259166D01*
X139673214Y-97228928D01*
X139794166Y-97198690D01*
X139945357Y-97198690D01*
X140066309Y-97228928D01*
X140126785Y-97259166D01*
X140157023Y-97289404D01*
X140187261Y-97349880D01*
X140187261Y-97410357D01*
X140157023Y-97470833D01*
X140126785Y-97501071D01*
X140066309Y-97531309D01*
X139945357Y-97561547D01*
X139794166Y-97561547D01*
X139673214Y-97531309D01*
X139612738Y-97501071D01*
X139582500Y-97470833D01*
X139552261Y-97410357D01*
%TO.C,R31*%
X129487261Y-98408214D02*
X129184880Y-98619880D01*
X129487261Y-98771071D02*
X128852261Y-98771071D01*
X128852261Y-98529166D01*
X128882500Y-98468690D01*
X128912738Y-98438452D01*
X128973214Y-98408214D01*
X129063928Y-98408214D01*
X129124404Y-98438452D01*
X129154642Y-98468690D01*
X129184880Y-98529166D01*
X129184880Y-98771071D01*
X128852261Y-98196547D02*
X128852261Y-97803452D01*
X129094166Y-98015119D01*
X129094166Y-97924404D01*
X129124404Y-97863928D01*
X129154642Y-97833690D01*
X129215119Y-97803452D01*
X129366309Y-97803452D01*
X129426785Y-97833690D01*
X129457023Y-97863928D01*
X129487261Y-97924404D01*
X129487261Y-98105833D01*
X129457023Y-98166309D01*
X129426785Y-98196547D01*
X129487261Y-97198690D02*
X129487261Y-97561547D01*
X129487261Y-97380119D02*
X128852261Y-97380119D01*
X128942976Y-97440595D01*
X129003452Y-97501071D01*
X129033690Y-97561547D01*
%TO.C,R32*%
X140187261Y-102908214D02*
X139884880Y-103119880D01*
X140187261Y-103271071D02*
X139552261Y-103271071D01*
X139552261Y-103029166D01*
X139582500Y-102968690D01*
X139612738Y-102938452D01*
X139673214Y-102908214D01*
X139763928Y-102908214D01*
X139824404Y-102938452D01*
X139854642Y-102968690D01*
X139884880Y-103029166D01*
X139884880Y-103271071D01*
X139552261Y-102696547D02*
X139552261Y-102303452D01*
X139794166Y-102515119D01*
X139794166Y-102424404D01*
X139824404Y-102363928D01*
X139854642Y-102333690D01*
X139915119Y-102303452D01*
X140066309Y-102303452D01*
X140126785Y-102333690D01*
X140157023Y-102363928D01*
X140187261Y-102424404D01*
X140187261Y-102605833D01*
X140157023Y-102666309D01*
X140126785Y-102696547D01*
X139612738Y-102061547D02*
X139582500Y-102031309D01*
X139552261Y-101970833D01*
X139552261Y-101819642D01*
X139582500Y-101759166D01*
X139612738Y-101728928D01*
X139673214Y-101698690D01*
X139733690Y-101698690D01*
X139824404Y-101728928D01*
X140187261Y-102091785D01*
X140187261Y-101698690D01*
%TO.C,R33*%
X129487261Y-103008214D02*
X129184880Y-103219880D01*
X129487261Y-103371071D02*
X128852261Y-103371071D01*
X128852261Y-103129166D01*
X128882500Y-103068690D01*
X128912738Y-103038452D01*
X128973214Y-103008214D01*
X129063928Y-103008214D01*
X129124404Y-103038452D01*
X129154642Y-103068690D01*
X129184880Y-103129166D01*
X129184880Y-103371071D01*
X128852261Y-102796547D02*
X128852261Y-102403452D01*
X129094166Y-102615119D01*
X129094166Y-102524404D01*
X129124404Y-102463928D01*
X129154642Y-102433690D01*
X129215119Y-102403452D01*
X129366309Y-102403452D01*
X129426785Y-102433690D01*
X129457023Y-102463928D01*
X129487261Y-102524404D01*
X129487261Y-102705833D01*
X129457023Y-102766309D01*
X129426785Y-102796547D01*
X128852261Y-102191785D02*
X128852261Y-101798690D01*
X129094166Y-102010357D01*
X129094166Y-101919642D01*
X129124404Y-101859166D01*
X129154642Y-101828928D01*
X129215119Y-101798690D01*
X129366309Y-101798690D01*
X129426785Y-101828928D01*
X129457023Y-101859166D01*
X129487261Y-101919642D01*
X129487261Y-102101071D01*
X129457023Y-102161547D01*
X129426785Y-102191785D01*
%TO.C,SW1*%
D12*
X154166666Y-103904761D02*
X154309523Y-103952380D01*
X154547619Y-103952380D01*
X154642857Y-103904761D01*
X154690476Y-103857142D01*
X154738095Y-103761904D01*
X154738095Y-103666666D01*
X154690476Y-103571428D01*
X154642857Y-103523809D01*
X154547619Y-103476190D01*
X154357142Y-103428571D01*
X154261904Y-103380952D01*
X154214285Y-103333333D01*
X154166666Y-103238095D01*
X154166666Y-103142857D01*
X154214285Y-103047619D01*
X154261904Y-103000000D01*
X154357142Y-102952380D01*
X154595238Y-102952380D01*
X154738095Y-103000000D01*
X155071428Y-102952380D02*
X155309523Y-103952380D01*
X155500000Y-103238095D01*
X155690476Y-103952380D01*
X155928571Y-102952380D01*
X156833333Y-103952380D02*
X156261904Y-103952380D01*
X156547619Y-103952380D02*
X156547619Y-102952380D01*
X156452380Y-103095238D01*
X156357142Y-103190476D01*
X156261904Y-103238095D01*
%TO.C,U1*%
D11*
X134016190Y-73052261D02*
X134016190Y-73566309D01*
X134046428Y-73626785D01*
X134076666Y-73657023D01*
X134137142Y-73687261D01*
X134258095Y-73687261D01*
X134318571Y-73657023D01*
X134348809Y-73626785D01*
X134379047Y-73566309D01*
X134379047Y-73052261D01*
X135014047Y-73687261D02*
X134651190Y-73687261D01*
X134832619Y-73687261D02*
X134832619Y-73052261D01*
X134772142Y-73142976D01*
X134711666Y-73203452D01*
X134651190Y-73233690D01*
%TO.C,U2*%
X152619428Y-76682714D02*
X152619428Y-77299571D01*
X152655714Y-77372142D01*
X152692000Y-77408428D01*
X152764571Y-77444714D01*
X152909714Y-77444714D01*
X152982285Y-77408428D01*
X153018571Y-77372142D01*
X153054857Y-77299571D01*
X153054857Y-76682714D01*
X153381428Y-76755285D02*
X153417714Y-76719000D01*
X153490285Y-76682714D01*
X153671714Y-76682714D01*
X153744285Y-76719000D01*
X153780571Y-76755285D01*
X153816857Y-76827857D01*
X153816857Y-76900428D01*
X153780571Y-77009285D01*
X153345142Y-77444714D01*
X153816857Y-77444714D01*
%TO.C,U5*%
X136816190Y-84252261D02*
X136816190Y-84766309D01*
X136846428Y-84826785D01*
X136876666Y-84857023D01*
X136937142Y-84887261D01*
X137058095Y-84887261D01*
X137118571Y-84857023D01*
X137148809Y-84826785D01*
X137179047Y-84766309D01*
X137179047Y-84252261D01*
X137783809Y-84252261D02*
X137481428Y-84252261D01*
X137451190Y-84554642D01*
X137481428Y-84524404D01*
X137541904Y-84494166D01*
X137693095Y-84494166D01*
X137753571Y-84524404D01*
X137783809Y-84554642D01*
X137814047Y-84615119D01*
X137814047Y-84766309D01*
X137783809Y-84826785D01*
X137753571Y-84857023D01*
X137693095Y-84887261D01*
X137541904Y-84887261D01*
X137481428Y-84857023D01*
X137451190Y-84826785D01*
%TO.C,U10*%
X175556571Y-76082714D02*
X175556571Y-76699571D01*
X175592857Y-76772142D01*
X175629142Y-76808428D01*
X175701714Y-76844714D01*
X175846857Y-76844714D01*
X175919428Y-76808428D01*
X175955714Y-76772142D01*
X175992000Y-76699571D01*
X175992000Y-76082714D01*
X176754000Y-76844714D02*
X176318571Y-76844714D01*
X176536285Y-76844714D02*
X176536285Y-76082714D01*
X176463714Y-76191571D01*
X176391142Y-76264142D01*
X176318571Y-76300428D01*
X177225714Y-76082714D02*
X177298285Y-76082714D01*
X177370857Y-76119000D01*
X177407142Y-76155285D01*
X177443428Y-76227857D01*
X177479714Y-76373000D01*
X177479714Y-76554428D01*
X177443428Y-76699571D01*
X177407142Y-76772142D01*
X177370857Y-76808428D01*
X177298285Y-76844714D01*
X177225714Y-76844714D01*
X177153142Y-76808428D01*
X177116857Y-76772142D01*
X177080571Y-76699571D01*
X177044285Y-76554428D01*
X177044285Y-76373000D01*
X177080571Y-76227857D01*
X177116857Y-76155285D01*
X177153142Y-76119000D01*
X177225714Y-76082714D01*
%TO.C,U11*%
X174013809Y-85552261D02*
X174013809Y-86066309D01*
X174044047Y-86126785D01*
X174074285Y-86157023D01*
X174134761Y-86187261D01*
X174255714Y-86187261D01*
X174316190Y-86157023D01*
X174346428Y-86126785D01*
X174376666Y-86066309D01*
X174376666Y-85552261D01*
X175011666Y-86187261D02*
X174648809Y-86187261D01*
X174830238Y-86187261D02*
X174830238Y-85552261D01*
X174769761Y-85642976D01*
X174709285Y-85703452D01*
X174648809Y-85733690D01*
X175616428Y-86187261D02*
X175253571Y-86187261D01*
X175435000Y-86187261D02*
X175435000Y-85552261D01*
X175374523Y-85642976D01*
X175314047Y-85703452D01*
X175253571Y-85733690D01*
%TO.C,U12*%
X175413809Y-90952261D02*
X175413809Y-91466309D01*
X175444047Y-91526785D01*
X175474285Y-91557023D01*
X175534761Y-91587261D01*
X175655714Y-91587261D01*
X175716190Y-91557023D01*
X175746428Y-91526785D01*
X175776666Y-91466309D01*
X175776666Y-90952261D01*
X176411666Y-91587261D02*
X176048809Y-91587261D01*
X176230238Y-91587261D02*
X176230238Y-90952261D01*
X176169761Y-91042976D01*
X176109285Y-91103452D01*
X176048809Y-91133690D01*
X176653571Y-91012738D02*
X176683809Y-90982500D01*
X176744285Y-90952261D01*
X176895476Y-90952261D01*
X176955952Y-90982500D01*
X176986190Y-91012738D01*
X177016428Y-91073214D01*
X177016428Y-91133690D01*
X176986190Y-91224404D01*
X176623333Y-91587261D01*
X177016428Y-91587261D01*
%TO.C,U20*%
X175413809Y-97452261D02*
X175413809Y-97966309D01*
X175444047Y-98026785D01*
X175474285Y-98057023D01*
X175534761Y-98087261D01*
X175655714Y-98087261D01*
X175716190Y-98057023D01*
X175746428Y-98026785D01*
X175776666Y-97966309D01*
X175776666Y-97452261D01*
X176048809Y-97512738D02*
X176079047Y-97482500D01*
X176139523Y-97452261D01*
X176290714Y-97452261D01*
X176351190Y-97482500D01*
X176381428Y-97512738D01*
X176411666Y-97573214D01*
X176411666Y-97633690D01*
X176381428Y-97724404D01*
X176018571Y-98087261D01*
X176411666Y-98087261D01*
X176804761Y-97452261D02*
X176865238Y-97452261D01*
X176925714Y-97482500D01*
X176955952Y-97512738D01*
X176986190Y-97573214D01*
X177016428Y-97694166D01*
X177016428Y-97845357D01*
X176986190Y-97966309D01*
X176955952Y-98026785D01*
X176925714Y-98057023D01*
X176865238Y-98087261D01*
X176804761Y-98087261D01*
X176744285Y-98057023D01*
X176714047Y-98026785D01*
X176683809Y-97966309D01*
X176653571Y-97845357D01*
X176653571Y-97694166D01*
X176683809Y-97573214D01*
X176714047Y-97512738D01*
X176744285Y-97482500D01*
X176804761Y-97452261D01*
%TO.C,U30*%
X133956571Y-91082714D02*
X133956571Y-91699571D01*
X133992857Y-91772142D01*
X134029142Y-91808428D01*
X134101714Y-91844714D01*
X134246857Y-91844714D01*
X134319428Y-91808428D01*
X134355714Y-91772142D01*
X134392000Y-91699571D01*
X134392000Y-91082714D01*
X134682285Y-91082714D02*
X135154000Y-91082714D01*
X134900000Y-91373000D01*
X135008857Y-91373000D01*
X135081428Y-91409285D01*
X135117714Y-91445571D01*
X135154000Y-91518142D01*
X135154000Y-91699571D01*
X135117714Y-91772142D01*
X135081428Y-91808428D01*
X135008857Y-91844714D01*
X134791142Y-91844714D01*
X134718571Y-91808428D01*
X134682285Y-91772142D01*
X135625714Y-91082714D02*
X135698285Y-91082714D01*
X135770857Y-91119000D01*
X135807142Y-91155285D01*
X135843428Y-91227857D01*
X135879714Y-91373000D01*
X135879714Y-91554428D01*
X135843428Y-91699571D01*
X135807142Y-91772142D01*
X135770857Y-91808428D01*
X135698285Y-91844714D01*
X135625714Y-91844714D01*
X135553142Y-91808428D01*
X135516857Y-91772142D01*
X135480571Y-91699571D01*
X135444285Y-91554428D01*
X135444285Y-91373000D01*
X135480571Y-91227857D01*
X135516857Y-91155285D01*
X135553142Y-91119000D01*
X135625714Y-91082714D01*
%TO.C,C8*%
X146394166Y-75026785D02*
X146363928Y-75057023D01*
X146273214Y-75087261D01*
X146212738Y-75087261D01*
X146122023Y-75057023D01*
X146061547Y-74996547D01*
X146031309Y-74936071D01*
X146001071Y-74815119D01*
X146001071Y-74724404D01*
X146031309Y-74603452D01*
X146061547Y-74542976D01*
X146122023Y-74482500D01*
X146212738Y-74452261D01*
X146273214Y-74452261D01*
X146363928Y-74482500D01*
X146394166Y-74512738D01*
X146757023Y-74724404D02*
X146696547Y-74694166D01*
X146666309Y-74663928D01*
X146636071Y-74603452D01*
X146636071Y-74573214D01*
X146666309Y-74512738D01*
X146696547Y-74482500D01*
X146757023Y-74452261D01*
X146877976Y-74452261D01*
X146938452Y-74482500D01*
X146968690Y-74512738D01*
X146998928Y-74573214D01*
X146998928Y-74603452D01*
X146968690Y-74663928D01*
X146938452Y-74694166D01*
X146877976Y-74724404D01*
X146757023Y-74724404D01*
X146696547Y-74754642D01*
X146666309Y-74784880D01*
X146636071Y-74845357D01*
X146636071Y-74966309D01*
X146666309Y-75026785D01*
X146696547Y-75057023D01*
X146757023Y-75087261D01*
X146877976Y-75087261D01*
X146938452Y-75057023D01*
X146968690Y-75026785D01*
X146998928Y-74966309D01*
X146998928Y-74845357D01*
X146968690Y-74784880D01*
X146938452Y-74754642D01*
X146877976Y-74724404D01*
%TO.C,R8*%
X142894166Y-94187261D02*
X142682500Y-93884880D01*
X142531309Y-94187261D02*
X142531309Y-93552261D01*
X142773214Y-93552261D01*
X142833690Y-93582500D01*
X142863928Y-93612738D01*
X142894166Y-93673214D01*
X142894166Y-93763928D01*
X142863928Y-93824404D01*
X142833690Y-93854642D01*
X142773214Y-93884880D01*
X142531309Y-93884880D01*
X143257023Y-93824404D02*
X143196547Y-93794166D01*
X143166309Y-93763928D01*
X143136071Y-93703452D01*
X143136071Y-93673214D01*
X143166309Y-93612738D01*
X143196547Y-93582500D01*
X143257023Y-93552261D01*
X143377976Y-93552261D01*
X143438452Y-93582500D01*
X143468690Y-93612738D01*
X143498928Y-93673214D01*
X143498928Y-93703452D01*
X143468690Y-93763928D01*
X143438452Y-93794166D01*
X143377976Y-93824404D01*
X143257023Y-93824404D01*
X143196547Y-93854642D01*
X143166309Y-93884880D01*
X143136071Y-93945357D01*
X143136071Y-94066309D01*
X143166309Y-94126785D01*
X143196547Y-94157023D01*
X143257023Y-94187261D01*
X143377976Y-94187261D01*
X143438452Y-94157023D01*
X143468690Y-94126785D01*
X143498928Y-94066309D01*
X143498928Y-93945357D01*
X143468690Y-93884880D01*
X143438452Y-93854642D01*
X143377976Y-93824404D01*
%TO.C,R9*%
X144894166Y-94187261D02*
X144682500Y-93884880D01*
X144531309Y-94187261D02*
X144531309Y-93552261D01*
X144773214Y-93552261D01*
X144833690Y-93582500D01*
X144863928Y-93612738D01*
X144894166Y-93673214D01*
X144894166Y-93763928D01*
X144863928Y-93824404D01*
X144833690Y-93854642D01*
X144773214Y-93884880D01*
X144531309Y-93884880D01*
X145196547Y-94187261D02*
X145317500Y-94187261D01*
X145377976Y-94157023D01*
X145408214Y-94126785D01*
X145468690Y-94036071D01*
X145498928Y-93915119D01*
X145498928Y-93673214D01*
X145468690Y-93612738D01*
X145438452Y-93582500D01*
X145377976Y-93552261D01*
X145257023Y-93552261D01*
X145196547Y-93582500D01*
X145166309Y-93612738D01*
X145136071Y-93673214D01*
X145136071Y-93824404D01*
X145166309Y-93884880D01*
X145196547Y-93915119D01*
X145257023Y-93945357D01*
X145377976Y-93945357D01*
X145438452Y-93915119D01*
X145468690Y-93884880D01*
X145498928Y-93824404D01*
%TO.C,U6*%
X143652261Y-89783809D02*
X144166309Y-89783809D01*
X144226785Y-89753571D01*
X144257023Y-89723333D01*
X144287261Y-89662857D01*
X144287261Y-89541904D01*
X144257023Y-89481428D01*
X144226785Y-89451190D01*
X144166309Y-89420952D01*
X143652261Y-89420952D01*
X143652261Y-88846428D02*
X143652261Y-88967380D01*
X143682500Y-89027857D01*
X143712738Y-89058095D01*
X143803452Y-89118571D01*
X143924404Y-89148809D01*
X144166309Y-89148809D01*
X144226785Y-89118571D01*
X144257023Y-89088333D01*
X144287261Y-89027857D01*
X144287261Y-88906904D01*
X144257023Y-88846428D01*
X144226785Y-88816190D01*
X144166309Y-88785952D01*
X144015119Y-88785952D01*
X143954642Y-88816190D01*
X143924404Y-88846428D01*
X143894166Y-88906904D01*
X143894166Y-89027857D01*
X143924404Y-89088333D01*
X143954642Y-89118571D01*
X144015119Y-89148809D01*
%TD*%
M02*
