%TF.GenerationSoftware,KiCad,Pcbnew,5.1.6*%
%TF.CreationDate,2020-06-12T20:58:39-07:00*%
%TF.ProjectId,pcb-lab-1,7063622d-6c61-4622-9d31-2e6b69636164,rev?*%
%TF.SameCoordinates,Original*%
%TF.FileFunction,Copper,L1,Top*%
%TF.FilePolarity,Positive*%
%FSLAX46Y46*%
G04 Gerber Fmt 4.6, Leading zero omitted, Abs format (unit mm)*
G04 Created by KiCad (PCBNEW 5.1.6) date 2020-06-12 20:58:39*
%MOMM*%
%LPD*%
G01*
G04 APERTURE LIST*
%TA.AperFunction,ComponentPad*%
%ADD10C,2.286000*%
%TD*%
%TA.AperFunction,SMDPad,CuDef*%
%ADD11C,12.700000*%
%TD*%
%TA.AperFunction,ComponentPad*%
%ADD12C,1.500000*%
%TD*%
%TA.AperFunction,ComponentPad*%
%ADD13O,1.778000X1.397000*%
%TD*%
%TA.AperFunction,ViaPad*%
%ADD14C,0.762000*%
%TD*%
%TA.AperFunction,ViaPad*%
%ADD15C,0.711200*%
%TD*%
%TA.AperFunction,Conductor*%
%ADD16C,0.406400*%
%TD*%
%TA.AperFunction,Conductor*%
%ADD17C,0.304800*%
%TD*%
%TA.AperFunction,Conductor*%
%ADD18C,0.254000*%
%TD*%
G04 APERTURE END LIST*
D10*
%TO.P,BT1,1*%
%TO.N,VBAT*%
X114024000Y-74500000D03*
X110976000Y-74500000D03*
X114024000Y-95328000D03*
X110976000Y-95328000D03*
D11*
%TO.P,BT1,2*%
%TO.N,GND*%
X112500000Y-84914000D03*
%TD*%
%TO.P,C1,1*%
%TO.N,VBAT*%
%TA.AperFunction,SMDPad,CuDef*%
G36*
G01*
X127043750Y-78575000D02*
X127956250Y-78575000D01*
G75*
G02*
X128200000Y-78818750I0J-243750D01*
G01*
X128200000Y-79306250D01*
G75*
G02*
X127956250Y-79550000I-243750J0D01*
G01*
X127043750Y-79550000D01*
G75*
G02*
X126800000Y-79306250I0J243750D01*
G01*
X126800000Y-78818750D01*
G75*
G02*
X127043750Y-78575000I243750J0D01*
G01*
G37*
%TD.AperFunction*%
%TO.P,C1,2*%
%TO.N,GND*%
%TA.AperFunction,SMDPad,CuDef*%
G36*
G01*
X127043750Y-80450000D02*
X127956250Y-80450000D01*
G75*
G02*
X128200000Y-80693750I0J-243750D01*
G01*
X128200000Y-81181250D01*
G75*
G02*
X127956250Y-81425000I-243750J0D01*
G01*
X127043750Y-81425000D01*
G75*
G02*
X126800000Y-81181250I0J243750D01*
G01*
X126800000Y-80693750D01*
G75*
G02*
X127043750Y-80450000I243750J0D01*
G01*
G37*
%TD.AperFunction*%
%TD*%
%TO.P,C2,1*%
%TO.N,VBAT*%
%TA.AperFunction,SMDPad,CuDef*%
G36*
G01*
X131743750Y-73775000D02*
X132256250Y-73775000D01*
G75*
G02*
X132475000Y-73993750I0J-218750D01*
G01*
X132475000Y-74431250D01*
G75*
G02*
X132256250Y-74650000I-218750J0D01*
G01*
X131743750Y-74650000D01*
G75*
G02*
X131525000Y-74431250I0J218750D01*
G01*
X131525000Y-73993750D01*
G75*
G02*
X131743750Y-73775000I218750J0D01*
G01*
G37*
%TD.AperFunction*%
%TO.P,C2,2*%
%TO.N,GND*%
%TA.AperFunction,SMDPad,CuDef*%
G36*
G01*
X131743750Y-75350000D02*
X132256250Y-75350000D01*
G75*
G02*
X132475000Y-75568750I0J-218750D01*
G01*
X132475000Y-76006250D01*
G75*
G02*
X132256250Y-76225000I-218750J0D01*
G01*
X131743750Y-76225000D01*
G75*
G02*
X131525000Y-76006250I0J218750D01*
G01*
X131525000Y-75568750D01*
G75*
G02*
X131743750Y-75350000I218750J0D01*
G01*
G37*
%TD.AperFunction*%
%TD*%
%TO.P,C3,2*%
%TO.N,GND*%
%TA.AperFunction,SMDPad,CuDef*%
G36*
G01*
X138743750Y-75350000D02*
X139256250Y-75350000D01*
G75*
G02*
X139475000Y-75568750I0J-218750D01*
G01*
X139475000Y-76006250D01*
G75*
G02*
X139256250Y-76225000I-218750J0D01*
G01*
X138743750Y-76225000D01*
G75*
G02*
X138525000Y-76006250I0J218750D01*
G01*
X138525000Y-75568750D01*
G75*
G02*
X138743750Y-75350000I218750J0D01*
G01*
G37*
%TD.AperFunction*%
%TO.P,C3,1*%
%TO.N,2V5*%
%TA.AperFunction,SMDPad,CuDef*%
G36*
G01*
X138743750Y-73775000D02*
X139256250Y-73775000D01*
G75*
G02*
X139475000Y-73993750I0J-218750D01*
G01*
X139475000Y-74431250D01*
G75*
G02*
X139256250Y-74650000I-218750J0D01*
G01*
X138743750Y-74650000D01*
G75*
G02*
X138525000Y-74431250I0J218750D01*
G01*
X138525000Y-73993750D01*
G75*
G02*
X138743750Y-73775000I218750J0D01*
G01*
G37*
%TD.AperFunction*%
%TD*%
%TO.P,C4,1*%
%TO.N,2V5*%
%TA.AperFunction,SMDPad,CuDef*%
G36*
G01*
X152775000Y-74756250D02*
X152775000Y-74243750D01*
G75*
G02*
X152993750Y-74025000I218750J0D01*
G01*
X153431250Y-74025000D01*
G75*
G02*
X153650000Y-74243750I0J-218750D01*
G01*
X153650000Y-74756250D01*
G75*
G02*
X153431250Y-74975000I-218750J0D01*
G01*
X152993750Y-74975000D01*
G75*
G02*
X152775000Y-74756250I0J218750D01*
G01*
G37*
%TD.AperFunction*%
%TO.P,C4,2*%
%TO.N,GND*%
%TA.AperFunction,SMDPad,CuDef*%
G36*
G01*
X154350000Y-74756250D02*
X154350000Y-74243750D01*
G75*
G02*
X154568750Y-74025000I218750J0D01*
G01*
X155006250Y-74025000D01*
G75*
G02*
X155225000Y-74243750I0J-218750D01*
G01*
X155225000Y-74756250D01*
G75*
G02*
X155006250Y-74975000I-218750J0D01*
G01*
X154568750Y-74975000D01*
G75*
G02*
X154350000Y-74756250I0J218750D01*
G01*
G37*
%TD.AperFunction*%
%TD*%
%TO.P,C5,2*%
%TO.N,GND*%
%TA.AperFunction,SMDPad,CuDef*%
G36*
G01*
X131956250Y-79550000D02*
X131043750Y-79550000D01*
G75*
G02*
X130800000Y-79306250I0J243750D01*
G01*
X130800000Y-78818750D01*
G75*
G02*
X131043750Y-78575000I243750J0D01*
G01*
X131956250Y-78575000D01*
G75*
G02*
X132200000Y-78818750I0J-243750D01*
G01*
X132200000Y-79306250D01*
G75*
G02*
X131956250Y-79550000I-243750J0D01*
G01*
G37*
%TD.AperFunction*%
%TO.P,C5,1*%
%TO.N,VBAT*%
%TA.AperFunction,SMDPad,CuDef*%
G36*
G01*
X131956250Y-81425000D02*
X131043750Y-81425000D01*
G75*
G02*
X130800000Y-81181250I0J243750D01*
G01*
X130800000Y-80693750D01*
G75*
G02*
X131043750Y-80450000I243750J0D01*
G01*
X131956250Y-80450000D01*
G75*
G02*
X132200000Y-80693750I0J-243750D01*
G01*
X132200000Y-81181250D01*
G75*
G02*
X131956250Y-81425000I-243750J0D01*
G01*
G37*
%TD.AperFunction*%
%TD*%
%TO.P,C6,1*%
%TO.N,Net-(C6-Pad1)*%
%TA.AperFunction,SMDPad,CuDef*%
G36*
G01*
X138743750Y-80275000D02*
X139256250Y-80275000D01*
G75*
G02*
X139475000Y-80493750I0J-218750D01*
G01*
X139475000Y-80931250D01*
G75*
G02*
X139256250Y-81150000I-218750J0D01*
G01*
X138743750Y-81150000D01*
G75*
G02*
X138525000Y-80931250I0J218750D01*
G01*
X138525000Y-80493750D01*
G75*
G02*
X138743750Y-80275000I218750J0D01*
G01*
G37*
%TD.AperFunction*%
%TO.P,C6,2*%
%TO.N,GND*%
%TA.AperFunction,SMDPad,CuDef*%
G36*
G01*
X138743750Y-81850000D02*
X139256250Y-81850000D01*
G75*
G02*
X139475000Y-82068750I0J-218750D01*
G01*
X139475000Y-82506250D01*
G75*
G02*
X139256250Y-82725000I-218750J0D01*
G01*
X138743750Y-82725000D01*
G75*
G02*
X138525000Y-82506250I0J218750D01*
G01*
X138525000Y-82068750D01*
G75*
G02*
X138743750Y-81850000I218750J0D01*
G01*
G37*
%TD.AperFunction*%
%TD*%
%TO.P,C7,2*%
%TO.N,GND*%
%TA.AperFunction,SMDPad,CuDef*%
G36*
G01*
X147743750Y-79350000D02*
X148256250Y-79350000D01*
G75*
G02*
X148475000Y-79568750I0J-218750D01*
G01*
X148475000Y-80006250D01*
G75*
G02*
X148256250Y-80225000I-218750J0D01*
G01*
X147743750Y-80225000D01*
G75*
G02*
X147525000Y-80006250I0J218750D01*
G01*
X147525000Y-79568750D01*
G75*
G02*
X147743750Y-79350000I218750J0D01*
G01*
G37*
%TD.AperFunction*%
%TO.P,C7,1*%
%TO.N,VBAT_ADC*%
%TA.AperFunction,SMDPad,CuDef*%
G36*
G01*
X147743750Y-77775000D02*
X148256250Y-77775000D01*
G75*
G02*
X148475000Y-77993750I0J-218750D01*
G01*
X148475000Y-78431250D01*
G75*
G02*
X148256250Y-78650000I-218750J0D01*
G01*
X147743750Y-78650000D01*
G75*
G02*
X147525000Y-78431250I0J218750D01*
G01*
X147525000Y-77993750D01*
G75*
G02*
X147743750Y-77775000I218750J0D01*
G01*
G37*
%TD.AperFunction*%
%TD*%
%TO.P,C10,1*%
%TO.N,2V5*%
%TA.AperFunction,SMDPad,CuDef*%
G36*
G01*
X173235000Y-74756250D02*
X173235000Y-74243750D01*
G75*
G02*
X173453750Y-74025000I218750J0D01*
G01*
X173891250Y-74025000D01*
G75*
G02*
X174110000Y-74243750I0J-218750D01*
G01*
X174110000Y-74756250D01*
G75*
G02*
X173891250Y-74975000I-218750J0D01*
G01*
X173453750Y-74975000D01*
G75*
G02*
X173235000Y-74756250I0J218750D01*
G01*
G37*
%TD.AperFunction*%
%TO.P,C10,2*%
%TO.N,GND*%
%TA.AperFunction,SMDPad,CuDef*%
G36*
G01*
X174810000Y-74756250D02*
X174810000Y-74243750D01*
G75*
G02*
X175028750Y-74025000I218750J0D01*
G01*
X175466250Y-74025000D01*
G75*
G02*
X175685000Y-74243750I0J-218750D01*
G01*
X175685000Y-74756250D01*
G75*
G02*
X175466250Y-74975000I-218750J0D01*
G01*
X175028750Y-74975000D01*
G75*
G02*
X174810000Y-74756250I0J218750D01*
G01*
G37*
%TD.AperFunction*%
%TD*%
%TO.P,C11,2*%
%TO.N,GND*%
%TA.AperFunction,SMDPad,CuDef*%
G36*
G01*
X179110000Y-74243750D02*
X179110000Y-74756250D01*
G75*
G02*
X178891250Y-74975000I-218750J0D01*
G01*
X178453750Y-74975000D01*
G75*
G02*
X178235000Y-74756250I0J218750D01*
G01*
X178235000Y-74243750D01*
G75*
G02*
X178453750Y-74025000I218750J0D01*
G01*
X178891250Y-74025000D01*
G75*
G02*
X179110000Y-74243750I0J-218750D01*
G01*
G37*
%TD.AperFunction*%
%TO.P,C11,1*%
%TO.N,5V*%
%TA.AperFunction,SMDPad,CuDef*%
G36*
G01*
X180685000Y-74243750D02*
X180685000Y-74756250D01*
G75*
G02*
X180466250Y-74975000I-218750J0D01*
G01*
X180028750Y-74975000D01*
G75*
G02*
X179810000Y-74756250I0J218750D01*
G01*
X179810000Y-74243750D01*
G75*
G02*
X180028750Y-74025000I218750J0D01*
G01*
X180466250Y-74025000D01*
G75*
G02*
X180685000Y-74243750I0J-218750D01*
G01*
G37*
%TD.AperFunction*%
%TD*%
%TO.P,C12,2*%
%TO.N,GND*%
%TA.AperFunction,SMDPad,CuDef*%
G36*
G01*
X172703750Y-87850000D02*
X173216250Y-87850000D01*
G75*
G02*
X173435000Y-88068750I0J-218750D01*
G01*
X173435000Y-88506250D01*
G75*
G02*
X173216250Y-88725000I-218750J0D01*
G01*
X172703750Y-88725000D01*
G75*
G02*
X172485000Y-88506250I0J218750D01*
G01*
X172485000Y-88068750D01*
G75*
G02*
X172703750Y-87850000I218750J0D01*
G01*
G37*
%TD.AperFunction*%
%TO.P,C12,1*%
%TO.N,2V5*%
%TA.AperFunction,SMDPad,CuDef*%
G36*
G01*
X172703750Y-86275000D02*
X173216250Y-86275000D01*
G75*
G02*
X173435000Y-86493750I0J-218750D01*
G01*
X173435000Y-86931250D01*
G75*
G02*
X173216250Y-87150000I-218750J0D01*
G01*
X172703750Y-87150000D01*
G75*
G02*
X172485000Y-86931250I0J218750D01*
G01*
X172485000Y-86493750D01*
G75*
G02*
X172703750Y-86275000I218750J0D01*
G01*
G37*
%TD.AperFunction*%
%TD*%
%TO.P,C13,2*%
%TO.N,GND*%
%TA.AperFunction,SMDPad,CuDef*%
G36*
G01*
X172703750Y-93350000D02*
X173216250Y-93350000D01*
G75*
G02*
X173435000Y-93568750I0J-218750D01*
G01*
X173435000Y-94006250D01*
G75*
G02*
X173216250Y-94225000I-218750J0D01*
G01*
X172703750Y-94225000D01*
G75*
G02*
X172485000Y-94006250I0J218750D01*
G01*
X172485000Y-93568750D01*
G75*
G02*
X172703750Y-93350000I218750J0D01*
G01*
G37*
%TD.AperFunction*%
%TO.P,C13,1*%
%TO.N,2V5*%
%TA.AperFunction,SMDPad,CuDef*%
G36*
G01*
X172703750Y-91775000D02*
X173216250Y-91775000D01*
G75*
G02*
X173435000Y-91993750I0J-218750D01*
G01*
X173435000Y-92431250D01*
G75*
G02*
X173216250Y-92650000I-218750J0D01*
G01*
X172703750Y-92650000D01*
G75*
G02*
X172485000Y-92431250I0J218750D01*
G01*
X172485000Y-91993750D01*
G75*
G02*
X172703750Y-91775000I218750J0D01*
G01*
G37*
%TD.AperFunction*%
%TD*%
%TO.P,C14,1*%
%TO.N,5V*%
%TA.AperFunction,SMDPad,CuDef*%
G36*
G01*
X180703750Y-86275000D02*
X181216250Y-86275000D01*
G75*
G02*
X181435000Y-86493750I0J-218750D01*
G01*
X181435000Y-86931250D01*
G75*
G02*
X181216250Y-87150000I-218750J0D01*
G01*
X180703750Y-87150000D01*
G75*
G02*
X180485000Y-86931250I0J218750D01*
G01*
X180485000Y-86493750D01*
G75*
G02*
X180703750Y-86275000I218750J0D01*
G01*
G37*
%TD.AperFunction*%
%TO.P,C14,2*%
%TO.N,GND*%
%TA.AperFunction,SMDPad,CuDef*%
G36*
G01*
X180703750Y-87850000D02*
X181216250Y-87850000D01*
G75*
G02*
X181435000Y-88068750I0J-218750D01*
G01*
X181435000Y-88506250D01*
G75*
G02*
X181216250Y-88725000I-218750J0D01*
G01*
X180703750Y-88725000D01*
G75*
G02*
X180485000Y-88506250I0J218750D01*
G01*
X180485000Y-88068750D01*
G75*
G02*
X180703750Y-87850000I218750J0D01*
G01*
G37*
%TD.AperFunction*%
%TD*%
%TO.P,C15,1*%
%TO.N,5V*%
%TA.AperFunction,SMDPad,CuDef*%
G36*
G01*
X180703750Y-91775000D02*
X181216250Y-91775000D01*
G75*
G02*
X181435000Y-91993750I0J-218750D01*
G01*
X181435000Y-92431250D01*
G75*
G02*
X181216250Y-92650000I-218750J0D01*
G01*
X180703750Y-92650000D01*
G75*
G02*
X180485000Y-92431250I0J218750D01*
G01*
X180485000Y-91993750D01*
G75*
G02*
X180703750Y-91775000I218750J0D01*
G01*
G37*
%TD.AperFunction*%
%TO.P,C15,2*%
%TO.N,GND*%
%TA.AperFunction,SMDPad,CuDef*%
G36*
G01*
X180703750Y-93350000D02*
X181216250Y-93350000D01*
G75*
G02*
X181435000Y-93568750I0J-218750D01*
G01*
X181435000Y-94006250D01*
G75*
G02*
X181216250Y-94225000I-218750J0D01*
G01*
X180703750Y-94225000D01*
G75*
G02*
X180485000Y-94006250I0J218750D01*
G01*
X180485000Y-93568750D01*
G75*
G02*
X180703750Y-93350000I218750J0D01*
G01*
G37*
%TD.AperFunction*%
%TD*%
%TO.P,C20,1*%
%TO.N,2V5*%
%TA.AperFunction,SMDPad,CuDef*%
G36*
G01*
X176185000Y-102743750D02*
X176185000Y-103256250D01*
G75*
G02*
X175966250Y-103475000I-218750J0D01*
G01*
X175528750Y-103475000D01*
G75*
G02*
X175310000Y-103256250I0J218750D01*
G01*
X175310000Y-102743750D01*
G75*
G02*
X175528750Y-102525000I218750J0D01*
G01*
X175966250Y-102525000D01*
G75*
G02*
X176185000Y-102743750I0J-218750D01*
G01*
G37*
%TD.AperFunction*%
%TO.P,C20,2*%
%TO.N,GND*%
%TA.AperFunction,SMDPad,CuDef*%
G36*
G01*
X174610000Y-102743750D02*
X174610000Y-103256250D01*
G75*
G02*
X174391250Y-103475000I-218750J0D01*
G01*
X173953750Y-103475000D01*
G75*
G02*
X173735000Y-103256250I0J218750D01*
G01*
X173735000Y-102743750D01*
G75*
G02*
X173953750Y-102525000I218750J0D01*
G01*
X174391250Y-102525000D01*
G75*
G02*
X174610000Y-102743750I0J-218750D01*
G01*
G37*
%TD.AperFunction*%
%TD*%
%TO.P,C21,2*%
%TO.N,GND*%
%TA.AperFunction,SMDPad,CuDef*%
G36*
G01*
X179310000Y-103256250D02*
X179310000Y-102743750D01*
G75*
G02*
X179528750Y-102525000I218750J0D01*
G01*
X179966250Y-102525000D01*
G75*
G02*
X180185000Y-102743750I0J-218750D01*
G01*
X180185000Y-103256250D01*
G75*
G02*
X179966250Y-103475000I-218750J0D01*
G01*
X179528750Y-103475000D01*
G75*
G02*
X179310000Y-103256250I0J218750D01*
G01*
G37*
%TD.AperFunction*%
%TO.P,C21,1*%
%TO.N,5V*%
%TA.AperFunction,SMDPad,CuDef*%
G36*
G01*
X177735000Y-103256250D02*
X177735000Y-102743750D01*
G75*
G02*
X177953750Y-102525000I218750J0D01*
G01*
X178391250Y-102525000D01*
G75*
G02*
X178610000Y-102743750I0J-218750D01*
G01*
X178610000Y-103256250D01*
G75*
G02*
X178391250Y-103475000I-218750J0D01*
G01*
X177953750Y-103475000D01*
G75*
G02*
X177735000Y-103256250I0J218750D01*
G01*
G37*
%TD.AperFunction*%
%TD*%
%TO.P,C30,2*%
%TO.N,GND*%
%TA.AperFunction,SMDPad,CuDef*%
G36*
G01*
X136150000Y-93243750D02*
X136150000Y-93756250D01*
G75*
G02*
X135931250Y-93975000I-218750J0D01*
G01*
X135493750Y-93975000D01*
G75*
G02*
X135275000Y-93756250I0J218750D01*
G01*
X135275000Y-93243750D01*
G75*
G02*
X135493750Y-93025000I218750J0D01*
G01*
X135931250Y-93025000D01*
G75*
G02*
X136150000Y-93243750I0J-218750D01*
G01*
G37*
%TD.AperFunction*%
%TO.P,C30,1*%
%TO.N,2V5*%
%TA.AperFunction,SMDPad,CuDef*%
G36*
G01*
X137725000Y-93243750D02*
X137725000Y-93756250D01*
G75*
G02*
X137506250Y-93975000I-218750J0D01*
G01*
X137068750Y-93975000D01*
G75*
G02*
X136850000Y-93756250I0J218750D01*
G01*
X136850000Y-93243750D01*
G75*
G02*
X137068750Y-93025000I218750J0D01*
G01*
X137506250Y-93025000D01*
G75*
G02*
X137725000Y-93243750I0J-218750D01*
G01*
G37*
%TD.AperFunction*%
%TD*%
%TO.P,C31,1*%
%TO.N,VBAT*%
%TA.AperFunction,SMDPad,CuDef*%
G36*
G01*
X131275000Y-93756250D02*
X131275000Y-93243750D01*
G75*
G02*
X131493750Y-93025000I218750J0D01*
G01*
X131931250Y-93025000D01*
G75*
G02*
X132150000Y-93243750I0J-218750D01*
G01*
X132150000Y-93756250D01*
G75*
G02*
X131931250Y-93975000I-218750J0D01*
G01*
X131493750Y-93975000D01*
G75*
G02*
X131275000Y-93756250I0J218750D01*
G01*
G37*
%TD.AperFunction*%
%TO.P,C31,2*%
%TO.N,GND*%
%TA.AperFunction,SMDPad,CuDef*%
G36*
G01*
X132850000Y-93756250D02*
X132850000Y-93243750D01*
G75*
G02*
X133068750Y-93025000I218750J0D01*
G01*
X133506250Y-93025000D01*
G75*
G02*
X133725000Y-93243750I0J-218750D01*
G01*
X133725000Y-93756250D01*
G75*
G02*
X133506250Y-93975000I-218750J0D01*
G01*
X133068750Y-93975000D01*
G75*
G02*
X132850000Y-93756250I0J218750D01*
G01*
G37*
%TD.AperFunction*%
%TD*%
%TO.P,D1,1*%
%TO.N,Net-(D1-Pad1)*%
%TA.AperFunction,SMDPad,CuDef*%
G36*
G01*
X158476250Y-95865000D02*
X157563750Y-95865000D01*
G75*
G02*
X157320000Y-95621250I0J243750D01*
G01*
X157320000Y-95133750D01*
G75*
G02*
X157563750Y-94890000I243750J0D01*
G01*
X158476250Y-94890000D01*
G75*
G02*
X158720000Y-95133750I0J-243750D01*
G01*
X158720000Y-95621250D01*
G75*
G02*
X158476250Y-95865000I-243750J0D01*
G01*
G37*
%TD.AperFunction*%
%TO.P,D1,2*%
%TO.N,Net-(D1-Pad2)*%
%TA.AperFunction,SMDPad,CuDef*%
G36*
G01*
X158476250Y-93990000D02*
X157563750Y-93990000D01*
G75*
G02*
X157320000Y-93746250I0J243750D01*
G01*
X157320000Y-93258750D01*
G75*
G02*
X157563750Y-93015000I243750J0D01*
G01*
X158476250Y-93015000D01*
G75*
G02*
X158720000Y-93258750I0J-243750D01*
G01*
X158720000Y-93746250D01*
G75*
G02*
X158476250Y-93990000I-243750J0D01*
G01*
G37*
%TD.AperFunction*%
%TD*%
%TO.P,D2,1*%
%TO.N,Net-(D2-Pad1)*%
%TA.AperFunction,SMDPad,CuDef*%
G36*
G01*
X155936250Y-95865000D02*
X155023750Y-95865000D01*
G75*
G02*
X154780000Y-95621250I0J243750D01*
G01*
X154780000Y-95133750D01*
G75*
G02*
X155023750Y-94890000I243750J0D01*
G01*
X155936250Y-94890000D01*
G75*
G02*
X156180000Y-95133750I0J-243750D01*
G01*
X156180000Y-95621250D01*
G75*
G02*
X155936250Y-95865000I-243750J0D01*
G01*
G37*
%TD.AperFunction*%
%TO.P,D2,2*%
%TO.N,Net-(D2-Pad2)*%
%TA.AperFunction,SMDPad,CuDef*%
G36*
G01*
X155936250Y-93990000D02*
X155023750Y-93990000D01*
G75*
G02*
X154780000Y-93746250I0J243750D01*
G01*
X154780000Y-93258750D01*
G75*
G02*
X155023750Y-93015000I243750J0D01*
G01*
X155936250Y-93015000D01*
G75*
G02*
X156180000Y-93258750I0J-243750D01*
G01*
X156180000Y-93746250D01*
G75*
G02*
X155936250Y-93990000I-243750J0D01*
G01*
G37*
%TD.AperFunction*%
%TD*%
%TO.P,D3,2*%
%TO.N,Net-(D3-Pad2)*%
%TA.AperFunction,SMDPad,CuDef*%
G36*
G01*
X153396250Y-93990000D02*
X152483750Y-93990000D01*
G75*
G02*
X152240000Y-93746250I0J243750D01*
G01*
X152240000Y-93258750D01*
G75*
G02*
X152483750Y-93015000I243750J0D01*
G01*
X153396250Y-93015000D01*
G75*
G02*
X153640000Y-93258750I0J-243750D01*
G01*
X153640000Y-93746250D01*
G75*
G02*
X153396250Y-93990000I-243750J0D01*
G01*
G37*
%TD.AperFunction*%
%TO.P,D3,1*%
%TO.N,Net-(D3-Pad1)*%
%TA.AperFunction,SMDPad,CuDef*%
G36*
G01*
X153396250Y-95865000D02*
X152483750Y-95865000D01*
G75*
G02*
X152240000Y-95621250I0J243750D01*
G01*
X152240000Y-95133750D01*
G75*
G02*
X152483750Y-94890000I243750J0D01*
G01*
X153396250Y-94890000D01*
G75*
G02*
X153640000Y-95133750I0J-243750D01*
G01*
X153640000Y-95621250D01*
G75*
G02*
X153396250Y-95865000I-243750J0D01*
G01*
G37*
%TD.AperFunction*%
%TD*%
%TO.P,J1,1*%
%TO.N,VBAT*%
%TA.AperFunction,ComponentPad*%
G36*
G01*
X115150000Y-98635000D02*
X115150000Y-99485000D01*
G75*
G02*
X114725000Y-99910000I-425000J0D01*
G01*
X113875000Y-99910000D01*
G75*
G02*
X113450000Y-99485000I0J425000D01*
G01*
X113450000Y-98635000D01*
G75*
G02*
X113875000Y-98210000I425000J0D01*
G01*
X114725000Y-98210000D01*
G75*
G02*
X115150000Y-98635000I0J-425000D01*
G01*
G37*
%TD.AperFunction*%
%TO.P,J1,2*%
%TO.N,GND*%
%TA.AperFunction,ComponentPad*%
G36*
G01*
X115150000Y-101175000D02*
X115150000Y-102025000D01*
G75*
G02*
X114725000Y-102450000I-425000J0D01*
G01*
X113875000Y-102450000D01*
G75*
G02*
X113450000Y-102025000I0J425000D01*
G01*
X113450000Y-101175000D01*
G75*
G02*
X113875000Y-100750000I425000J0D01*
G01*
X114725000Y-100750000D01*
G75*
G02*
X115150000Y-101175000I0J-425000D01*
G01*
G37*
%TD.AperFunction*%
%TD*%
D12*
%TO.P,J2,1*%
%TO.N,Net-(J2-Pad1)*%
X162700000Y-90000000D03*
%TD*%
%TO.P,J18,1*%
%TO.N,5V*%
%TA.AperFunction,ComponentPad*%
G36*
G01*
X196430000Y-75775000D02*
X196430000Y-76625000D01*
G75*
G02*
X196005000Y-77050000I-425000J0D01*
G01*
X195155000Y-77050000D01*
G75*
G02*
X194730000Y-76625000I0J425000D01*
G01*
X194730000Y-75775000D01*
G75*
G02*
X195155000Y-75350000I425000J0D01*
G01*
X196005000Y-75350000D01*
G75*
G02*
X196430000Y-75775000I0J-425000D01*
G01*
G37*
%TD.AperFunction*%
%TO.P,J18,2*%
%TO.N,GND*%
%TA.AperFunction,ComponentPad*%
G36*
G01*
X196430000Y-78315000D02*
X196430000Y-79165000D01*
G75*
G02*
X196005000Y-79590000I-425000J0D01*
G01*
X195155000Y-79590000D01*
G75*
G02*
X194730000Y-79165000I0J425000D01*
G01*
X194730000Y-78315000D01*
G75*
G02*
X195155000Y-77890000I425000J0D01*
G01*
X196005000Y-77890000D01*
G75*
G02*
X196430000Y-78315000I0J-425000D01*
G01*
G37*
%TD.AperFunction*%
%TO.P,J18,3*%
%TO.N,RX*%
%TA.AperFunction,ComponentPad*%
G36*
G01*
X196430000Y-80855000D02*
X196430000Y-81705000D01*
G75*
G02*
X196005000Y-82130000I-425000J0D01*
G01*
X195155000Y-82130000D01*
G75*
G02*
X194730000Y-81705000I0J425000D01*
G01*
X194730000Y-80855000D01*
G75*
G02*
X195155000Y-80430000I425000J0D01*
G01*
X196005000Y-80430000D01*
G75*
G02*
X196430000Y-80855000I0J-425000D01*
G01*
G37*
%TD.AperFunction*%
%TO.P,J18,4*%
%TO.N,TX*%
%TA.AperFunction,ComponentPad*%
G36*
G01*
X196430000Y-83395000D02*
X196430000Y-84245000D01*
G75*
G02*
X196005000Y-84670000I-425000J0D01*
G01*
X195155000Y-84670000D01*
G75*
G02*
X194730000Y-84245000I0J425000D01*
G01*
X194730000Y-83395000D01*
G75*
G02*
X195155000Y-82970000I425000J0D01*
G01*
X196005000Y-82970000D01*
G75*
G02*
X196430000Y-83395000I0J-425000D01*
G01*
G37*
%TD.AperFunction*%
%TD*%
%TO.P,J20,1*%
%TO.N,5V*%
%TA.AperFunction,ComponentPad*%
G36*
G01*
X196430000Y-91015000D02*
X196430000Y-91865000D01*
G75*
G02*
X196005000Y-92290000I-425000J0D01*
G01*
X195155000Y-92290000D01*
G75*
G02*
X194730000Y-91865000I0J425000D01*
G01*
X194730000Y-91015000D01*
G75*
G02*
X195155000Y-90590000I425000J0D01*
G01*
X196005000Y-90590000D01*
G75*
G02*
X196430000Y-91015000I0J-425000D01*
G01*
G37*
%TD.AperFunction*%
%TO.P,J20,2*%
%TO.N,GND*%
%TA.AperFunction,ComponentPad*%
G36*
G01*
X196430000Y-93555000D02*
X196430000Y-94405000D01*
G75*
G02*
X196005000Y-94830000I-425000J0D01*
G01*
X195155000Y-94830000D01*
G75*
G02*
X194730000Y-94405000I0J425000D01*
G01*
X194730000Y-93555000D01*
G75*
G02*
X195155000Y-93130000I425000J0D01*
G01*
X196005000Y-93130000D01*
G75*
G02*
X196430000Y-93555000I0J-425000D01*
G01*
G37*
%TD.AperFunction*%
%TO.P,J20,3*%
%TO.N,Net-(J20-Pad3)*%
%TA.AperFunction,ComponentPad*%
G36*
G01*
X196430000Y-96095000D02*
X196430000Y-96945000D01*
G75*
G02*
X196005000Y-97370000I-425000J0D01*
G01*
X195155000Y-97370000D01*
G75*
G02*
X194730000Y-96945000I0J425000D01*
G01*
X194730000Y-96095000D01*
G75*
G02*
X195155000Y-95670000I425000J0D01*
G01*
X196005000Y-95670000D01*
G75*
G02*
X196430000Y-96095000I0J-425000D01*
G01*
G37*
%TD.AperFunction*%
%TD*%
%TO.P,JD1,4*%
%TO.N,GND*%
%TA.AperFunction,ComponentPad*%
G36*
G01*
X125310000Y-80855000D02*
X125310000Y-81705000D01*
G75*
G02*
X124885000Y-82130000I-425000J0D01*
G01*
X124035000Y-82130000D01*
G75*
G02*
X123610000Y-81705000I0J425000D01*
G01*
X123610000Y-80855000D01*
G75*
G02*
X124035000Y-80430000I425000J0D01*
G01*
X124885000Y-80430000D01*
G75*
G02*
X125310000Y-80855000I0J-425000D01*
G01*
G37*
%TD.AperFunction*%
%TO.P,JD1,3*%
%TO.N,VBAT*%
%TA.AperFunction,ComponentPad*%
G36*
G01*
X125310000Y-78315000D02*
X125310000Y-79165000D01*
G75*
G02*
X124885000Y-79590000I-425000J0D01*
G01*
X124035000Y-79590000D01*
G75*
G02*
X123610000Y-79165000I0J425000D01*
G01*
X123610000Y-78315000D01*
G75*
G02*
X124035000Y-77890000I425000J0D01*
G01*
X124885000Y-77890000D01*
G75*
G02*
X125310000Y-78315000I0J-425000D01*
G01*
G37*
%TD.AperFunction*%
%TO.P,JD1,2*%
%TO.N,SCL*%
%TA.AperFunction,ComponentPad*%
G36*
G01*
X125310000Y-75775000D02*
X125310000Y-76625000D01*
G75*
G02*
X124885000Y-77050000I-425000J0D01*
G01*
X124035000Y-77050000D01*
G75*
G02*
X123610000Y-76625000I0J425000D01*
G01*
X123610000Y-75775000D01*
G75*
G02*
X124035000Y-75350000I425000J0D01*
G01*
X124885000Y-75350000D01*
G75*
G02*
X125310000Y-75775000I0J-425000D01*
G01*
G37*
%TD.AperFunction*%
%TO.P,JD1,1*%
%TO.N,SDA*%
%TA.AperFunction,ComponentPad*%
G36*
G01*
X125310000Y-73235000D02*
X125310000Y-74085000D01*
G75*
G02*
X124885000Y-74510000I-425000J0D01*
G01*
X124035000Y-74510000D01*
G75*
G02*
X123610000Y-74085000I0J425000D01*
G01*
X123610000Y-73235000D01*
G75*
G02*
X124035000Y-72810000I425000J0D01*
G01*
X124885000Y-72810000D01*
G75*
G02*
X125310000Y-73235000I0J-425000D01*
G01*
G37*
%TD.AperFunction*%
%TD*%
%TO.P,JP20,1*%
%TO.N,UPDI_2V5_A*%
%TA.AperFunction,ComponentPad*%
G36*
G01*
X165950000Y-91015000D02*
X165950000Y-91865000D01*
G75*
G02*
X165525000Y-92290000I-425000J0D01*
G01*
X164675000Y-92290000D01*
G75*
G02*
X164250000Y-91865000I0J425000D01*
G01*
X164250000Y-91015000D01*
G75*
G02*
X164675000Y-90590000I425000J0D01*
G01*
X165525000Y-90590000D01*
G75*
G02*
X165950000Y-91015000I0J-425000D01*
G01*
G37*
%TD.AperFunction*%
%TO.P,JP20,2*%
%TO.N,UPDI_2V5*%
%TA.AperFunction,ComponentPad*%
G36*
G01*
X165950000Y-93555000D02*
X165950000Y-94405000D01*
G75*
G02*
X165525000Y-94830000I-425000J0D01*
G01*
X164675000Y-94830000D01*
G75*
G02*
X164250000Y-94405000I0J425000D01*
G01*
X164250000Y-93555000D01*
G75*
G02*
X164675000Y-93130000I425000J0D01*
G01*
X165525000Y-93130000D01*
G75*
G02*
X165950000Y-93555000I0J-425000D01*
G01*
G37*
%TD.AperFunction*%
%TO.P,JP20,3*%
%TO.N,UPDI_2V5_B*%
%TA.AperFunction,ComponentPad*%
G36*
G01*
X165950000Y-96095000D02*
X165950000Y-96945000D01*
G75*
G02*
X165525000Y-97370000I-425000J0D01*
G01*
X164675000Y-97370000D01*
G75*
G02*
X164250000Y-96945000I0J425000D01*
G01*
X164250000Y-96095000D01*
G75*
G02*
X164675000Y-95670000I425000J0D01*
G01*
X165525000Y-95670000D01*
G75*
G02*
X165950000Y-96095000I0J-425000D01*
G01*
G37*
%TD.AperFunction*%
%TD*%
%TO.P,JP21,1*%
%TO.N,UPDI_A*%
%TA.AperFunction,ComponentPad*%
G36*
G01*
X188810000Y-91015000D02*
X188810000Y-91865000D01*
G75*
G02*
X188385000Y-92290000I-425000J0D01*
G01*
X187535000Y-92290000D01*
G75*
G02*
X187110000Y-91865000I0J425000D01*
G01*
X187110000Y-91015000D01*
G75*
G02*
X187535000Y-90590000I425000J0D01*
G01*
X188385000Y-90590000D01*
G75*
G02*
X188810000Y-91015000I0J-425000D01*
G01*
G37*
%TD.AperFunction*%
%TO.P,JP21,2*%
%TO.N,UPDI*%
%TA.AperFunction,ComponentPad*%
G36*
G01*
X188810000Y-93555000D02*
X188810000Y-94405000D01*
G75*
G02*
X188385000Y-94830000I-425000J0D01*
G01*
X187535000Y-94830000D01*
G75*
G02*
X187110000Y-94405000I0J425000D01*
G01*
X187110000Y-93555000D01*
G75*
G02*
X187535000Y-93130000I425000J0D01*
G01*
X188385000Y-93130000D01*
G75*
G02*
X188810000Y-93555000I0J-425000D01*
G01*
G37*
%TD.AperFunction*%
%TO.P,JP21,3*%
%TO.N,UPDI_B*%
%TA.AperFunction,ComponentPad*%
G36*
G01*
X188810000Y-96095000D02*
X188810000Y-96945000D01*
G75*
G02*
X188385000Y-97370000I-425000J0D01*
G01*
X187535000Y-97370000D01*
G75*
G02*
X187110000Y-96945000I0J425000D01*
G01*
X187110000Y-96095000D01*
G75*
G02*
X187535000Y-95670000I425000J0D01*
G01*
X188385000Y-95670000D01*
G75*
G02*
X188810000Y-96095000I0J-425000D01*
G01*
G37*
%TD.AperFunction*%
%TD*%
%TO.P,JP30,1*%
%TO.N,SCL_2V5_A*%
%TA.AperFunction,ComponentPad*%
G36*
G01*
X143090000Y-96095000D02*
X143090000Y-96945000D01*
G75*
G02*
X142665000Y-97370000I-425000J0D01*
G01*
X141815000Y-97370000D01*
G75*
G02*
X141390000Y-96945000I0J425000D01*
G01*
X141390000Y-96095000D01*
G75*
G02*
X141815000Y-95670000I425000J0D01*
G01*
X142665000Y-95670000D01*
G75*
G02*
X143090000Y-96095000I0J-425000D01*
G01*
G37*
%TD.AperFunction*%
%TO.P,JP30,2*%
%TO.N,SCL_2V5*%
%TA.AperFunction,ComponentPad*%
G36*
G01*
X143090000Y-98635000D02*
X143090000Y-99485000D01*
G75*
G02*
X142665000Y-99910000I-425000J0D01*
G01*
X141815000Y-99910000D01*
G75*
G02*
X141390000Y-99485000I0J425000D01*
G01*
X141390000Y-98635000D01*
G75*
G02*
X141815000Y-98210000I425000J0D01*
G01*
X142665000Y-98210000D01*
G75*
G02*
X143090000Y-98635000I0J-425000D01*
G01*
G37*
%TD.AperFunction*%
%TO.P,JP30,3*%
%TO.N,SCL_2V5_B*%
%TA.AperFunction,ComponentPad*%
G36*
G01*
X143090000Y-101175000D02*
X143090000Y-102025000D01*
G75*
G02*
X142665000Y-102450000I-425000J0D01*
G01*
X141815000Y-102450000D01*
G75*
G02*
X141390000Y-102025000I0J425000D01*
G01*
X141390000Y-101175000D01*
G75*
G02*
X141815000Y-100750000I425000J0D01*
G01*
X142665000Y-100750000D01*
G75*
G02*
X143090000Y-101175000I0J-425000D01*
G01*
G37*
%TD.AperFunction*%
%TD*%
%TO.P,JP31,3*%
%TO.N,SDA_2V5_B*%
%TA.AperFunction,ComponentPad*%
G36*
G01*
X145630000Y-101175000D02*
X145630000Y-102025000D01*
G75*
G02*
X145205000Y-102450000I-425000J0D01*
G01*
X144355000Y-102450000D01*
G75*
G02*
X143930000Y-102025000I0J425000D01*
G01*
X143930000Y-101175000D01*
G75*
G02*
X144355000Y-100750000I425000J0D01*
G01*
X145205000Y-100750000D01*
G75*
G02*
X145630000Y-101175000I0J-425000D01*
G01*
G37*
%TD.AperFunction*%
%TO.P,JP31,2*%
%TO.N,SDA_2V5*%
%TA.AperFunction,ComponentPad*%
G36*
G01*
X145630000Y-98635000D02*
X145630000Y-99485000D01*
G75*
G02*
X145205000Y-99910000I-425000J0D01*
G01*
X144355000Y-99910000D01*
G75*
G02*
X143930000Y-99485000I0J425000D01*
G01*
X143930000Y-98635000D01*
G75*
G02*
X144355000Y-98210000I425000J0D01*
G01*
X145205000Y-98210000D01*
G75*
G02*
X145630000Y-98635000I0J-425000D01*
G01*
G37*
%TD.AperFunction*%
%TO.P,JP31,1*%
%TO.N,SDA_2V5_A*%
%TA.AperFunction,ComponentPad*%
G36*
G01*
X145630000Y-96095000D02*
X145630000Y-96945000D01*
G75*
G02*
X145205000Y-97370000I-425000J0D01*
G01*
X144355000Y-97370000D01*
G75*
G02*
X143930000Y-96945000I0J425000D01*
G01*
X143930000Y-96095000D01*
G75*
G02*
X144355000Y-95670000I425000J0D01*
G01*
X145205000Y-95670000D01*
G75*
G02*
X145630000Y-96095000I0J-425000D01*
G01*
G37*
%TD.AperFunction*%
%TD*%
%TO.P,JP32,3*%
%TO.N,SCL_B*%
%TA.AperFunction,ComponentPad*%
G36*
G01*
X127850000Y-101175000D02*
X127850000Y-102025000D01*
G75*
G02*
X127425000Y-102450000I-425000J0D01*
G01*
X126575000Y-102450000D01*
G75*
G02*
X126150000Y-102025000I0J425000D01*
G01*
X126150000Y-101175000D01*
G75*
G02*
X126575000Y-100750000I425000J0D01*
G01*
X127425000Y-100750000D01*
G75*
G02*
X127850000Y-101175000I0J-425000D01*
G01*
G37*
%TD.AperFunction*%
%TO.P,JP32,2*%
%TO.N,SCL*%
%TA.AperFunction,ComponentPad*%
G36*
G01*
X127850000Y-98635000D02*
X127850000Y-99485000D01*
G75*
G02*
X127425000Y-99910000I-425000J0D01*
G01*
X126575000Y-99910000D01*
G75*
G02*
X126150000Y-99485000I0J425000D01*
G01*
X126150000Y-98635000D01*
G75*
G02*
X126575000Y-98210000I425000J0D01*
G01*
X127425000Y-98210000D01*
G75*
G02*
X127850000Y-98635000I0J-425000D01*
G01*
G37*
%TD.AperFunction*%
%TO.P,JP32,1*%
%TO.N,SCL_A*%
%TA.AperFunction,ComponentPad*%
G36*
G01*
X127850000Y-96095000D02*
X127850000Y-96945000D01*
G75*
G02*
X127425000Y-97370000I-425000J0D01*
G01*
X126575000Y-97370000D01*
G75*
G02*
X126150000Y-96945000I0J425000D01*
G01*
X126150000Y-96095000D01*
G75*
G02*
X126575000Y-95670000I425000J0D01*
G01*
X127425000Y-95670000D01*
G75*
G02*
X127850000Y-96095000I0J-425000D01*
G01*
G37*
%TD.AperFunction*%
%TD*%
%TO.P,JP33,3*%
%TO.N,SDA_B*%
%TA.AperFunction,ComponentPad*%
G36*
G01*
X125310000Y-101175000D02*
X125310000Y-102025000D01*
G75*
G02*
X124885000Y-102450000I-425000J0D01*
G01*
X124035000Y-102450000D01*
G75*
G02*
X123610000Y-102025000I0J425000D01*
G01*
X123610000Y-101175000D01*
G75*
G02*
X124035000Y-100750000I425000J0D01*
G01*
X124885000Y-100750000D01*
G75*
G02*
X125310000Y-101175000I0J-425000D01*
G01*
G37*
%TD.AperFunction*%
%TO.P,JP33,2*%
%TO.N,SDA*%
%TA.AperFunction,ComponentPad*%
G36*
G01*
X125310000Y-98635000D02*
X125310000Y-99485000D01*
G75*
G02*
X124885000Y-99910000I-425000J0D01*
G01*
X124035000Y-99910000D01*
G75*
G02*
X123610000Y-99485000I0J425000D01*
G01*
X123610000Y-98635000D01*
G75*
G02*
X124035000Y-98210000I425000J0D01*
G01*
X124885000Y-98210000D01*
G75*
G02*
X125310000Y-98635000I0J-425000D01*
G01*
G37*
%TD.AperFunction*%
%TO.P,JP33,1*%
%TO.N,SDA_A*%
%TA.AperFunction,ComponentPad*%
G36*
G01*
X125310000Y-96095000D02*
X125310000Y-96945000D01*
G75*
G02*
X124885000Y-97370000I-425000J0D01*
G01*
X124035000Y-97370000D01*
G75*
G02*
X123610000Y-96945000I0J425000D01*
G01*
X123610000Y-96095000D01*
G75*
G02*
X124035000Y-95670000I425000J0D01*
G01*
X124885000Y-95670000D01*
G75*
G02*
X125310000Y-96095000I0J-425000D01*
G01*
G37*
%TD.AperFunction*%
%TD*%
D13*
%TO.P,JST_PH_BAT1,2*%
%TO.N,GND*%
X110500000Y-101500000D03*
%TO.P,JST_PH_BAT1,1*%
%TO.N,VBAT*%
%TA.AperFunction,ComponentPad*%
G36*
G01*
X109960250Y-98801500D02*
X111039750Y-98801500D01*
G75*
G02*
X111389000Y-99150750I0J-349250D01*
G01*
X111389000Y-99849250D01*
G75*
G02*
X111039750Y-100198500I-349250J0D01*
G01*
X109960250Y-100198500D01*
G75*
G02*
X109611000Y-99849250I0J349250D01*
G01*
X109611000Y-99150750D01*
G75*
G02*
X109960250Y-98801500I349250J0D01*
G01*
G37*
%TD.AperFunction*%
%TD*%
%TO.P,Q30,3*%
%TO.N,SCL_B*%
%TA.AperFunction,SMDPad,CuDef*%
G36*
G01*
X133950000Y-97800000D02*
X133950000Y-98200000D01*
G75*
G02*
X133750000Y-98400000I-200000J0D01*
G01*
X132850000Y-98400000D01*
G75*
G02*
X132650000Y-98200000I0J200000D01*
G01*
X132650000Y-97800000D01*
G75*
G02*
X132850000Y-97600000I200000J0D01*
G01*
X133750000Y-97600000D01*
G75*
G02*
X133950000Y-97800000I0J-200000D01*
G01*
G37*
%TD.AperFunction*%
%TO.P,Q30,2*%
%TO.N,SCL_2V5_B*%
%TA.AperFunction,SMDPad,CuDef*%
G36*
G01*
X136350000Y-96850000D02*
X136350000Y-97250000D01*
G75*
G02*
X136150000Y-97450000I-200000J0D01*
G01*
X135250000Y-97450000D01*
G75*
G02*
X135050000Y-97250000I0J200000D01*
G01*
X135050000Y-96850000D01*
G75*
G02*
X135250000Y-96650000I200000J0D01*
G01*
X136150000Y-96650000D01*
G75*
G02*
X136350000Y-96850000I0J-200000D01*
G01*
G37*
%TD.AperFunction*%
%TO.P,Q30,1*%
%TO.N,2V5*%
%TA.AperFunction,SMDPad,CuDef*%
G36*
G01*
X136350000Y-98750000D02*
X136350000Y-99150000D01*
G75*
G02*
X136150000Y-99350000I-200000J0D01*
G01*
X135250000Y-99350000D01*
G75*
G02*
X135050000Y-99150000I0J200000D01*
G01*
X135050000Y-98750000D01*
G75*
G02*
X135250000Y-98550000I200000J0D01*
G01*
X136150000Y-98550000D01*
G75*
G02*
X136350000Y-98750000I0J-200000D01*
G01*
G37*
%TD.AperFunction*%
%TD*%
%TO.P,Q31,1*%
%TO.N,2V5*%
%TA.AperFunction,SMDPad,CuDef*%
G36*
G01*
X136350000Y-103250000D02*
X136350000Y-103650000D01*
G75*
G02*
X136150000Y-103850000I-200000J0D01*
G01*
X135250000Y-103850000D01*
G75*
G02*
X135050000Y-103650000I0J200000D01*
G01*
X135050000Y-103250000D01*
G75*
G02*
X135250000Y-103050000I200000J0D01*
G01*
X136150000Y-103050000D01*
G75*
G02*
X136350000Y-103250000I0J-200000D01*
G01*
G37*
%TD.AperFunction*%
%TO.P,Q31,2*%
%TO.N,SDA_2V5_B*%
%TA.AperFunction,SMDPad,CuDef*%
G36*
G01*
X136350000Y-101350000D02*
X136350000Y-101750000D01*
G75*
G02*
X136150000Y-101950000I-200000J0D01*
G01*
X135250000Y-101950000D01*
G75*
G02*
X135050000Y-101750000I0J200000D01*
G01*
X135050000Y-101350000D01*
G75*
G02*
X135250000Y-101150000I200000J0D01*
G01*
X136150000Y-101150000D01*
G75*
G02*
X136350000Y-101350000I0J-200000D01*
G01*
G37*
%TD.AperFunction*%
%TO.P,Q31,3*%
%TO.N,SDA_B*%
%TA.AperFunction,SMDPad,CuDef*%
G36*
G01*
X133950000Y-102300000D02*
X133950000Y-102700000D01*
G75*
G02*
X133750000Y-102900000I-200000J0D01*
G01*
X132850000Y-102900000D01*
G75*
G02*
X132650000Y-102700000I0J200000D01*
G01*
X132650000Y-102300000D01*
G75*
G02*
X132850000Y-102100000I200000J0D01*
G01*
X133750000Y-102100000D01*
G75*
G02*
X133950000Y-102300000I0J-200000D01*
G01*
G37*
%TD.AperFunction*%
%TD*%
%TO.P,R1,2*%
%TO.N,Net-(D1-Pad1)*%
%TA.AperFunction,SMDPad,CuDef*%
G36*
G01*
X158395000Y-98500000D02*
X157645000Y-98500000D01*
G75*
G02*
X157370000Y-98225000I0J275000D01*
G01*
X157370000Y-97675000D01*
G75*
G02*
X157645000Y-97400000I275000J0D01*
G01*
X158395000Y-97400000D01*
G75*
G02*
X158670000Y-97675000I0J-275000D01*
G01*
X158670000Y-98225000D01*
G75*
G02*
X158395000Y-98500000I-275000J0D01*
G01*
G37*
%TD.AperFunction*%
%TO.P,R1,1*%
%TO.N,GND*%
%TA.AperFunction,SMDPad,CuDef*%
G36*
G01*
X158395000Y-100800000D02*
X157645000Y-100800000D01*
G75*
G02*
X157370000Y-100525000I0J275000D01*
G01*
X157370000Y-99975000D01*
G75*
G02*
X157645000Y-99700000I275000J0D01*
G01*
X158395000Y-99700000D01*
G75*
G02*
X158670000Y-99975000I0J-275000D01*
G01*
X158670000Y-100525000D01*
G75*
G02*
X158395000Y-100800000I-275000J0D01*
G01*
G37*
%TD.AperFunction*%
%TD*%
%TO.P,R2,2*%
%TO.N,Net-(D2-Pad1)*%
%TA.AperFunction,SMDPad,CuDef*%
G36*
G01*
X155855000Y-98500000D02*
X155105000Y-98500000D01*
G75*
G02*
X154830000Y-98225000I0J275000D01*
G01*
X154830000Y-97675000D01*
G75*
G02*
X155105000Y-97400000I275000J0D01*
G01*
X155855000Y-97400000D01*
G75*
G02*
X156130000Y-97675000I0J-275000D01*
G01*
X156130000Y-98225000D01*
G75*
G02*
X155855000Y-98500000I-275000J0D01*
G01*
G37*
%TD.AperFunction*%
%TO.P,R2,1*%
%TO.N,GND*%
%TA.AperFunction,SMDPad,CuDef*%
G36*
G01*
X155855000Y-100800000D02*
X155105000Y-100800000D01*
G75*
G02*
X154830000Y-100525000I0J275000D01*
G01*
X154830000Y-99975000D01*
G75*
G02*
X155105000Y-99700000I275000J0D01*
G01*
X155855000Y-99700000D01*
G75*
G02*
X156130000Y-99975000I0J-275000D01*
G01*
X156130000Y-100525000D01*
G75*
G02*
X155855000Y-100800000I-275000J0D01*
G01*
G37*
%TD.AperFunction*%
%TD*%
%TO.P,R3,1*%
%TO.N,GND*%
%TA.AperFunction,SMDPad,CuDef*%
G36*
G01*
X153315000Y-100800000D02*
X152565000Y-100800000D01*
G75*
G02*
X152290000Y-100525000I0J275000D01*
G01*
X152290000Y-99975000D01*
G75*
G02*
X152565000Y-99700000I275000J0D01*
G01*
X153315000Y-99700000D01*
G75*
G02*
X153590000Y-99975000I0J-275000D01*
G01*
X153590000Y-100525000D01*
G75*
G02*
X153315000Y-100800000I-275000J0D01*
G01*
G37*
%TD.AperFunction*%
%TO.P,R3,2*%
%TO.N,Net-(D3-Pad1)*%
%TA.AperFunction,SMDPad,CuDef*%
G36*
G01*
X153315000Y-98500000D02*
X152565000Y-98500000D01*
G75*
G02*
X152290000Y-98225000I0J275000D01*
G01*
X152290000Y-97675000D01*
G75*
G02*
X152565000Y-97400000I275000J0D01*
G01*
X153315000Y-97400000D01*
G75*
G02*
X153590000Y-97675000I0J-275000D01*
G01*
X153590000Y-98225000D01*
G75*
G02*
X153315000Y-98500000I-275000J0D01*
G01*
G37*
%TD.AperFunction*%
%TD*%
%TO.P,R4,1*%
%TO.N,Net-(J2-Pad1)*%
%TA.AperFunction,SMDPad,CuDef*%
G36*
G01*
X162443750Y-91675000D02*
X162956250Y-91675000D01*
G75*
G02*
X163175000Y-91893750I0J-218750D01*
G01*
X163175000Y-92331250D01*
G75*
G02*
X162956250Y-92550000I-218750J0D01*
G01*
X162443750Y-92550000D01*
G75*
G02*
X162225000Y-92331250I0J218750D01*
G01*
X162225000Y-91893750D01*
G75*
G02*
X162443750Y-91675000I218750J0D01*
G01*
G37*
%TD.AperFunction*%
%TO.P,R4,2*%
%TO.N,UPDI_2V5*%
%TA.AperFunction,SMDPad,CuDef*%
G36*
G01*
X162443750Y-93250000D02*
X162956250Y-93250000D01*
G75*
G02*
X163175000Y-93468750I0J-218750D01*
G01*
X163175000Y-93906250D01*
G75*
G02*
X162956250Y-94125000I-218750J0D01*
G01*
X162443750Y-94125000D01*
G75*
G02*
X162225000Y-93906250I0J218750D01*
G01*
X162225000Y-93468750D01*
G75*
G02*
X162443750Y-93250000I218750J0D01*
G01*
G37*
%TD.AperFunction*%
%TD*%
%TO.P,R5,1*%
%TO.N,VCTRL*%
%TA.AperFunction,SMDPad,CuDef*%
G36*
G01*
X136725000Y-85243750D02*
X136725000Y-85756250D01*
G75*
G02*
X136506250Y-85975000I-218750J0D01*
G01*
X136068750Y-85975000D01*
G75*
G02*
X135850000Y-85756250I0J218750D01*
G01*
X135850000Y-85243750D01*
G75*
G02*
X136068750Y-85025000I218750J0D01*
G01*
X136506250Y-85025000D01*
G75*
G02*
X136725000Y-85243750I0J-218750D01*
G01*
G37*
%TD.AperFunction*%
%TO.P,R5,2*%
%TO.N,GND*%
%TA.AperFunction,SMDPad,CuDef*%
G36*
G01*
X135150000Y-85243750D02*
X135150000Y-85756250D01*
G75*
G02*
X134931250Y-85975000I-218750J0D01*
G01*
X134493750Y-85975000D01*
G75*
G02*
X134275000Y-85756250I0J218750D01*
G01*
X134275000Y-85243750D01*
G75*
G02*
X134493750Y-85025000I218750J0D01*
G01*
X134931250Y-85025000D01*
G75*
G02*
X135150000Y-85243750I0J-218750D01*
G01*
G37*
%TD.AperFunction*%
%TD*%
%TO.P,R6,2*%
%TO.N,VBAT_ADC_A*%
%TA.AperFunction,SMDPad,CuDef*%
G36*
G01*
X140743750Y-81850000D02*
X141256250Y-81850000D01*
G75*
G02*
X141475000Y-82068750I0J-218750D01*
G01*
X141475000Y-82506250D01*
G75*
G02*
X141256250Y-82725000I-218750J0D01*
G01*
X140743750Y-82725000D01*
G75*
G02*
X140525000Y-82506250I0J218750D01*
G01*
X140525000Y-82068750D01*
G75*
G02*
X140743750Y-81850000I218750J0D01*
G01*
G37*
%TD.AperFunction*%
%TO.P,R6,1*%
%TO.N,Net-(C6-Pad1)*%
%TA.AperFunction,SMDPad,CuDef*%
G36*
G01*
X140743750Y-80275000D02*
X141256250Y-80275000D01*
G75*
G02*
X141475000Y-80493750I0J-218750D01*
G01*
X141475000Y-80931250D01*
G75*
G02*
X141256250Y-81150000I-218750J0D01*
G01*
X140743750Y-81150000D01*
G75*
G02*
X140525000Y-80931250I0J218750D01*
G01*
X140525000Y-80493750D01*
G75*
G02*
X140743750Y-80275000I218750J0D01*
G01*
G37*
%TD.AperFunction*%
%TD*%
%TO.P,R7,1*%
%TO.N,VBAT_ADC_A*%
%TA.AperFunction,SMDPad,CuDef*%
G36*
G01*
X143256250Y-82725000D02*
X142743750Y-82725000D01*
G75*
G02*
X142525000Y-82506250I0J218750D01*
G01*
X142525000Y-82068750D01*
G75*
G02*
X142743750Y-81850000I218750J0D01*
G01*
X143256250Y-81850000D01*
G75*
G02*
X143475000Y-82068750I0J-218750D01*
G01*
X143475000Y-82506250D01*
G75*
G02*
X143256250Y-82725000I-218750J0D01*
G01*
G37*
%TD.AperFunction*%
%TO.P,R7,2*%
%TO.N,GND*%
%TA.AperFunction,SMDPad,CuDef*%
G36*
G01*
X143256250Y-81150000D02*
X142743750Y-81150000D01*
G75*
G02*
X142525000Y-80931250I0J218750D01*
G01*
X142525000Y-80493750D01*
G75*
G02*
X142743750Y-80275000I218750J0D01*
G01*
X143256250Y-80275000D01*
G75*
G02*
X143475000Y-80493750I0J-218750D01*
G01*
X143475000Y-80931250D01*
G75*
G02*
X143256250Y-81150000I-218750J0D01*
G01*
G37*
%TD.AperFunction*%
%TD*%
%TO.P,R20,2*%
%TO.N,Net-(J20-Pad3)*%
%TA.AperFunction,SMDPad,CuDef*%
G36*
G01*
X192310000Y-97256250D02*
X192310000Y-96743750D01*
G75*
G02*
X192528750Y-96525000I218750J0D01*
G01*
X192966250Y-96525000D01*
G75*
G02*
X193185000Y-96743750I0J-218750D01*
G01*
X193185000Y-97256250D01*
G75*
G02*
X192966250Y-97475000I-218750J0D01*
G01*
X192528750Y-97475000D01*
G75*
G02*
X192310000Y-97256250I0J218750D01*
G01*
G37*
%TD.AperFunction*%
%TO.P,R20,1*%
%TO.N,UPDI*%
%TA.AperFunction,SMDPad,CuDef*%
G36*
G01*
X190735000Y-97256250D02*
X190735000Y-96743750D01*
G75*
G02*
X190953750Y-96525000I218750J0D01*
G01*
X191391250Y-96525000D01*
G75*
G02*
X191610000Y-96743750I0J-218750D01*
G01*
X191610000Y-97256250D01*
G75*
G02*
X191391250Y-97475000I-218750J0D01*
G01*
X190953750Y-97475000D01*
G75*
G02*
X190735000Y-97256250I0J218750D01*
G01*
G37*
%TD.AperFunction*%
%TD*%
%TO.P,R30,2*%
%TO.N,SCL_2V5_B*%
%TA.AperFunction,SMDPad,CuDef*%
G36*
G01*
X138756250Y-97650000D02*
X138243750Y-97650000D01*
G75*
G02*
X138025000Y-97431250I0J218750D01*
G01*
X138025000Y-96993750D01*
G75*
G02*
X138243750Y-96775000I218750J0D01*
G01*
X138756250Y-96775000D01*
G75*
G02*
X138975000Y-96993750I0J-218750D01*
G01*
X138975000Y-97431250D01*
G75*
G02*
X138756250Y-97650000I-218750J0D01*
G01*
G37*
%TD.AperFunction*%
%TO.P,R30,1*%
%TO.N,2V5*%
%TA.AperFunction,SMDPad,CuDef*%
G36*
G01*
X138756250Y-99225000D02*
X138243750Y-99225000D01*
G75*
G02*
X138025000Y-99006250I0J218750D01*
G01*
X138025000Y-98568750D01*
G75*
G02*
X138243750Y-98350000I218750J0D01*
G01*
X138756250Y-98350000D01*
G75*
G02*
X138975000Y-98568750I0J-218750D01*
G01*
X138975000Y-99006250D01*
G75*
G02*
X138756250Y-99225000I-218750J0D01*
G01*
G37*
%TD.AperFunction*%
%TD*%
%TO.P,R31,1*%
%TO.N,VBAT*%
%TA.AperFunction,SMDPad,CuDef*%
G36*
G01*
X130756250Y-99225000D02*
X130243750Y-99225000D01*
G75*
G02*
X130025000Y-99006250I0J218750D01*
G01*
X130025000Y-98568750D01*
G75*
G02*
X130243750Y-98350000I218750J0D01*
G01*
X130756250Y-98350000D01*
G75*
G02*
X130975000Y-98568750I0J-218750D01*
G01*
X130975000Y-99006250D01*
G75*
G02*
X130756250Y-99225000I-218750J0D01*
G01*
G37*
%TD.AperFunction*%
%TO.P,R31,2*%
%TO.N,SCL_B*%
%TA.AperFunction,SMDPad,CuDef*%
G36*
G01*
X130756250Y-97650000D02*
X130243750Y-97650000D01*
G75*
G02*
X130025000Y-97431250I0J218750D01*
G01*
X130025000Y-96993750D01*
G75*
G02*
X130243750Y-96775000I218750J0D01*
G01*
X130756250Y-96775000D01*
G75*
G02*
X130975000Y-96993750I0J-218750D01*
G01*
X130975000Y-97431250D01*
G75*
G02*
X130756250Y-97650000I-218750J0D01*
G01*
G37*
%TD.AperFunction*%
%TD*%
%TO.P,R32,2*%
%TO.N,SDA_2V5_B*%
%TA.AperFunction,SMDPad,CuDef*%
G36*
G01*
X138756250Y-102150000D02*
X138243750Y-102150000D01*
G75*
G02*
X138025000Y-101931250I0J218750D01*
G01*
X138025000Y-101493750D01*
G75*
G02*
X138243750Y-101275000I218750J0D01*
G01*
X138756250Y-101275000D01*
G75*
G02*
X138975000Y-101493750I0J-218750D01*
G01*
X138975000Y-101931250D01*
G75*
G02*
X138756250Y-102150000I-218750J0D01*
G01*
G37*
%TD.AperFunction*%
%TO.P,R32,1*%
%TO.N,2V5*%
%TA.AperFunction,SMDPad,CuDef*%
G36*
G01*
X138756250Y-103725000D02*
X138243750Y-103725000D01*
G75*
G02*
X138025000Y-103506250I0J218750D01*
G01*
X138025000Y-103068750D01*
G75*
G02*
X138243750Y-102850000I218750J0D01*
G01*
X138756250Y-102850000D01*
G75*
G02*
X138975000Y-103068750I0J-218750D01*
G01*
X138975000Y-103506250D01*
G75*
G02*
X138756250Y-103725000I-218750J0D01*
G01*
G37*
%TD.AperFunction*%
%TD*%
%TO.P,R33,1*%
%TO.N,VBAT*%
%TA.AperFunction,SMDPad,CuDef*%
G36*
G01*
X130756250Y-103725000D02*
X130243750Y-103725000D01*
G75*
G02*
X130025000Y-103506250I0J218750D01*
G01*
X130025000Y-103068750D01*
G75*
G02*
X130243750Y-102850000I218750J0D01*
G01*
X130756250Y-102850000D01*
G75*
G02*
X130975000Y-103068750I0J-218750D01*
G01*
X130975000Y-103506250D01*
G75*
G02*
X130756250Y-103725000I-218750J0D01*
G01*
G37*
%TD.AperFunction*%
%TO.P,R33,2*%
%TO.N,SDA_B*%
%TA.AperFunction,SMDPad,CuDef*%
G36*
G01*
X130756250Y-102150000D02*
X130243750Y-102150000D01*
G75*
G02*
X130025000Y-101931250I0J218750D01*
G01*
X130025000Y-101493750D01*
G75*
G02*
X130243750Y-101275000I218750J0D01*
G01*
X130756250Y-101275000D01*
G75*
G02*
X130975000Y-101493750I0J-218750D01*
G01*
X130975000Y-101931250D01*
G75*
G02*
X130756250Y-102150000I-218750J0D01*
G01*
G37*
%TD.AperFunction*%
%TD*%
%TO.P,SW1,2*%
%TO.N,Net-(SW1-Pad2)*%
%TA.AperFunction,SMDPad,CuDef*%
G36*
G01*
X158400000Y-103900000D02*
X158400000Y-103100000D01*
G75*
G02*
X158800000Y-102700000I400000J0D01*
G01*
X160000000Y-102700000D01*
G75*
G02*
X160400000Y-103100000I0J-400000D01*
G01*
X160400000Y-103900000D01*
G75*
G02*
X160000000Y-104300000I-400000J0D01*
G01*
X158800000Y-104300000D01*
G75*
G02*
X158400000Y-103900000I0J400000D01*
G01*
G37*
%TD.AperFunction*%
%TO.P,SW1,1*%
%TO.N,GND*%
%TA.AperFunction,SMDPad,CuDef*%
G36*
G01*
X150600000Y-103900000D02*
X150600000Y-103100000D01*
G75*
G02*
X151000000Y-102700000I400000J0D01*
G01*
X152200000Y-102700000D01*
G75*
G02*
X152600000Y-103100000I0J-400000D01*
G01*
X152600000Y-103900000D01*
G75*
G02*
X152200000Y-104300000I-400000J0D01*
G01*
X151000000Y-104300000D01*
G75*
G02*
X150600000Y-103900000I0J400000D01*
G01*
G37*
%TD.AperFunction*%
%TD*%
%TO.P,U1,5*%
%TO.N,2V5*%
%TA.AperFunction,SMDPad,CuDef*%
G36*
G01*
X136070000Y-74712500D02*
X136070000Y-74387500D01*
G75*
G02*
X136232500Y-74225000I162500J0D01*
G01*
X137367500Y-74225000D01*
G75*
G02*
X137530000Y-74387500I0J-162500D01*
G01*
X137530000Y-74712500D01*
G75*
G02*
X137367500Y-74875000I-162500J0D01*
G01*
X136232500Y-74875000D01*
G75*
G02*
X136070000Y-74712500I0J162500D01*
G01*
G37*
%TD.AperFunction*%
%TO.P,U1,4*%
%TO.N,Net-(U1-Pad4)*%
%TA.AperFunction,SMDPad,CuDef*%
G36*
G01*
X136070000Y-76612500D02*
X136070000Y-76287500D01*
G75*
G02*
X136232500Y-76125000I162500J0D01*
G01*
X137367500Y-76125000D01*
G75*
G02*
X137530000Y-76287500I0J-162500D01*
G01*
X137530000Y-76612500D01*
G75*
G02*
X137367500Y-76775000I-162500J0D01*
G01*
X136232500Y-76775000D01*
G75*
G02*
X136070000Y-76612500I0J162500D01*
G01*
G37*
%TD.AperFunction*%
%TO.P,U1,3*%
%TO.N,VBAT*%
%TA.AperFunction,SMDPad,CuDef*%
G36*
G01*
X133470000Y-76612500D02*
X133470000Y-76287500D01*
G75*
G02*
X133632500Y-76125000I162500J0D01*
G01*
X134767500Y-76125000D01*
G75*
G02*
X134930000Y-76287500I0J-162500D01*
G01*
X134930000Y-76612500D01*
G75*
G02*
X134767500Y-76775000I-162500J0D01*
G01*
X133632500Y-76775000D01*
G75*
G02*
X133470000Y-76612500I0J162500D01*
G01*
G37*
%TD.AperFunction*%
%TO.P,U1,2*%
%TO.N,GND*%
%TA.AperFunction,SMDPad,CuDef*%
G36*
G01*
X133470000Y-75662500D02*
X133470000Y-75337500D01*
G75*
G02*
X133632500Y-75175000I162500J0D01*
G01*
X134767500Y-75175000D01*
G75*
G02*
X134930000Y-75337500I0J-162500D01*
G01*
X134930000Y-75662500D01*
G75*
G02*
X134767500Y-75825000I-162500J0D01*
G01*
X133632500Y-75825000D01*
G75*
G02*
X133470000Y-75662500I0J162500D01*
G01*
G37*
%TD.AperFunction*%
%TO.P,U1,1*%
%TO.N,VBAT*%
%TA.AperFunction,SMDPad,CuDef*%
G36*
G01*
X133470000Y-74712500D02*
X133470000Y-74387500D01*
G75*
G02*
X133632500Y-74225000I162500J0D01*
G01*
X134767500Y-74225000D01*
G75*
G02*
X134930000Y-74387500I0J-162500D01*
G01*
X134930000Y-74712500D01*
G75*
G02*
X134767500Y-74875000I-162500J0D01*
G01*
X133632500Y-74875000D01*
G75*
G02*
X133470000Y-74712500I0J162500D01*
G01*
G37*
%TD.AperFunction*%
%TD*%
%TO.P,U2,14*%
%TO.N,GND*%
%TA.AperFunction,SMDPad,CuDef*%
G36*
G01*
X155950000Y-76540000D02*
X155950000Y-76240000D01*
G75*
G02*
X156100000Y-76090000I150000J0D01*
G01*
X157800000Y-76090000D01*
G75*
G02*
X157950000Y-76240000I0J-150000D01*
G01*
X157950000Y-76540000D01*
G75*
G02*
X157800000Y-76690000I-150000J0D01*
G01*
X156100000Y-76690000D01*
G75*
G02*
X155950000Y-76540000I0J150000D01*
G01*
G37*
%TD.AperFunction*%
%TO.P,U2,13*%
%TO.N,Net-(D1-Pad2)*%
%TA.AperFunction,SMDPad,CuDef*%
G36*
G01*
X155950000Y-77810000D02*
X155950000Y-77510000D01*
G75*
G02*
X156100000Y-77360000I150000J0D01*
G01*
X157800000Y-77360000D01*
G75*
G02*
X157950000Y-77510000I0J-150000D01*
G01*
X157950000Y-77810000D01*
G75*
G02*
X157800000Y-77960000I-150000J0D01*
G01*
X156100000Y-77960000D01*
G75*
G02*
X155950000Y-77810000I0J150000D01*
G01*
G37*
%TD.AperFunction*%
%TO.P,U2,12*%
%TO.N,Net-(D2-Pad2)*%
%TA.AperFunction,SMDPad,CuDef*%
G36*
G01*
X155950000Y-79080000D02*
X155950000Y-78780000D01*
G75*
G02*
X156100000Y-78630000I150000J0D01*
G01*
X157800000Y-78630000D01*
G75*
G02*
X157950000Y-78780000I0J-150000D01*
G01*
X157950000Y-79080000D01*
G75*
G02*
X157800000Y-79230000I-150000J0D01*
G01*
X156100000Y-79230000D01*
G75*
G02*
X155950000Y-79080000I0J150000D01*
G01*
G37*
%TD.AperFunction*%
%TO.P,U2,11*%
%TO.N,Net-(D3-Pad2)*%
%TA.AperFunction,SMDPad,CuDef*%
G36*
G01*
X155950000Y-80350000D02*
X155950000Y-80050000D01*
G75*
G02*
X156100000Y-79900000I150000J0D01*
G01*
X157800000Y-79900000D01*
G75*
G02*
X157950000Y-80050000I0J-150000D01*
G01*
X157950000Y-80350000D01*
G75*
G02*
X157800000Y-80500000I-150000J0D01*
G01*
X156100000Y-80500000D01*
G75*
G02*
X155950000Y-80350000I0J150000D01*
G01*
G37*
%TD.AperFunction*%
%TO.P,U2,10*%
%TO.N,Net-(J2-Pad1)*%
%TA.AperFunction,SMDPad,CuDef*%
G36*
G01*
X155950000Y-81620000D02*
X155950000Y-81320000D01*
G75*
G02*
X156100000Y-81170000I150000J0D01*
G01*
X157800000Y-81170000D01*
G75*
G02*
X157950000Y-81320000I0J-150000D01*
G01*
X157950000Y-81620000D01*
G75*
G02*
X157800000Y-81770000I-150000J0D01*
G01*
X156100000Y-81770000D01*
G75*
G02*
X155950000Y-81620000I0J150000D01*
G01*
G37*
%TD.AperFunction*%
%TO.P,U2,9*%
%TO.N,SCL_2V5*%
%TA.AperFunction,SMDPad,CuDef*%
G36*
G01*
X155950000Y-82890000D02*
X155950000Y-82590000D01*
G75*
G02*
X156100000Y-82440000I150000J0D01*
G01*
X157800000Y-82440000D01*
G75*
G02*
X157950000Y-82590000I0J-150000D01*
G01*
X157950000Y-82890000D01*
G75*
G02*
X157800000Y-83040000I-150000J0D01*
G01*
X156100000Y-83040000D01*
G75*
G02*
X155950000Y-82890000I0J150000D01*
G01*
G37*
%TD.AperFunction*%
%TO.P,U2,8*%
%TO.N,SDA_2V5*%
%TA.AperFunction,SMDPad,CuDef*%
G36*
G01*
X155950000Y-84160000D02*
X155950000Y-83860000D01*
G75*
G02*
X156100000Y-83710000I150000J0D01*
G01*
X157800000Y-83710000D01*
G75*
G02*
X157950000Y-83860000I0J-150000D01*
G01*
X157950000Y-84160000D01*
G75*
G02*
X157800000Y-84310000I-150000J0D01*
G01*
X156100000Y-84310000D01*
G75*
G02*
X155950000Y-84160000I0J150000D01*
G01*
G37*
%TD.AperFunction*%
%TO.P,U2,7*%
%TO.N,TX_2V5*%
%TA.AperFunction,SMDPad,CuDef*%
G36*
G01*
X150050000Y-84160000D02*
X150050000Y-83860000D01*
G75*
G02*
X150200000Y-83710000I150000J0D01*
G01*
X151900000Y-83710000D01*
G75*
G02*
X152050000Y-83860000I0J-150000D01*
G01*
X152050000Y-84160000D01*
G75*
G02*
X151900000Y-84310000I-150000J0D01*
G01*
X150200000Y-84310000D01*
G75*
G02*
X150050000Y-84160000I0J150000D01*
G01*
G37*
%TD.AperFunction*%
%TO.P,U2,6*%
%TO.N,RX_2V5*%
%TA.AperFunction,SMDPad,CuDef*%
G36*
G01*
X150050000Y-82890000D02*
X150050000Y-82590000D01*
G75*
G02*
X150200000Y-82440000I150000J0D01*
G01*
X151900000Y-82440000D01*
G75*
G02*
X152050000Y-82590000I0J-150000D01*
G01*
X152050000Y-82890000D01*
G75*
G02*
X151900000Y-83040000I-150000J0D01*
G01*
X150200000Y-83040000D01*
G75*
G02*
X150050000Y-82890000I0J150000D01*
G01*
G37*
%TD.AperFunction*%
%TO.P,U2,5*%
%TO.N,VCTRL*%
%TA.AperFunction,SMDPad,CuDef*%
G36*
G01*
X150050000Y-81620000D02*
X150050000Y-81320000D01*
G75*
G02*
X150200000Y-81170000I150000J0D01*
G01*
X151900000Y-81170000D01*
G75*
G02*
X152050000Y-81320000I0J-150000D01*
G01*
X152050000Y-81620000D01*
G75*
G02*
X151900000Y-81770000I-150000J0D01*
G01*
X150200000Y-81770000D01*
G75*
G02*
X150050000Y-81620000I0J150000D01*
G01*
G37*
%TD.AperFunction*%
%TO.P,U2,4*%
%TO.N,Net-(SW1-Pad2)*%
%TA.AperFunction,SMDPad,CuDef*%
G36*
G01*
X150050000Y-80350000D02*
X150050000Y-80050000D01*
G75*
G02*
X150200000Y-79900000I150000J0D01*
G01*
X151900000Y-79900000D01*
G75*
G02*
X152050000Y-80050000I0J-150000D01*
G01*
X152050000Y-80350000D01*
G75*
G02*
X151900000Y-80500000I-150000J0D01*
G01*
X150200000Y-80500000D01*
G75*
G02*
X150050000Y-80350000I0J150000D01*
G01*
G37*
%TD.AperFunction*%
%TO.P,U2,3*%
%TO.N,Net-(U2-Pad3)*%
%TA.AperFunction,SMDPad,CuDef*%
G36*
G01*
X150050000Y-79080000D02*
X150050000Y-78780000D01*
G75*
G02*
X150200000Y-78630000I150000J0D01*
G01*
X151900000Y-78630000D01*
G75*
G02*
X152050000Y-78780000I0J-150000D01*
G01*
X152050000Y-79080000D01*
G75*
G02*
X151900000Y-79230000I-150000J0D01*
G01*
X150200000Y-79230000D01*
G75*
G02*
X150050000Y-79080000I0J150000D01*
G01*
G37*
%TD.AperFunction*%
%TO.P,U2,2*%
%TO.N,VBAT_ADC*%
%TA.AperFunction,SMDPad,CuDef*%
G36*
G01*
X150050000Y-77810000D02*
X150050000Y-77510000D01*
G75*
G02*
X150200000Y-77360000I150000J0D01*
G01*
X151900000Y-77360000D01*
G75*
G02*
X152050000Y-77510000I0J-150000D01*
G01*
X152050000Y-77810000D01*
G75*
G02*
X151900000Y-77960000I-150000J0D01*
G01*
X150200000Y-77960000D01*
G75*
G02*
X150050000Y-77810000I0J150000D01*
G01*
G37*
%TD.AperFunction*%
%TO.P,U2,1*%
%TO.N,2V5*%
%TA.AperFunction,SMDPad,CuDef*%
G36*
G01*
X150050000Y-76540000D02*
X150050000Y-76240000D01*
G75*
G02*
X150200000Y-76090000I150000J0D01*
G01*
X151900000Y-76090000D01*
G75*
G02*
X152050000Y-76240000I0J-150000D01*
G01*
X152050000Y-76540000D01*
G75*
G02*
X151900000Y-76690000I-150000J0D01*
G01*
X150200000Y-76690000D01*
G75*
G02*
X150050000Y-76540000I0J150000D01*
G01*
G37*
%TD.AperFunction*%
%TD*%
%TO.P,U5,1*%
%TO.N,Net-(U5-Pad1)*%
%TA.AperFunction,SMDPad,CuDef*%
G36*
G01*
X137530000Y-83287500D02*
X137530000Y-83612500D01*
G75*
G02*
X137367500Y-83775000I-162500J0D01*
G01*
X136232500Y-83775000D01*
G75*
G02*
X136070000Y-83612500I0J162500D01*
G01*
X136070000Y-83287500D01*
G75*
G02*
X136232500Y-83125000I162500J0D01*
G01*
X137367500Y-83125000D01*
G75*
G02*
X137530000Y-83287500I0J-162500D01*
G01*
G37*
%TD.AperFunction*%
%TO.P,U5,2*%
%TO.N,GND*%
%TA.AperFunction,SMDPad,CuDef*%
G36*
G01*
X137530000Y-82337500D02*
X137530000Y-82662500D01*
G75*
G02*
X137367500Y-82825000I-162500J0D01*
G01*
X136232500Y-82825000D01*
G75*
G02*
X136070000Y-82662500I0J162500D01*
G01*
X136070000Y-82337500D01*
G75*
G02*
X136232500Y-82175000I162500J0D01*
G01*
X137367500Y-82175000D01*
G75*
G02*
X137530000Y-82337500I0J-162500D01*
G01*
G37*
%TD.AperFunction*%
%TO.P,U5,3*%
%TO.N,Net-(C6-Pad1)*%
%TA.AperFunction,SMDPad,CuDef*%
G36*
G01*
X137530000Y-81387500D02*
X137530000Y-81712500D01*
G75*
G02*
X137367500Y-81875000I-162500J0D01*
G01*
X136232500Y-81875000D01*
G75*
G02*
X136070000Y-81712500I0J162500D01*
G01*
X136070000Y-81387500D01*
G75*
G02*
X136232500Y-81225000I162500J0D01*
G01*
X137367500Y-81225000D01*
G75*
G02*
X137530000Y-81387500I0J-162500D01*
G01*
G37*
%TD.AperFunction*%
%TO.P,U5,4*%
%TO.N,VBAT*%
%TA.AperFunction,SMDPad,CuDef*%
G36*
G01*
X134930000Y-81387500D02*
X134930000Y-81712500D01*
G75*
G02*
X134767500Y-81875000I-162500J0D01*
G01*
X133632500Y-81875000D01*
G75*
G02*
X133470000Y-81712500I0J162500D01*
G01*
X133470000Y-81387500D01*
G75*
G02*
X133632500Y-81225000I162500J0D01*
G01*
X134767500Y-81225000D01*
G75*
G02*
X134930000Y-81387500I0J-162500D01*
G01*
G37*
%TD.AperFunction*%
%TO.P,U5,5*%
%TO.N,VCTRL*%
%TA.AperFunction,SMDPad,CuDef*%
G36*
G01*
X134930000Y-83287500D02*
X134930000Y-83612500D01*
G75*
G02*
X134767500Y-83775000I-162500J0D01*
G01*
X133632500Y-83775000D01*
G75*
G02*
X133470000Y-83612500I0J162500D01*
G01*
X133470000Y-83287500D01*
G75*
G02*
X133632500Y-83125000I162500J0D01*
G01*
X134767500Y-83125000D01*
G75*
G02*
X134930000Y-83287500I0J-162500D01*
G01*
G37*
%TD.AperFunction*%
%TD*%
%TO.P,U10,1*%
%TO.N,2V5*%
%TA.AperFunction,SMDPad,CuDef*%
G36*
G01*
X173010000Y-76340000D02*
X173010000Y-76040000D01*
G75*
G02*
X173160000Y-75890000I150000J0D01*
G01*
X174860000Y-75890000D01*
G75*
G02*
X175010000Y-76040000I0J-150000D01*
G01*
X175010000Y-76340000D01*
G75*
G02*
X174860000Y-76490000I-150000J0D01*
G01*
X173160000Y-76490000D01*
G75*
G02*
X173010000Y-76340000I0J150000D01*
G01*
G37*
%TD.AperFunction*%
%TO.P,U10,2*%
%TO.N,RX_2V5_A*%
%TA.AperFunction,SMDPad,CuDef*%
G36*
G01*
X173010000Y-77610000D02*
X173010000Y-77310000D01*
G75*
G02*
X173160000Y-77160000I150000J0D01*
G01*
X174860000Y-77160000D01*
G75*
G02*
X175010000Y-77310000I0J-150000D01*
G01*
X175010000Y-77610000D01*
G75*
G02*
X174860000Y-77760000I-150000J0D01*
G01*
X173160000Y-77760000D01*
G75*
G02*
X173010000Y-77610000I0J150000D01*
G01*
G37*
%TD.AperFunction*%
%TO.P,U10,3*%
%TO.N,TX_2V5_A*%
%TA.AperFunction,SMDPad,CuDef*%
G36*
G01*
X173010000Y-78880000D02*
X173010000Y-78580000D01*
G75*
G02*
X173160000Y-78430000I150000J0D01*
G01*
X174860000Y-78430000D01*
G75*
G02*
X175010000Y-78580000I0J-150000D01*
G01*
X175010000Y-78880000D01*
G75*
G02*
X174860000Y-79030000I-150000J0D01*
G01*
X173160000Y-79030000D01*
G75*
G02*
X173010000Y-78880000I0J150000D01*
G01*
G37*
%TD.AperFunction*%
%TO.P,U10,4*%
%TO.N,Net-(U10-Pad4)*%
%TA.AperFunction,SMDPad,CuDef*%
G36*
G01*
X173010000Y-80150000D02*
X173010000Y-79850000D01*
G75*
G02*
X173160000Y-79700000I150000J0D01*
G01*
X174860000Y-79700000D01*
G75*
G02*
X175010000Y-79850000I0J-150000D01*
G01*
X175010000Y-80150000D01*
G75*
G02*
X174860000Y-80300000I-150000J0D01*
G01*
X173160000Y-80300000D01*
G75*
G02*
X173010000Y-80150000I0J150000D01*
G01*
G37*
%TD.AperFunction*%
%TO.P,U10,5*%
%TO.N,UPDI_2V5_A*%
%TA.AperFunction,SMDPad,CuDef*%
G36*
G01*
X173010000Y-81420000D02*
X173010000Y-81120000D01*
G75*
G02*
X173160000Y-80970000I150000J0D01*
G01*
X174860000Y-80970000D01*
G75*
G02*
X175010000Y-81120000I0J-150000D01*
G01*
X175010000Y-81420000D01*
G75*
G02*
X174860000Y-81570000I-150000J0D01*
G01*
X173160000Y-81570000D01*
G75*
G02*
X173010000Y-81420000I0J150000D01*
G01*
G37*
%TD.AperFunction*%
%TO.P,U10,6*%
%TO.N,Net-(U10-Pad6)*%
%TA.AperFunction,SMDPad,CuDef*%
G36*
G01*
X173010000Y-82690000D02*
X173010000Y-82390000D01*
G75*
G02*
X173160000Y-82240000I150000J0D01*
G01*
X174860000Y-82240000D01*
G75*
G02*
X175010000Y-82390000I0J-150000D01*
G01*
X175010000Y-82690000D01*
G75*
G02*
X174860000Y-82840000I-150000J0D01*
G01*
X173160000Y-82840000D01*
G75*
G02*
X173010000Y-82690000I0J150000D01*
G01*
G37*
%TD.AperFunction*%
%TO.P,U10,7*%
%TO.N,GND*%
%TA.AperFunction,SMDPad,CuDef*%
G36*
G01*
X173010000Y-83960000D02*
X173010000Y-83660000D01*
G75*
G02*
X173160000Y-83510000I150000J0D01*
G01*
X174860000Y-83510000D01*
G75*
G02*
X175010000Y-83660000I0J-150000D01*
G01*
X175010000Y-83960000D01*
G75*
G02*
X174860000Y-84110000I-150000J0D01*
G01*
X173160000Y-84110000D01*
G75*
G02*
X173010000Y-83960000I0J150000D01*
G01*
G37*
%TD.AperFunction*%
%TO.P,U10,8*%
%TO.N,2V5*%
%TA.AperFunction,SMDPad,CuDef*%
G36*
G01*
X178910000Y-83960000D02*
X178910000Y-83660000D01*
G75*
G02*
X179060000Y-83510000I150000J0D01*
G01*
X180760000Y-83510000D01*
G75*
G02*
X180910000Y-83660000I0J-150000D01*
G01*
X180910000Y-83960000D01*
G75*
G02*
X180760000Y-84110000I-150000J0D01*
G01*
X179060000Y-84110000D01*
G75*
G02*
X178910000Y-83960000I0J150000D01*
G01*
G37*
%TD.AperFunction*%
%TO.P,U10,9*%
%TO.N,Net-(U10-Pad9)*%
%TA.AperFunction,SMDPad,CuDef*%
G36*
G01*
X178910000Y-82690000D02*
X178910000Y-82390000D01*
G75*
G02*
X179060000Y-82240000I150000J0D01*
G01*
X180760000Y-82240000D01*
G75*
G02*
X180910000Y-82390000I0J-150000D01*
G01*
X180910000Y-82690000D01*
G75*
G02*
X180760000Y-82840000I-150000J0D01*
G01*
X179060000Y-82840000D01*
G75*
G02*
X178910000Y-82690000I0J150000D01*
G01*
G37*
%TD.AperFunction*%
%TO.P,U10,10*%
%TO.N,UPDI_A*%
%TA.AperFunction,SMDPad,CuDef*%
G36*
G01*
X178910000Y-81420000D02*
X178910000Y-81120000D01*
G75*
G02*
X179060000Y-80970000I150000J0D01*
G01*
X180760000Y-80970000D01*
G75*
G02*
X180910000Y-81120000I0J-150000D01*
G01*
X180910000Y-81420000D01*
G75*
G02*
X180760000Y-81570000I-150000J0D01*
G01*
X179060000Y-81570000D01*
G75*
G02*
X178910000Y-81420000I0J150000D01*
G01*
G37*
%TD.AperFunction*%
%TO.P,U10,11*%
%TO.N,Net-(U10-Pad11)*%
%TA.AperFunction,SMDPad,CuDef*%
G36*
G01*
X178910000Y-80150000D02*
X178910000Y-79850000D01*
G75*
G02*
X179060000Y-79700000I150000J0D01*
G01*
X180760000Y-79700000D01*
G75*
G02*
X180910000Y-79850000I0J-150000D01*
G01*
X180910000Y-80150000D01*
G75*
G02*
X180760000Y-80300000I-150000J0D01*
G01*
X179060000Y-80300000D01*
G75*
G02*
X178910000Y-80150000I0J150000D01*
G01*
G37*
%TD.AperFunction*%
%TO.P,U10,12*%
%TO.N,TX_A*%
%TA.AperFunction,SMDPad,CuDef*%
G36*
G01*
X178910000Y-78880000D02*
X178910000Y-78580000D01*
G75*
G02*
X179060000Y-78430000I150000J0D01*
G01*
X180760000Y-78430000D01*
G75*
G02*
X180910000Y-78580000I0J-150000D01*
G01*
X180910000Y-78880000D01*
G75*
G02*
X180760000Y-79030000I-150000J0D01*
G01*
X179060000Y-79030000D01*
G75*
G02*
X178910000Y-78880000I0J150000D01*
G01*
G37*
%TD.AperFunction*%
%TO.P,U10,13*%
%TO.N,RX_A*%
%TA.AperFunction,SMDPad,CuDef*%
G36*
G01*
X178910000Y-77610000D02*
X178910000Y-77310000D01*
G75*
G02*
X179060000Y-77160000I150000J0D01*
G01*
X180760000Y-77160000D01*
G75*
G02*
X180910000Y-77310000I0J-150000D01*
G01*
X180910000Y-77610000D01*
G75*
G02*
X180760000Y-77760000I-150000J0D01*
G01*
X179060000Y-77760000D01*
G75*
G02*
X178910000Y-77610000I0J150000D01*
G01*
G37*
%TD.AperFunction*%
%TO.P,U10,14*%
%TO.N,5V*%
%TA.AperFunction,SMDPad,CuDef*%
G36*
G01*
X178910000Y-76340000D02*
X178910000Y-76040000D01*
G75*
G02*
X179060000Y-75890000I150000J0D01*
G01*
X180760000Y-75890000D01*
G75*
G02*
X180910000Y-76040000I0J-150000D01*
G01*
X180910000Y-76340000D01*
G75*
G02*
X180760000Y-76490000I-150000J0D01*
G01*
X179060000Y-76490000D01*
G75*
G02*
X178910000Y-76340000I0J150000D01*
G01*
G37*
%TD.AperFunction*%
%TD*%
%TO.P,U11,1*%
%TO.N,2V5*%
%TA.AperFunction,SMDPad,CuDef*%
G36*
G01*
X174930000Y-87212500D02*
X174930000Y-86887500D01*
G75*
G02*
X175092500Y-86725000I162500J0D01*
G01*
X176227500Y-86725000D01*
G75*
G02*
X176390000Y-86887500I0J-162500D01*
G01*
X176390000Y-87212500D01*
G75*
G02*
X176227500Y-87375000I-162500J0D01*
G01*
X175092500Y-87375000D01*
G75*
G02*
X174930000Y-87212500I0J162500D01*
G01*
G37*
%TD.AperFunction*%
%TO.P,U11,2*%
%TO.N,GND*%
%TA.AperFunction,SMDPad,CuDef*%
G36*
G01*
X174930000Y-88162500D02*
X174930000Y-87837500D01*
G75*
G02*
X175092500Y-87675000I162500J0D01*
G01*
X176227500Y-87675000D01*
G75*
G02*
X176390000Y-87837500I0J-162500D01*
G01*
X176390000Y-88162500D01*
G75*
G02*
X176227500Y-88325000I-162500J0D01*
G01*
X175092500Y-88325000D01*
G75*
G02*
X174930000Y-88162500I0J162500D01*
G01*
G37*
%TD.AperFunction*%
%TO.P,U11,3*%
%TO.N,RX_2V5_B*%
%TA.AperFunction,SMDPad,CuDef*%
G36*
G01*
X174930000Y-89112500D02*
X174930000Y-88787500D01*
G75*
G02*
X175092500Y-88625000I162500J0D01*
G01*
X176227500Y-88625000D01*
G75*
G02*
X176390000Y-88787500I0J-162500D01*
G01*
X176390000Y-89112500D01*
G75*
G02*
X176227500Y-89275000I-162500J0D01*
G01*
X175092500Y-89275000D01*
G75*
G02*
X174930000Y-89112500I0J162500D01*
G01*
G37*
%TD.AperFunction*%
%TO.P,U11,4*%
%TO.N,RX_B*%
%TA.AperFunction,SMDPad,CuDef*%
G36*
G01*
X177530000Y-89112500D02*
X177530000Y-88787500D01*
G75*
G02*
X177692500Y-88625000I162500J0D01*
G01*
X178827500Y-88625000D01*
G75*
G02*
X178990000Y-88787500I0J-162500D01*
G01*
X178990000Y-89112500D01*
G75*
G02*
X178827500Y-89275000I-162500J0D01*
G01*
X177692500Y-89275000D01*
G75*
G02*
X177530000Y-89112500I0J162500D01*
G01*
G37*
%TD.AperFunction*%
%TO.P,U11,6*%
%TO.N,5V*%
%TA.AperFunction,SMDPad,CuDef*%
G36*
G01*
X177530000Y-87212500D02*
X177530000Y-86887500D01*
G75*
G02*
X177692500Y-86725000I162500J0D01*
G01*
X178827500Y-86725000D01*
G75*
G02*
X178990000Y-86887500I0J-162500D01*
G01*
X178990000Y-87212500D01*
G75*
G02*
X178827500Y-87375000I-162500J0D01*
G01*
X177692500Y-87375000D01*
G75*
G02*
X177530000Y-87212500I0J162500D01*
G01*
G37*
%TD.AperFunction*%
%TO.P,U11,5*%
%TO.N,GND*%
%TA.AperFunction,SMDPad,CuDef*%
G36*
G01*
X177530000Y-88162500D02*
X177530000Y-87837500D01*
G75*
G02*
X177692500Y-87675000I162500J0D01*
G01*
X178827500Y-87675000D01*
G75*
G02*
X178990000Y-87837500I0J-162500D01*
G01*
X178990000Y-88162500D01*
G75*
G02*
X178827500Y-88325000I-162500J0D01*
G01*
X177692500Y-88325000D01*
G75*
G02*
X177530000Y-88162500I0J162500D01*
G01*
G37*
%TD.AperFunction*%
%TD*%
%TO.P,U12,5*%
%TO.N,2V5*%
%TA.AperFunction,SMDPad,CuDef*%
G36*
G01*
X177530000Y-93662500D02*
X177530000Y-93337500D01*
G75*
G02*
X177692500Y-93175000I162500J0D01*
G01*
X178827500Y-93175000D01*
G75*
G02*
X178990000Y-93337500I0J-162500D01*
G01*
X178990000Y-93662500D01*
G75*
G02*
X178827500Y-93825000I-162500J0D01*
G01*
X177692500Y-93825000D01*
G75*
G02*
X177530000Y-93662500I0J162500D01*
G01*
G37*
%TD.AperFunction*%
%TO.P,U12,6*%
%TO.N,5V*%
%TA.AperFunction,SMDPad,CuDef*%
G36*
G01*
X177530000Y-92712500D02*
X177530000Y-92387500D01*
G75*
G02*
X177692500Y-92225000I162500J0D01*
G01*
X178827500Y-92225000D01*
G75*
G02*
X178990000Y-92387500I0J-162500D01*
G01*
X178990000Y-92712500D01*
G75*
G02*
X178827500Y-92875000I-162500J0D01*
G01*
X177692500Y-92875000D01*
G75*
G02*
X177530000Y-92712500I0J162500D01*
G01*
G37*
%TD.AperFunction*%
%TO.P,U12,4*%
%TO.N,TX_B*%
%TA.AperFunction,SMDPad,CuDef*%
G36*
G01*
X177530000Y-94612500D02*
X177530000Y-94287500D01*
G75*
G02*
X177692500Y-94125000I162500J0D01*
G01*
X178827500Y-94125000D01*
G75*
G02*
X178990000Y-94287500I0J-162500D01*
G01*
X178990000Y-94612500D01*
G75*
G02*
X178827500Y-94775000I-162500J0D01*
G01*
X177692500Y-94775000D01*
G75*
G02*
X177530000Y-94612500I0J162500D01*
G01*
G37*
%TD.AperFunction*%
%TO.P,U12,3*%
%TO.N,TX_2V5_B*%
%TA.AperFunction,SMDPad,CuDef*%
G36*
G01*
X174930000Y-94612500D02*
X174930000Y-94287500D01*
G75*
G02*
X175092500Y-94125000I162500J0D01*
G01*
X176227500Y-94125000D01*
G75*
G02*
X176390000Y-94287500I0J-162500D01*
G01*
X176390000Y-94612500D01*
G75*
G02*
X176227500Y-94775000I-162500J0D01*
G01*
X175092500Y-94775000D01*
G75*
G02*
X174930000Y-94612500I0J162500D01*
G01*
G37*
%TD.AperFunction*%
%TO.P,U12,2*%
%TO.N,GND*%
%TA.AperFunction,SMDPad,CuDef*%
G36*
G01*
X174930000Y-93662500D02*
X174930000Y-93337500D01*
G75*
G02*
X175092500Y-93175000I162500J0D01*
G01*
X176227500Y-93175000D01*
G75*
G02*
X176390000Y-93337500I0J-162500D01*
G01*
X176390000Y-93662500D01*
G75*
G02*
X176227500Y-93825000I-162500J0D01*
G01*
X175092500Y-93825000D01*
G75*
G02*
X174930000Y-93662500I0J162500D01*
G01*
G37*
%TD.AperFunction*%
%TO.P,U12,1*%
%TO.N,2V5*%
%TA.AperFunction,SMDPad,CuDef*%
G36*
G01*
X174930000Y-92712500D02*
X174930000Y-92387500D01*
G75*
G02*
X175092500Y-92225000I162500J0D01*
G01*
X176227500Y-92225000D01*
G75*
G02*
X176390000Y-92387500I0J-162500D01*
G01*
X176390000Y-92712500D01*
G75*
G02*
X176227500Y-92875000I-162500J0D01*
G01*
X175092500Y-92875000D01*
G75*
G02*
X174930000Y-92712500I0J162500D01*
G01*
G37*
%TD.AperFunction*%
%TD*%
%TO.P,U20,5*%
%TO.N,UPDI_B*%
%TA.AperFunction,SMDPad,CuDef*%
G36*
G01*
X177530000Y-100162500D02*
X177530000Y-99837500D01*
G75*
G02*
X177692500Y-99675000I162500J0D01*
G01*
X178827500Y-99675000D01*
G75*
G02*
X178990000Y-99837500I0J-162500D01*
G01*
X178990000Y-100162500D01*
G75*
G02*
X178827500Y-100325000I-162500J0D01*
G01*
X177692500Y-100325000D01*
G75*
G02*
X177530000Y-100162500I0J162500D01*
G01*
G37*
%TD.AperFunction*%
%TO.P,U20,6*%
%TO.N,2V5*%
%TA.AperFunction,SMDPad,CuDef*%
G36*
G01*
X177530000Y-99212500D02*
X177530000Y-98887500D01*
G75*
G02*
X177692500Y-98725000I162500J0D01*
G01*
X178827500Y-98725000D01*
G75*
G02*
X178990000Y-98887500I0J-162500D01*
G01*
X178990000Y-99212500D01*
G75*
G02*
X178827500Y-99375000I-162500J0D01*
G01*
X177692500Y-99375000D01*
G75*
G02*
X177530000Y-99212500I0J162500D01*
G01*
G37*
%TD.AperFunction*%
%TO.P,U20,4*%
%TO.N,5V*%
%TA.AperFunction,SMDPad,CuDef*%
G36*
G01*
X177530000Y-101112500D02*
X177530000Y-100787500D01*
G75*
G02*
X177692500Y-100625000I162500J0D01*
G01*
X178827500Y-100625000D01*
G75*
G02*
X178990000Y-100787500I0J-162500D01*
G01*
X178990000Y-101112500D01*
G75*
G02*
X178827500Y-101275000I-162500J0D01*
G01*
X177692500Y-101275000D01*
G75*
G02*
X177530000Y-101112500I0J162500D01*
G01*
G37*
%TD.AperFunction*%
%TO.P,U20,3*%
%TO.N,2V5*%
%TA.AperFunction,SMDPad,CuDef*%
G36*
G01*
X174930000Y-101112500D02*
X174930000Y-100787500D01*
G75*
G02*
X175092500Y-100625000I162500J0D01*
G01*
X176227500Y-100625000D01*
G75*
G02*
X176390000Y-100787500I0J-162500D01*
G01*
X176390000Y-101112500D01*
G75*
G02*
X176227500Y-101275000I-162500J0D01*
G01*
X175092500Y-101275000D01*
G75*
G02*
X174930000Y-101112500I0J162500D01*
G01*
G37*
%TD.AperFunction*%
%TO.P,U20,2*%
%TO.N,GND*%
%TA.AperFunction,SMDPad,CuDef*%
G36*
G01*
X174930000Y-100162500D02*
X174930000Y-99837500D01*
G75*
G02*
X175092500Y-99675000I162500J0D01*
G01*
X176227500Y-99675000D01*
G75*
G02*
X176390000Y-99837500I0J-162500D01*
G01*
X176390000Y-100162500D01*
G75*
G02*
X176227500Y-100325000I-162500J0D01*
G01*
X175092500Y-100325000D01*
G75*
G02*
X174930000Y-100162500I0J162500D01*
G01*
G37*
%TD.AperFunction*%
%TO.P,U20,1*%
%TO.N,UPDI_2V5_B*%
%TA.AperFunction,SMDPad,CuDef*%
G36*
G01*
X174930000Y-99212500D02*
X174930000Y-98887500D01*
G75*
G02*
X175092500Y-98725000I162500J0D01*
G01*
X176227500Y-98725000D01*
G75*
G02*
X176390000Y-98887500I0J-162500D01*
G01*
X176390000Y-99212500D01*
G75*
G02*
X176227500Y-99375000I-162500J0D01*
G01*
X175092500Y-99375000D01*
G75*
G02*
X174930000Y-99212500I0J162500D01*
G01*
G37*
%TD.AperFunction*%
%TD*%
%TO.P,U30,8*%
%TO.N,VBAT*%
%TA.AperFunction,SMDPad,CuDef*%
G36*
G01*
X132575000Y-91255000D02*
X132575000Y-91555000D01*
G75*
G02*
X132425000Y-91705000I-150000J0D01*
G01*
X130775000Y-91705000D01*
G75*
G02*
X130625000Y-91555000I0J150000D01*
G01*
X130625000Y-91255000D01*
G75*
G02*
X130775000Y-91105000I150000J0D01*
G01*
X132425000Y-91105000D01*
G75*
G02*
X132575000Y-91255000I0J-150000D01*
G01*
G37*
%TD.AperFunction*%
%TO.P,U30,7*%
%TO.N,SCL_A*%
%TA.AperFunction,SMDPad,CuDef*%
G36*
G01*
X132575000Y-89985000D02*
X132575000Y-90285000D01*
G75*
G02*
X132425000Y-90435000I-150000J0D01*
G01*
X130775000Y-90435000D01*
G75*
G02*
X130625000Y-90285000I0J150000D01*
G01*
X130625000Y-89985000D01*
G75*
G02*
X130775000Y-89835000I150000J0D01*
G01*
X132425000Y-89835000D01*
G75*
G02*
X132575000Y-89985000I0J-150000D01*
G01*
G37*
%TD.AperFunction*%
%TO.P,U30,6*%
%TO.N,SDA_A*%
%TA.AperFunction,SMDPad,CuDef*%
G36*
G01*
X132575000Y-88715000D02*
X132575000Y-89015000D01*
G75*
G02*
X132425000Y-89165000I-150000J0D01*
G01*
X130775000Y-89165000D01*
G75*
G02*
X130625000Y-89015000I0J150000D01*
G01*
X130625000Y-88715000D01*
G75*
G02*
X130775000Y-88565000I150000J0D01*
G01*
X132425000Y-88565000D01*
G75*
G02*
X132575000Y-88715000I0J-150000D01*
G01*
G37*
%TD.AperFunction*%
%TO.P,U30,5*%
%TO.N,2V5*%
%TA.AperFunction,SMDPad,CuDef*%
G36*
G01*
X132575000Y-87445000D02*
X132575000Y-87745000D01*
G75*
G02*
X132425000Y-87895000I-150000J0D01*
G01*
X130775000Y-87895000D01*
G75*
G02*
X130625000Y-87745000I0J150000D01*
G01*
X130625000Y-87445000D01*
G75*
G02*
X130775000Y-87295000I150000J0D01*
G01*
X132425000Y-87295000D01*
G75*
G02*
X132575000Y-87445000I0J-150000D01*
G01*
G37*
%TD.AperFunction*%
%TO.P,U30,4*%
%TO.N,GND*%
%TA.AperFunction,SMDPad,CuDef*%
G36*
G01*
X138375000Y-87445000D02*
X138375000Y-87745000D01*
G75*
G02*
X138225000Y-87895000I-150000J0D01*
G01*
X136575000Y-87895000D01*
G75*
G02*
X136425000Y-87745000I0J150000D01*
G01*
X136425000Y-87445000D01*
G75*
G02*
X136575000Y-87295000I150000J0D01*
G01*
X138225000Y-87295000D01*
G75*
G02*
X138375000Y-87445000I0J-150000D01*
G01*
G37*
%TD.AperFunction*%
%TO.P,U30,3*%
%TO.N,SDA_2V5_A*%
%TA.AperFunction,SMDPad,CuDef*%
G36*
G01*
X138375000Y-88715000D02*
X138375000Y-89015000D01*
G75*
G02*
X138225000Y-89165000I-150000J0D01*
G01*
X136575000Y-89165000D01*
G75*
G02*
X136425000Y-89015000I0J150000D01*
G01*
X136425000Y-88715000D01*
G75*
G02*
X136575000Y-88565000I150000J0D01*
G01*
X138225000Y-88565000D01*
G75*
G02*
X138375000Y-88715000I0J-150000D01*
G01*
G37*
%TD.AperFunction*%
%TO.P,U30,2*%
%TO.N,SCL_2V5_A*%
%TA.AperFunction,SMDPad,CuDef*%
G36*
G01*
X138375000Y-89985000D02*
X138375000Y-90285000D01*
G75*
G02*
X138225000Y-90435000I-150000J0D01*
G01*
X136575000Y-90435000D01*
G75*
G02*
X136425000Y-90285000I0J150000D01*
G01*
X136425000Y-89985000D01*
G75*
G02*
X136575000Y-89835000I150000J0D01*
G01*
X138225000Y-89835000D01*
G75*
G02*
X138375000Y-89985000I0J-150000D01*
G01*
G37*
%TD.AperFunction*%
%TO.P,U30,1*%
%TO.N,2V5*%
%TA.AperFunction,SMDPad,CuDef*%
G36*
G01*
X138375000Y-91255000D02*
X138375000Y-91555000D01*
G75*
G02*
X138225000Y-91705000I-150000J0D01*
G01*
X136575000Y-91705000D01*
G75*
G02*
X136425000Y-91555000I0J150000D01*
G01*
X136425000Y-91255000D01*
G75*
G02*
X136575000Y-91105000I150000J0D01*
G01*
X138225000Y-91105000D01*
G75*
G02*
X138375000Y-91255000I0J-150000D01*
G01*
G37*
%TD.AperFunction*%
%TD*%
%TO.P,J10,1*%
%TO.N,RX_2V5_A*%
%TA.AperFunction,ComponentPad*%
G36*
G01*
X168490000Y-75775000D02*
X168490000Y-76625000D01*
G75*
G02*
X168065000Y-77050000I-425000J0D01*
G01*
X167215000Y-77050000D01*
G75*
G02*
X166790000Y-76625000I0J425000D01*
G01*
X166790000Y-75775000D01*
G75*
G02*
X167215000Y-75350000I425000J0D01*
G01*
X168065000Y-75350000D01*
G75*
G02*
X168490000Y-75775000I0J-425000D01*
G01*
G37*
%TD.AperFunction*%
%TO.P,J10,2*%
%TO.N,RX_2V5*%
%TA.AperFunction,ComponentPad*%
G36*
G01*
X168490000Y-78315000D02*
X168490000Y-79165000D01*
G75*
G02*
X168065000Y-79590000I-425000J0D01*
G01*
X167215000Y-79590000D01*
G75*
G02*
X166790000Y-79165000I0J425000D01*
G01*
X166790000Y-78315000D01*
G75*
G02*
X167215000Y-77890000I425000J0D01*
G01*
X168065000Y-77890000D01*
G75*
G02*
X168490000Y-78315000I0J-425000D01*
G01*
G37*
%TD.AperFunction*%
%TO.P,J10,3*%
%TO.N,RX_2V5_B*%
%TA.AperFunction,ComponentPad*%
G36*
G01*
X168490000Y-80855000D02*
X168490000Y-81705000D01*
G75*
G02*
X168065000Y-82130000I-425000J0D01*
G01*
X167215000Y-82130000D01*
G75*
G02*
X166790000Y-81705000I0J425000D01*
G01*
X166790000Y-80855000D01*
G75*
G02*
X167215000Y-80430000I425000J0D01*
G01*
X168065000Y-80430000D01*
G75*
G02*
X168490000Y-80855000I0J-425000D01*
G01*
G37*
%TD.AperFunction*%
%TD*%
%TO.P,J11,3*%
%TO.N,TX_2V5_B*%
%TA.AperFunction,ComponentPad*%
G36*
G01*
X165950000Y-80855000D02*
X165950000Y-81705000D01*
G75*
G02*
X165525000Y-82130000I-425000J0D01*
G01*
X164675000Y-82130000D01*
G75*
G02*
X164250000Y-81705000I0J425000D01*
G01*
X164250000Y-80855000D01*
G75*
G02*
X164675000Y-80430000I425000J0D01*
G01*
X165525000Y-80430000D01*
G75*
G02*
X165950000Y-80855000I0J-425000D01*
G01*
G37*
%TD.AperFunction*%
%TO.P,J11,2*%
%TO.N,TX_2V5*%
%TA.AperFunction,ComponentPad*%
G36*
G01*
X165950000Y-78315000D02*
X165950000Y-79165000D01*
G75*
G02*
X165525000Y-79590000I-425000J0D01*
G01*
X164675000Y-79590000D01*
G75*
G02*
X164250000Y-79165000I0J425000D01*
G01*
X164250000Y-78315000D01*
G75*
G02*
X164675000Y-77890000I425000J0D01*
G01*
X165525000Y-77890000D01*
G75*
G02*
X165950000Y-78315000I0J-425000D01*
G01*
G37*
%TD.AperFunction*%
%TO.P,J11,1*%
%TO.N,TX_2V5_A*%
%TA.AperFunction,ComponentPad*%
G36*
G01*
X165950000Y-75775000D02*
X165950000Y-76625000D01*
G75*
G02*
X165525000Y-77050000I-425000J0D01*
G01*
X164675000Y-77050000D01*
G75*
G02*
X164250000Y-76625000I0J425000D01*
G01*
X164250000Y-75775000D01*
G75*
G02*
X164675000Y-75350000I425000J0D01*
G01*
X165525000Y-75350000D01*
G75*
G02*
X165950000Y-75775000I0J-425000D01*
G01*
G37*
%TD.AperFunction*%
%TD*%
%TO.P,J14,1*%
%TO.N,RX_A*%
%TA.AperFunction,ComponentPad*%
G36*
G01*
X188810000Y-75775000D02*
X188810000Y-76625000D01*
G75*
G02*
X188385000Y-77050000I-425000J0D01*
G01*
X187535000Y-77050000D01*
G75*
G02*
X187110000Y-76625000I0J425000D01*
G01*
X187110000Y-75775000D01*
G75*
G02*
X187535000Y-75350000I425000J0D01*
G01*
X188385000Y-75350000D01*
G75*
G02*
X188810000Y-75775000I0J-425000D01*
G01*
G37*
%TD.AperFunction*%
%TO.P,J14,2*%
%TO.N,RX*%
%TA.AperFunction,ComponentPad*%
G36*
G01*
X188810000Y-78315000D02*
X188810000Y-79165000D01*
G75*
G02*
X188385000Y-79590000I-425000J0D01*
G01*
X187535000Y-79590000D01*
G75*
G02*
X187110000Y-79165000I0J425000D01*
G01*
X187110000Y-78315000D01*
G75*
G02*
X187535000Y-77890000I425000J0D01*
G01*
X188385000Y-77890000D01*
G75*
G02*
X188810000Y-78315000I0J-425000D01*
G01*
G37*
%TD.AperFunction*%
%TO.P,J14,3*%
%TO.N,RX_B*%
%TA.AperFunction,ComponentPad*%
G36*
G01*
X188810000Y-80855000D02*
X188810000Y-81705000D01*
G75*
G02*
X188385000Y-82130000I-425000J0D01*
G01*
X187535000Y-82130000D01*
G75*
G02*
X187110000Y-81705000I0J425000D01*
G01*
X187110000Y-80855000D01*
G75*
G02*
X187535000Y-80430000I425000J0D01*
G01*
X188385000Y-80430000D01*
G75*
G02*
X188810000Y-80855000I0J-425000D01*
G01*
G37*
%TD.AperFunction*%
%TD*%
%TO.P,J15,3*%
%TO.N,TX_B*%
%TA.AperFunction,ComponentPad*%
G36*
G01*
X186270000Y-80855000D02*
X186270000Y-81705000D01*
G75*
G02*
X185845000Y-82130000I-425000J0D01*
G01*
X184995000Y-82130000D01*
G75*
G02*
X184570000Y-81705000I0J425000D01*
G01*
X184570000Y-80855000D01*
G75*
G02*
X184995000Y-80430000I425000J0D01*
G01*
X185845000Y-80430000D01*
G75*
G02*
X186270000Y-80855000I0J-425000D01*
G01*
G37*
%TD.AperFunction*%
%TO.P,J15,2*%
%TO.N,TX*%
%TA.AperFunction,ComponentPad*%
G36*
G01*
X186270000Y-78315000D02*
X186270000Y-79165000D01*
G75*
G02*
X185845000Y-79590000I-425000J0D01*
G01*
X184995000Y-79590000D01*
G75*
G02*
X184570000Y-79165000I0J425000D01*
G01*
X184570000Y-78315000D01*
G75*
G02*
X184995000Y-77890000I425000J0D01*
G01*
X185845000Y-77890000D01*
G75*
G02*
X186270000Y-78315000I0J-425000D01*
G01*
G37*
%TD.AperFunction*%
%TO.P,J15,1*%
%TO.N,TX_A*%
%TA.AperFunction,ComponentPad*%
G36*
G01*
X186270000Y-75775000D02*
X186270000Y-76625000D01*
G75*
G02*
X185845000Y-77050000I-425000J0D01*
G01*
X184995000Y-77050000D01*
G75*
G02*
X184570000Y-76625000I0J425000D01*
G01*
X184570000Y-75775000D01*
G75*
G02*
X184995000Y-75350000I425000J0D01*
G01*
X185845000Y-75350000D01*
G75*
G02*
X186270000Y-75775000I0J-425000D01*
G01*
G37*
%TD.AperFunction*%
%TD*%
%TO.P,C8,1*%
%TO.N,2V5*%
%TA.AperFunction,SMDPad,CuDef*%
G36*
G01*
X147543750Y-73575000D02*
X148456250Y-73575000D01*
G75*
G02*
X148700000Y-73818750I0J-243750D01*
G01*
X148700000Y-74306250D01*
G75*
G02*
X148456250Y-74550000I-243750J0D01*
G01*
X147543750Y-74550000D01*
G75*
G02*
X147300000Y-74306250I0J243750D01*
G01*
X147300000Y-73818750D01*
G75*
G02*
X147543750Y-73575000I243750J0D01*
G01*
G37*
%TD.AperFunction*%
%TO.P,C8,2*%
%TO.N,GND*%
%TA.AperFunction,SMDPad,CuDef*%
G36*
G01*
X147543750Y-75450000D02*
X148456250Y-75450000D01*
G75*
G02*
X148700000Y-75693750I0J-243750D01*
G01*
X148700000Y-76181250D01*
G75*
G02*
X148456250Y-76425000I-243750J0D01*
G01*
X147543750Y-76425000D01*
G75*
G02*
X147300000Y-76181250I0J243750D01*
G01*
X147300000Y-75693750D01*
G75*
G02*
X147543750Y-75450000I243750J0D01*
G01*
G37*
%TD.AperFunction*%
%TD*%
%TO.P,JP1,1*%
%TO.N,VBAT*%
%TA.AperFunction,ComponentPad*%
G36*
G01*
X143090000Y-85935000D02*
X143090000Y-86785000D01*
G75*
G02*
X142665000Y-87210000I-425000J0D01*
G01*
X141815000Y-87210000D01*
G75*
G02*
X141390000Y-86785000I0J425000D01*
G01*
X141390000Y-85935000D01*
G75*
G02*
X141815000Y-85510000I425000J0D01*
G01*
X142665000Y-85510000D01*
G75*
G02*
X143090000Y-85935000I0J-425000D01*
G01*
G37*
%TD.AperFunction*%
%TO.P,JP1,2*%
%TO.N,Net-(JP1-Pad2)*%
%TA.AperFunction,ComponentPad*%
G36*
G01*
X143090000Y-88475000D02*
X143090000Y-89325000D01*
G75*
G02*
X142665000Y-89750000I-425000J0D01*
G01*
X141815000Y-89750000D01*
G75*
G02*
X141390000Y-89325000I0J425000D01*
G01*
X141390000Y-88475000D01*
G75*
G02*
X141815000Y-88050000I425000J0D01*
G01*
X142665000Y-88050000D01*
G75*
G02*
X143090000Y-88475000I0J-425000D01*
G01*
G37*
%TD.AperFunction*%
%TD*%
%TO.P,JP2,1*%
%TO.N,VBAT_ADC_A*%
%TA.AperFunction,ComponentPad*%
G36*
G01*
X155365000Y-88480000D02*
X154515000Y-88480000D01*
G75*
G02*
X154090000Y-88055000I0J425000D01*
G01*
X154090000Y-87205000D01*
G75*
G02*
X154515000Y-86780000I425000J0D01*
G01*
X155365000Y-86780000D01*
G75*
G02*
X155790000Y-87205000I0J-425000D01*
G01*
X155790000Y-88055000D01*
G75*
G02*
X155365000Y-88480000I-425000J0D01*
G01*
G37*
%TD.AperFunction*%
%TO.P,JP2,2*%
%TO.N,VBAT_ADC*%
%TA.AperFunction,ComponentPad*%
G36*
G01*
X152825000Y-88480000D02*
X151975000Y-88480000D01*
G75*
G02*
X151550000Y-88055000I0J425000D01*
G01*
X151550000Y-87205000D01*
G75*
G02*
X151975000Y-86780000I425000J0D01*
G01*
X152825000Y-86780000D01*
G75*
G02*
X153250000Y-87205000I0J-425000D01*
G01*
X153250000Y-88055000D01*
G75*
G02*
X152825000Y-88480000I-425000J0D01*
G01*
G37*
%TD.AperFunction*%
%TO.P,JP2,3*%
%TO.N,VBAT_ADC_B*%
%TA.AperFunction,ComponentPad*%
G36*
G01*
X150285000Y-88480000D02*
X149435000Y-88480000D01*
G75*
G02*
X149010000Y-88055000I0J425000D01*
G01*
X149010000Y-87205000D01*
G75*
G02*
X149435000Y-86780000I425000J0D01*
G01*
X150285000Y-86780000D01*
G75*
G02*
X150710000Y-87205000I0J-425000D01*
G01*
X150710000Y-88055000D01*
G75*
G02*
X150285000Y-88480000I-425000J0D01*
G01*
G37*
%TD.AperFunction*%
%TD*%
%TO.P,R8,1*%
%TO.N,Net-(JP1-Pad2)*%
%TA.AperFunction,SMDPad,CuDef*%
G36*
G01*
X142743750Y-90775000D02*
X143256250Y-90775000D01*
G75*
G02*
X143475000Y-90993750I0J-218750D01*
G01*
X143475000Y-91431250D01*
G75*
G02*
X143256250Y-91650000I-218750J0D01*
G01*
X142743750Y-91650000D01*
G75*
G02*
X142525000Y-91431250I0J218750D01*
G01*
X142525000Y-90993750D01*
G75*
G02*
X142743750Y-90775000I218750J0D01*
G01*
G37*
%TD.AperFunction*%
%TO.P,R8,2*%
%TO.N,Net-(R8-Pad2)*%
%TA.AperFunction,SMDPad,CuDef*%
G36*
G01*
X142743750Y-92350000D02*
X143256250Y-92350000D01*
G75*
G02*
X143475000Y-92568750I0J-218750D01*
G01*
X143475000Y-93006250D01*
G75*
G02*
X143256250Y-93225000I-218750J0D01*
G01*
X142743750Y-93225000D01*
G75*
G02*
X142525000Y-93006250I0J218750D01*
G01*
X142525000Y-92568750D01*
G75*
G02*
X142743750Y-92350000I218750J0D01*
G01*
G37*
%TD.AperFunction*%
%TD*%
%TO.P,R9,2*%
%TO.N,GND*%
%TA.AperFunction,SMDPad,CuDef*%
G36*
G01*
X145256250Y-91650000D02*
X144743750Y-91650000D01*
G75*
G02*
X144525000Y-91431250I0J218750D01*
G01*
X144525000Y-90993750D01*
G75*
G02*
X144743750Y-90775000I218750J0D01*
G01*
X145256250Y-90775000D01*
G75*
G02*
X145475000Y-90993750I0J-218750D01*
G01*
X145475000Y-91431250D01*
G75*
G02*
X145256250Y-91650000I-218750J0D01*
G01*
G37*
%TD.AperFunction*%
%TO.P,R9,1*%
%TO.N,Net-(R8-Pad2)*%
%TA.AperFunction,SMDPad,CuDef*%
G36*
G01*
X145256250Y-93225000D02*
X144743750Y-93225000D01*
G75*
G02*
X144525000Y-93006250I0J218750D01*
G01*
X144525000Y-92568750D01*
G75*
G02*
X144743750Y-92350000I218750J0D01*
G01*
X145256250Y-92350000D01*
G75*
G02*
X145475000Y-92568750I0J-218750D01*
G01*
X145475000Y-93006250D01*
G75*
G02*
X145256250Y-93225000I-218750J0D01*
G01*
G37*
%TD.AperFunction*%
%TD*%
%TO.P,U6,5*%
%TO.N,2V5*%
%TA.AperFunction,SMDPad,CuDef*%
G36*
G01*
X146162500Y-86930000D02*
X145837500Y-86930000D01*
G75*
G02*
X145675000Y-86767500I0J162500D01*
G01*
X145675000Y-85632500D01*
G75*
G02*
X145837500Y-85470000I162500J0D01*
G01*
X146162500Y-85470000D01*
G75*
G02*
X146325000Y-85632500I0J-162500D01*
G01*
X146325000Y-86767500D01*
G75*
G02*
X146162500Y-86930000I-162500J0D01*
G01*
G37*
%TD.AperFunction*%
%TO.P,U6,6*%
%TO.N,VCTRL*%
%TA.AperFunction,SMDPad,CuDef*%
G36*
G01*
X145212500Y-86930000D02*
X144887500Y-86930000D01*
G75*
G02*
X144725000Y-86767500I0J162500D01*
G01*
X144725000Y-85632500D01*
G75*
G02*
X144887500Y-85470000I162500J0D01*
G01*
X145212500Y-85470000D01*
G75*
G02*
X145375000Y-85632500I0J-162500D01*
G01*
X145375000Y-86767500D01*
G75*
G02*
X145212500Y-86930000I-162500J0D01*
G01*
G37*
%TD.AperFunction*%
%TO.P,U6,4*%
%TO.N,VBAT_ADC_B*%
%TA.AperFunction,SMDPad,CuDef*%
G36*
G01*
X147112500Y-86930000D02*
X146787500Y-86930000D01*
G75*
G02*
X146625000Y-86767500I0J162500D01*
G01*
X146625000Y-85632500D01*
G75*
G02*
X146787500Y-85470000I162500J0D01*
G01*
X147112500Y-85470000D01*
G75*
G02*
X147275000Y-85632500I0J-162500D01*
G01*
X147275000Y-86767500D01*
G75*
G02*
X147112500Y-86930000I-162500J0D01*
G01*
G37*
%TD.AperFunction*%
%TO.P,U6,3*%
%TO.N,GND*%
%TA.AperFunction,SMDPad,CuDef*%
G36*
G01*
X147112500Y-89530000D02*
X146787500Y-89530000D01*
G75*
G02*
X146625000Y-89367500I0J162500D01*
G01*
X146625000Y-88232500D01*
G75*
G02*
X146787500Y-88070000I162500J0D01*
G01*
X147112500Y-88070000D01*
G75*
G02*
X147275000Y-88232500I0J-162500D01*
G01*
X147275000Y-89367500D01*
G75*
G02*
X147112500Y-89530000I-162500J0D01*
G01*
G37*
%TD.AperFunction*%
%TO.P,U6,2*%
%TA.AperFunction,SMDPad,CuDef*%
G36*
G01*
X146162500Y-89530000D02*
X145837500Y-89530000D01*
G75*
G02*
X145675000Y-89367500I0J162500D01*
G01*
X145675000Y-88232500D01*
G75*
G02*
X145837500Y-88070000I162500J0D01*
G01*
X146162500Y-88070000D01*
G75*
G02*
X146325000Y-88232500I0J-162500D01*
G01*
X146325000Y-89367500D01*
G75*
G02*
X146162500Y-89530000I-162500J0D01*
G01*
G37*
%TD.AperFunction*%
%TO.P,U6,1*%
%TO.N,Net-(R8-Pad2)*%
%TA.AperFunction,SMDPad,CuDef*%
G36*
G01*
X145212500Y-89530000D02*
X144887500Y-89530000D01*
G75*
G02*
X144725000Y-89367500I0J162500D01*
G01*
X144725000Y-88232500D01*
G75*
G02*
X144887500Y-88070000I162500J0D01*
G01*
X145212500Y-88070000D01*
G75*
G02*
X145375000Y-88232500I0J-162500D01*
G01*
X145375000Y-89367500D01*
G75*
G02*
X145212500Y-89530000I-162500J0D01*
G01*
G37*
%TD.AperFunction*%
%TD*%
D14*
%TO.N,GND*%
X118000000Y-86000000D03*
X118000000Y-84000000D03*
X116000000Y-89000000D03*
X115000000Y-90000000D03*
X110000000Y-90000000D03*
X109000000Y-89000000D03*
X115000000Y-80000000D03*
X116000000Y-81000000D03*
X110000000Y-80000000D03*
X109000000Y-81000000D03*
X131136117Y-76788800D03*
X130300000Y-79100000D03*
X132700000Y-79100000D03*
X139000000Y-83200000D03*
X133700000Y-85500000D03*
X138900000Y-87600000D03*
X143000000Y-79800000D03*
X147000000Y-79800000D03*
X146800000Y-75900000D03*
X149200000Y-75900000D03*
X155800000Y-74500000D03*
X133300000Y-94500000D03*
X135700000Y-94500000D03*
X144200000Y-90400000D03*
X146900000Y-90100000D03*
X151600000Y-102100000D03*
X151700000Y-100200000D03*
X159300000Y-100200000D03*
X155500000Y-101400000D03*
X175300000Y-73500000D03*
X176200000Y-74500000D03*
X177700000Y-74500000D03*
X178600000Y-73500000D03*
X171800000Y-87900000D03*
X180199992Y-89000000D03*
X174000000Y-84700000D03*
X174200000Y-94200000D03*
X174300000Y-99600000D03*
X174200000Y-102000000D03*
X180700000Y-102900000D03*
X182000000Y-93800000D03*
D15*
%TO.N,2V5*%
X134000000Y-89750000D03*
D14*
X141750000Y-93500000D03*
X141750000Y-92500004D03*
X137500000Y-102400000D03*
X137500000Y-100000000D03*
X137800000Y-96099996D03*
X137000000Y-96900000D03*
D15*
X135299994Y-90999994D03*
D14*
X138500000Y-92700000D03*
X173600000Y-90500000D03*
X176000000Y-85500000D03*
X171700000Y-96900000D03*
X171700000Y-94000000D03*
X138500000Y-93999986D03*
%TO.N,5V*%
X178200000Y-85500000D03*
X177800000Y-83000000D03*
X182400000Y-87300000D03*
X179800000Y-100900000D03*
X179900000Y-99100000D03*
X179800359Y-93899561D03*
X179800000Y-95800000D03*
X192300000Y-82900000D03*
X191200000Y-81900000D03*
X191200000Y-78400000D03*
X192300000Y-79300000D03*
X182000000Y-91100000D03*
D15*
%TO.N,Net-(D1-Pad2)*%
X161996160Y-87382208D03*
X161000000Y-90200000D03*
%TO.N,Net-(D2-Pad2)*%
X161297719Y-86792013D03*
X160800000Y-89200000D03*
%TO.N,Net-(D3-Pad2)*%
X160700000Y-86100000D03*
X160300000Y-88300000D03*
%TO.N,RX_2V5*%
X154000000Y-81700000D03*
X159900000Y-80000000D03*
%TO.N,RX_2V5_B*%
X167700000Y-85100000D03*
X168800000Y-86200000D03*
%TO.N,TX_2V5*%
X159499994Y-78800000D03*
X154900000Y-79400000D03*
%TO.N,TX_2V5_B*%
X166900000Y-85800000D03*
X168100000Y-87000000D03*
%TO.N,RX_B*%
X184399998Y-89300000D03*
X182900000Y-89900000D03*
%TO.N,TX_B*%
X183600000Y-91200000D03*
X185200000Y-87200000D03*
%TO.N,VCTRL*%
X149585800Y-81500000D03*
X145000000Y-81800000D03*
%TO.N,Net-(SW1-Pad2)*%
X153000000Y-81500000D03*
X154600000Y-84000000D03*
X160800000Y-92100000D03*
X157700000Y-87800000D03*
%TO.N,VBAT_ADC_A*%
X151700000Y-85900000D03*
X149500000Y-85900000D03*
X146762000Y-83900000D03*
X143000000Y-83500000D03*
%TD*%
D16*
%TO.N,VBAT*%
X113860000Y-99500000D02*
X114300000Y-99060000D01*
X110500000Y-99500000D02*
X113860000Y-99500000D01*
X114024000Y-98784000D02*
X114300000Y-99060000D01*
X127177500Y-78740000D02*
X127500000Y-79062500D01*
X124460000Y-78740000D02*
X127177500Y-78740000D01*
X131712500Y-91517500D02*
X131600000Y-91405000D01*
X131712500Y-93500000D02*
X131712500Y-91517500D01*
X129375000Y-80937500D02*
X127500000Y-79062500D01*
X131500000Y-80937500D02*
X129375000Y-80937500D01*
X131500000Y-80937500D02*
X133187500Y-80937500D01*
X133800000Y-81550000D02*
X134200000Y-81550000D01*
X133187500Y-80937500D02*
X133800000Y-81550000D01*
X132337500Y-74550000D02*
X132000000Y-74212500D01*
X134200000Y-74550000D02*
X132337500Y-74550000D01*
X127500000Y-79062500D02*
X127687500Y-79062500D01*
X127687500Y-79062500D02*
X129875000Y-76875000D01*
D17*
X130500000Y-103287500D02*
X130537500Y-103287500D01*
X130537500Y-103287500D02*
X130750000Y-103500000D01*
X130750000Y-103500000D02*
X134000000Y-103500000D01*
X134000000Y-103500000D02*
X134500000Y-103000000D01*
X131712500Y-94462500D02*
X131712500Y-93500000D01*
X134500000Y-97250000D02*
X131712500Y-94462500D01*
X130500000Y-98787500D02*
X130537500Y-98787500D01*
X130537500Y-98787500D02*
X130750000Y-99000000D01*
X134500000Y-103000000D02*
X134500000Y-99000000D01*
X130750000Y-99000000D02*
X134500000Y-99000000D01*
X134500000Y-99000000D02*
X134500000Y-97250000D01*
D16*
X141850000Y-86750000D02*
X142240000Y-86360000D01*
X135500000Y-86750000D02*
X142600000Y-86750000D01*
X131500000Y-82750000D02*
X131500000Y-80937500D01*
X131500000Y-84500000D02*
X131500000Y-82750000D01*
X135500000Y-86750000D02*
X133750000Y-86750000D01*
X133750000Y-86750000D02*
X131500000Y-84500000D01*
X135500000Y-89686119D02*
X135500000Y-86750000D01*
X131600000Y-91405000D02*
X133781119Y-91405000D01*
X133781119Y-91405000D02*
X135500000Y-89686119D01*
X110500000Y-99500000D02*
X110500000Y-98000000D01*
X110976000Y-97524000D02*
X110976000Y-95328000D01*
X110500000Y-98000000D02*
X110976000Y-97524000D01*
X131787500Y-74212500D02*
X132000000Y-74212500D01*
X130200000Y-75800000D02*
X131787500Y-74212500D01*
X129875000Y-76875000D02*
X130200000Y-76550000D01*
X130200000Y-76550000D02*
X130200000Y-75800000D01*
D18*
X130600000Y-77600000D02*
X129875000Y-76875000D01*
X131900000Y-77600000D02*
X130600000Y-77600000D01*
X134200000Y-76450000D02*
X133050000Y-76450000D01*
X133050000Y-76450000D02*
X131900000Y-77600000D01*
D16*
%TO.N,GND*%
X127157500Y-81280000D02*
X127500000Y-80937500D01*
X124460000Y-81280000D02*
X127157500Y-81280000D01*
X132287500Y-75500000D02*
X132000000Y-75787500D01*
X134200000Y-75500000D02*
X132287500Y-75500000D01*
X138712500Y-75500000D02*
X139000000Y-75787500D01*
X134200000Y-75500000D02*
X138712500Y-75500000D01*
X154787500Y-74500000D02*
X154787500Y-75787500D01*
X155390000Y-76390000D02*
X156950000Y-76390000D01*
X154787500Y-75787500D02*
X155390000Y-76390000D01*
X133287500Y-93500000D02*
X135712500Y-93500000D01*
X173247500Y-88000000D02*
X172960000Y-88287500D01*
X175660000Y-88000000D02*
X173247500Y-88000000D01*
X173247500Y-93500000D02*
X172960000Y-93787500D01*
D18*
X178260000Y-88000000D02*
X175660000Y-88000000D01*
D16*
X132000000Y-75787500D02*
X132000000Y-75924917D01*
X132000000Y-75924917D02*
X131136117Y-76788800D01*
X131500000Y-79062500D02*
X130337500Y-79062500D01*
X130337500Y-79062500D02*
X130300000Y-79100000D01*
X131500000Y-79062500D02*
X132662500Y-79062500D01*
X132662500Y-79062500D02*
X132700000Y-79100000D01*
X138787500Y-82500000D02*
X139000000Y-82287500D01*
X136800000Y-82500000D02*
X138787500Y-82500000D01*
X139000000Y-82287500D02*
X139000000Y-83200000D01*
X134712500Y-85500000D02*
X133700000Y-85500000D01*
X137400000Y-87595000D02*
X138895000Y-87595000D01*
X138895000Y-87595000D02*
X138900000Y-87600000D01*
X143000000Y-80712500D02*
X143000000Y-79800000D01*
X148000000Y-79787500D02*
X147012500Y-79787500D01*
X147012500Y-79787500D02*
X147000000Y-79800000D01*
X148000000Y-75937500D02*
X146837500Y-75937500D01*
X146837500Y-75937500D02*
X146800000Y-75900000D01*
X148000000Y-75937500D02*
X149162500Y-75937500D01*
X149162500Y-75937500D02*
X149200000Y-75900000D01*
X154787500Y-74500000D02*
X155800000Y-74500000D01*
X133287500Y-93500000D02*
X133287500Y-94487500D01*
X133287500Y-94487500D02*
X133300000Y-94500000D01*
X135712500Y-93500000D02*
X135712500Y-94487500D01*
X135712500Y-94487500D02*
X135700000Y-94500000D01*
X145000000Y-91212500D02*
X145000000Y-91200000D01*
X145000000Y-91200000D02*
X144200000Y-90400000D01*
X146000000Y-88800000D02*
X146950000Y-88800000D01*
X146950000Y-88800000D02*
X146950000Y-90050000D01*
X146950000Y-90050000D02*
X146900000Y-90100000D01*
X151600000Y-103500000D02*
X151600000Y-102100000D01*
X152940000Y-100250000D02*
X155480000Y-100250000D01*
X155480000Y-100250000D02*
X158020000Y-100250000D01*
X152940000Y-100250000D02*
X151750000Y-100250000D01*
X151750000Y-100250000D02*
X151700000Y-100200000D01*
X158020000Y-100250000D02*
X159250000Y-100250000D01*
X159250000Y-100250000D02*
X159300000Y-100200000D01*
X155480000Y-100250000D02*
X155480000Y-101380000D01*
X155480000Y-101380000D02*
X155500000Y-101400000D01*
X175247500Y-74500000D02*
X175247500Y-73552500D01*
X175247500Y-73552500D02*
X175300000Y-73500000D01*
X175247500Y-74500000D02*
X176200000Y-74500000D01*
X178672500Y-74500000D02*
X177700000Y-74500000D01*
X178672500Y-74500000D02*
X178672500Y-73572500D01*
X178672500Y-73572500D02*
X178600000Y-73500000D01*
X172960000Y-88287500D02*
X172187500Y-88287500D01*
X172187500Y-88287500D02*
X171800000Y-87900000D01*
X180672500Y-88000000D02*
X180960000Y-88287500D01*
X178260000Y-88000000D02*
X180672500Y-88000000D01*
X180912492Y-88287500D02*
X180199992Y-89000000D01*
X180960000Y-88287500D02*
X180912492Y-88287500D01*
X174010000Y-83810000D02*
X174010000Y-84690000D01*
X174010000Y-84690000D02*
X174000000Y-84700000D01*
X174200000Y-93500000D02*
X174200000Y-94200000D01*
X174200000Y-93500000D02*
X173247500Y-93500000D01*
X175660000Y-93500000D02*
X174200000Y-93500000D01*
X175660000Y-100000000D02*
X174700000Y-100000000D01*
X174700000Y-100000000D02*
X174300000Y-99600000D01*
X174172500Y-103000000D02*
X174172500Y-102027500D01*
X174172500Y-102027500D02*
X174200000Y-102000000D01*
X179747500Y-103000000D02*
X180600000Y-103000000D01*
X180600000Y-103000000D02*
X180700000Y-102900000D01*
X180960000Y-93787500D02*
X181987500Y-93787500D01*
X181987500Y-93787500D02*
X182000000Y-93800000D01*
D18*
%TO.N,2V5*%
X138337500Y-98950000D02*
X138500000Y-98787500D01*
X135700000Y-98950000D02*
X138337500Y-98950000D01*
X138337500Y-103450000D02*
X138500000Y-103287500D01*
X135700000Y-103450000D02*
X138337500Y-103450000D01*
D16*
X137287500Y-91517500D02*
X137400000Y-91405000D01*
X137287500Y-93500000D02*
X137287500Y-91517500D01*
X138662500Y-74550000D02*
X139000000Y-74212500D01*
X136800000Y-74550000D02*
X138662500Y-74550000D01*
X147850000Y-74212500D02*
X148000000Y-74062500D01*
X151050000Y-76390000D02*
X152610000Y-76390000D01*
X153212500Y-75787500D02*
X153212500Y-74500000D01*
X152610000Y-76390000D02*
X153212500Y-75787500D01*
D17*
X134000000Y-89750000D02*
X134000000Y-88250000D01*
X133345000Y-87595000D02*
X131600000Y-87595000D01*
X134000000Y-88250000D02*
X133345000Y-87595000D01*
D16*
X148000000Y-74062500D02*
X149437500Y-74062500D01*
X149437500Y-74062500D02*
X150250000Y-73250000D01*
X153212500Y-74500000D02*
X153212500Y-73287500D01*
X153212500Y-73287500D02*
X153250000Y-73250000D01*
X150250000Y-73250000D02*
X153250000Y-73250000D01*
X173672500Y-75852500D02*
X174010000Y-76190000D01*
X173672500Y-74500000D02*
X173672500Y-75852500D01*
X146000000Y-86200000D02*
X146000000Y-74250000D01*
X146000000Y-74250000D02*
X146037500Y-74212500D01*
X139000000Y-74212500D02*
X146037500Y-74212500D01*
X146037500Y-74212500D02*
X147850000Y-74212500D01*
X137287500Y-93500000D02*
X138000000Y-93500000D01*
X141250000Y-93500000D02*
X141750000Y-93500000D01*
X141106410Y-87643590D02*
X140783410Y-87966590D01*
X144000000Y-87500000D02*
X143856410Y-87643590D01*
X146000000Y-86200000D02*
X146000000Y-87250000D01*
X145750000Y-87500000D02*
X144000000Y-87500000D01*
X140783410Y-93033410D02*
X141250000Y-93500000D01*
X146000000Y-87250000D02*
X145750000Y-87500000D01*
X143856410Y-87643590D02*
X141106410Y-87643590D01*
X140816824Y-92500004D02*
X140783410Y-92466590D01*
X141750000Y-92500004D02*
X140816824Y-92500004D01*
X140783410Y-87966590D02*
X140783410Y-92466590D01*
X140783410Y-92466590D02*
X140783410Y-93033410D01*
X138387500Y-103287500D02*
X137500000Y-102400000D01*
X138500000Y-103287500D02*
X138387500Y-103287500D01*
X138500000Y-98787500D02*
X138500000Y-99500000D01*
X138500000Y-99500000D02*
X138000000Y-100000000D01*
X138000000Y-100000000D02*
X137500000Y-100000000D01*
X137287500Y-93500000D02*
X137287500Y-94612500D01*
X137800000Y-95125000D02*
X137800000Y-96099996D01*
X137287500Y-94612500D02*
X137800000Y-95125000D01*
X137000000Y-94900000D02*
X137000000Y-96900000D01*
X137287500Y-94612500D02*
X137000000Y-94900000D01*
D17*
X135705000Y-91405000D02*
X135299994Y-90999994D01*
X137400000Y-91405000D02*
X135705000Y-91405000D01*
D16*
X138000000Y-93500000D02*
X138500000Y-93000000D01*
X138500000Y-93000000D02*
X138500000Y-92700000D01*
X173672500Y-73772500D02*
X173672500Y-74500000D01*
X153250000Y-73250000D02*
X173150000Y-73250000D01*
X173150000Y-73250000D02*
X173672500Y-73772500D01*
X175747500Y-101037500D02*
X175660000Y-100950000D01*
X175747500Y-103000000D02*
X175747500Y-101037500D01*
D18*
X177350000Y-99050000D02*
X178260000Y-99050000D01*
X177000000Y-99400000D02*
X177350000Y-99050000D01*
X177000000Y-100600000D02*
X177000000Y-99400000D01*
X175660000Y-100950000D02*
X176650000Y-100950000D01*
X176650000Y-100950000D02*
X177000000Y-100600000D01*
D16*
X173297500Y-92550000D02*
X172960000Y-92212500D01*
X175660000Y-92550000D02*
X173297500Y-92550000D01*
X173297500Y-87050000D02*
X172960000Y-86712500D01*
X175660000Y-87050000D02*
X173297500Y-87050000D01*
D18*
X176136800Y-92550000D02*
X175660000Y-92550000D01*
X176650000Y-92550000D02*
X175660000Y-92550000D01*
X177000000Y-92900000D02*
X176650000Y-92550000D01*
X177000000Y-93200000D02*
X177000000Y-92900000D01*
X178260000Y-93500000D02*
X177300000Y-93500000D01*
X177300000Y-93500000D02*
X177000000Y-93200000D01*
D16*
X172960000Y-92212500D02*
X172960000Y-91140000D01*
X172960000Y-91140000D02*
X173600000Y-90500000D01*
X175390000Y-76190000D02*
X174010000Y-76190000D01*
X176000000Y-76800000D02*
X175390000Y-76190000D01*
X176000000Y-86710000D02*
X175660000Y-87050000D01*
X176000000Y-85500000D02*
X176000000Y-86710000D01*
D18*
X176010000Y-83810000D02*
X176000000Y-83800000D01*
D16*
X176000000Y-85500000D02*
X176000000Y-83800000D01*
D18*
X179910000Y-83810000D02*
X176010000Y-83810000D01*
D16*
X176000000Y-83800000D02*
X176000000Y-76800000D01*
X175660000Y-100950000D02*
X174350000Y-100950000D01*
X174350000Y-100950000D02*
X171700000Y-98300000D01*
X171700000Y-98300000D02*
X171700000Y-96900000D01*
X171700000Y-92700000D02*
X171700000Y-94000000D01*
X172960000Y-92212500D02*
X172187500Y-92212500D01*
X172187500Y-92212500D02*
X171700000Y-92700000D01*
X138499986Y-93999986D02*
X138500000Y-93999986D01*
X138000000Y-93500000D02*
X138499986Y-93999986D01*
D18*
%TO.N,Net-(C6-Pad1)*%
X138162500Y-81550000D02*
X139000000Y-80712500D01*
X136800000Y-81550000D02*
X138162500Y-81550000D01*
X139000000Y-80712500D02*
X141000000Y-80712500D01*
D16*
%TO.N,VBAT_ADC*%
X148552500Y-77660000D02*
X148000000Y-78212500D01*
X151050000Y-77660000D02*
X148552500Y-77660000D01*
D18*
X148900000Y-79100000D02*
X148012500Y-78212500D01*
X148900000Y-84100000D02*
X148900000Y-79100000D01*
X148012500Y-78212500D02*
X148000000Y-78212500D01*
X152400000Y-87630000D02*
X152400000Y-87600000D01*
X152400000Y-87600000D02*
X148900000Y-84100000D01*
D16*
%TO.N,5V*%
X178172500Y-101037500D02*
X178260000Y-100950000D01*
X178172500Y-103000000D02*
X178172500Y-101037500D01*
X180622500Y-92550000D02*
X180960000Y-92212500D01*
X180622500Y-87050000D02*
X180960000Y-86712500D01*
X178260000Y-87050000D02*
X180622500Y-87050000D01*
X180247500Y-74500000D02*
X180247500Y-75852500D01*
X180247500Y-75852500D02*
X179910000Y-76190000D01*
X178260000Y-87050000D02*
X178260000Y-85560000D01*
X178260000Y-85560000D02*
X178200000Y-85500000D01*
X179110000Y-76190000D02*
X179910000Y-76190000D01*
X177800000Y-83000000D02*
X177800000Y-77500000D01*
X177800000Y-77500000D02*
X179110000Y-76190000D01*
X180960000Y-86712500D02*
X181812500Y-86712500D01*
X181812500Y-86712500D02*
X182400000Y-87300000D01*
X178260000Y-100950000D02*
X179750000Y-100950000D01*
X179750000Y-100950000D02*
X179800000Y-100900000D01*
X179800359Y-92599641D02*
X179850000Y-92550000D01*
X178260000Y-92550000D02*
X179850000Y-92550000D01*
X179800359Y-93899561D02*
X179800359Y-92599641D01*
X179850000Y-92550000D02*
X180622500Y-92550000D01*
X179800000Y-99000000D02*
X179800000Y-95800000D01*
X179900000Y-99100000D02*
X179800000Y-99000000D01*
X180247500Y-73702500D02*
X180247500Y-74500000D01*
X180750000Y-73200000D02*
X180247500Y-73702500D01*
X187800000Y-73200000D02*
X180750000Y-73200000D01*
X190800000Y-76200000D02*
X187800000Y-73200000D01*
X191300000Y-76200000D02*
X190800000Y-76200000D01*
X195580000Y-76200000D02*
X192300000Y-76200000D01*
X192300000Y-78000000D02*
X192300000Y-76200000D01*
X192300000Y-76200000D02*
X191300000Y-76200000D01*
X192300000Y-79300000D02*
X192300000Y-78400000D01*
X191200000Y-78400000D02*
X192300000Y-78400000D01*
X192300000Y-78400000D02*
X192300000Y-78000000D01*
X192300000Y-88160000D02*
X195580000Y-91440000D01*
X191200000Y-81900000D02*
X191200000Y-83500000D01*
X191200000Y-83500000D02*
X191700000Y-84000000D01*
X191700000Y-84000000D02*
X192300000Y-84000000D01*
X192300000Y-82900000D02*
X192300000Y-84000000D01*
X192300000Y-84000000D02*
X192300000Y-88160000D01*
X180960000Y-92212500D02*
X182000000Y-91172500D01*
X182000000Y-91172500D02*
X182000000Y-91100000D01*
D18*
%TO.N,Net-(D1-Pad1)*%
X158020000Y-95377500D02*
X158020000Y-97950000D01*
%TO.N,Net-(D1-Pad2)*%
X156950000Y-77660000D02*
X157950000Y-77660000D01*
X161996160Y-83196160D02*
X161996160Y-87382208D01*
X158800000Y-80000000D02*
X161996160Y-83196160D01*
X158800000Y-78510000D02*
X158800000Y-80000000D01*
X157950000Y-77660000D02*
X158800000Y-78510000D01*
X161000000Y-90700000D02*
X161000000Y-90200000D01*
X158020000Y-93502500D02*
X158197500Y-93502500D01*
X158197500Y-93502500D02*
X161000000Y-90700000D01*
%TO.N,Net-(D2-Pad1)*%
X155480000Y-95377500D02*
X155480000Y-97950000D01*
%TO.N,Net-(D2-Pad2)*%
X161385802Y-83285802D02*
X161385802Y-86703930D01*
X158300000Y-79280000D02*
X158300000Y-80200000D01*
X157950000Y-78930000D02*
X158300000Y-79280000D01*
X156950000Y-78930000D02*
X157950000Y-78930000D01*
X161385802Y-86703930D02*
X161297719Y-86792013D01*
X158300000Y-80200000D02*
X161385802Y-83285802D01*
X155480000Y-93502500D02*
X156497500Y-93502500D01*
X156497500Y-93502500D02*
X160800000Y-89200000D01*
%TO.N,Net-(D3-Pad2)*%
X160700000Y-83300000D02*
X160700000Y-86100000D01*
X157600000Y-80200000D02*
X160700000Y-83300000D01*
X156950000Y-80200000D02*
X157600000Y-80200000D01*
X155642500Y-90800000D02*
X157800000Y-90800000D01*
X152940000Y-93502500D02*
X155642500Y-90800000D01*
X157800000Y-90800000D02*
X160300000Y-88300000D01*
%TO.N,Net-(D3-Pad1)*%
X152940000Y-95377500D02*
X152940000Y-97950000D01*
%TO.N,Net-(J2-Pad1)*%
X162700000Y-90000000D02*
X162700000Y-92112500D01*
X162700000Y-89700000D02*
X162700000Y-90000000D01*
X157080000Y-81600000D02*
X158200000Y-81600000D01*
X156950000Y-81470000D02*
X157080000Y-81600000D01*
X158200000Y-81600000D02*
X159900000Y-83300000D01*
X159900000Y-83300000D02*
X159900000Y-86900000D01*
X159900000Y-86900000D02*
X162700000Y-89700000D01*
%TO.N,RX_2V5*%
X151050000Y-82740000D02*
X152960000Y-82740000D01*
X152960000Y-82740000D02*
X154000000Y-81700000D01*
X167640000Y-78740000D02*
X166380000Y-80000000D01*
X166380000Y-80000000D02*
X159900000Y-80000000D01*
%TO.N,RX_2V5_B*%
X167640000Y-81280000D02*
X167640000Y-85040000D01*
X167640000Y-85040000D02*
X167700000Y-85100000D01*
X174600000Y-89600000D02*
X175250000Y-88950000D01*
X168800000Y-86200000D02*
X172200000Y-89600000D01*
X175250000Y-88950000D02*
X175660000Y-88950000D01*
X172200000Y-89600000D02*
X174600000Y-89600000D01*
%TO.N,RX_2V5_A*%
X167640000Y-76200000D02*
X170300000Y-76200000D01*
X171560000Y-77460000D02*
X174010000Y-77460000D01*
X170300000Y-76200000D02*
X171560000Y-77460000D01*
%TO.N,TX_2V5*%
X159559994Y-78740000D02*
X159499994Y-78800000D01*
X165100000Y-78740000D02*
X159559994Y-78740000D01*
X153490000Y-84010000D02*
X154900000Y-82600000D01*
X154900000Y-82600000D02*
X154900000Y-79400000D01*
X151050000Y-84010000D02*
X153490000Y-84010000D01*
%TO.N,TX_2V5_A*%
X166400000Y-77500000D02*
X165100000Y-76200000D01*
X170100000Y-77500000D02*
X166400000Y-77500000D01*
X174010000Y-78730000D02*
X171330000Y-78730000D01*
X171330000Y-78730000D02*
X170100000Y-77500000D01*
%TO.N,TX_2V5_B*%
X165100000Y-81280000D02*
X165100000Y-84000000D01*
X165100000Y-84000000D02*
X166900000Y-85800000D01*
X175250000Y-94450000D02*
X175660000Y-94450000D01*
X170100000Y-89000000D02*
X170100000Y-93600000D01*
X168100000Y-87000000D02*
X170100000Y-89000000D01*
X170100000Y-93600000D02*
X171600000Y-95100000D01*
X171600000Y-95100000D02*
X174600000Y-95100000D01*
X174600000Y-95100000D02*
X175250000Y-94450000D01*
%TO.N,RX_A*%
X186460000Y-74700000D02*
X187960000Y-76200000D01*
X182740000Y-77460000D02*
X183700000Y-76500000D01*
X183700000Y-76500000D02*
X183700000Y-75400000D01*
X183700000Y-75400000D02*
X184400000Y-74700000D01*
X179910000Y-77460000D02*
X182740000Y-77460000D01*
X184400000Y-74700000D02*
X186460000Y-74700000D01*
%TO.N,RX_B*%
X187960000Y-85739998D02*
X184399998Y-89300000D01*
X187960000Y-81280000D02*
X187960000Y-85739998D01*
X178260000Y-88950000D02*
X178650000Y-88950000D01*
X179600000Y-89900000D02*
X182900000Y-89900000D01*
X178650000Y-88950000D02*
X179600000Y-89900000D01*
%TO.N,RX*%
X195160000Y-81700000D02*
X195580000Y-81280000D01*
X193300000Y-81700000D02*
X195160000Y-81700000D01*
X187960000Y-78740000D02*
X190340000Y-78740000D01*
X190340000Y-78740000D02*
X193300000Y-81700000D01*
%TO.N,TX_B*%
X178260000Y-94450000D02*
X179350000Y-94450000D01*
X179350000Y-94450000D02*
X179900000Y-95000000D01*
X179900000Y-95000000D02*
X182100000Y-95000000D01*
X182100000Y-95000000D02*
X183600000Y-93500000D01*
X183600000Y-93500000D02*
X183600000Y-91200000D01*
X185200000Y-81500000D02*
X185420000Y-81280000D01*
X185200000Y-87200000D02*
X185200000Y-81500000D01*
%TO.N,TX_A*%
X182890000Y-78730000D02*
X185420000Y-76200000D01*
X179910000Y-78730000D02*
X182890000Y-78730000D01*
%TO.N,TX*%
X194320000Y-83820000D02*
X195580000Y-83820000D01*
X190500000Y-80000000D02*
X194320000Y-83820000D01*
X185420000Y-78740000D02*
X186680000Y-80000000D01*
X186680000Y-80000000D02*
X190500000Y-80000000D01*
%TO.N,Net-(J20-Pad3)*%
X195100000Y-97000000D02*
X195580000Y-96520000D01*
X192747500Y-97000000D02*
X195100000Y-97000000D01*
%TO.N,SCL*%
X127000000Y-99060000D02*
X126810000Y-99060000D01*
X125500000Y-97750000D02*
X123500000Y-97750000D01*
X123000000Y-77660000D02*
X124460000Y-76200000D01*
X123500000Y-97750000D02*
X123000000Y-97250000D01*
X126810000Y-99060000D02*
X125500000Y-97750000D01*
X123000000Y-97250000D02*
X123000000Y-77660000D01*
%TO.N,SDA*%
X122250000Y-75870000D02*
X124460000Y-73660000D01*
X124460000Y-99060000D02*
X123060000Y-99060000D01*
X122250000Y-98250000D02*
X122250000Y-75870000D01*
X123060000Y-99060000D02*
X122250000Y-98250000D01*
%TO.N,UPDI_2V5_A*%
X172530000Y-81270000D02*
X174010000Y-81270000D01*
X165100000Y-91440000D02*
X165100000Y-88700000D01*
X165100000Y-88700000D02*
X172530000Y-81270000D01*
%TO.N,UPDI_2V5*%
X164907500Y-93787500D02*
X165100000Y-93980000D01*
X164807500Y-93687500D02*
X165100000Y-93980000D01*
X162700000Y-93687500D02*
X164807500Y-93687500D01*
%TO.N,UPDI_2V5_B*%
X165100000Y-96520000D02*
X165520000Y-96100000D01*
X175660000Y-97660000D02*
X175660000Y-99050000D01*
X174100000Y-96100000D02*
X175660000Y-97660000D01*
X165520000Y-96100000D02*
X174100000Y-96100000D01*
%TO.N,UPDI_A*%
X179910000Y-81270000D02*
X182270000Y-81270000D01*
X182270000Y-81270000D02*
X183600000Y-82600000D01*
X183600000Y-82600000D02*
X183600000Y-89800000D01*
X185240000Y-91440000D02*
X187960000Y-91440000D01*
X183600000Y-89800000D02*
X185240000Y-91440000D01*
%TO.N,UPDI*%
X191172500Y-97000000D02*
X191172500Y-95872500D01*
X189280000Y-93980000D02*
X187960000Y-93980000D01*
X191172500Y-95872500D02*
X189280000Y-93980000D01*
%TO.N,UPDI_B*%
X184480000Y-100000000D02*
X187960000Y-96520000D01*
X178260000Y-100000000D02*
X184480000Y-100000000D01*
%TO.N,SCL_2V5_A*%
X139250000Y-94750000D02*
X141020000Y-96520000D01*
X137400000Y-90135000D02*
X138885000Y-90135000D01*
X141020000Y-96520000D02*
X142240000Y-96520000D01*
X139250000Y-90500000D02*
X139250000Y-94750000D01*
X138885000Y-90135000D02*
X139250000Y-90500000D01*
%TO.N,SCL_2V5*%
X156260000Y-82740000D02*
X156950000Y-82740000D01*
X150250000Y-94250000D02*
X150250000Y-90750000D01*
X157200000Y-89400000D02*
X158500000Y-88100000D01*
X142240000Y-99060000D02*
X143550000Y-97750000D01*
X155500000Y-84300000D02*
X155500000Y-83500000D01*
X150250000Y-90750000D02*
X151600000Y-89400000D01*
X143550000Y-97750000D02*
X146750000Y-97750000D01*
X151600000Y-89400000D02*
X157200000Y-89400000D01*
X158500000Y-88100000D02*
X158500000Y-87300000D01*
X146750000Y-97750000D02*
X150250000Y-94250000D01*
X158500000Y-87300000D02*
X155500000Y-84300000D01*
X155500000Y-83500000D02*
X156260000Y-82740000D01*
%TO.N,SCL_2V5_B*%
X140100000Y-101600000D02*
X142240000Y-101600000D01*
X139750000Y-101250000D02*
X140100000Y-101600000D01*
X139750000Y-98250000D02*
X139750000Y-101250000D01*
X138500000Y-97212500D02*
X138712500Y-97212500D01*
X138712500Y-97212500D02*
X139750000Y-98250000D01*
X137600000Y-98100000D02*
X138487500Y-97212500D01*
X135700000Y-97050000D02*
X135700000Y-97600000D01*
X138487500Y-97212500D02*
X138500000Y-97212500D01*
X136200000Y-98100000D02*
X137600000Y-98100000D01*
X135700000Y-97600000D02*
X136200000Y-98100000D01*
%TO.N,SDA_2V5_B*%
X138337500Y-101550000D02*
X138500000Y-101712500D01*
X135700000Y-101550000D02*
X138337500Y-101550000D01*
X143380000Y-103000000D02*
X144780000Y-101600000D01*
X139750000Y-103000000D02*
X143380000Y-103000000D01*
X138500000Y-101712500D02*
X138500000Y-101750000D01*
X138500000Y-101750000D02*
X139750000Y-103000000D01*
%TO.N,SDA_2V5*%
X157000000Y-84060000D02*
X156950000Y-84010000D01*
X159300000Y-84900000D02*
X158460000Y-84060000D01*
X159300000Y-88100000D02*
X159300000Y-84900000D01*
X157400000Y-90000000D02*
X159300000Y-88100000D01*
X158460000Y-84060000D02*
X157000000Y-84060000D01*
X144780000Y-99060000D02*
X146440000Y-99060000D01*
X146440000Y-99060000D02*
X151000000Y-94500000D01*
X151000000Y-94500000D02*
X151000000Y-91000000D01*
X151000000Y-91000000D02*
X152000000Y-90000000D01*
X152000000Y-90000000D02*
X157400000Y-90000000D01*
%TO.N,SDA_2V5_A*%
X143260000Y-95000000D02*
X144780000Y-96520000D01*
X138865000Y-88865000D02*
X140000000Y-90000000D01*
X140000000Y-90000000D02*
X140000000Y-93500000D01*
X137400000Y-88865000D02*
X138865000Y-88865000D01*
X140000000Y-93500000D02*
X141500000Y-95000000D01*
X141500000Y-95000000D02*
X143260000Y-95000000D01*
%TO.N,SCL_B*%
X130500000Y-97212500D02*
X129787500Y-97212500D01*
X129787500Y-97212500D02*
X129250000Y-97750000D01*
X129250000Y-97750000D02*
X129250000Y-101250000D01*
X128900000Y-101600000D02*
X127000000Y-101600000D01*
X129250000Y-101250000D02*
X128900000Y-101600000D01*
X131287500Y-98000000D02*
X130500000Y-97212500D01*
X133300000Y-98000000D02*
X131287500Y-98000000D01*
%TO.N,SCL_A*%
X131600000Y-90135000D02*
X130115000Y-90135000D01*
X130115000Y-90135000D02*
X129500000Y-90750000D01*
X129500000Y-94020000D02*
X127000000Y-96520000D01*
X129500000Y-90750000D02*
X129500000Y-94020000D01*
%TO.N,SDA_B*%
X126000000Y-103000000D02*
X124600000Y-101600000D01*
X124600000Y-101600000D02*
X124460000Y-101600000D01*
X130500000Y-101712500D02*
X129212500Y-103000000D01*
X129212500Y-103000000D02*
X126000000Y-103000000D01*
X131287500Y-102500000D02*
X130500000Y-101712500D01*
X133300000Y-102500000D02*
X131287500Y-102500000D01*
%TO.N,SDA_A*%
X125980000Y-95000000D02*
X124460000Y-96520000D01*
X130385000Y-88865000D02*
X128750000Y-90500000D01*
X131600000Y-88865000D02*
X130385000Y-88865000D01*
X128750000Y-90500000D02*
X128750000Y-93750000D01*
X127500000Y-95000000D02*
X125980000Y-95000000D01*
X128750000Y-93750000D02*
X127500000Y-95000000D01*
%TO.N,VCTRL*%
X136287500Y-85500000D02*
X136287500Y-85487500D01*
X136287500Y-85487500D02*
X135500000Y-84700000D01*
X135500000Y-84700000D02*
X135500000Y-84400000D01*
X134550000Y-83450000D02*
X134200000Y-83450000D01*
X135500000Y-84400000D02*
X134550000Y-83450000D01*
X144000000Y-84800000D02*
X145050000Y-85850000D01*
X145050000Y-85850000D02*
X145050000Y-86200000D01*
X141100000Y-84800000D02*
X144000000Y-84800000D01*
X136287500Y-85500000D02*
X140400000Y-85500000D01*
X140400000Y-85500000D02*
X141100000Y-84800000D01*
X151050000Y-81470000D02*
X149615800Y-81470000D01*
X149615800Y-81470000D02*
X149585800Y-81500000D01*
X144000000Y-82800000D02*
X144000000Y-84800000D01*
X145000000Y-81800000D02*
X144000000Y-82800000D01*
%TO.N,Net-(SW1-Pad2)*%
X151050000Y-80200000D02*
X152500000Y-80200000D01*
X152500000Y-80200000D02*
X153000000Y-80700000D01*
X153000000Y-80700000D02*
X153000000Y-81500000D01*
X160800000Y-100800000D02*
X160800000Y-92100000D01*
X159400000Y-103500000D02*
X159400000Y-102200000D01*
X159400000Y-102200000D02*
X160800000Y-100800000D01*
X157700000Y-87700000D02*
X157700000Y-87800000D01*
X154600000Y-84000000D02*
X154600000Y-84600000D01*
X154600000Y-84600000D02*
X157700000Y-87700000D01*
%TO.N,Net-(JP1-Pad2)*%
X142240000Y-90540000D02*
X142240000Y-88900000D01*
X143000000Y-91212500D02*
X142912500Y-91212500D01*
X142912500Y-91212500D02*
X142240000Y-90540000D01*
%TO.N,VBAT_ADC_A*%
X141000000Y-82287500D02*
X143000000Y-82287500D01*
X154940000Y-87630000D02*
X154930000Y-87630000D01*
X154930000Y-87630000D02*
X153200000Y-85900000D01*
X153200000Y-85900000D02*
X151700000Y-85900000D01*
X149500000Y-85900000D02*
X147900000Y-84300000D01*
X147900000Y-84300000D02*
X147500000Y-83900000D01*
X147500000Y-83900000D02*
X146762000Y-83900000D01*
X143000000Y-83500000D02*
X143000000Y-82287500D01*
D16*
%TO.N,VBAT_ADC_B*%
X148430000Y-86200000D02*
X149860000Y-87630000D01*
X146950000Y-86200000D02*
X148430000Y-86200000D01*
D18*
%TO.N,Net-(R8-Pad2)*%
X143000000Y-92787500D02*
X145000000Y-92787500D01*
X145112500Y-92787500D02*
X145000000Y-92787500D01*
X145900000Y-92000000D02*
X145112500Y-92787500D01*
X145900000Y-90600000D02*
X145900000Y-92000000D01*
X145050000Y-88800000D02*
X145050000Y-89750000D01*
X145050000Y-89750000D02*
X145900000Y-90600000D01*
%TD*%
M02*
