M48
; DRILL file {KiCad 5.1.6} date Fri Jun 12 20:59:42 2020
; FORMAT={-:-/ absolute / inch / decimal}
; #@! TF.CreationDate,2020-06-12T20:59:42-07:00
; #@! TF.GenerationSoftware,Kicad,Pcbnew,5.1.6
; #@! TF.FileFunction,Plated,1,2,PTH
FMAT,2
INCH
T1C0.0160
T2C0.0180
T3C0.0315
T4C0.0330
T5C0.0394
T6C0.0400
%
G90
G05
T1
X5.2756Y-3.5335
X5.3268Y-3.5827
X5.6299Y-3.2874
X5.7087Y-3.2205
X5.778Y-3.3031
X5.8858Y-3.3819
X5.8892Y-3.2087
X5.9724Y-3.3819
X6.0236Y-3.2087
X6.063Y-3.2165
X6.0866Y-3.3071
X6.0984Y-3.126
X6.2087Y-3.4567
X6.2795Y-3.1024
X6.2953Y-3.1496
X6.311Y-3.4764
X6.3268Y-3.3898
X6.3307Y-3.5118
X6.3307Y-3.626
X6.3386Y-3.5512
X6.3503Y-3.417
X6.3778Y-3.4402
X6.5709Y-3.378
X6.6024Y-3.3504
X6.6181Y-3.4252
X6.6457Y-3.3937
X7.2008Y-3.5394
X7.2283Y-3.5906
X7.2598Y-3.5157
X7.2913Y-3.4331
T2
X4.2913Y-3.189
X4.2913Y-3.5039
X4.3307Y-3.1496
X4.3307Y-3.5433
X4.5276Y-3.1496
X4.5276Y-3.5433
X4.5669Y-3.189
X4.5669Y-3.5039
X4.6457Y-3.3071
X4.6457Y-3.3858
X5.1299Y-3.1142
X5.1628Y-3.0232
X5.2244Y-3.1142
X5.248Y-3.7205
X5.2638Y-3.3661
X5.3425Y-3.7205
X5.3937Y-3.815
X5.4134Y-3.937
X5.4134Y-4.0315
X5.4252Y-3.7835
X5.4528Y-3.6496
X5.4528Y-3.7008
X5.4685Y-3.4488
X5.4724Y-3.2756
X5.5807Y-3.6417
X5.5807Y-3.6811
X5.6299Y-3.1417
X5.6772Y-3.5591
X5.7795Y-2.9882
X5.7835Y-3.5472
X5.7874Y-3.1417
X5.874Y-2.9882
X5.9685Y-4.0197
X5.9724Y-3.9449
X6.122Y-3.9921
X6.1339Y-2.9331
X6.2717Y-3.9449
X6.7598Y-3.7008
X6.7598Y-3.815
X6.7638Y-3.4606
X6.8346Y-3.563
X6.8504Y-3.3346
X6.8583Y-3.7087
X6.8583Y-4.0157
X6.8622Y-3.9213
X6.9016Y-2.8937
X6.9291Y-3.3661
X6.937Y-2.9331
X6.9961Y-2.9331
X7.0Y-3.2677
X7.0157Y-3.3661
X7.0315Y-2.8937
X7.0787Y-3.7717
X7.0787Y-3.9724
X7.0788Y-3.6968
X7.0827Y-3.9016
X7.0945Y-3.5039
X7.1142Y-4.0512
X7.1654Y-3.5866
X7.1654Y-3.6929
X7.1811Y-3.437
X7.5276Y-3.0866
X7.5276Y-3.2244
X7.5709Y-3.122
X7.5709Y-3.2638
T3
X6.4055Y-3.5433
T4
X4.3504Y-3.9173
X4.3504Y-3.9961
T5
X7.3Y-3.0
X7.3Y-3.1
X7.3Y-3.2
X7.7Y-3.0
X7.7Y-3.1
X7.7Y-3.2
X7.7Y-3.3
X5.7Y-3.8
X5.7Y-3.9
X5.7Y-4.0
X7.4Y-3.0
X7.4Y-3.1
X7.4Y-3.2
X7.4Y-3.6
X7.4Y-3.7
X7.4Y-3.8
X5.6Y-3.4
X5.6Y-3.5
X6.5Y-3.6
X6.5Y-3.7
X6.5Y-3.8
X4.9Y-3.8
X4.9Y-3.9
X4.9Y-4.0
X5.9Y-3.45
X6.0Y-3.45
X6.1Y-3.45
X4.9Y-2.9
X4.9Y-3.0
X4.9Y-3.1
X4.9Y-3.2
X6.5Y-3.0
X6.5Y-3.1
X6.5Y-3.2
X5.6Y-3.8
X5.6Y-3.9
X5.6Y-4.0
X4.5Y-3.9
X4.5Y-4.0
X6.6Y-3.0
X6.6Y-3.1
X6.6Y-3.2
X5.0Y-3.8
X5.0Y-3.9
X5.0Y-4.0
X7.7Y-3.6
X7.7Y-3.7
X7.7Y-3.8
T6
X4.3691Y-2.9331
X4.3691Y-3.7531
X4.4891Y-2.9331
X4.4891Y-3.7531
T0
M30
