%TF.GenerationSoftware,KiCad,Pcbnew,5.1.6*%
%TF.CreationDate,2020-06-12T20:58:39-07:00*%
%TF.ProjectId,pcb-lab-1,7063622d-6c61-4622-9d31-2e6b69636164,rev?*%
%TF.SameCoordinates,Original*%
%TF.FileFunction,Other,Fab,Top*%
%FSLAX46Y46*%
G04 Gerber Fmt 4.6, Leading zero omitted, Abs format (unit mm)*
G04 Created by KiCad (PCBNEW 5.1.6) date 2020-06-12 20:58:39*
%MOMM*%
%LPD*%
G01*
G04 APERTURE LIST*
%ADD10C,0.100000*%
%ADD11C,0.150000*%
%ADD12C,0.080000*%
%ADD13C,0.060000*%
%ADD14C,0.101600*%
%ADD15C,0.075000*%
%ADD16C,0.127000*%
G04 APERTURE END LIST*
D10*
%TO.C,C1*%
X126900000Y-79000000D02*
X128100000Y-79000000D01*
X128100000Y-79000000D02*
X128100000Y-81000000D01*
X128100000Y-81000000D02*
X126900000Y-81000000D01*
X126900000Y-81000000D02*
X126900000Y-79000000D01*
%TO.C,C2*%
X131600000Y-74200000D02*
X132400000Y-74200000D01*
X132400000Y-74200000D02*
X132400000Y-75800000D01*
X132400000Y-75800000D02*
X131600000Y-75800000D01*
X131600000Y-75800000D02*
X131600000Y-74200000D01*
%TO.C,C3*%
X138600000Y-75800000D02*
X138600000Y-74200000D01*
X139400000Y-75800000D02*
X138600000Y-75800000D01*
X139400000Y-74200000D02*
X139400000Y-75800000D01*
X138600000Y-74200000D02*
X139400000Y-74200000D01*
%TO.C,C4*%
X153200000Y-74900000D02*
X153200000Y-74100000D01*
X153200000Y-74100000D02*
X154800000Y-74100000D01*
X154800000Y-74100000D02*
X154800000Y-74900000D01*
X154800000Y-74900000D02*
X153200000Y-74900000D01*
%TO.C,C5*%
X132100000Y-79000000D02*
X132100000Y-81000000D01*
X130900000Y-79000000D02*
X132100000Y-79000000D01*
X130900000Y-81000000D02*
X130900000Y-79000000D01*
X132100000Y-81000000D02*
X130900000Y-81000000D01*
%TO.C,C6*%
X138600000Y-80700000D02*
X139400000Y-80700000D01*
X139400000Y-80700000D02*
X139400000Y-82300000D01*
X139400000Y-82300000D02*
X138600000Y-82300000D01*
X138600000Y-82300000D02*
X138600000Y-80700000D01*
%TO.C,C7*%
X147600000Y-79800000D02*
X147600000Y-78200000D01*
X148400000Y-79800000D02*
X147600000Y-79800000D01*
X148400000Y-78200000D02*
X148400000Y-79800000D01*
X147600000Y-78200000D02*
X148400000Y-78200000D01*
%TO.C,C10*%
X173660000Y-74900000D02*
X173660000Y-74100000D01*
X173660000Y-74100000D02*
X175260000Y-74100000D01*
X175260000Y-74100000D02*
X175260000Y-74900000D01*
X175260000Y-74900000D02*
X173660000Y-74900000D01*
%TO.C,C11*%
X178660000Y-74100000D02*
X180260000Y-74100000D01*
X178660000Y-74900000D02*
X178660000Y-74100000D01*
X180260000Y-74900000D02*
X178660000Y-74900000D01*
X180260000Y-74100000D02*
X180260000Y-74900000D01*
%TO.C,C12*%
X172560000Y-88300000D02*
X172560000Y-86700000D01*
X173360000Y-88300000D02*
X172560000Y-88300000D01*
X173360000Y-86700000D02*
X173360000Y-88300000D01*
X172560000Y-86700000D02*
X173360000Y-86700000D01*
%TO.C,C13*%
X172560000Y-93800000D02*
X172560000Y-92200000D01*
X173360000Y-93800000D02*
X172560000Y-93800000D01*
X173360000Y-92200000D02*
X173360000Y-93800000D01*
X172560000Y-92200000D02*
X173360000Y-92200000D01*
%TO.C,C14*%
X180560000Y-86700000D02*
X181360000Y-86700000D01*
X181360000Y-86700000D02*
X181360000Y-88300000D01*
X181360000Y-88300000D02*
X180560000Y-88300000D01*
X180560000Y-88300000D02*
X180560000Y-86700000D01*
%TO.C,C15*%
X180560000Y-92200000D02*
X181360000Y-92200000D01*
X181360000Y-92200000D02*
X181360000Y-93800000D01*
X181360000Y-93800000D02*
X180560000Y-93800000D01*
X180560000Y-93800000D02*
X180560000Y-92200000D01*
%TO.C,C20*%
X175760000Y-102600000D02*
X175760000Y-103400000D01*
X175760000Y-103400000D02*
X174160000Y-103400000D01*
X174160000Y-103400000D02*
X174160000Y-102600000D01*
X174160000Y-102600000D02*
X175760000Y-102600000D01*
%TO.C,C21*%
X179760000Y-103400000D02*
X178160000Y-103400000D01*
X179760000Y-102600000D02*
X179760000Y-103400000D01*
X178160000Y-102600000D02*
X179760000Y-102600000D01*
X178160000Y-103400000D02*
X178160000Y-102600000D01*
%TO.C,C30*%
X135700000Y-93100000D02*
X137300000Y-93100000D01*
X135700000Y-93900000D02*
X135700000Y-93100000D01*
X137300000Y-93900000D02*
X135700000Y-93900000D01*
X137300000Y-93100000D02*
X137300000Y-93900000D01*
%TO.C,C31*%
X131700000Y-93900000D02*
X131700000Y-93100000D01*
X131700000Y-93100000D02*
X133300000Y-93100000D01*
X133300000Y-93100000D02*
X133300000Y-93900000D01*
X133300000Y-93900000D02*
X131700000Y-93900000D01*
%TO.C,D1*%
X157420000Y-93440000D02*
X157420000Y-95140000D01*
X157420000Y-95140000D02*
X157720000Y-95440000D01*
X157720000Y-95440000D02*
X158620000Y-95440000D01*
X158620000Y-95440000D02*
X158620000Y-93440000D01*
X158620000Y-93440000D02*
X157420000Y-93440000D01*
%TO.C,D2*%
X154880000Y-93440000D02*
X154880000Y-95140000D01*
X154880000Y-95140000D02*
X155180000Y-95440000D01*
X155180000Y-95440000D02*
X156080000Y-95440000D01*
X156080000Y-95440000D02*
X156080000Y-93440000D01*
X156080000Y-93440000D02*
X154880000Y-93440000D01*
%TO.C,D3*%
X153540000Y-93440000D02*
X152340000Y-93440000D01*
X153540000Y-95440000D02*
X153540000Y-93440000D01*
X152640000Y-95440000D02*
X153540000Y-95440000D01*
X152340000Y-95140000D02*
X152640000Y-95440000D01*
X152340000Y-93440000D02*
X152340000Y-95140000D01*
%TO.C,JST_PH_BAT1*%
X109150000Y-100000000D02*
X109650000Y-99500000D01*
X109150000Y-99000000D02*
X109150000Y-100000000D01*
X109650000Y-99500000D02*
X109150000Y-99000000D01*
X110250000Y-102750000D02*
X110250000Y-98250000D01*
X111850000Y-102750000D02*
X110250000Y-102750000D01*
X111850000Y-103450000D02*
X111850000Y-102750000D01*
X104250000Y-103450000D02*
X111850000Y-103450000D01*
X104250000Y-97550000D02*
X104250000Y-103450000D01*
X111850000Y-97550000D02*
X104250000Y-97550000D01*
X111850000Y-98250000D02*
X111850000Y-97550000D01*
X110250000Y-98250000D02*
X111850000Y-98250000D01*
%TO.C,Q30*%
X135200000Y-96480000D02*
X133800000Y-96480000D01*
X133800000Y-99520000D02*
X133800000Y-96480000D01*
X135200000Y-98950000D02*
X134650000Y-99520000D01*
X134650000Y-99520000D02*
X133800000Y-99520000D01*
X135200000Y-98950000D02*
X135200000Y-96500000D01*
%TO.C,Q31*%
X135200000Y-103450000D02*
X135200000Y-101000000D01*
X134650000Y-104020000D02*
X133800000Y-104020000D01*
X135200000Y-103450000D02*
X134650000Y-104020000D01*
X133800000Y-104020000D02*
X133800000Y-100980000D01*
X135200000Y-100980000D02*
X133800000Y-100980000D01*
%TO.C,R1*%
X157400000Y-100100000D02*
X157400000Y-98100000D01*
X157400000Y-98100000D02*
X158640000Y-98100000D01*
X158640000Y-98100000D02*
X158640000Y-100100000D01*
X158640000Y-100100000D02*
X157400000Y-100100000D01*
%TO.C,R2*%
X154860000Y-100100000D02*
X154860000Y-98100000D01*
X154860000Y-98100000D02*
X156100000Y-98100000D01*
X156100000Y-98100000D02*
X156100000Y-100100000D01*
X156100000Y-100100000D02*
X154860000Y-100100000D01*
%TO.C,R3*%
X153560000Y-100100000D02*
X152320000Y-100100000D01*
X153560000Y-98100000D02*
X153560000Y-100100000D01*
X152320000Y-98100000D02*
X153560000Y-98100000D01*
X152320000Y-100100000D02*
X152320000Y-98100000D01*
%TO.C,R4*%
X162300000Y-92100000D02*
X163100000Y-92100000D01*
X163100000Y-92100000D02*
X163100000Y-93700000D01*
X163100000Y-93700000D02*
X162300000Y-93700000D01*
X162300000Y-93700000D02*
X162300000Y-92100000D01*
%TO.C,R5*%
X136300000Y-85100000D02*
X136300000Y-85900000D01*
X136300000Y-85900000D02*
X134700000Y-85900000D01*
X134700000Y-85900000D02*
X134700000Y-85100000D01*
X134700000Y-85100000D02*
X136300000Y-85100000D01*
%TO.C,R6*%
X140600000Y-82300000D02*
X140600000Y-80700000D01*
X141400000Y-82300000D02*
X140600000Y-82300000D01*
X141400000Y-80700000D02*
X141400000Y-82300000D01*
X140600000Y-80700000D02*
X141400000Y-80700000D01*
%TO.C,R7*%
X143400000Y-82300000D02*
X142600000Y-82300000D01*
X142600000Y-82300000D02*
X142600000Y-80700000D01*
X142600000Y-80700000D02*
X143400000Y-80700000D01*
X143400000Y-80700000D02*
X143400000Y-82300000D01*
%TO.C,R20*%
X192760000Y-97400000D02*
X191160000Y-97400000D01*
X192760000Y-96600000D02*
X192760000Y-97400000D01*
X191160000Y-96600000D02*
X192760000Y-96600000D01*
X191160000Y-97400000D02*
X191160000Y-96600000D01*
%TO.C,R30*%
X138900000Y-97200000D02*
X138900000Y-98800000D01*
X138100000Y-97200000D02*
X138900000Y-97200000D01*
X138100000Y-98800000D02*
X138100000Y-97200000D01*
X138900000Y-98800000D02*
X138100000Y-98800000D01*
%TO.C,R31*%
X130900000Y-98800000D02*
X130100000Y-98800000D01*
X130100000Y-98800000D02*
X130100000Y-97200000D01*
X130100000Y-97200000D02*
X130900000Y-97200000D01*
X130900000Y-97200000D02*
X130900000Y-98800000D01*
%TO.C,R32*%
X138900000Y-101700000D02*
X138900000Y-103300000D01*
X138100000Y-101700000D02*
X138900000Y-101700000D01*
X138100000Y-103300000D02*
X138100000Y-101700000D01*
X138900000Y-103300000D02*
X138100000Y-103300000D01*
%TO.C,R33*%
X130900000Y-103300000D02*
X130100000Y-103300000D01*
X130100000Y-103300000D02*
X130100000Y-101700000D01*
X130100000Y-101700000D02*
X130900000Y-101700000D01*
X130900000Y-101700000D02*
X130900000Y-103300000D01*
%TO.C,SW1*%
X158500000Y-101600000D02*
X158500000Y-105400000D01*
X152500000Y-101600000D02*
X152500000Y-105400000D01*
X152500000Y-101600000D02*
X158500000Y-101600000D01*
X152500000Y-105400000D02*
X158500000Y-105400000D01*
X154000000Y-102700000D02*
X154000000Y-104300000D01*
X157000000Y-102700000D02*
X157000000Y-104300000D01*
X154000000Y-102700000D02*
X157000000Y-102700000D01*
X154000000Y-104300000D02*
X157000000Y-104300000D01*
X153750000Y-104500000D02*
X153750000Y-102500000D01*
X157250000Y-104500000D02*
X153750000Y-104500000D01*
X157250000Y-102500000D02*
X157250000Y-104500000D01*
X153750000Y-102500000D02*
X157250000Y-102500000D01*
%TO.C,U1*%
X136400000Y-73950000D02*
X136400000Y-77050000D01*
X136400000Y-77050000D02*
X134600000Y-77050000D01*
X134600000Y-74600000D02*
X134600000Y-77050000D01*
X136400000Y-73950000D02*
X135250000Y-73950000D01*
X134600000Y-74600000D02*
X135250000Y-73950000D01*
D11*
%TO.C,U2*%
X152730000Y-77025000D02*
X153365000Y-76390000D01*
X152730000Y-84010000D02*
X152730000Y-77025000D01*
X155270000Y-84010000D02*
X152730000Y-84010000D01*
X155270000Y-76390000D02*
X155270000Y-84010000D01*
X153365000Y-76390000D02*
X155270000Y-76390000D01*
D10*
%TO.C,U5*%
X136400000Y-83400000D02*
X135750000Y-84050000D01*
X134600000Y-84050000D02*
X135750000Y-84050000D01*
X136400000Y-83400000D02*
X136400000Y-80950000D01*
X134600000Y-80950000D02*
X136400000Y-80950000D01*
X134600000Y-84050000D02*
X134600000Y-80950000D01*
D11*
%TO.C,U10*%
X176325000Y-76190000D02*
X178230000Y-76190000D01*
X178230000Y-76190000D02*
X178230000Y-83810000D01*
X178230000Y-83810000D02*
X175690000Y-83810000D01*
X175690000Y-83810000D02*
X175690000Y-76825000D01*
X175690000Y-76825000D02*
X176325000Y-76190000D01*
D10*
%TO.C,U11*%
X176060000Y-87100000D02*
X176710000Y-86450000D01*
X177860000Y-86450000D02*
X176710000Y-86450000D01*
X176060000Y-87100000D02*
X176060000Y-89550000D01*
X177860000Y-89550000D02*
X176060000Y-89550000D01*
X177860000Y-86450000D02*
X177860000Y-89550000D01*
%TO.C,U12*%
X177860000Y-91950000D02*
X177860000Y-95050000D01*
X177860000Y-95050000D02*
X176060000Y-95050000D01*
X176060000Y-92600000D02*
X176060000Y-95050000D01*
X177860000Y-91950000D02*
X176710000Y-91950000D01*
X176060000Y-92600000D02*
X176710000Y-91950000D01*
%TO.C,U20*%
X177860000Y-98450000D02*
X177860000Y-101550000D01*
X177860000Y-101550000D02*
X176060000Y-101550000D01*
X176060000Y-99100000D02*
X176060000Y-101550000D01*
X177860000Y-98450000D02*
X176710000Y-98450000D01*
X176060000Y-99100000D02*
X176710000Y-98450000D01*
%TO.C,U30*%
X136450000Y-90950000D02*
X135450000Y-91950000D01*
X136450000Y-87050000D02*
X136450000Y-90950000D01*
X132550000Y-87050000D02*
X136450000Y-87050000D01*
X132550000Y-91950000D02*
X132550000Y-87050000D01*
X135450000Y-91950000D02*
X132550000Y-91950000D01*
%TO.C,C8*%
X147400000Y-76000000D02*
X147400000Y-74000000D01*
X148600000Y-76000000D02*
X147400000Y-76000000D01*
X148600000Y-74000000D02*
X148600000Y-76000000D01*
X147400000Y-74000000D02*
X148600000Y-74000000D01*
%TO.C,R8*%
X142600000Y-91200000D02*
X143400000Y-91200000D01*
X143400000Y-91200000D02*
X143400000Y-92800000D01*
X143400000Y-92800000D02*
X142600000Y-92800000D01*
X142600000Y-92800000D02*
X142600000Y-91200000D01*
%TO.C,R9*%
X145400000Y-91200000D02*
X145400000Y-92800000D01*
X144600000Y-91200000D02*
X145400000Y-91200000D01*
X144600000Y-92800000D02*
X144600000Y-91200000D01*
X145400000Y-92800000D02*
X144600000Y-92800000D01*
%TO.C,U6*%
X144450000Y-86600000D02*
X147550000Y-86600000D01*
X147550000Y-86600000D02*
X147550000Y-88400000D01*
X145100000Y-88400000D02*
X147550000Y-88400000D01*
X144450000Y-86600000D02*
X144450000Y-87750000D01*
X145100000Y-88400000D02*
X144450000Y-87750000D01*
%TD*%
%TO.C,BT1*%
D11*
X113357142Y-87009238D02*
X113404761Y-87056857D01*
X113452380Y-87199714D01*
X113452380Y-87294952D01*
X113404761Y-87437809D01*
X113309523Y-87533047D01*
X113214285Y-87580666D01*
X113023809Y-87628285D01*
X112880952Y-87628285D01*
X112690476Y-87580666D01*
X112595238Y-87533047D01*
X112500000Y-87437809D01*
X112452380Y-87294952D01*
X112452380Y-87199714D01*
X112500000Y-87056857D01*
X112547619Y-87009238D01*
X113452380Y-86009238D02*
X112976190Y-86342571D01*
X113452380Y-86580666D02*
X112452380Y-86580666D01*
X112452380Y-86199714D01*
X112500000Y-86104476D01*
X112547619Y-86056857D01*
X112642857Y-86009238D01*
X112785714Y-86009238D01*
X112880952Y-86056857D01*
X112928571Y-86104476D01*
X112976190Y-86199714D01*
X112976190Y-86580666D01*
X112547619Y-85628285D02*
X112500000Y-85580666D01*
X112452380Y-85485428D01*
X112452380Y-85247333D01*
X112500000Y-85152095D01*
X112547619Y-85104476D01*
X112642857Y-85056857D01*
X112738095Y-85056857D01*
X112880952Y-85104476D01*
X113452380Y-85675904D01*
X113452380Y-85056857D01*
X112452380Y-84437809D02*
X112452380Y-84342571D01*
X112500000Y-84247333D01*
X112547619Y-84199714D01*
X112642857Y-84152095D01*
X112833333Y-84104476D01*
X113071428Y-84104476D01*
X113261904Y-84152095D01*
X113357142Y-84199714D01*
X113404761Y-84247333D01*
X113452380Y-84342571D01*
X113452380Y-84437809D01*
X113404761Y-84533047D01*
X113357142Y-84580666D01*
X113261904Y-84628285D01*
X113071428Y-84675904D01*
X112833333Y-84675904D01*
X112642857Y-84628285D01*
X112547619Y-84580666D01*
X112500000Y-84533047D01*
X112452380Y-84437809D01*
X112452380Y-83771142D02*
X112452380Y-83152095D01*
X112833333Y-83485428D01*
X112833333Y-83342571D01*
X112880952Y-83247333D01*
X112928571Y-83199714D01*
X113023809Y-83152095D01*
X113261904Y-83152095D01*
X113357142Y-83199714D01*
X113404761Y-83247333D01*
X113452380Y-83342571D01*
X113452380Y-83628285D01*
X113404761Y-83723523D01*
X113357142Y-83771142D01*
X112547619Y-82771142D02*
X112500000Y-82723523D01*
X112452380Y-82628285D01*
X112452380Y-82390190D01*
X112500000Y-82294952D01*
X112547619Y-82247333D01*
X112642857Y-82199714D01*
X112738095Y-82199714D01*
X112880952Y-82247333D01*
X113452380Y-82818761D01*
X113452380Y-82199714D01*
%TO.C,C1*%
X126302380Y-80642857D02*
X126302380Y-81214285D01*
X126302380Y-80928571D02*
X125302380Y-80928571D01*
X125445238Y-81023809D01*
X125540476Y-81119047D01*
X125588095Y-81214285D01*
X125302380Y-80023809D02*
X125302380Y-79928571D01*
X125350000Y-79833333D01*
X125397619Y-79785714D01*
X125492857Y-79738095D01*
X125683333Y-79690476D01*
X125921428Y-79690476D01*
X126111904Y-79738095D01*
X126207142Y-79785714D01*
X126254761Y-79833333D01*
X126302380Y-79928571D01*
X126302380Y-80023809D01*
X126254761Y-80119047D01*
X126207142Y-80166666D01*
X126111904Y-80214285D01*
X125921428Y-80261904D01*
X125683333Y-80261904D01*
X125492857Y-80214285D01*
X125397619Y-80166666D01*
X125350000Y-80119047D01*
X125302380Y-80023809D01*
X125635714Y-78833333D02*
X126302380Y-78833333D01*
X125635714Y-79261904D02*
X126159523Y-79261904D01*
X126254761Y-79214285D01*
X126302380Y-79119047D01*
X126302380Y-78976190D01*
X126254761Y-78880952D01*
X126207142Y-78833333D01*
D12*
X127678571Y-80083333D02*
X127702380Y-80107142D01*
X127726190Y-80178571D01*
X127726190Y-80226190D01*
X127702380Y-80297619D01*
X127654761Y-80345238D01*
X127607142Y-80369047D01*
X127511904Y-80392857D01*
X127440476Y-80392857D01*
X127345238Y-80369047D01*
X127297619Y-80345238D01*
X127250000Y-80297619D01*
X127226190Y-80226190D01*
X127226190Y-80178571D01*
X127250000Y-80107142D01*
X127273809Y-80083333D01*
X127726190Y-79607142D02*
X127726190Y-79892857D01*
X127726190Y-79750000D02*
X127226190Y-79750000D01*
X127297619Y-79797619D01*
X127345238Y-79845238D01*
X127369047Y-79892857D01*
%TO.C,C2*%
D11*
X131022380Y-76119047D02*
X131022380Y-76690476D01*
X131022380Y-76404761D02*
X130022380Y-76404761D01*
X130165238Y-76500000D01*
X130260476Y-76595238D01*
X130308095Y-76690476D01*
X130022380Y-75500000D02*
X130022380Y-75404761D01*
X130070000Y-75309523D01*
X130117619Y-75261904D01*
X130212857Y-75214285D01*
X130403333Y-75166666D01*
X130641428Y-75166666D01*
X130831904Y-75214285D01*
X130927142Y-75261904D01*
X130974761Y-75309523D01*
X131022380Y-75404761D01*
X131022380Y-75500000D01*
X130974761Y-75595238D01*
X130927142Y-75642857D01*
X130831904Y-75690476D01*
X130641428Y-75738095D01*
X130403333Y-75738095D01*
X130212857Y-75690476D01*
X130117619Y-75642857D01*
X130070000Y-75595238D01*
X130022380Y-75500000D01*
X130022380Y-74547619D02*
X130022380Y-74452380D01*
X130070000Y-74357142D01*
X130117619Y-74309523D01*
X130212857Y-74261904D01*
X130403333Y-74214285D01*
X130641428Y-74214285D01*
X130831904Y-74261904D01*
X130927142Y-74309523D01*
X130974761Y-74357142D01*
X131022380Y-74452380D01*
X131022380Y-74547619D01*
X130974761Y-74642857D01*
X130927142Y-74690476D01*
X130831904Y-74738095D01*
X130641428Y-74785714D01*
X130403333Y-74785714D01*
X130212857Y-74738095D01*
X130117619Y-74690476D01*
X130070000Y-74642857D01*
X130022380Y-74547619D01*
X130355714Y-73785714D02*
X131022380Y-73785714D01*
X130450952Y-73785714D02*
X130403333Y-73738095D01*
X130355714Y-73642857D01*
X130355714Y-73500000D01*
X130403333Y-73404761D01*
X130498571Y-73357142D01*
X131022380Y-73357142D01*
D13*
X132142857Y-75066666D02*
X132161904Y-75085714D01*
X132180952Y-75142857D01*
X132180952Y-75180952D01*
X132161904Y-75238095D01*
X132123809Y-75276190D01*
X132085714Y-75295238D01*
X132009523Y-75314285D01*
X131952380Y-75314285D01*
X131876190Y-75295238D01*
X131838095Y-75276190D01*
X131800000Y-75238095D01*
X131780952Y-75180952D01*
X131780952Y-75142857D01*
X131800000Y-75085714D01*
X131819047Y-75066666D01*
X131819047Y-74914285D02*
X131800000Y-74895238D01*
X131780952Y-74857142D01*
X131780952Y-74761904D01*
X131800000Y-74723809D01*
X131819047Y-74704761D01*
X131857142Y-74685714D01*
X131895238Y-74685714D01*
X131952380Y-74704761D01*
X132180952Y-74933333D01*
X132180952Y-74685714D01*
%TO.C,C3*%
D11*
X138022380Y-76119047D02*
X138022380Y-76690476D01*
X138022380Y-76404761D02*
X137022380Y-76404761D01*
X137165238Y-76500000D01*
X137260476Y-76595238D01*
X137308095Y-76690476D01*
X137022380Y-75500000D02*
X137022380Y-75404761D01*
X137070000Y-75309523D01*
X137117619Y-75261904D01*
X137212857Y-75214285D01*
X137403333Y-75166666D01*
X137641428Y-75166666D01*
X137831904Y-75214285D01*
X137927142Y-75261904D01*
X137974761Y-75309523D01*
X138022380Y-75404761D01*
X138022380Y-75500000D01*
X137974761Y-75595238D01*
X137927142Y-75642857D01*
X137831904Y-75690476D01*
X137641428Y-75738095D01*
X137403333Y-75738095D01*
X137212857Y-75690476D01*
X137117619Y-75642857D01*
X137070000Y-75595238D01*
X137022380Y-75500000D01*
X137022380Y-74547619D02*
X137022380Y-74452380D01*
X137070000Y-74357142D01*
X137117619Y-74309523D01*
X137212857Y-74261904D01*
X137403333Y-74214285D01*
X137641428Y-74214285D01*
X137831904Y-74261904D01*
X137927142Y-74309523D01*
X137974761Y-74357142D01*
X138022380Y-74452380D01*
X138022380Y-74547619D01*
X137974761Y-74642857D01*
X137927142Y-74690476D01*
X137831904Y-74738095D01*
X137641428Y-74785714D01*
X137403333Y-74785714D01*
X137212857Y-74738095D01*
X137117619Y-74690476D01*
X137070000Y-74642857D01*
X137022380Y-74547619D01*
X137355714Y-73785714D02*
X138022380Y-73785714D01*
X137450952Y-73785714D02*
X137403333Y-73738095D01*
X137355714Y-73642857D01*
X137355714Y-73500000D01*
X137403333Y-73404761D01*
X137498571Y-73357142D01*
X138022380Y-73357142D01*
D13*
X139142857Y-75066666D02*
X139161904Y-75085714D01*
X139180952Y-75142857D01*
X139180952Y-75180952D01*
X139161904Y-75238095D01*
X139123809Y-75276190D01*
X139085714Y-75295238D01*
X139009523Y-75314285D01*
X138952380Y-75314285D01*
X138876190Y-75295238D01*
X138838095Y-75276190D01*
X138800000Y-75238095D01*
X138780952Y-75180952D01*
X138780952Y-75142857D01*
X138800000Y-75085714D01*
X138819047Y-75066666D01*
X138780952Y-74933333D02*
X138780952Y-74685714D01*
X138933333Y-74819047D01*
X138933333Y-74761904D01*
X138952380Y-74723809D01*
X138971428Y-74704761D01*
X139009523Y-74685714D01*
X139104761Y-74685714D01*
X139142857Y-74704761D01*
X139161904Y-74723809D01*
X139180952Y-74761904D01*
X139180952Y-74876190D01*
X139161904Y-74914285D01*
X139142857Y-74933333D01*
%TO.C,C4*%
D11*
X152880952Y-76382380D02*
X152309523Y-76382380D01*
X152595238Y-76382380D02*
X152595238Y-75382380D01*
X152500000Y-75525238D01*
X152404761Y-75620476D01*
X152309523Y-75668095D01*
X153500000Y-75382380D02*
X153595238Y-75382380D01*
X153690476Y-75430000D01*
X153738095Y-75477619D01*
X153785714Y-75572857D01*
X153833333Y-75763333D01*
X153833333Y-76001428D01*
X153785714Y-76191904D01*
X153738095Y-76287142D01*
X153690476Y-76334761D01*
X153595238Y-76382380D01*
X153500000Y-76382380D01*
X153404761Y-76334761D01*
X153357142Y-76287142D01*
X153309523Y-76191904D01*
X153261904Y-76001428D01*
X153261904Y-75763333D01*
X153309523Y-75572857D01*
X153357142Y-75477619D01*
X153404761Y-75430000D01*
X153500000Y-75382380D01*
X154452380Y-75382380D02*
X154547619Y-75382380D01*
X154642857Y-75430000D01*
X154690476Y-75477619D01*
X154738095Y-75572857D01*
X154785714Y-75763333D01*
X154785714Y-76001428D01*
X154738095Y-76191904D01*
X154690476Y-76287142D01*
X154642857Y-76334761D01*
X154547619Y-76382380D01*
X154452380Y-76382380D01*
X154357142Y-76334761D01*
X154309523Y-76287142D01*
X154261904Y-76191904D01*
X154214285Y-76001428D01*
X154214285Y-75763333D01*
X154261904Y-75572857D01*
X154309523Y-75477619D01*
X154357142Y-75430000D01*
X154452380Y-75382380D01*
X155214285Y-75715714D02*
X155214285Y-76382380D01*
X155214285Y-75810952D02*
X155261904Y-75763333D01*
X155357142Y-75715714D01*
X155500000Y-75715714D01*
X155595238Y-75763333D01*
X155642857Y-75858571D01*
X155642857Y-76382380D01*
D13*
X153933333Y-74642857D02*
X153914285Y-74661904D01*
X153857142Y-74680952D01*
X153819047Y-74680952D01*
X153761904Y-74661904D01*
X153723809Y-74623809D01*
X153704761Y-74585714D01*
X153685714Y-74509523D01*
X153685714Y-74452380D01*
X153704761Y-74376190D01*
X153723809Y-74338095D01*
X153761904Y-74300000D01*
X153819047Y-74280952D01*
X153857142Y-74280952D01*
X153914285Y-74300000D01*
X153933333Y-74319047D01*
X154276190Y-74414285D02*
X154276190Y-74680952D01*
X154180952Y-74261904D02*
X154085714Y-74547619D01*
X154333333Y-74547619D01*
%TO.C,C5*%
D11*
X133602380Y-80166666D02*
X133602380Y-80738095D01*
X133602380Y-80452380D02*
X132602380Y-80452380D01*
X132745238Y-80547619D01*
X132840476Y-80642857D01*
X132888095Y-80738095D01*
X132935714Y-79309523D02*
X133602380Y-79309523D01*
X132935714Y-79738095D02*
X133459523Y-79738095D01*
X133554761Y-79690476D01*
X133602380Y-79595238D01*
X133602380Y-79452380D01*
X133554761Y-79357142D01*
X133507142Y-79309523D01*
D12*
X131678571Y-80083333D02*
X131702380Y-80107142D01*
X131726190Y-80178571D01*
X131726190Y-80226190D01*
X131702380Y-80297619D01*
X131654761Y-80345238D01*
X131607142Y-80369047D01*
X131511904Y-80392857D01*
X131440476Y-80392857D01*
X131345238Y-80369047D01*
X131297619Y-80345238D01*
X131250000Y-80297619D01*
X131226190Y-80226190D01*
X131226190Y-80178571D01*
X131250000Y-80107142D01*
X131273809Y-80083333D01*
X131226190Y-79630952D02*
X131226190Y-79869047D01*
X131464285Y-79892857D01*
X131440476Y-79869047D01*
X131416666Y-79821428D01*
X131416666Y-79702380D01*
X131440476Y-79654761D01*
X131464285Y-79630952D01*
X131511904Y-79607142D01*
X131630952Y-79607142D01*
X131678571Y-79630952D01*
X131702380Y-79654761D01*
X131726190Y-79702380D01*
X131726190Y-79821428D01*
X131702380Y-79869047D01*
X131678571Y-79892857D01*
%TO.C,C6*%
D11*
X138022380Y-82619047D02*
X138022380Y-83190476D01*
X138022380Y-82904761D02*
X137022380Y-82904761D01*
X137165238Y-83000000D01*
X137260476Y-83095238D01*
X137308095Y-83190476D01*
X137022380Y-82000000D02*
X137022380Y-81904761D01*
X137070000Y-81809523D01*
X137117619Y-81761904D01*
X137212857Y-81714285D01*
X137403333Y-81666666D01*
X137641428Y-81666666D01*
X137831904Y-81714285D01*
X137927142Y-81761904D01*
X137974761Y-81809523D01*
X138022380Y-81904761D01*
X138022380Y-82000000D01*
X137974761Y-82095238D01*
X137927142Y-82142857D01*
X137831904Y-82190476D01*
X137641428Y-82238095D01*
X137403333Y-82238095D01*
X137212857Y-82190476D01*
X137117619Y-82142857D01*
X137070000Y-82095238D01*
X137022380Y-82000000D01*
X137022380Y-81047619D02*
X137022380Y-80952380D01*
X137070000Y-80857142D01*
X137117619Y-80809523D01*
X137212857Y-80761904D01*
X137403333Y-80714285D01*
X137641428Y-80714285D01*
X137831904Y-80761904D01*
X137927142Y-80809523D01*
X137974761Y-80857142D01*
X138022380Y-80952380D01*
X138022380Y-81047619D01*
X137974761Y-81142857D01*
X137927142Y-81190476D01*
X137831904Y-81238095D01*
X137641428Y-81285714D01*
X137403333Y-81285714D01*
X137212857Y-81238095D01*
X137117619Y-81190476D01*
X137070000Y-81142857D01*
X137022380Y-81047619D01*
X137355714Y-80285714D02*
X138022380Y-80285714D01*
X137450952Y-80285714D02*
X137403333Y-80238095D01*
X137355714Y-80142857D01*
X137355714Y-80000000D01*
X137403333Y-79904761D01*
X137498571Y-79857142D01*
X138022380Y-79857142D01*
D13*
X139142857Y-81566666D02*
X139161904Y-81585714D01*
X139180952Y-81642857D01*
X139180952Y-81680952D01*
X139161904Y-81738095D01*
X139123809Y-81776190D01*
X139085714Y-81795238D01*
X139009523Y-81814285D01*
X138952380Y-81814285D01*
X138876190Y-81795238D01*
X138838095Y-81776190D01*
X138800000Y-81738095D01*
X138780952Y-81680952D01*
X138780952Y-81642857D01*
X138800000Y-81585714D01*
X138819047Y-81566666D01*
X138780952Y-81223809D02*
X138780952Y-81300000D01*
X138800000Y-81338095D01*
X138819047Y-81357142D01*
X138876190Y-81395238D01*
X138952380Y-81414285D01*
X139104761Y-81414285D01*
X139142857Y-81395238D01*
X139161904Y-81376190D01*
X139180952Y-81338095D01*
X139180952Y-81261904D01*
X139161904Y-81223809D01*
X139142857Y-81204761D01*
X139104761Y-81185714D01*
X139009523Y-81185714D01*
X138971428Y-81204761D01*
X138952380Y-81223809D01*
X138933333Y-81261904D01*
X138933333Y-81338095D01*
X138952380Y-81376190D01*
X138971428Y-81395238D01*
X139009523Y-81414285D01*
%TO.C,C7*%
D11*
X147022380Y-80119047D02*
X147022380Y-80690476D01*
X147022380Y-80404761D02*
X146022380Y-80404761D01*
X146165238Y-80500000D01*
X146260476Y-80595238D01*
X146308095Y-80690476D01*
X146022380Y-79500000D02*
X146022380Y-79404761D01*
X146070000Y-79309523D01*
X146117619Y-79261904D01*
X146212857Y-79214285D01*
X146403333Y-79166666D01*
X146641428Y-79166666D01*
X146831904Y-79214285D01*
X146927142Y-79261904D01*
X146974761Y-79309523D01*
X147022380Y-79404761D01*
X147022380Y-79500000D01*
X146974761Y-79595238D01*
X146927142Y-79642857D01*
X146831904Y-79690476D01*
X146641428Y-79738095D01*
X146403333Y-79738095D01*
X146212857Y-79690476D01*
X146117619Y-79642857D01*
X146070000Y-79595238D01*
X146022380Y-79500000D01*
X146022380Y-78547619D02*
X146022380Y-78452380D01*
X146070000Y-78357142D01*
X146117619Y-78309523D01*
X146212857Y-78261904D01*
X146403333Y-78214285D01*
X146641428Y-78214285D01*
X146831904Y-78261904D01*
X146927142Y-78309523D01*
X146974761Y-78357142D01*
X147022380Y-78452380D01*
X147022380Y-78547619D01*
X146974761Y-78642857D01*
X146927142Y-78690476D01*
X146831904Y-78738095D01*
X146641428Y-78785714D01*
X146403333Y-78785714D01*
X146212857Y-78738095D01*
X146117619Y-78690476D01*
X146070000Y-78642857D01*
X146022380Y-78547619D01*
X146355714Y-77785714D02*
X147022380Y-77785714D01*
X146450952Y-77785714D02*
X146403333Y-77738095D01*
X146355714Y-77642857D01*
X146355714Y-77500000D01*
X146403333Y-77404761D01*
X146498571Y-77357142D01*
X147022380Y-77357142D01*
D13*
X148142857Y-79066666D02*
X148161904Y-79085714D01*
X148180952Y-79142857D01*
X148180952Y-79180952D01*
X148161904Y-79238095D01*
X148123809Y-79276190D01*
X148085714Y-79295238D01*
X148009523Y-79314285D01*
X147952380Y-79314285D01*
X147876190Y-79295238D01*
X147838095Y-79276190D01*
X147800000Y-79238095D01*
X147780952Y-79180952D01*
X147780952Y-79142857D01*
X147800000Y-79085714D01*
X147819047Y-79066666D01*
X147780952Y-78933333D02*
X147780952Y-78666666D01*
X148180952Y-78838095D01*
%TO.C,C10*%
D11*
X173340952Y-76382380D02*
X172769523Y-76382380D01*
X173055238Y-76382380D02*
X173055238Y-75382380D01*
X172960000Y-75525238D01*
X172864761Y-75620476D01*
X172769523Y-75668095D01*
X173960000Y-75382380D02*
X174055238Y-75382380D01*
X174150476Y-75430000D01*
X174198095Y-75477619D01*
X174245714Y-75572857D01*
X174293333Y-75763333D01*
X174293333Y-76001428D01*
X174245714Y-76191904D01*
X174198095Y-76287142D01*
X174150476Y-76334761D01*
X174055238Y-76382380D01*
X173960000Y-76382380D01*
X173864761Y-76334761D01*
X173817142Y-76287142D01*
X173769523Y-76191904D01*
X173721904Y-76001428D01*
X173721904Y-75763333D01*
X173769523Y-75572857D01*
X173817142Y-75477619D01*
X173864761Y-75430000D01*
X173960000Y-75382380D01*
X174912380Y-75382380D02*
X175007619Y-75382380D01*
X175102857Y-75430000D01*
X175150476Y-75477619D01*
X175198095Y-75572857D01*
X175245714Y-75763333D01*
X175245714Y-76001428D01*
X175198095Y-76191904D01*
X175150476Y-76287142D01*
X175102857Y-76334761D01*
X175007619Y-76382380D01*
X174912380Y-76382380D01*
X174817142Y-76334761D01*
X174769523Y-76287142D01*
X174721904Y-76191904D01*
X174674285Y-76001428D01*
X174674285Y-75763333D01*
X174721904Y-75572857D01*
X174769523Y-75477619D01*
X174817142Y-75430000D01*
X174912380Y-75382380D01*
X175674285Y-75715714D02*
X175674285Y-76382380D01*
X175674285Y-75810952D02*
X175721904Y-75763333D01*
X175817142Y-75715714D01*
X175960000Y-75715714D01*
X176055238Y-75763333D01*
X176102857Y-75858571D01*
X176102857Y-76382380D01*
D13*
X174202857Y-74642857D02*
X174183809Y-74661904D01*
X174126666Y-74680952D01*
X174088571Y-74680952D01*
X174031428Y-74661904D01*
X173993333Y-74623809D01*
X173974285Y-74585714D01*
X173955238Y-74509523D01*
X173955238Y-74452380D01*
X173974285Y-74376190D01*
X173993333Y-74338095D01*
X174031428Y-74300000D01*
X174088571Y-74280952D01*
X174126666Y-74280952D01*
X174183809Y-74300000D01*
X174202857Y-74319047D01*
X174583809Y-74680952D02*
X174355238Y-74680952D01*
X174469523Y-74680952D02*
X174469523Y-74280952D01*
X174431428Y-74338095D01*
X174393333Y-74376190D01*
X174355238Y-74395238D01*
X174831428Y-74280952D02*
X174869523Y-74280952D01*
X174907619Y-74300000D01*
X174926666Y-74319047D01*
X174945714Y-74357142D01*
X174964761Y-74433333D01*
X174964761Y-74528571D01*
X174945714Y-74604761D01*
X174926666Y-74642857D01*
X174907619Y-74661904D01*
X174869523Y-74680952D01*
X174831428Y-74680952D01*
X174793333Y-74661904D01*
X174774285Y-74642857D01*
X174755238Y-74604761D01*
X174736190Y-74528571D01*
X174736190Y-74433333D01*
X174755238Y-74357142D01*
X174774285Y-74319047D01*
X174793333Y-74300000D01*
X174831428Y-74280952D01*
%TO.C,C11*%
D11*
X178340952Y-73522380D02*
X177769523Y-73522380D01*
X178055238Y-73522380D02*
X178055238Y-72522380D01*
X177960000Y-72665238D01*
X177864761Y-72760476D01*
X177769523Y-72808095D01*
X178960000Y-72522380D02*
X179055238Y-72522380D01*
X179150476Y-72570000D01*
X179198095Y-72617619D01*
X179245714Y-72712857D01*
X179293333Y-72903333D01*
X179293333Y-73141428D01*
X179245714Y-73331904D01*
X179198095Y-73427142D01*
X179150476Y-73474761D01*
X179055238Y-73522380D01*
X178960000Y-73522380D01*
X178864761Y-73474761D01*
X178817142Y-73427142D01*
X178769523Y-73331904D01*
X178721904Y-73141428D01*
X178721904Y-72903333D01*
X178769523Y-72712857D01*
X178817142Y-72617619D01*
X178864761Y-72570000D01*
X178960000Y-72522380D01*
X179912380Y-72522380D02*
X180007619Y-72522380D01*
X180102857Y-72570000D01*
X180150476Y-72617619D01*
X180198095Y-72712857D01*
X180245714Y-72903333D01*
X180245714Y-73141428D01*
X180198095Y-73331904D01*
X180150476Y-73427142D01*
X180102857Y-73474761D01*
X180007619Y-73522380D01*
X179912380Y-73522380D01*
X179817142Y-73474761D01*
X179769523Y-73427142D01*
X179721904Y-73331904D01*
X179674285Y-73141428D01*
X179674285Y-72903333D01*
X179721904Y-72712857D01*
X179769523Y-72617619D01*
X179817142Y-72570000D01*
X179912380Y-72522380D01*
X180674285Y-72855714D02*
X180674285Y-73522380D01*
X180674285Y-72950952D02*
X180721904Y-72903333D01*
X180817142Y-72855714D01*
X180960000Y-72855714D01*
X181055238Y-72903333D01*
X181102857Y-72998571D01*
X181102857Y-73522380D01*
D13*
X179202857Y-74642857D02*
X179183809Y-74661904D01*
X179126666Y-74680952D01*
X179088571Y-74680952D01*
X179031428Y-74661904D01*
X178993333Y-74623809D01*
X178974285Y-74585714D01*
X178955238Y-74509523D01*
X178955238Y-74452380D01*
X178974285Y-74376190D01*
X178993333Y-74338095D01*
X179031428Y-74300000D01*
X179088571Y-74280952D01*
X179126666Y-74280952D01*
X179183809Y-74300000D01*
X179202857Y-74319047D01*
X179583809Y-74680952D02*
X179355238Y-74680952D01*
X179469523Y-74680952D02*
X179469523Y-74280952D01*
X179431428Y-74338095D01*
X179393333Y-74376190D01*
X179355238Y-74395238D01*
X179964761Y-74680952D02*
X179736190Y-74680952D01*
X179850476Y-74680952D02*
X179850476Y-74280952D01*
X179812380Y-74338095D01*
X179774285Y-74376190D01*
X179736190Y-74395238D01*
%TO.C,C12*%
D11*
X171982380Y-88619047D02*
X171982380Y-89190476D01*
X171982380Y-88904761D02*
X170982380Y-88904761D01*
X171125238Y-89000000D01*
X171220476Y-89095238D01*
X171268095Y-89190476D01*
X170982380Y-88000000D02*
X170982380Y-87904761D01*
X171030000Y-87809523D01*
X171077619Y-87761904D01*
X171172857Y-87714285D01*
X171363333Y-87666666D01*
X171601428Y-87666666D01*
X171791904Y-87714285D01*
X171887142Y-87761904D01*
X171934761Y-87809523D01*
X171982380Y-87904761D01*
X171982380Y-88000000D01*
X171934761Y-88095238D01*
X171887142Y-88142857D01*
X171791904Y-88190476D01*
X171601428Y-88238095D01*
X171363333Y-88238095D01*
X171172857Y-88190476D01*
X171077619Y-88142857D01*
X171030000Y-88095238D01*
X170982380Y-88000000D01*
X170982380Y-87047619D02*
X170982380Y-86952380D01*
X171030000Y-86857142D01*
X171077619Y-86809523D01*
X171172857Y-86761904D01*
X171363333Y-86714285D01*
X171601428Y-86714285D01*
X171791904Y-86761904D01*
X171887142Y-86809523D01*
X171934761Y-86857142D01*
X171982380Y-86952380D01*
X171982380Y-87047619D01*
X171934761Y-87142857D01*
X171887142Y-87190476D01*
X171791904Y-87238095D01*
X171601428Y-87285714D01*
X171363333Y-87285714D01*
X171172857Y-87238095D01*
X171077619Y-87190476D01*
X171030000Y-87142857D01*
X170982380Y-87047619D01*
X171315714Y-86285714D02*
X171982380Y-86285714D01*
X171410952Y-86285714D02*
X171363333Y-86238095D01*
X171315714Y-86142857D01*
X171315714Y-86000000D01*
X171363333Y-85904761D01*
X171458571Y-85857142D01*
X171982380Y-85857142D01*
D13*
X173102857Y-87757142D02*
X173121904Y-87776190D01*
X173140952Y-87833333D01*
X173140952Y-87871428D01*
X173121904Y-87928571D01*
X173083809Y-87966666D01*
X173045714Y-87985714D01*
X172969523Y-88004761D01*
X172912380Y-88004761D01*
X172836190Y-87985714D01*
X172798095Y-87966666D01*
X172760000Y-87928571D01*
X172740952Y-87871428D01*
X172740952Y-87833333D01*
X172760000Y-87776190D01*
X172779047Y-87757142D01*
X173140952Y-87376190D02*
X173140952Y-87604761D01*
X173140952Y-87490476D02*
X172740952Y-87490476D01*
X172798095Y-87528571D01*
X172836190Y-87566666D01*
X172855238Y-87604761D01*
X172779047Y-87223809D02*
X172760000Y-87204761D01*
X172740952Y-87166666D01*
X172740952Y-87071428D01*
X172760000Y-87033333D01*
X172779047Y-87014285D01*
X172817142Y-86995238D01*
X172855238Y-86995238D01*
X172912380Y-87014285D01*
X173140952Y-87242857D01*
X173140952Y-86995238D01*
%TO.C,C13*%
D11*
X171982380Y-94119047D02*
X171982380Y-94690476D01*
X171982380Y-94404761D02*
X170982380Y-94404761D01*
X171125238Y-94500000D01*
X171220476Y-94595238D01*
X171268095Y-94690476D01*
X170982380Y-93500000D02*
X170982380Y-93404761D01*
X171030000Y-93309523D01*
X171077619Y-93261904D01*
X171172857Y-93214285D01*
X171363333Y-93166666D01*
X171601428Y-93166666D01*
X171791904Y-93214285D01*
X171887142Y-93261904D01*
X171934761Y-93309523D01*
X171982380Y-93404761D01*
X171982380Y-93500000D01*
X171934761Y-93595238D01*
X171887142Y-93642857D01*
X171791904Y-93690476D01*
X171601428Y-93738095D01*
X171363333Y-93738095D01*
X171172857Y-93690476D01*
X171077619Y-93642857D01*
X171030000Y-93595238D01*
X170982380Y-93500000D01*
X170982380Y-92547619D02*
X170982380Y-92452380D01*
X171030000Y-92357142D01*
X171077619Y-92309523D01*
X171172857Y-92261904D01*
X171363333Y-92214285D01*
X171601428Y-92214285D01*
X171791904Y-92261904D01*
X171887142Y-92309523D01*
X171934761Y-92357142D01*
X171982380Y-92452380D01*
X171982380Y-92547619D01*
X171934761Y-92642857D01*
X171887142Y-92690476D01*
X171791904Y-92738095D01*
X171601428Y-92785714D01*
X171363333Y-92785714D01*
X171172857Y-92738095D01*
X171077619Y-92690476D01*
X171030000Y-92642857D01*
X170982380Y-92547619D01*
X171315714Y-91785714D02*
X171982380Y-91785714D01*
X171410952Y-91785714D02*
X171363333Y-91738095D01*
X171315714Y-91642857D01*
X171315714Y-91500000D01*
X171363333Y-91404761D01*
X171458571Y-91357142D01*
X171982380Y-91357142D01*
D13*
X173102857Y-93257142D02*
X173121904Y-93276190D01*
X173140952Y-93333333D01*
X173140952Y-93371428D01*
X173121904Y-93428571D01*
X173083809Y-93466666D01*
X173045714Y-93485714D01*
X172969523Y-93504761D01*
X172912380Y-93504761D01*
X172836190Y-93485714D01*
X172798095Y-93466666D01*
X172760000Y-93428571D01*
X172740952Y-93371428D01*
X172740952Y-93333333D01*
X172760000Y-93276190D01*
X172779047Y-93257142D01*
X173140952Y-92876190D02*
X173140952Y-93104761D01*
X173140952Y-92990476D02*
X172740952Y-92990476D01*
X172798095Y-93028571D01*
X172836190Y-93066666D01*
X172855238Y-93104761D01*
X172740952Y-92742857D02*
X172740952Y-92495238D01*
X172893333Y-92628571D01*
X172893333Y-92571428D01*
X172912380Y-92533333D01*
X172931428Y-92514285D01*
X172969523Y-92495238D01*
X173064761Y-92495238D01*
X173102857Y-92514285D01*
X173121904Y-92533333D01*
X173140952Y-92571428D01*
X173140952Y-92685714D01*
X173121904Y-92723809D01*
X173102857Y-92742857D01*
%TO.C,C14*%
D11*
X179982380Y-88619047D02*
X179982380Y-89190476D01*
X179982380Y-88904761D02*
X178982380Y-88904761D01*
X179125238Y-89000000D01*
X179220476Y-89095238D01*
X179268095Y-89190476D01*
X178982380Y-88000000D02*
X178982380Y-87904761D01*
X179030000Y-87809523D01*
X179077619Y-87761904D01*
X179172857Y-87714285D01*
X179363333Y-87666666D01*
X179601428Y-87666666D01*
X179791904Y-87714285D01*
X179887142Y-87761904D01*
X179934761Y-87809523D01*
X179982380Y-87904761D01*
X179982380Y-88000000D01*
X179934761Y-88095238D01*
X179887142Y-88142857D01*
X179791904Y-88190476D01*
X179601428Y-88238095D01*
X179363333Y-88238095D01*
X179172857Y-88190476D01*
X179077619Y-88142857D01*
X179030000Y-88095238D01*
X178982380Y-88000000D01*
X178982380Y-87047619D02*
X178982380Y-86952380D01*
X179030000Y-86857142D01*
X179077619Y-86809523D01*
X179172857Y-86761904D01*
X179363333Y-86714285D01*
X179601428Y-86714285D01*
X179791904Y-86761904D01*
X179887142Y-86809523D01*
X179934761Y-86857142D01*
X179982380Y-86952380D01*
X179982380Y-87047619D01*
X179934761Y-87142857D01*
X179887142Y-87190476D01*
X179791904Y-87238095D01*
X179601428Y-87285714D01*
X179363333Y-87285714D01*
X179172857Y-87238095D01*
X179077619Y-87190476D01*
X179030000Y-87142857D01*
X178982380Y-87047619D01*
X179315714Y-86285714D02*
X179982380Y-86285714D01*
X179410952Y-86285714D02*
X179363333Y-86238095D01*
X179315714Y-86142857D01*
X179315714Y-86000000D01*
X179363333Y-85904761D01*
X179458571Y-85857142D01*
X179982380Y-85857142D01*
D13*
X181102857Y-87757142D02*
X181121904Y-87776190D01*
X181140952Y-87833333D01*
X181140952Y-87871428D01*
X181121904Y-87928571D01*
X181083809Y-87966666D01*
X181045714Y-87985714D01*
X180969523Y-88004761D01*
X180912380Y-88004761D01*
X180836190Y-87985714D01*
X180798095Y-87966666D01*
X180760000Y-87928571D01*
X180740952Y-87871428D01*
X180740952Y-87833333D01*
X180760000Y-87776190D01*
X180779047Y-87757142D01*
X181140952Y-87376190D02*
X181140952Y-87604761D01*
X181140952Y-87490476D02*
X180740952Y-87490476D01*
X180798095Y-87528571D01*
X180836190Y-87566666D01*
X180855238Y-87604761D01*
X180874285Y-87033333D02*
X181140952Y-87033333D01*
X180721904Y-87128571D02*
X181007619Y-87223809D01*
X181007619Y-86976190D01*
%TO.C,C15*%
D11*
X179982380Y-94119047D02*
X179982380Y-94690476D01*
X179982380Y-94404761D02*
X178982380Y-94404761D01*
X179125238Y-94500000D01*
X179220476Y-94595238D01*
X179268095Y-94690476D01*
X178982380Y-93500000D02*
X178982380Y-93404761D01*
X179030000Y-93309523D01*
X179077619Y-93261904D01*
X179172857Y-93214285D01*
X179363333Y-93166666D01*
X179601428Y-93166666D01*
X179791904Y-93214285D01*
X179887142Y-93261904D01*
X179934761Y-93309523D01*
X179982380Y-93404761D01*
X179982380Y-93500000D01*
X179934761Y-93595238D01*
X179887142Y-93642857D01*
X179791904Y-93690476D01*
X179601428Y-93738095D01*
X179363333Y-93738095D01*
X179172857Y-93690476D01*
X179077619Y-93642857D01*
X179030000Y-93595238D01*
X178982380Y-93500000D01*
X178982380Y-92547619D02*
X178982380Y-92452380D01*
X179030000Y-92357142D01*
X179077619Y-92309523D01*
X179172857Y-92261904D01*
X179363333Y-92214285D01*
X179601428Y-92214285D01*
X179791904Y-92261904D01*
X179887142Y-92309523D01*
X179934761Y-92357142D01*
X179982380Y-92452380D01*
X179982380Y-92547619D01*
X179934761Y-92642857D01*
X179887142Y-92690476D01*
X179791904Y-92738095D01*
X179601428Y-92785714D01*
X179363333Y-92785714D01*
X179172857Y-92738095D01*
X179077619Y-92690476D01*
X179030000Y-92642857D01*
X178982380Y-92547619D01*
X179315714Y-91785714D02*
X179982380Y-91785714D01*
X179410952Y-91785714D02*
X179363333Y-91738095D01*
X179315714Y-91642857D01*
X179315714Y-91500000D01*
X179363333Y-91404761D01*
X179458571Y-91357142D01*
X179982380Y-91357142D01*
D13*
X181102857Y-93257142D02*
X181121904Y-93276190D01*
X181140952Y-93333333D01*
X181140952Y-93371428D01*
X181121904Y-93428571D01*
X181083809Y-93466666D01*
X181045714Y-93485714D01*
X180969523Y-93504761D01*
X180912380Y-93504761D01*
X180836190Y-93485714D01*
X180798095Y-93466666D01*
X180760000Y-93428571D01*
X180740952Y-93371428D01*
X180740952Y-93333333D01*
X180760000Y-93276190D01*
X180779047Y-93257142D01*
X181140952Y-92876190D02*
X181140952Y-93104761D01*
X181140952Y-92990476D02*
X180740952Y-92990476D01*
X180798095Y-93028571D01*
X180836190Y-93066666D01*
X180855238Y-93104761D01*
X180740952Y-92514285D02*
X180740952Y-92704761D01*
X180931428Y-92723809D01*
X180912380Y-92704761D01*
X180893333Y-92666666D01*
X180893333Y-92571428D01*
X180912380Y-92533333D01*
X180931428Y-92514285D01*
X180969523Y-92495238D01*
X181064761Y-92495238D01*
X181102857Y-92514285D01*
X181121904Y-92533333D01*
X181140952Y-92571428D01*
X181140952Y-92666666D01*
X181121904Y-92704761D01*
X181102857Y-92723809D01*
%TO.C,C20*%
D11*
X173840952Y-102022380D02*
X173269523Y-102022380D01*
X173555238Y-102022380D02*
X173555238Y-101022380D01*
X173460000Y-101165238D01*
X173364761Y-101260476D01*
X173269523Y-101308095D01*
X174460000Y-101022380D02*
X174555238Y-101022380D01*
X174650476Y-101070000D01*
X174698095Y-101117619D01*
X174745714Y-101212857D01*
X174793333Y-101403333D01*
X174793333Y-101641428D01*
X174745714Y-101831904D01*
X174698095Y-101927142D01*
X174650476Y-101974761D01*
X174555238Y-102022380D01*
X174460000Y-102022380D01*
X174364761Y-101974761D01*
X174317142Y-101927142D01*
X174269523Y-101831904D01*
X174221904Y-101641428D01*
X174221904Y-101403333D01*
X174269523Y-101212857D01*
X174317142Y-101117619D01*
X174364761Y-101070000D01*
X174460000Y-101022380D01*
X175412380Y-101022380D02*
X175507619Y-101022380D01*
X175602857Y-101070000D01*
X175650476Y-101117619D01*
X175698095Y-101212857D01*
X175745714Y-101403333D01*
X175745714Y-101641428D01*
X175698095Y-101831904D01*
X175650476Y-101927142D01*
X175602857Y-101974761D01*
X175507619Y-102022380D01*
X175412380Y-102022380D01*
X175317142Y-101974761D01*
X175269523Y-101927142D01*
X175221904Y-101831904D01*
X175174285Y-101641428D01*
X175174285Y-101403333D01*
X175221904Y-101212857D01*
X175269523Y-101117619D01*
X175317142Y-101070000D01*
X175412380Y-101022380D01*
X176174285Y-101355714D02*
X176174285Y-102022380D01*
X176174285Y-101450952D02*
X176221904Y-101403333D01*
X176317142Y-101355714D01*
X176460000Y-101355714D01*
X176555238Y-101403333D01*
X176602857Y-101498571D01*
X176602857Y-102022380D01*
D13*
X174702857Y-103142857D02*
X174683809Y-103161904D01*
X174626666Y-103180952D01*
X174588571Y-103180952D01*
X174531428Y-103161904D01*
X174493333Y-103123809D01*
X174474285Y-103085714D01*
X174455238Y-103009523D01*
X174455238Y-102952380D01*
X174474285Y-102876190D01*
X174493333Y-102838095D01*
X174531428Y-102800000D01*
X174588571Y-102780952D01*
X174626666Y-102780952D01*
X174683809Y-102800000D01*
X174702857Y-102819047D01*
X174855238Y-102819047D02*
X174874285Y-102800000D01*
X174912380Y-102780952D01*
X175007619Y-102780952D01*
X175045714Y-102800000D01*
X175064761Y-102819047D01*
X175083809Y-102857142D01*
X175083809Y-102895238D01*
X175064761Y-102952380D01*
X174836190Y-103180952D01*
X175083809Y-103180952D01*
X175331428Y-102780952D02*
X175369523Y-102780952D01*
X175407619Y-102800000D01*
X175426666Y-102819047D01*
X175445714Y-102857142D01*
X175464761Y-102933333D01*
X175464761Y-103028571D01*
X175445714Y-103104761D01*
X175426666Y-103142857D01*
X175407619Y-103161904D01*
X175369523Y-103180952D01*
X175331428Y-103180952D01*
X175293333Y-103161904D01*
X175274285Y-103142857D01*
X175255238Y-103104761D01*
X175236190Y-103028571D01*
X175236190Y-102933333D01*
X175255238Y-102857142D01*
X175274285Y-102819047D01*
X175293333Y-102800000D01*
X175331428Y-102780952D01*
%TO.C,C21*%
D11*
X177840952Y-104882380D02*
X177269523Y-104882380D01*
X177555238Y-104882380D02*
X177555238Y-103882380D01*
X177460000Y-104025238D01*
X177364761Y-104120476D01*
X177269523Y-104168095D01*
X178460000Y-103882380D02*
X178555238Y-103882380D01*
X178650476Y-103930000D01*
X178698095Y-103977619D01*
X178745714Y-104072857D01*
X178793333Y-104263333D01*
X178793333Y-104501428D01*
X178745714Y-104691904D01*
X178698095Y-104787142D01*
X178650476Y-104834761D01*
X178555238Y-104882380D01*
X178460000Y-104882380D01*
X178364761Y-104834761D01*
X178317142Y-104787142D01*
X178269523Y-104691904D01*
X178221904Y-104501428D01*
X178221904Y-104263333D01*
X178269523Y-104072857D01*
X178317142Y-103977619D01*
X178364761Y-103930000D01*
X178460000Y-103882380D01*
X179412380Y-103882380D02*
X179507619Y-103882380D01*
X179602857Y-103930000D01*
X179650476Y-103977619D01*
X179698095Y-104072857D01*
X179745714Y-104263333D01*
X179745714Y-104501428D01*
X179698095Y-104691904D01*
X179650476Y-104787142D01*
X179602857Y-104834761D01*
X179507619Y-104882380D01*
X179412380Y-104882380D01*
X179317142Y-104834761D01*
X179269523Y-104787142D01*
X179221904Y-104691904D01*
X179174285Y-104501428D01*
X179174285Y-104263333D01*
X179221904Y-104072857D01*
X179269523Y-103977619D01*
X179317142Y-103930000D01*
X179412380Y-103882380D01*
X180174285Y-104215714D02*
X180174285Y-104882380D01*
X180174285Y-104310952D02*
X180221904Y-104263333D01*
X180317142Y-104215714D01*
X180460000Y-104215714D01*
X180555238Y-104263333D01*
X180602857Y-104358571D01*
X180602857Y-104882380D01*
D13*
X178702857Y-103142857D02*
X178683809Y-103161904D01*
X178626666Y-103180952D01*
X178588571Y-103180952D01*
X178531428Y-103161904D01*
X178493333Y-103123809D01*
X178474285Y-103085714D01*
X178455238Y-103009523D01*
X178455238Y-102952380D01*
X178474285Y-102876190D01*
X178493333Y-102838095D01*
X178531428Y-102800000D01*
X178588571Y-102780952D01*
X178626666Y-102780952D01*
X178683809Y-102800000D01*
X178702857Y-102819047D01*
X178855238Y-102819047D02*
X178874285Y-102800000D01*
X178912380Y-102780952D01*
X179007619Y-102780952D01*
X179045714Y-102800000D01*
X179064761Y-102819047D01*
X179083809Y-102857142D01*
X179083809Y-102895238D01*
X179064761Y-102952380D01*
X178836190Y-103180952D01*
X179083809Y-103180952D01*
X179464761Y-103180952D02*
X179236190Y-103180952D01*
X179350476Y-103180952D02*
X179350476Y-102780952D01*
X179312380Y-102838095D01*
X179274285Y-102876190D01*
X179236190Y-102895238D01*
%TO.C,C30*%
D11*
X135380952Y-92522380D02*
X134809523Y-92522380D01*
X135095238Y-92522380D02*
X135095238Y-91522380D01*
X135000000Y-91665238D01*
X134904761Y-91760476D01*
X134809523Y-91808095D01*
X136000000Y-91522380D02*
X136095238Y-91522380D01*
X136190476Y-91570000D01*
X136238095Y-91617619D01*
X136285714Y-91712857D01*
X136333333Y-91903333D01*
X136333333Y-92141428D01*
X136285714Y-92331904D01*
X136238095Y-92427142D01*
X136190476Y-92474761D01*
X136095238Y-92522380D01*
X136000000Y-92522380D01*
X135904761Y-92474761D01*
X135857142Y-92427142D01*
X135809523Y-92331904D01*
X135761904Y-92141428D01*
X135761904Y-91903333D01*
X135809523Y-91712857D01*
X135857142Y-91617619D01*
X135904761Y-91570000D01*
X136000000Y-91522380D01*
X136952380Y-91522380D02*
X137047619Y-91522380D01*
X137142857Y-91570000D01*
X137190476Y-91617619D01*
X137238095Y-91712857D01*
X137285714Y-91903333D01*
X137285714Y-92141428D01*
X137238095Y-92331904D01*
X137190476Y-92427142D01*
X137142857Y-92474761D01*
X137047619Y-92522380D01*
X136952380Y-92522380D01*
X136857142Y-92474761D01*
X136809523Y-92427142D01*
X136761904Y-92331904D01*
X136714285Y-92141428D01*
X136714285Y-91903333D01*
X136761904Y-91712857D01*
X136809523Y-91617619D01*
X136857142Y-91570000D01*
X136952380Y-91522380D01*
X137714285Y-91855714D02*
X137714285Y-92522380D01*
X137714285Y-91950952D02*
X137761904Y-91903333D01*
X137857142Y-91855714D01*
X138000000Y-91855714D01*
X138095238Y-91903333D01*
X138142857Y-91998571D01*
X138142857Y-92522380D01*
D13*
X136242857Y-93642857D02*
X136223809Y-93661904D01*
X136166666Y-93680952D01*
X136128571Y-93680952D01*
X136071428Y-93661904D01*
X136033333Y-93623809D01*
X136014285Y-93585714D01*
X135995238Y-93509523D01*
X135995238Y-93452380D01*
X136014285Y-93376190D01*
X136033333Y-93338095D01*
X136071428Y-93300000D01*
X136128571Y-93280952D01*
X136166666Y-93280952D01*
X136223809Y-93300000D01*
X136242857Y-93319047D01*
X136376190Y-93280952D02*
X136623809Y-93280952D01*
X136490476Y-93433333D01*
X136547619Y-93433333D01*
X136585714Y-93452380D01*
X136604761Y-93471428D01*
X136623809Y-93509523D01*
X136623809Y-93604761D01*
X136604761Y-93642857D01*
X136585714Y-93661904D01*
X136547619Y-93680952D01*
X136433333Y-93680952D01*
X136395238Y-93661904D01*
X136376190Y-93642857D01*
X136871428Y-93280952D02*
X136909523Y-93280952D01*
X136947619Y-93300000D01*
X136966666Y-93319047D01*
X136985714Y-93357142D01*
X137004761Y-93433333D01*
X137004761Y-93528571D01*
X136985714Y-93604761D01*
X136966666Y-93642857D01*
X136947619Y-93661904D01*
X136909523Y-93680952D01*
X136871428Y-93680952D01*
X136833333Y-93661904D01*
X136814285Y-93642857D01*
X136795238Y-93604761D01*
X136776190Y-93528571D01*
X136776190Y-93433333D01*
X136795238Y-93357142D01*
X136814285Y-93319047D01*
X136833333Y-93300000D01*
X136871428Y-93280952D01*
%TO.C,C31*%
D11*
X131380952Y-95382380D02*
X130809523Y-95382380D01*
X131095238Y-95382380D02*
X131095238Y-94382380D01*
X131000000Y-94525238D01*
X130904761Y-94620476D01*
X130809523Y-94668095D01*
X132000000Y-94382380D02*
X132095238Y-94382380D01*
X132190476Y-94430000D01*
X132238095Y-94477619D01*
X132285714Y-94572857D01*
X132333333Y-94763333D01*
X132333333Y-95001428D01*
X132285714Y-95191904D01*
X132238095Y-95287142D01*
X132190476Y-95334761D01*
X132095238Y-95382380D01*
X132000000Y-95382380D01*
X131904761Y-95334761D01*
X131857142Y-95287142D01*
X131809523Y-95191904D01*
X131761904Y-95001428D01*
X131761904Y-94763333D01*
X131809523Y-94572857D01*
X131857142Y-94477619D01*
X131904761Y-94430000D01*
X132000000Y-94382380D01*
X132952380Y-94382380D02*
X133047619Y-94382380D01*
X133142857Y-94430000D01*
X133190476Y-94477619D01*
X133238095Y-94572857D01*
X133285714Y-94763333D01*
X133285714Y-95001428D01*
X133238095Y-95191904D01*
X133190476Y-95287142D01*
X133142857Y-95334761D01*
X133047619Y-95382380D01*
X132952380Y-95382380D01*
X132857142Y-95334761D01*
X132809523Y-95287142D01*
X132761904Y-95191904D01*
X132714285Y-95001428D01*
X132714285Y-94763333D01*
X132761904Y-94572857D01*
X132809523Y-94477619D01*
X132857142Y-94430000D01*
X132952380Y-94382380D01*
X133714285Y-94715714D02*
X133714285Y-95382380D01*
X133714285Y-94810952D02*
X133761904Y-94763333D01*
X133857142Y-94715714D01*
X134000000Y-94715714D01*
X134095238Y-94763333D01*
X134142857Y-94858571D01*
X134142857Y-95382380D01*
D13*
X132242857Y-93642857D02*
X132223809Y-93661904D01*
X132166666Y-93680952D01*
X132128571Y-93680952D01*
X132071428Y-93661904D01*
X132033333Y-93623809D01*
X132014285Y-93585714D01*
X131995238Y-93509523D01*
X131995238Y-93452380D01*
X132014285Y-93376190D01*
X132033333Y-93338095D01*
X132071428Y-93300000D01*
X132128571Y-93280952D01*
X132166666Y-93280952D01*
X132223809Y-93300000D01*
X132242857Y-93319047D01*
X132376190Y-93280952D02*
X132623809Y-93280952D01*
X132490476Y-93433333D01*
X132547619Y-93433333D01*
X132585714Y-93452380D01*
X132604761Y-93471428D01*
X132623809Y-93509523D01*
X132623809Y-93604761D01*
X132604761Y-93642857D01*
X132585714Y-93661904D01*
X132547619Y-93680952D01*
X132433333Y-93680952D01*
X132395238Y-93661904D01*
X132376190Y-93642857D01*
X133004761Y-93680952D02*
X132776190Y-93680952D01*
X132890476Y-93680952D02*
X132890476Y-93280952D01*
X132852380Y-93338095D01*
X132814285Y-93376190D01*
X132776190Y-93395238D01*
%TO.C,D1*%
D11*
X160122380Y-95082857D02*
X159646190Y-95416190D01*
X160122380Y-95654285D02*
X159122380Y-95654285D01*
X159122380Y-95273333D01*
X159170000Y-95178095D01*
X159217619Y-95130476D01*
X159312857Y-95082857D01*
X159455714Y-95082857D01*
X159550952Y-95130476D01*
X159598571Y-95178095D01*
X159646190Y-95273333D01*
X159646190Y-95654285D01*
X159598571Y-94654285D02*
X159598571Y-94320952D01*
X160122380Y-94178095D02*
X160122380Y-94654285D01*
X159122380Y-94654285D01*
X159122380Y-94178095D01*
X160122380Y-93749523D02*
X159122380Y-93749523D01*
X159122380Y-93511428D01*
X159170000Y-93368571D01*
X159265238Y-93273333D01*
X159360476Y-93225714D01*
X159550952Y-93178095D01*
X159693809Y-93178095D01*
X159884285Y-93225714D01*
X159979523Y-93273333D01*
X160074761Y-93368571D01*
X160122380Y-93511428D01*
X160122380Y-93749523D01*
D12*
X158246190Y-94809047D02*
X157746190Y-94809047D01*
X157746190Y-94690000D01*
X157770000Y-94618571D01*
X157817619Y-94570952D01*
X157865238Y-94547142D01*
X157960476Y-94523333D01*
X158031904Y-94523333D01*
X158127142Y-94547142D01*
X158174761Y-94570952D01*
X158222380Y-94618571D01*
X158246190Y-94690000D01*
X158246190Y-94809047D01*
X158246190Y-94047142D02*
X158246190Y-94332857D01*
X158246190Y-94190000D02*
X157746190Y-94190000D01*
X157817619Y-94237619D01*
X157865238Y-94285238D01*
X157889047Y-94332857D01*
%TO.C,D2*%
D11*
X157106190Y-95297142D02*
X157582380Y-95297142D01*
X156582380Y-95630476D02*
X157106190Y-95297142D01*
X156582380Y-94963809D01*
X157058571Y-94630476D02*
X157058571Y-94297142D01*
X157582380Y-94154285D02*
X157582380Y-94630476D01*
X156582380Y-94630476D01*
X156582380Y-94154285D01*
X157582380Y-93249523D02*
X157582380Y-93725714D01*
X156582380Y-93725714D01*
D12*
X155706190Y-94809047D02*
X155206190Y-94809047D01*
X155206190Y-94690000D01*
X155230000Y-94618571D01*
X155277619Y-94570952D01*
X155325238Y-94547142D01*
X155420476Y-94523333D01*
X155491904Y-94523333D01*
X155587142Y-94547142D01*
X155634761Y-94570952D01*
X155682380Y-94618571D01*
X155706190Y-94690000D01*
X155706190Y-94809047D01*
X155253809Y-94332857D02*
X155230000Y-94309047D01*
X155206190Y-94261428D01*
X155206190Y-94142380D01*
X155230000Y-94094761D01*
X155253809Y-94070952D01*
X155301428Y-94047142D01*
X155349047Y-94047142D01*
X155420476Y-94070952D01*
X155706190Y-94356666D01*
X155706190Y-94047142D01*
%TO.C,D3*%
D11*
X154090000Y-95201904D02*
X154042380Y-95297142D01*
X154042380Y-95440000D01*
X154090000Y-95582857D01*
X154185238Y-95678095D01*
X154280476Y-95725714D01*
X154470952Y-95773333D01*
X154613809Y-95773333D01*
X154804285Y-95725714D01*
X154899523Y-95678095D01*
X154994761Y-95582857D01*
X155042380Y-95440000D01*
X155042380Y-95344761D01*
X154994761Y-95201904D01*
X154947142Y-95154285D01*
X154613809Y-95154285D01*
X154613809Y-95344761D01*
X155042380Y-94154285D02*
X154566190Y-94487619D01*
X155042380Y-94725714D02*
X154042380Y-94725714D01*
X154042380Y-94344761D01*
X154090000Y-94249523D01*
X154137619Y-94201904D01*
X154232857Y-94154285D01*
X154375714Y-94154285D01*
X154470952Y-94201904D01*
X154518571Y-94249523D01*
X154566190Y-94344761D01*
X154566190Y-94725714D01*
X155042380Y-93725714D02*
X154042380Y-93725714D01*
X155042380Y-93154285D01*
X154042380Y-93154285D01*
D12*
X153166190Y-94809047D02*
X152666190Y-94809047D01*
X152666190Y-94690000D01*
X152690000Y-94618571D01*
X152737619Y-94570952D01*
X152785238Y-94547142D01*
X152880476Y-94523333D01*
X152951904Y-94523333D01*
X153047142Y-94547142D01*
X153094761Y-94570952D01*
X153142380Y-94618571D01*
X153166190Y-94690000D01*
X153166190Y-94809047D01*
X152666190Y-94356666D02*
X152666190Y-94047142D01*
X152856666Y-94213809D01*
X152856666Y-94142380D01*
X152880476Y-94094761D01*
X152904285Y-94070952D01*
X152951904Y-94047142D01*
X153070952Y-94047142D01*
X153118571Y-94070952D01*
X153142380Y-94094761D01*
X153166190Y-94142380D01*
X153166190Y-94285238D01*
X153142380Y-94332857D01*
X153118571Y-94356666D01*
%TO.C,JST_PH_BAT1*%
D11*
X102702380Y-104309523D02*
X103416666Y-104309523D01*
X103559523Y-104357142D01*
X103654761Y-104452380D01*
X103702380Y-104595238D01*
X103702380Y-104690476D01*
X103654761Y-103880952D02*
X103702380Y-103738095D01*
X103702380Y-103500000D01*
X103654761Y-103404761D01*
X103607142Y-103357142D01*
X103511904Y-103309523D01*
X103416666Y-103309523D01*
X103321428Y-103357142D01*
X103273809Y-103404761D01*
X103226190Y-103500000D01*
X103178571Y-103690476D01*
X103130952Y-103785714D01*
X103083333Y-103833333D01*
X102988095Y-103880952D01*
X102892857Y-103880952D01*
X102797619Y-103833333D01*
X102750000Y-103785714D01*
X102702380Y-103690476D01*
X102702380Y-103452380D01*
X102750000Y-103309523D01*
X102702380Y-103023809D02*
X102702380Y-102452380D01*
X103702380Y-102738095D02*
X102702380Y-102738095D01*
X103797619Y-102357142D02*
X103797619Y-101595238D01*
X103702380Y-101357142D02*
X102702380Y-101357142D01*
X102702380Y-100976190D01*
X102750000Y-100880952D01*
X102797619Y-100833333D01*
X102892857Y-100785714D01*
X103035714Y-100785714D01*
X103130952Y-100833333D01*
X103178571Y-100880952D01*
X103226190Y-100976190D01*
X103226190Y-101357142D01*
X103702380Y-100357142D02*
X102702380Y-100357142D01*
X103178571Y-100357142D02*
X103178571Y-99785714D01*
X103702380Y-99785714D02*
X102702380Y-99785714D01*
X103797619Y-99547619D02*
X103797619Y-98785714D01*
X103178571Y-98214285D02*
X103226190Y-98071428D01*
X103273809Y-98023809D01*
X103369047Y-97976190D01*
X103511904Y-97976190D01*
X103607142Y-98023809D01*
X103654761Y-98071428D01*
X103702380Y-98166666D01*
X103702380Y-98547619D01*
X102702380Y-98547619D01*
X102702380Y-98214285D01*
X102750000Y-98119047D01*
X102797619Y-98071428D01*
X102892857Y-98023809D01*
X102988095Y-98023809D01*
X103083333Y-98071428D01*
X103130952Y-98119047D01*
X103178571Y-98214285D01*
X103178571Y-98547619D01*
X103416666Y-97595238D02*
X103416666Y-97119047D01*
X103702380Y-97690476D02*
X102702380Y-97357142D01*
X103702380Y-97023809D01*
X102702380Y-96833333D02*
X102702380Y-96261904D01*
X103702380Y-96547619D02*
X102702380Y-96547619D01*
X107452380Y-104785714D02*
X108166666Y-104785714D01*
X108309523Y-104833333D01*
X108404761Y-104928571D01*
X108452380Y-105071428D01*
X108452380Y-105166666D01*
X108404761Y-104357142D02*
X108452380Y-104214285D01*
X108452380Y-103976190D01*
X108404761Y-103880952D01*
X108357142Y-103833333D01*
X108261904Y-103785714D01*
X108166666Y-103785714D01*
X108071428Y-103833333D01*
X108023809Y-103880952D01*
X107976190Y-103976190D01*
X107928571Y-104166666D01*
X107880952Y-104261904D01*
X107833333Y-104309523D01*
X107738095Y-104357142D01*
X107642857Y-104357142D01*
X107547619Y-104309523D01*
X107500000Y-104261904D01*
X107452380Y-104166666D01*
X107452380Y-103928571D01*
X107500000Y-103785714D01*
X107452380Y-103500000D02*
X107452380Y-102928571D01*
X108452380Y-103214285D02*
X107452380Y-103214285D01*
X108547619Y-102833333D02*
X108547619Y-102071428D01*
X108452380Y-101833333D02*
X107452380Y-101833333D01*
X107452380Y-101452380D01*
X107500000Y-101357142D01*
X107547619Y-101309523D01*
X107642857Y-101261904D01*
X107785714Y-101261904D01*
X107880952Y-101309523D01*
X107928571Y-101357142D01*
X107976190Y-101452380D01*
X107976190Y-101833333D01*
X108452380Y-100833333D02*
X107452380Y-100833333D01*
X107928571Y-100833333D02*
X107928571Y-100261904D01*
X108452380Y-100261904D02*
X107452380Y-100261904D01*
X108547619Y-100023809D02*
X108547619Y-99261904D01*
X107928571Y-98690476D02*
X107976190Y-98547619D01*
X108023809Y-98500000D01*
X108119047Y-98452380D01*
X108261904Y-98452380D01*
X108357142Y-98500000D01*
X108404761Y-98547619D01*
X108452380Y-98642857D01*
X108452380Y-99023809D01*
X107452380Y-99023809D01*
X107452380Y-98690476D01*
X107500000Y-98595238D01*
X107547619Y-98547619D01*
X107642857Y-98500000D01*
X107738095Y-98500000D01*
X107833333Y-98547619D01*
X107880952Y-98595238D01*
X107928571Y-98690476D01*
X107928571Y-99023809D01*
X108166666Y-98071428D02*
X108166666Y-97595238D01*
X108452380Y-98166666D02*
X107452380Y-97833333D01*
X108452380Y-97500000D01*
X107452380Y-97309523D02*
X107452380Y-96738095D01*
X108452380Y-97023809D02*
X107452380Y-97023809D01*
X108452380Y-95880952D02*
X108452380Y-96452380D01*
X108452380Y-96166666D02*
X107452380Y-96166666D01*
X107595238Y-96261904D01*
X107690476Y-96357142D01*
X107738095Y-96452380D01*
%TO.C,Q30*%
D14*
X134847738Y-98362857D02*
X134817500Y-98423333D01*
X134757023Y-98483809D01*
X134666309Y-98574523D01*
X134636071Y-98635000D01*
X134636071Y-98695476D01*
X134787261Y-98665238D02*
X134757023Y-98725714D01*
X134696547Y-98786190D01*
X134575595Y-98816428D01*
X134363928Y-98816428D01*
X134242976Y-98786190D01*
X134182500Y-98725714D01*
X134152261Y-98665238D01*
X134152261Y-98544285D01*
X134182500Y-98483809D01*
X134242976Y-98423333D01*
X134363928Y-98393095D01*
X134575595Y-98393095D01*
X134696547Y-98423333D01*
X134757023Y-98483809D01*
X134787261Y-98544285D01*
X134787261Y-98665238D01*
X134152261Y-98181428D02*
X134152261Y-97788333D01*
X134394166Y-98000000D01*
X134394166Y-97909285D01*
X134424404Y-97848809D01*
X134454642Y-97818571D01*
X134515119Y-97788333D01*
X134666309Y-97788333D01*
X134726785Y-97818571D01*
X134757023Y-97848809D01*
X134787261Y-97909285D01*
X134787261Y-98090714D01*
X134757023Y-98151190D01*
X134726785Y-98181428D01*
X134152261Y-97395238D02*
X134152261Y-97334761D01*
X134182500Y-97274285D01*
X134212738Y-97244047D01*
X134273214Y-97213809D01*
X134394166Y-97183571D01*
X134545357Y-97183571D01*
X134666309Y-97213809D01*
X134726785Y-97244047D01*
X134757023Y-97274285D01*
X134787261Y-97334761D01*
X134787261Y-97395238D01*
X134757023Y-97455714D01*
X134726785Y-97485952D01*
X134666309Y-97516190D01*
X134545357Y-97546428D01*
X134394166Y-97546428D01*
X134273214Y-97516190D01*
X134212738Y-97485952D01*
X134182500Y-97455714D01*
X134152261Y-97395238D01*
%TO.C,Q31*%
X134847738Y-102862857D02*
X134817500Y-102923333D01*
X134757023Y-102983809D01*
X134666309Y-103074523D01*
X134636071Y-103135000D01*
X134636071Y-103195476D01*
X134787261Y-103165238D02*
X134757023Y-103225714D01*
X134696547Y-103286190D01*
X134575595Y-103316428D01*
X134363928Y-103316428D01*
X134242976Y-103286190D01*
X134182500Y-103225714D01*
X134152261Y-103165238D01*
X134152261Y-103044285D01*
X134182500Y-102983809D01*
X134242976Y-102923333D01*
X134363928Y-102893095D01*
X134575595Y-102893095D01*
X134696547Y-102923333D01*
X134757023Y-102983809D01*
X134787261Y-103044285D01*
X134787261Y-103165238D01*
X134152261Y-102681428D02*
X134152261Y-102288333D01*
X134394166Y-102500000D01*
X134394166Y-102409285D01*
X134424404Y-102348809D01*
X134454642Y-102318571D01*
X134515119Y-102288333D01*
X134666309Y-102288333D01*
X134726785Y-102318571D01*
X134757023Y-102348809D01*
X134787261Y-102409285D01*
X134787261Y-102590714D01*
X134757023Y-102651190D01*
X134726785Y-102681428D01*
X134787261Y-101683571D02*
X134787261Y-102046428D01*
X134787261Y-101865000D02*
X134152261Y-101865000D01*
X134242976Y-101925476D01*
X134303452Y-101985952D01*
X134333690Y-102046428D01*
%TO.C,R1*%
D15*
X158246190Y-99183333D02*
X158008095Y-99350000D01*
X158246190Y-99469047D02*
X157746190Y-99469047D01*
X157746190Y-99278571D01*
X157770000Y-99230952D01*
X157793809Y-99207142D01*
X157841428Y-99183333D01*
X157912857Y-99183333D01*
X157960476Y-99207142D01*
X157984285Y-99230952D01*
X158008095Y-99278571D01*
X158008095Y-99469047D01*
X158246190Y-98707142D02*
X158246190Y-98992857D01*
X158246190Y-98850000D02*
X157746190Y-98850000D01*
X157817619Y-98897619D01*
X157865238Y-98945238D01*
X157889047Y-98992857D01*
%TO.C,R2*%
X155706190Y-99183333D02*
X155468095Y-99350000D01*
X155706190Y-99469047D02*
X155206190Y-99469047D01*
X155206190Y-99278571D01*
X155230000Y-99230952D01*
X155253809Y-99207142D01*
X155301428Y-99183333D01*
X155372857Y-99183333D01*
X155420476Y-99207142D01*
X155444285Y-99230952D01*
X155468095Y-99278571D01*
X155468095Y-99469047D01*
X155253809Y-98992857D02*
X155230000Y-98969047D01*
X155206190Y-98921428D01*
X155206190Y-98802380D01*
X155230000Y-98754761D01*
X155253809Y-98730952D01*
X155301428Y-98707142D01*
X155349047Y-98707142D01*
X155420476Y-98730952D01*
X155706190Y-99016666D01*
X155706190Y-98707142D01*
%TO.C,R3*%
X153166190Y-99183333D02*
X152928095Y-99350000D01*
X153166190Y-99469047D02*
X152666190Y-99469047D01*
X152666190Y-99278571D01*
X152690000Y-99230952D01*
X152713809Y-99207142D01*
X152761428Y-99183333D01*
X152832857Y-99183333D01*
X152880476Y-99207142D01*
X152904285Y-99230952D01*
X152928095Y-99278571D01*
X152928095Y-99469047D01*
X152666190Y-99016666D02*
X152666190Y-98707142D01*
X152856666Y-98873809D01*
X152856666Y-98802380D01*
X152880476Y-98754761D01*
X152904285Y-98730952D01*
X152951904Y-98707142D01*
X153070952Y-98707142D01*
X153118571Y-98730952D01*
X153142380Y-98754761D01*
X153166190Y-98802380D01*
X153166190Y-98945238D01*
X153142380Y-98992857D01*
X153118571Y-99016666D01*
%TO.C,R4*%
D11*
X160722380Y-94352380D02*
X160722380Y-93733333D01*
X161103333Y-94066666D01*
X161103333Y-93923809D01*
X161150952Y-93828571D01*
X161198571Y-93780952D01*
X161293809Y-93733333D01*
X161531904Y-93733333D01*
X161627142Y-93780952D01*
X161674761Y-93828571D01*
X161722380Y-93923809D01*
X161722380Y-94209523D01*
X161674761Y-94304761D01*
X161627142Y-94352380D01*
X161627142Y-93304761D02*
X161674761Y-93257142D01*
X161722380Y-93304761D01*
X161674761Y-93352380D01*
X161627142Y-93304761D01*
X161722380Y-93304761D01*
X160722380Y-92923809D02*
X160722380Y-92304761D01*
X161103333Y-92638095D01*
X161103333Y-92495238D01*
X161150952Y-92400000D01*
X161198571Y-92352380D01*
X161293809Y-92304761D01*
X161531904Y-92304761D01*
X161627142Y-92352380D01*
X161674761Y-92400000D01*
X161722380Y-92495238D01*
X161722380Y-92780952D01*
X161674761Y-92876190D01*
X161627142Y-92923809D01*
X161722380Y-91876190D02*
X160722380Y-91876190D01*
X161341428Y-91780952D02*
X161722380Y-91495238D01*
X161055714Y-91495238D02*
X161436666Y-91876190D01*
D13*
X162880952Y-92966666D02*
X162690476Y-93100000D01*
X162880952Y-93195238D02*
X162480952Y-93195238D01*
X162480952Y-93042857D01*
X162500000Y-93004761D01*
X162519047Y-92985714D01*
X162557142Y-92966666D01*
X162614285Y-92966666D01*
X162652380Y-92985714D01*
X162671428Y-93004761D01*
X162690476Y-93042857D01*
X162690476Y-93195238D01*
X162614285Y-92623809D02*
X162880952Y-92623809D01*
X162461904Y-92719047D02*
X162747619Y-92814285D01*
X162747619Y-92566666D01*
%TO.C,R5*%
D11*
X134904761Y-84522380D02*
X134333333Y-84522380D01*
X134619047Y-84522380D02*
X134619047Y-83522380D01*
X134523809Y-83665238D01*
X134428571Y-83760476D01*
X134333333Y-83808095D01*
X135523809Y-83522380D02*
X135619047Y-83522380D01*
X135714285Y-83570000D01*
X135761904Y-83617619D01*
X135809523Y-83712857D01*
X135857142Y-83903333D01*
X135857142Y-84141428D01*
X135809523Y-84331904D01*
X135761904Y-84427142D01*
X135714285Y-84474761D01*
X135619047Y-84522380D01*
X135523809Y-84522380D01*
X135428571Y-84474761D01*
X135380952Y-84427142D01*
X135333333Y-84331904D01*
X135285714Y-84141428D01*
X135285714Y-83903333D01*
X135333333Y-83712857D01*
X135380952Y-83617619D01*
X135428571Y-83570000D01*
X135523809Y-83522380D01*
X136285714Y-84522380D02*
X136285714Y-83522380D01*
X136380952Y-84141428D02*
X136666666Y-84522380D01*
X136666666Y-83855714D02*
X136285714Y-84236666D01*
D13*
X135433333Y-85680952D02*
X135300000Y-85490476D01*
X135204761Y-85680952D02*
X135204761Y-85280952D01*
X135357142Y-85280952D01*
X135395238Y-85300000D01*
X135414285Y-85319047D01*
X135433333Y-85357142D01*
X135433333Y-85414285D01*
X135414285Y-85452380D01*
X135395238Y-85471428D01*
X135357142Y-85490476D01*
X135204761Y-85490476D01*
X135795238Y-85280952D02*
X135604761Y-85280952D01*
X135585714Y-85471428D01*
X135604761Y-85452380D01*
X135642857Y-85433333D01*
X135738095Y-85433333D01*
X135776190Y-85452380D01*
X135795238Y-85471428D01*
X135814285Y-85509523D01*
X135814285Y-85604761D01*
X135795238Y-85642857D01*
X135776190Y-85661904D01*
X135738095Y-85680952D01*
X135642857Y-85680952D01*
X135604761Y-85661904D01*
X135585714Y-85642857D01*
%TO.C,R6*%
D11*
X140022380Y-82095238D02*
X140022380Y-82666666D01*
X140022380Y-82380952D02*
X139022380Y-82380952D01*
X139165238Y-82476190D01*
X139260476Y-82571428D01*
X139308095Y-82666666D01*
X139022380Y-81476190D02*
X139022380Y-81380952D01*
X139070000Y-81285714D01*
X139117619Y-81238095D01*
X139212857Y-81190476D01*
X139403333Y-81142857D01*
X139641428Y-81142857D01*
X139831904Y-81190476D01*
X139927142Y-81238095D01*
X139974761Y-81285714D01*
X140022380Y-81380952D01*
X140022380Y-81476190D01*
X139974761Y-81571428D01*
X139927142Y-81619047D01*
X139831904Y-81666666D01*
X139641428Y-81714285D01*
X139403333Y-81714285D01*
X139212857Y-81666666D01*
X139117619Y-81619047D01*
X139070000Y-81571428D01*
X139022380Y-81476190D01*
X140022380Y-80714285D02*
X139022380Y-80714285D01*
X139641428Y-80619047D02*
X140022380Y-80333333D01*
X139355714Y-80333333D02*
X139736666Y-80714285D01*
D13*
X141180952Y-81566666D02*
X140990476Y-81700000D01*
X141180952Y-81795238D02*
X140780952Y-81795238D01*
X140780952Y-81642857D01*
X140800000Y-81604761D01*
X140819047Y-81585714D01*
X140857142Y-81566666D01*
X140914285Y-81566666D01*
X140952380Y-81585714D01*
X140971428Y-81604761D01*
X140990476Y-81642857D01*
X140990476Y-81795238D01*
X140780952Y-81223809D02*
X140780952Y-81300000D01*
X140800000Y-81338095D01*
X140819047Y-81357142D01*
X140876190Y-81395238D01*
X140952380Y-81414285D01*
X141104761Y-81414285D01*
X141142857Y-81395238D01*
X141161904Y-81376190D01*
X141180952Y-81338095D01*
X141180952Y-81261904D01*
X141161904Y-81223809D01*
X141142857Y-81204761D01*
X141104761Y-81185714D01*
X141009523Y-81185714D01*
X140971428Y-81204761D01*
X140952380Y-81223809D01*
X140933333Y-81261904D01*
X140933333Y-81338095D01*
X140952380Y-81376190D01*
X140971428Y-81395238D01*
X141009523Y-81414285D01*
%TO.C,R7*%
D11*
X144882380Y-82095238D02*
X144882380Y-82666666D01*
X144882380Y-82380952D02*
X143882380Y-82380952D01*
X144025238Y-82476190D01*
X144120476Y-82571428D01*
X144168095Y-82666666D01*
X143882380Y-81476190D02*
X143882380Y-81380952D01*
X143930000Y-81285714D01*
X143977619Y-81238095D01*
X144072857Y-81190476D01*
X144263333Y-81142857D01*
X144501428Y-81142857D01*
X144691904Y-81190476D01*
X144787142Y-81238095D01*
X144834761Y-81285714D01*
X144882380Y-81380952D01*
X144882380Y-81476190D01*
X144834761Y-81571428D01*
X144787142Y-81619047D01*
X144691904Y-81666666D01*
X144501428Y-81714285D01*
X144263333Y-81714285D01*
X144072857Y-81666666D01*
X143977619Y-81619047D01*
X143930000Y-81571428D01*
X143882380Y-81476190D01*
X144882380Y-80714285D02*
X143882380Y-80714285D01*
X144501428Y-80619047D02*
X144882380Y-80333333D01*
X144215714Y-80333333D02*
X144596666Y-80714285D01*
D13*
X143180952Y-81566666D02*
X142990476Y-81700000D01*
X143180952Y-81795238D02*
X142780952Y-81795238D01*
X142780952Y-81642857D01*
X142800000Y-81604761D01*
X142819047Y-81585714D01*
X142857142Y-81566666D01*
X142914285Y-81566666D01*
X142952380Y-81585714D01*
X142971428Y-81604761D01*
X142990476Y-81642857D01*
X142990476Y-81795238D01*
X142780952Y-81433333D02*
X142780952Y-81166666D01*
X143180952Y-81338095D01*
%TO.C,R20*%
D11*
X190507619Y-97882380D02*
X191126666Y-97882380D01*
X190793333Y-98263333D01*
X190936190Y-98263333D01*
X191031428Y-98310952D01*
X191079047Y-98358571D01*
X191126666Y-98453809D01*
X191126666Y-98691904D01*
X191079047Y-98787142D01*
X191031428Y-98834761D01*
X190936190Y-98882380D01*
X190650476Y-98882380D01*
X190555238Y-98834761D01*
X190507619Y-98787142D01*
X191555238Y-98787142D02*
X191602857Y-98834761D01*
X191555238Y-98882380D01*
X191507619Y-98834761D01*
X191555238Y-98787142D01*
X191555238Y-98882380D01*
X191936190Y-97882380D02*
X192555238Y-97882380D01*
X192221904Y-98263333D01*
X192364761Y-98263333D01*
X192460000Y-98310952D01*
X192507619Y-98358571D01*
X192555238Y-98453809D01*
X192555238Y-98691904D01*
X192507619Y-98787142D01*
X192460000Y-98834761D01*
X192364761Y-98882380D01*
X192079047Y-98882380D01*
X191983809Y-98834761D01*
X191936190Y-98787142D01*
X192983809Y-98882380D02*
X192983809Y-97882380D01*
X193079047Y-98501428D02*
X193364761Y-98882380D01*
X193364761Y-98215714D02*
X192983809Y-98596666D01*
D13*
X191702857Y-97180952D02*
X191569523Y-96990476D01*
X191474285Y-97180952D02*
X191474285Y-96780952D01*
X191626666Y-96780952D01*
X191664761Y-96800000D01*
X191683809Y-96819047D01*
X191702857Y-96857142D01*
X191702857Y-96914285D01*
X191683809Y-96952380D01*
X191664761Y-96971428D01*
X191626666Y-96990476D01*
X191474285Y-96990476D01*
X191855238Y-96819047D02*
X191874285Y-96800000D01*
X191912380Y-96780952D01*
X192007619Y-96780952D01*
X192045714Y-96800000D01*
X192064761Y-96819047D01*
X192083809Y-96857142D01*
X192083809Y-96895238D01*
X192064761Y-96952380D01*
X191836190Y-97180952D01*
X192083809Y-97180952D01*
X192331428Y-96780952D02*
X192369523Y-96780952D01*
X192407619Y-96800000D01*
X192426666Y-96819047D01*
X192445714Y-96857142D01*
X192464761Y-96933333D01*
X192464761Y-97028571D01*
X192445714Y-97104761D01*
X192426666Y-97142857D01*
X192407619Y-97161904D01*
X192369523Y-97180952D01*
X192331428Y-97180952D01*
X192293333Y-97161904D01*
X192274285Y-97142857D01*
X192255238Y-97104761D01*
X192236190Y-97028571D01*
X192236190Y-96933333D01*
X192255238Y-96857142D01*
X192274285Y-96819047D01*
X192293333Y-96800000D01*
X192331428Y-96780952D01*
%TO.C,R30*%
D11*
X140382380Y-98595238D02*
X140382380Y-99166666D01*
X140382380Y-98880952D02*
X139382380Y-98880952D01*
X139525238Y-98976190D01*
X139620476Y-99071428D01*
X139668095Y-99166666D01*
X139382380Y-97976190D02*
X139382380Y-97880952D01*
X139430000Y-97785714D01*
X139477619Y-97738095D01*
X139572857Y-97690476D01*
X139763333Y-97642857D01*
X140001428Y-97642857D01*
X140191904Y-97690476D01*
X140287142Y-97738095D01*
X140334761Y-97785714D01*
X140382380Y-97880952D01*
X140382380Y-97976190D01*
X140334761Y-98071428D01*
X140287142Y-98119047D01*
X140191904Y-98166666D01*
X140001428Y-98214285D01*
X139763333Y-98214285D01*
X139572857Y-98166666D01*
X139477619Y-98119047D01*
X139430000Y-98071428D01*
X139382380Y-97976190D01*
X140382380Y-97214285D02*
X139382380Y-97214285D01*
X140001428Y-97119047D02*
X140382380Y-96833333D01*
X139715714Y-96833333D02*
X140096666Y-97214285D01*
D13*
X138680952Y-98257142D02*
X138490476Y-98390476D01*
X138680952Y-98485714D02*
X138280952Y-98485714D01*
X138280952Y-98333333D01*
X138300000Y-98295238D01*
X138319047Y-98276190D01*
X138357142Y-98257142D01*
X138414285Y-98257142D01*
X138452380Y-98276190D01*
X138471428Y-98295238D01*
X138490476Y-98333333D01*
X138490476Y-98485714D01*
X138280952Y-98123809D02*
X138280952Y-97876190D01*
X138433333Y-98009523D01*
X138433333Y-97952380D01*
X138452380Y-97914285D01*
X138471428Y-97895238D01*
X138509523Y-97876190D01*
X138604761Y-97876190D01*
X138642857Y-97895238D01*
X138661904Y-97914285D01*
X138680952Y-97952380D01*
X138680952Y-98066666D01*
X138661904Y-98104761D01*
X138642857Y-98123809D01*
X138280952Y-97628571D02*
X138280952Y-97590476D01*
X138300000Y-97552380D01*
X138319047Y-97533333D01*
X138357142Y-97514285D01*
X138433333Y-97495238D01*
X138528571Y-97495238D01*
X138604761Y-97514285D01*
X138642857Y-97533333D01*
X138661904Y-97552380D01*
X138680952Y-97590476D01*
X138680952Y-97628571D01*
X138661904Y-97666666D01*
X138642857Y-97685714D01*
X138604761Y-97704761D01*
X138528571Y-97723809D01*
X138433333Y-97723809D01*
X138357142Y-97704761D01*
X138319047Y-97685714D01*
X138300000Y-97666666D01*
X138280952Y-97628571D01*
%TO.C,R31*%
D11*
X132382380Y-98595238D02*
X132382380Y-99166666D01*
X132382380Y-98880952D02*
X131382380Y-98880952D01*
X131525238Y-98976190D01*
X131620476Y-99071428D01*
X131668095Y-99166666D01*
X131382380Y-97976190D02*
X131382380Y-97880952D01*
X131430000Y-97785714D01*
X131477619Y-97738095D01*
X131572857Y-97690476D01*
X131763333Y-97642857D01*
X132001428Y-97642857D01*
X132191904Y-97690476D01*
X132287142Y-97738095D01*
X132334761Y-97785714D01*
X132382380Y-97880952D01*
X132382380Y-97976190D01*
X132334761Y-98071428D01*
X132287142Y-98119047D01*
X132191904Y-98166666D01*
X132001428Y-98214285D01*
X131763333Y-98214285D01*
X131572857Y-98166666D01*
X131477619Y-98119047D01*
X131430000Y-98071428D01*
X131382380Y-97976190D01*
X132382380Y-97214285D02*
X131382380Y-97214285D01*
X132001428Y-97119047D02*
X132382380Y-96833333D01*
X131715714Y-96833333D02*
X132096666Y-97214285D01*
D13*
X130680952Y-98257142D02*
X130490476Y-98390476D01*
X130680952Y-98485714D02*
X130280952Y-98485714D01*
X130280952Y-98333333D01*
X130300000Y-98295238D01*
X130319047Y-98276190D01*
X130357142Y-98257142D01*
X130414285Y-98257142D01*
X130452380Y-98276190D01*
X130471428Y-98295238D01*
X130490476Y-98333333D01*
X130490476Y-98485714D01*
X130280952Y-98123809D02*
X130280952Y-97876190D01*
X130433333Y-98009523D01*
X130433333Y-97952380D01*
X130452380Y-97914285D01*
X130471428Y-97895238D01*
X130509523Y-97876190D01*
X130604761Y-97876190D01*
X130642857Y-97895238D01*
X130661904Y-97914285D01*
X130680952Y-97952380D01*
X130680952Y-98066666D01*
X130661904Y-98104761D01*
X130642857Y-98123809D01*
X130680952Y-97495238D02*
X130680952Y-97723809D01*
X130680952Y-97609523D02*
X130280952Y-97609523D01*
X130338095Y-97647619D01*
X130376190Y-97685714D01*
X130395238Y-97723809D01*
%TO.C,R32*%
D11*
X140382380Y-103095238D02*
X140382380Y-103666666D01*
X140382380Y-103380952D02*
X139382380Y-103380952D01*
X139525238Y-103476190D01*
X139620476Y-103571428D01*
X139668095Y-103666666D01*
X139382380Y-102476190D02*
X139382380Y-102380952D01*
X139430000Y-102285714D01*
X139477619Y-102238095D01*
X139572857Y-102190476D01*
X139763333Y-102142857D01*
X140001428Y-102142857D01*
X140191904Y-102190476D01*
X140287142Y-102238095D01*
X140334761Y-102285714D01*
X140382380Y-102380952D01*
X140382380Y-102476190D01*
X140334761Y-102571428D01*
X140287142Y-102619047D01*
X140191904Y-102666666D01*
X140001428Y-102714285D01*
X139763333Y-102714285D01*
X139572857Y-102666666D01*
X139477619Y-102619047D01*
X139430000Y-102571428D01*
X139382380Y-102476190D01*
X140382380Y-101714285D02*
X139382380Y-101714285D01*
X140001428Y-101619047D02*
X140382380Y-101333333D01*
X139715714Y-101333333D02*
X140096666Y-101714285D01*
D13*
X138680952Y-102757142D02*
X138490476Y-102890476D01*
X138680952Y-102985714D02*
X138280952Y-102985714D01*
X138280952Y-102833333D01*
X138300000Y-102795238D01*
X138319047Y-102776190D01*
X138357142Y-102757142D01*
X138414285Y-102757142D01*
X138452380Y-102776190D01*
X138471428Y-102795238D01*
X138490476Y-102833333D01*
X138490476Y-102985714D01*
X138280952Y-102623809D02*
X138280952Y-102376190D01*
X138433333Y-102509523D01*
X138433333Y-102452380D01*
X138452380Y-102414285D01*
X138471428Y-102395238D01*
X138509523Y-102376190D01*
X138604761Y-102376190D01*
X138642857Y-102395238D01*
X138661904Y-102414285D01*
X138680952Y-102452380D01*
X138680952Y-102566666D01*
X138661904Y-102604761D01*
X138642857Y-102623809D01*
X138319047Y-102223809D02*
X138300000Y-102204761D01*
X138280952Y-102166666D01*
X138280952Y-102071428D01*
X138300000Y-102033333D01*
X138319047Y-102014285D01*
X138357142Y-101995238D01*
X138395238Y-101995238D01*
X138452380Y-102014285D01*
X138680952Y-102242857D01*
X138680952Y-101995238D01*
%TO.C,R33*%
D11*
X132382380Y-103095238D02*
X132382380Y-103666666D01*
X132382380Y-103380952D02*
X131382380Y-103380952D01*
X131525238Y-103476190D01*
X131620476Y-103571428D01*
X131668095Y-103666666D01*
X131382380Y-102476190D02*
X131382380Y-102380952D01*
X131430000Y-102285714D01*
X131477619Y-102238095D01*
X131572857Y-102190476D01*
X131763333Y-102142857D01*
X132001428Y-102142857D01*
X132191904Y-102190476D01*
X132287142Y-102238095D01*
X132334761Y-102285714D01*
X132382380Y-102380952D01*
X132382380Y-102476190D01*
X132334761Y-102571428D01*
X132287142Y-102619047D01*
X132191904Y-102666666D01*
X132001428Y-102714285D01*
X131763333Y-102714285D01*
X131572857Y-102666666D01*
X131477619Y-102619047D01*
X131430000Y-102571428D01*
X131382380Y-102476190D01*
X132382380Y-101714285D02*
X131382380Y-101714285D01*
X132001428Y-101619047D02*
X132382380Y-101333333D01*
X131715714Y-101333333D02*
X132096666Y-101714285D01*
D13*
X130680952Y-102757142D02*
X130490476Y-102890476D01*
X130680952Y-102985714D02*
X130280952Y-102985714D01*
X130280952Y-102833333D01*
X130300000Y-102795238D01*
X130319047Y-102776190D01*
X130357142Y-102757142D01*
X130414285Y-102757142D01*
X130452380Y-102776190D01*
X130471428Y-102795238D01*
X130490476Y-102833333D01*
X130490476Y-102985714D01*
X130280952Y-102623809D02*
X130280952Y-102376190D01*
X130433333Y-102509523D01*
X130433333Y-102452380D01*
X130452380Y-102414285D01*
X130471428Y-102395238D01*
X130509523Y-102376190D01*
X130604761Y-102376190D01*
X130642857Y-102395238D01*
X130661904Y-102414285D01*
X130680952Y-102452380D01*
X130680952Y-102566666D01*
X130661904Y-102604761D01*
X130642857Y-102623809D01*
X130280952Y-102242857D02*
X130280952Y-101995238D01*
X130433333Y-102128571D01*
X130433333Y-102071428D01*
X130452380Y-102033333D01*
X130471428Y-102014285D01*
X130509523Y-101995238D01*
X130604761Y-101995238D01*
X130642857Y-102014285D01*
X130661904Y-102033333D01*
X130680952Y-102071428D01*
X130680952Y-102185714D01*
X130661904Y-102223809D01*
X130642857Y-102242857D01*
%TO.C,SW1*%
D11*
X154666666Y-106428571D02*
X154809523Y-106476190D01*
X154857142Y-106523809D01*
X154904761Y-106619047D01*
X154904761Y-106761904D01*
X154857142Y-106857142D01*
X154809523Y-106904761D01*
X154714285Y-106952380D01*
X154333333Y-106952380D01*
X154333333Y-105952380D01*
X154666666Y-105952380D01*
X154761904Y-106000000D01*
X154809523Y-106047619D01*
X154857142Y-106142857D01*
X154857142Y-106238095D01*
X154809523Y-106333333D01*
X154761904Y-106380952D01*
X154666666Y-106428571D01*
X154333333Y-106428571D01*
X155190476Y-105952380D02*
X155761904Y-105952380D01*
X155476190Y-106952380D02*
X155476190Y-105952380D01*
X156095238Y-106952380D02*
X156095238Y-105952380D01*
X156666666Y-106952380D01*
X156666666Y-105952380D01*
X154166666Y-101304761D02*
X154309523Y-101352380D01*
X154547619Y-101352380D01*
X154642857Y-101304761D01*
X154690476Y-101257142D01*
X154738095Y-101161904D01*
X154738095Y-101066666D01*
X154690476Y-100971428D01*
X154642857Y-100923809D01*
X154547619Y-100876190D01*
X154357142Y-100828571D01*
X154261904Y-100780952D01*
X154214285Y-100733333D01*
X154166666Y-100638095D01*
X154166666Y-100542857D01*
X154214285Y-100447619D01*
X154261904Y-100400000D01*
X154357142Y-100352380D01*
X154595238Y-100352380D01*
X154738095Y-100400000D01*
X155071428Y-100352380D02*
X155309523Y-101352380D01*
X155500000Y-100638095D01*
X155690476Y-101352380D01*
X155928571Y-100352380D01*
X156833333Y-101352380D02*
X156261904Y-101352380D01*
X156547619Y-101352380D02*
X156547619Y-100352380D01*
X156452380Y-100495238D01*
X156357142Y-100590476D01*
X156261904Y-100638095D01*
%TO.C,U1*%
D15*
X135226190Y-75880952D02*
X135630952Y-75880952D01*
X135678571Y-75857142D01*
X135702380Y-75833333D01*
X135726190Y-75785714D01*
X135726190Y-75690476D01*
X135702380Y-75642857D01*
X135678571Y-75619047D01*
X135630952Y-75595238D01*
X135226190Y-75595238D01*
X135726190Y-75095238D02*
X135726190Y-75380952D01*
X135726190Y-75238095D02*
X135226190Y-75238095D01*
X135297619Y-75285714D01*
X135345238Y-75333333D01*
X135369047Y-75380952D01*
%TO.C,U2*%
D16*
X153582714Y-80780571D02*
X154199571Y-80780571D01*
X154272142Y-80744285D01*
X154308428Y-80708000D01*
X154344714Y-80635428D01*
X154344714Y-80490285D01*
X154308428Y-80417714D01*
X154272142Y-80381428D01*
X154199571Y-80345142D01*
X153582714Y-80345142D01*
X153655285Y-80018571D02*
X153619000Y-79982285D01*
X153582714Y-79909714D01*
X153582714Y-79728285D01*
X153619000Y-79655714D01*
X153655285Y-79619428D01*
X153727857Y-79583142D01*
X153800428Y-79583142D01*
X153909285Y-79619428D01*
X154344714Y-80054857D01*
X154344714Y-79583142D01*
%TO.C,U5*%
D15*
X135226190Y-82880952D02*
X135630952Y-82880952D01*
X135678571Y-82857142D01*
X135702380Y-82833333D01*
X135726190Y-82785714D01*
X135726190Y-82690476D01*
X135702380Y-82642857D01*
X135678571Y-82619047D01*
X135630952Y-82595238D01*
X135226190Y-82595238D01*
X135226190Y-82119047D02*
X135226190Y-82357142D01*
X135464285Y-82380952D01*
X135440476Y-82357142D01*
X135416666Y-82309523D01*
X135416666Y-82190476D01*
X135440476Y-82142857D01*
X135464285Y-82119047D01*
X135511904Y-82095238D01*
X135630952Y-82095238D01*
X135678571Y-82119047D01*
X135702380Y-82142857D01*
X135726190Y-82190476D01*
X135726190Y-82309523D01*
X135702380Y-82357142D01*
X135678571Y-82380952D01*
%TO.C,U10*%
D16*
X176542714Y-80943428D02*
X177159571Y-80943428D01*
X177232142Y-80907142D01*
X177268428Y-80870857D01*
X177304714Y-80798285D01*
X177304714Y-80653142D01*
X177268428Y-80580571D01*
X177232142Y-80544285D01*
X177159571Y-80508000D01*
X176542714Y-80508000D01*
X177304714Y-79746000D02*
X177304714Y-80181428D01*
X177304714Y-79963714D02*
X176542714Y-79963714D01*
X176651571Y-80036285D01*
X176724142Y-80108857D01*
X176760428Y-80181428D01*
X176542714Y-79274285D02*
X176542714Y-79201714D01*
X176579000Y-79129142D01*
X176615285Y-79092857D01*
X176687857Y-79056571D01*
X176833000Y-79020285D01*
X177014428Y-79020285D01*
X177159571Y-79056571D01*
X177232142Y-79092857D01*
X177268428Y-79129142D01*
X177304714Y-79201714D01*
X177304714Y-79274285D01*
X177268428Y-79346857D01*
X177232142Y-79383142D01*
X177159571Y-79419428D01*
X177014428Y-79455714D01*
X176833000Y-79455714D01*
X176687857Y-79419428D01*
X176615285Y-79383142D01*
X176579000Y-79346857D01*
X176542714Y-79274285D01*
%TO.C,U11*%
D15*
X176686190Y-88619047D02*
X177090952Y-88619047D01*
X177138571Y-88595238D01*
X177162380Y-88571428D01*
X177186190Y-88523809D01*
X177186190Y-88428571D01*
X177162380Y-88380952D01*
X177138571Y-88357142D01*
X177090952Y-88333333D01*
X176686190Y-88333333D01*
X177186190Y-87833333D02*
X177186190Y-88119047D01*
X177186190Y-87976190D02*
X176686190Y-87976190D01*
X176757619Y-88023809D01*
X176805238Y-88071428D01*
X176829047Y-88119047D01*
X177186190Y-87357142D02*
X177186190Y-87642857D01*
X177186190Y-87500000D02*
X176686190Y-87500000D01*
X176757619Y-87547619D01*
X176805238Y-87595238D01*
X176829047Y-87642857D01*
%TO.C,U12*%
X176686190Y-94119047D02*
X177090952Y-94119047D01*
X177138571Y-94095238D01*
X177162380Y-94071428D01*
X177186190Y-94023809D01*
X177186190Y-93928571D01*
X177162380Y-93880952D01*
X177138571Y-93857142D01*
X177090952Y-93833333D01*
X176686190Y-93833333D01*
X177186190Y-93333333D02*
X177186190Y-93619047D01*
X177186190Y-93476190D02*
X176686190Y-93476190D01*
X176757619Y-93523809D01*
X176805238Y-93571428D01*
X176829047Y-93619047D01*
X176733809Y-93142857D02*
X176710000Y-93119047D01*
X176686190Y-93071428D01*
X176686190Y-92952380D01*
X176710000Y-92904761D01*
X176733809Y-92880952D01*
X176781428Y-92857142D01*
X176829047Y-92857142D01*
X176900476Y-92880952D01*
X177186190Y-93166666D01*
X177186190Y-92857142D01*
%TO.C,U20*%
X176686190Y-100619047D02*
X177090952Y-100619047D01*
X177138571Y-100595238D01*
X177162380Y-100571428D01*
X177186190Y-100523809D01*
X177186190Y-100428571D01*
X177162380Y-100380952D01*
X177138571Y-100357142D01*
X177090952Y-100333333D01*
X176686190Y-100333333D01*
X176733809Y-100119047D02*
X176710000Y-100095238D01*
X176686190Y-100047619D01*
X176686190Y-99928571D01*
X176710000Y-99880952D01*
X176733809Y-99857142D01*
X176781428Y-99833333D01*
X176829047Y-99833333D01*
X176900476Y-99857142D01*
X177186190Y-100142857D01*
X177186190Y-99833333D01*
X176686190Y-99523809D02*
X176686190Y-99476190D01*
X176710000Y-99428571D01*
X176733809Y-99404761D01*
X176781428Y-99380952D01*
X176876666Y-99357142D01*
X176995714Y-99357142D01*
X177090952Y-99380952D01*
X177138571Y-99404761D01*
X177162380Y-99428571D01*
X177186190Y-99476190D01*
X177186190Y-99523809D01*
X177162380Y-99571428D01*
X177138571Y-99595238D01*
X177090952Y-99619047D01*
X176995714Y-99642857D01*
X176876666Y-99642857D01*
X176781428Y-99619047D01*
X176733809Y-99595238D01*
X176710000Y-99571428D01*
X176686190Y-99523809D01*
%TO.C,U30*%
D11*
X130952380Y-86452380D02*
X130952380Y-85452380D01*
X131523809Y-86452380D01*
X131523809Y-85452380D01*
X132476190Y-86452380D02*
X132000000Y-86452380D01*
X132000000Y-85452380D01*
X132761904Y-86404761D02*
X132904761Y-86452380D01*
X133142857Y-86452380D01*
X133238095Y-86404761D01*
X133285714Y-86357142D01*
X133333333Y-86261904D01*
X133333333Y-86166666D01*
X133285714Y-86071428D01*
X133238095Y-86023809D01*
X133142857Y-85976190D01*
X132952380Y-85928571D01*
X132857142Y-85880952D01*
X132809523Y-85833333D01*
X132761904Y-85738095D01*
X132761904Y-85642857D01*
X132809523Y-85547619D01*
X132857142Y-85500000D01*
X132952380Y-85452380D01*
X133190476Y-85452380D01*
X133333333Y-85500000D01*
X133666666Y-85452380D02*
X134333333Y-86452380D01*
X134333333Y-85452380D02*
X133666666Y-86452380D01*
X135142857Y-85785714D02*
X135142857Y-86452380D01*
X134904761Y-85404761D02*
X134666666Y-86119047D01*
X135285714Y-86119047D01*
X135571428Y-85452380D02*
X136190476Y-85452380D01*
X135857142Y-85833333D01*
X136000000Y-85833333D01*
X136095238Y-85880952D01*
X136142857Y-85928571D01*
X136190476Y-86023809D01*
X136190476Y-86261904D01*
X136142857Y-86357142D01*
X136095238Y-86404761D01*
X136000000Y-86452380D01*
X135714285Y-86452380D01*
X135619047Y-86404761D01*
X135571428Y-86357142D01*
X136523809Y-85452380D02*
X137190476Y-85452380D01*
X136761904Y-86452380D01*
X137476190Y-85452380D02*
X138095238Y-85452380D01*
X137761904Y-85833333D01*
X137904761Y-85833333D01*
X138000000Y-85880952D01*
X138047619Y-85928571D01*
X138095238Y-86023809D01*
X138095238Y-86261904D01*
X138047619Y-86357142D01*
X138000000Y-86404761D01*
X137904761Y-86452380D01*
X137619047Y-86452380D01*
X137523809Y-86404761D01*
X137476190Y-86357142D01*
X133261904Y-88952380D02*
X133261904Y-89761904D01*
X133309523Y-89857142D01*
X133357142Y-89904761D01*
X133452380Y-89952380D01*
X133642857Y-89952380D01*
X133738095Y-89904761D01*
X133785714Y-89857142D01*
X133833333Y-89761904D01*
X133833333Y-88952380D01*
X134214285Y-88952380D02*
X134833333Y-88952380D01*
X134500000Y-89333333D01*
X134642857Y-89333333D01*
X134738095Y-89380952D01*
X134785714Y-89428571D01*
X134833333Y-89523809D01*
X134833333Y-89761904D01*
X134785714Y-89857142D01*
X134738095Y-89904761D01*
X134642857Y-89952380D01*
X134357142Y-89952380D01*
X134261904Y-89904761D01*
X134214285Y-89857142D01*
X135452380Y-88952380D02*
X135547619Y-88952380D01*
X135642857Y-89000000D01*
X135690476Y-89047619D01*
X135738095Y-89142857D01*
X135785714Y-89333333D01*
X135785714Y-89571428D01*
X135738095Y-89761904D01*
X135690476Y-89857142D01*
X135642857Y-89904761D01*
X135547619Y-89952380D01*
X135452380Y-89952380D01*
X135357142Y-89904761D01*
X135309523Y-89857142D01*
X135261904Y-89761904D01*
X135214285Y-89571428D01*
X135214285Y-89333333D01*
X135261904Y-89142857D01*
X135309523Y-89047619D01*
X135357142Y-89000000D01*
X135452380Y-88952380D01*
%TO.C,C8*%
X146802380Y-75166666D02*
X146802380Y-75738095D01*
X146802380Y-75452380D02*
X145802380Y-75452380D01*
X145945238Y-75547619D01*
X146040476Y-75642857D01*
X146088095Y-75738095D01*
X146135714Y-74309523D02*
X146802380Y-74309523D01*
X146135714Y-74738095D02*
X146659523Y-74738095D01*
X146754761Y-74690476D01*
X146802380Y-74595238D01*
X146802380Y-74452380D01*
X146754761Y-74357142D01*
X146707142Y-74309523D01*
D12*
X148178571Y-75083333D02*
X148202380Y-75107142D01*
X148226190Y-75178571D01*
X148226190Y-75226190D01*
X148202380Y-75297619D01*
X148154761Y-75345238D01*
X148107142Y-75369047D01*
X148011904Y-75392857D01*
X147940476Y-75392857D01*
X147845238Y-75369047D01*
X147797619Y-75345238D01*
X147750000Y-75297619D01*
X147726190Y-75226190D01*
X147726190Y-75178571D01*
X147750000Y-75107142D01*
X147773809Y-75083333D01*
X147940476Y-74797619D02*
X147916666Y-74845238D01*
X147892857Y-74869047D01*
X147845238Y-74892857D01*
X147821428Y-74892857D01*
X147773809Y-74869047D01*
X147750000Y-74845238D01*
X147726190Y-74797619D01*
X147726190Y-74702380D01*
X147750000Y-74654761D01*
X147773809Y-74630952D01*
X147821428Y-74607142D01*
X147845238Y-74607142D01*
X147892857Y-74630952D01*
X147916666Y-74654761D01*
X147940476Y-74702380D01*
X147940476Y-74797619D01*
X147964285Y-74845238D01*
X147988095Y-74869047D01*
X148035714Y-74892857D01*
X148130952Y-74892857D01*
X148178571Y-74869047D01*
X148202380Y-74845238D01*
X148226190Y-74797619D01*
X148226190Y-74702380D01*
X148202380Y-74654761D01*
X148178571Y-74630952D01*
X148130952Y-74607142D01*
X148035714Y-74607142D01*
X147988095Y-74630952D01*
X147964285Y-74654761D01*
X147940476Y-74702380D01*
%TO.C,R8*%
D11*
X142022380Y-93071428D02*
X142022380Y-93642857D01*
X142022380Y-93357142D02*
X141022380Y-93357142D01*
X141165238Y-93452380D01*
X141260476Y-93547619D01*
X141308095Y-93642857D01*
X141022380Y-92452380D02*
X141022380Y-92357142D01*
X141070000Y-92261904D01*
X141117619Y-92214285D01*
X141212857Y-92166666D01*
X141403333Y-92119047D01*
X141641428Y-92119047D01*
X141831904Y-92166666D01*
X141927142Y-92214285D01*
X141974761Y-92261904D01*
X142022380Y-92357142D01*
X142022380Y-92452380D01*
X141974761Y-92547619D01*
X141927142Y-92595238D01*
X141831904Y-92642857D01*
X141641428Y-92690476D01*
X141403333Y-92690476D01*
X141212857Y-92642857D01*
X141117619Y-92595238D01*
X141070000Y-92547619D01*
X141022380Y-92452380D01*
X141022380Y-91500000D02*
X141022380Y-91404761D01*
X141070000Y-91309523D01*
X141117619Y-91261904D01*
X141212857Y-91214285D01*
X141403333Y-91166666D01*
X141641428Y-91166666D01*
X141831904Y-91214285D01*
X141927142Y-91261904D01*
X141974761Y-91309523D01*
X142022380Y-91404761D01*
X142022380Y-91500000D01*
X141974761Y-91595238D01*
X141927142Y-91642857D01*
X141831904Y-91690476D01*
X141641428Y-91738095D01*
X141403333Y-91738095D01*
X141212857Y-91690476D01*
X141117619Y-91642857D01*
X141070000Y-91595238D01*
X141022380Y-91500000D01*
X142022380Y-90738095D02*
X141022380Y-90738095D01*
X141641428Y-90642857D02*
X142022380Y-90357142D01*
X141355714Y-90357142D02*
X141736666Y-90738095D01*
D13*
X143180952Y-92066666D02*
X142990476Y-92200000D01*
X143180952Y-92295238D02*
X142780952Y-92295238D01*
X142780952Y-92142857D01*
X142800000Y-92104761D01*
X142819047Y-92085714D01*
X142857142Y-92066666D01*
X142914285Y-92066666D01*
X142952380Y-92085714D01*
X142971428Y-92104761D01*
X142990476Y-92142857D01*
X142990476Y-92295238D01*
X142952380Y-91838095D02*
X142933333Y-91876190D01*
X142914285Y-91895238D01*
X142876190Y-91914285D01*
X142857142Y-91914285D01*
X142819047Y-91895238D01*
X142800000Y-91876190D01*
X142780952Y-91838095D01*
X142780952Y-91761904D01*
X142800000Y-91723809D01*
X142819047Y-91704761D01*
X142857142Y-91685714D01*
X142876190Y-91685714D01*
X142914285Y-91704761D01*
X142933333Y-91723809D01*
X142952380Y-91761904D01*
X142952380Y-91838095D01*
X142971428Y-91876190D01*
X142990476Y-91895238D01*
X143028571Y-91914285D01*
X143104761Y-91914285D01*
X143142857Y-91895238D01*
X143161904Y-91876190D01*
X143180952Y-91838095D01*
X143180952Y-91761904D01*
X143161904Y-91723809D01*
X143142857Y-91704761D01*
X143104761Y-91685714D01*
X143028571Y-91685714D01*
X142990476Y-91704761D01*
X142971428Y-91723809D01*
X142952380Y-91761904D01*
%TO.C,R9*%
D11*
X146882380Y-93071428D02*
X146882380Y-93642857D01*
X146882380Y-93357142D02*
X145882380Y-93357142D01*
X146025238Y-93452380D01*
X146120476Y-93547619D01*
X146168095Y-93642857D01*
X145882380Y-92452380D02*
X145882380Y-92357142D01*
X145930000Y-92261904D01*
X145977619Y-92214285D01*
X146072857Y-92166666D01*
X146263333Y-92119047D01*
X146501428Y-92119047D01*
X146691904Y-92166666D01*
X146787142Y-92214285D01*
X146834761Y-92261904D01*
X146882380Y-92357142D01*
X146882380Y-92452380D01*
X146834761Y-92547619D01*
X146787142Y-92595238D01*
X146691904Y-92642857D01*
X146501428Y-92690476D01*
X146263333Y-92690476D01*
X146072857Y-92642857D01*
X145977619Y-92595238D01*
X145930000Y-92547619D01*
X145882380Y-92452380D01*
X145882380Y-91500000D02*
X145882380Y-91404761D01*
X145930000Y-91309523D01*
X145977619Y-91261904D01*
X146072857Y-91214285D01*
X146263333Y-91166666D01*
X146501428Y-91166666D01*
X146691904Y-91214285D01*
X146787142Y-91261904D01*
X146834761Y-91309523D01*
X146882380Y-91404761D01*
X146882380Y-91500000D01*
X146834761Y-91595238D01*
X146787142Y-91642857D01*
X146691904Y-91690476D01*
X146501428Y-91738095D01*
X146263333Y-91738095D01*
X146072857Y-91690476D01*
X145977619Y-91642857D01*
X145930000Y-91595238D01*
X145882380Y-91500000D01*
X146882380Y-90738095D02*
X145882380Y-90738095D01*
X146501428Y-90642857D02*
X146882380Y-90357142D01*
X146215714Y-90357142D02*
X146596666Y-90738095D01*
D13*
X145180952Y-92066666D02*
X144990476Y-92200000D01*
X145180952Y-92295238D02*
X144780952Y-92295238D01*
X144780952Y-92142857D01*
X144800000Y-92104761D01*
X144819047Y-92085714D01*
X144857142Y-92066666D01*
X144914285Y-92066666D01*
X144952380Y-92085714D01*
X144971428Y-92104761D01*
X144990476Y-92142857D01*
X144990476Y-92295238D01*
X145180952Y-91876190D02*
X145180952Y-91800000D01*
X145161904Y-91761904D01*
X145142857Y-91742857D01*
X145085714Y-91704761D01*
X145009523Y-91685714D01*
X144857142Y-91685714D01*
X144819047Y-91704761D01*
X144800000Y-91723809D01*
X144780952Y-91761904D01*
X144780952Y-91838095D01*
X144800000Y-91876190D01*
X144819047Y-91895238D01*
X144857142Y-91914285D01*
X144952380Y-91914285D01*
X144990476Y-91895238D01*
X145009523Y-91876190D01*
X145028571Y-91838095D01*
X145028571Y-91761904D01*
X145009523Y-91723809D01*
X144990476Y-91704761D01*
X144952380Y-91685714D01*
%TO.C,U6*%
D15*
X145619047Y-87226190D02*
X145619047Y-87630952D01*
X145642857Y-87678571D01*
X145666666Y-87702380D01*
X145714285Y-87726190D01*
X145809523Y-87726190D01*
X145857142Y-87702380D01*
X145880952Y-87678571D01*
X145904761Y-87630952D01*
X145904761Y-87226190D01*
X146357142Y-87226190D02*
X146261904Y-87226190D01*
X146214285Y-87250000D01*
X146190476Y-87273809D01*
X146142857Y-87345238D01*
X146119047Y-87440476D01*
X146119047Y-87630952D01*
X146142857Y-87678571D01*
X146166666Y-87702380D01*
X146214285Y-87726190D01*
X146309523Y-87726190D01*
X146357142Y-87702380D01*
X146380952Y-87678571D01*
X146404761Y-87630952D01*
X146404761Y-87511904D01*
X146380952Y-87464285D01*
X146357142Y-87440476D01*
X146309523Y-87416666D01*
X146214285Y-87416666D01*
X146166666Y-87440476D01*
X146142857Y-87464285D01*
X146119047Y-87511904D01*
%TD*%
M02*
